<svg width="1200" height="600" xmlns="http://www.w3.org/2000/svg" style="background: white;">
  <text x="600" y="30" text-anchor="middle" font-size="20" font-weight="bold" font-family="Arial, sans-serif">Zsh Plugin Manager Install Time Comparison</text>
  
  <!-- Grid lines -->
  <line x1="80" y1="480" x2="1080" y2="480" stroke="#e0e0e0" stroke-width="1"/>
  <text x="70" y="485" text-anchor="end" font-size="12" font-family="Arial, sans-serif">0</text>
  <line x1="80" y1="394" x2="1080" y2="394" stroke="#e0e0e0" stroke-width="1"/>
  <text x="70" y="399" text-anchor="end" font-size="12" font-family="Arial, sans-serif">6174</text>
  <line x1="80" y1="308" x2="1080" y2="308" stroke="#e0e0e0" stroke-width="1"/>
  <text x="70" y="313" text-anchor="end" font-size="12" font-family="Arial, sans-serif">12348</text>
  <line x1="80" y1="222" x2="1080" y2="222" stroke="#e0e0e0" stroke-width="1"/>
  <text x="70" y="227" text-anchor="end" font-size="12" font-family="Arial, sans-serif">18522</text>
  <line x1="80" y1="136" x2="1080" y2="136" stroke="#e0e0e0" stroke-width="1"/>
  <text x="70" y="141" text-anchor="end" font-size="12" font-family="Arial, sans-serif">24696</text>
  <line x1="80" y1="50" x2="1080" y2="50" stroke="#e0e0e0" stroke-width="1"/>
  <text x="70" y="55" text-anchor="end" font-size="12" font-family="Arial, sans-serif">30870</text>
  
  <!-- Axes -->
  <line x1="80" y1="50" x2="80" y2="480" stroke="black" stroke-width="2"/>
  <line x1="80" y1="480" x2="1080" y2="480" stroke="black" stroke-width="2"/>
  
  <!-- Y-axis label -->
  <text x="20" y="300" text-anchor="middle" font-size="14" font-family="Arial, sans-serif" transform="rotate(-90 20 300)">Time (ms)</text>
  <rect x="107.5" y="479.56617913393745" width="20" height="0.4338208660625476" fill="#FF6B6B" opacity="0.8"/>
  <text x="117.5" y="474.56617913393745" text-anchor="middle" font-size="10" font-family="Arial, sans-serif">31.1</text>
  <line x1="117.5" y1="479.5623416634128" x2="117.5" y2="479.5700166044621" stroke="black" stroke-width="1"/>
  <line x1="114.5" y1="479.5623416634128" x2="120.5" y2="479.5623416634128" stroke="black" stroke-width="1"/>
  <line x1="114.5" y1="479.5700166044621" x2="120.5" y2="479.5700166044621" stroke="black" stroke-width="1"/>
  <rect x="132.5" y="479.5674054193972" width="20" height="0.432594580602802" fill="#45B7D1" opacity="0.8"/>
  <text x="142.5" y="474.5674054193972" text-anchor="middle" font-size="10" font-family="Arial, sans-serif">31.1</text>
  <line x1="142.5" y1="479.56366750338117" x2="142.5" y2="479.5711433354132" stroke="black" stroke-width="1"/>
  <line x1="139.5" y1="479.56366750338117" x2="145.5" y2="479.56366750338117" stroke="black" stroke-width="1"/>
  <line x1="139.5" y1="479.5711433354132" x2="145.5" y2="479.5711433354132" stroke="black" stroke-width="1"/>
  <text x="130" y="500" text-anchor="middle" font-size="12" font-family="Arial, sans-serif" transform="rotate(-45 130 500)">zim</text>
  <rect x="167.5" y="479.5574979567357" width="20" height="0.44250204326433135" fill="#FF6B6B" opacity="0.8"/>
  <text x="177.5" y="474.5574979567357" text-anchor="middle" font-size="10" font-family="Arial, sans-serif">31.8</text>
  <line x1="177.5" y1="479.5499816517591" x2="177.5" y2="479.5650142617123" stroke="black" stroke-width="1"/>
  <line x1="174.5" y1="479.5499816517591" x2="180.5" y2="479.5499816517591" stroke="black" stroke-width="1"/>
  <line x1="174.5" y1="479.5650142617123" x2="180.5" y2="479.5650142617123" stroke="black" stroke-width="1"/>
  <rect x="192.5" y="479.5522177135534" width="20" height="0.44778228644659646" fill="#45B7D1" opacity="0.8"/>
  <text x="202.5" y="474.5522177135534" text-anchor="middle" font-size="10" font-family="Arial, sans-serif">32.1</text>
  <line x1="202.5" y1="479.5487250616564" x2="202.5" y2="479.55571036545035" stroke="black" stroke-width="1"/>
  <line x1="199.5" y1="479.5487250616564" x2="205.5" y2="479.5487250616564" stroke="black" stroke-width="1"/>
  <line x1="199.5" y1="479.55571036545035" x2="205.5" y2="479.55571036545035" stroke="black" stroke-width="1"/>
  <text x="190" y="500" text-anchor="middle" font-size="12" font-family="Arial, sans-serif" transform="rotate(-45 190 500)">antidote</text>
  <rect x="227.5" y="479.56608366548363" width="20" height="0.4339163345163684" fill="#FF6B6B" opacity="0.8"/>
  <text x="237.5" y="474.56608366548363" text-anchor="middle" font-size="10" font-family="Arial, sans-serif">31.2</text>
  <line x1="237.5" y1="479.55603669134285" x2="237.5" y2="479.5761306396244" stroke="black" stroke-width="1"/>
  <line x1="234.5" y1="479.55603669134285" x2="240.5" y2="479.55603669134285" stroke="black" stroke-width="1"/>
  <line x1="234.5" y1="479.5761306396244" x2="240.5" y2="479.5761306396244" stroke="black" stroke-width="1"/>
  <rect x="252.5" y="479.3702882212525" width="20" height="0.6297117787475138" fill="#45B7D1" opacity="0.8"/>
  <text x="262.5" y="474.3702882212525" text-anchor="middle" font-size="10" font-family="Arial, sans-serif">45.2</text>
  <line x1="262.5" y1="479.3570700518223" x2="262.5" y2="479.3835063906827" stroke="black" stroke-width="1"/>
  <line x1="259.5" y1="479.3570700518223" x2="265.5" y2="479.3570700518223" stroke="black" stroke-width="1"/>
  <line x1="259.5" y1="479.3835063906827" x2="265.5" y2="479.3835063906827" stroke="black" stroke-width="1"/>
  <text x="250" y="500" text-anchor="middle" font-size="12" font-family="Arial, sans-serif" transform="rotate(-45 250 500)">znap</text>
  <rect x="287.5" y="479.53901398959204" width="20" height="0.46098601040799014" fill="#FF6B6B" opacity="0.8"/>
  <text x="297.5" y="474.53901398959204" text-anchor="middle" font-size="10" font-family="Arial, sans-serif">33.1</text>
  <line x1="297.5" y1="479.5363213365612" x2="297.5" y2="479.5417066426229" stroke="black" stroke-width="1"/>
  <line x1="294.5" y1="479.5363213365612" x2="300.5" y2="479.5363213365612" stroke="black" stroke-width="1"/>
  <line x1="294.5" y1="479.5417066426229" x2="300.5" y2="479.5417066426229" stroke="black" stroke-width="1"/>
  <rect x="312.5" y="479.32528962171784" width="20" height="0.674710378282177" fill="#45B7D1" opacity="0.8"/>
  <text x="322.5" y="474.32528962171784" text-anchor="middle" font-size="10" font-family="Arial, sans-serif">48.4</text>
  <line x1="322.5" y1="479.305406457762" x2="322.5" y2="479.3451727856737" stroke="black" stroke-width="1"/>
  <line x1="319.5" y1="479.305406457762" x2="325.5" y2="479.305406457762" stroke="black" stroke-width="1"/>
  <line x1="319.5" y1="479.3451727856737" x2="325.5" y2="479.3451727856737" stroke="black" stroke-width="1"/>
  <text x="310" y="500" text-anchor="middle" font-size="12" font-family="Arial, sans-serif" transform="rotate(-45 310 500)">zgenom</text>
  <rect x="347.5" y="478.6652739475841" width="20" height="1.3347260524158726" fill="#FF6B6B" opacity="0.8"/>
  <text x="357.5" y="473.6652739475841" text-anchor="middle" font-size="10" font-family="Arial, sans-serif">95.8</text>
  <line x1="357.5" y1="478.49225355643244" x2="357.5" y2="478.8382943387358" stroke="black" stroke-width="1"/>
  <line x1="354.5" y1="478.49225355643244" x2="360.5" y2="478.49225355643244" stroke="black" stroke-width="1"/>
  <line x1="354.5" y1="478.8382943387358" x2="360.5" y2="478.8382943387358" stroke="black" stroke-width="1"/>
  <rect x="372.5" y="478.70992641195306" width="20" height="1.2900735880469425" fill="#45B7D1" opacity="0.8"/>
  <text x="382.5" y="473.70992641195306" text-anchor="middle" font-size="10" font-family="Arial, sans-serif">92.6</text>
  <line x1="382.5" y1="478.69857778097696" x2="382.5" y2="478.72127504292916" stroke="black" stroke-width="1"/>
  <line x1="379.5" y1="478.69857778097696" x2="385.5" y2="478.69857778097696" stroke="black" stroke-width="1"/>
  <line x1="379.5" y1="478.72127504292916" x2="385.5" y2="478.72127504292916" stroke="black" stroke-width="1"/>
  <text x="370" y="500" text-anchor="middle" font-size="12" font-family="Arial, sans-serif" transform="rotate(-45 370 500)">oh-my-zsh</text>
  <rect x="407.5" y="479.5345390900006" width="20" height="0.46546090999941026" fill="#FF6B6B" opacity="0.8"/>
  <text x="417.5" y="474.5345390900006" text-anchor="middle" font-size="10" font-family="Arial, sans-serif">33.4</text>
  <line x1="417.5" y1="479.5299989150076" x2="417.5" y2="479.5390792649936" stroke="black" stroke-width="1"/>
  <line x1="414.5" y1="479.5299989150076" x2="420.5" y2="479.5299989150076" stroke="black" stroke-width="1"/>
  <line x1="414.5" y1="479.5390792649936" x2="420.5" y2="479.5390792649936" stroke="black" stroke-width="1"/>
  <rect x="432.5" y="472.11356432790893" width="20" height="7.886435672091092" fill="#45B7D1" opacity="0.8"/>
  <text x="442.5" y="467.11356432790893" text-anchor="middle" font-size="10" font-family="Arial, sans-serif">566.2</text>
  <line x1="442.5" y1="472.02277821831825" x2="442.5" y2="472.2043504374996" stroke="black" stroke-width="1"/>
  <line x1="439.5" y1="472.02277821831825" x2="445.5" y2="472.02277821831825" stroke="black" stroke-width="1"/>
  <line x1="439.5" y1="472.2043504374996" x2="445.5" y2="472.2043504374996" stroke="black" stroke-width="1"/>
  <text x="430" y="500" text-anchor="middle" font-size="12" font-family="Arial, sans-serif" transform="rotate(-45 430 500)">sheldon</text>
  <rect x="467.5" y="479.5423228035057" width="20" height="0.4576771964942472" fill="#FF6B6B" opacity="0.8"/>
  <text x="477.5" y="474.5423228035057" text-anchor="middle" font-size="10" font-family="Arial, sans-serif">32.9</text>
  <line x1="477.5" y1="479.53829639397014" x2="477.5" y2="479.5463492130413" stroke="black" stroke-width="1"/>
  <line x1="474.5" y1="479.53829639397014" x2="480.5" y2="479.53829639397014" stroke="black" stroke-width="1"/>
  <line x1="474.5" y1="479.5463492130413" x2="480.5" y2="479.5463492130413" stroke="black" stroke-width="1"/>
  <rect x="492.5" y="471.46978837580696" width="20" height="8.53021162419305" fill="#45B7D1" opacity="0.8"/>
  <text x="502.5" y="466.46978837580696" text-anchor="middle" font-size="10" font-family="Arial, sans-serif">612.4</text>
  <line x1="502.5" y1="471.1732799198857" x2="502.5" y2="471.7662968317282" stroke="black" stroke-width="1"/>
  <line x1="499.5" y1="471.1732799198857" x2="505.5" y2="471.1732799198857" stroke="black" stroke-width="1"/>
  <line x1="499.5" y1="471.7662968317282" x2="505.5" y2="471.7662968317282" stroke="black" stroke-width="1"/>
  <text x="490" y="500" text-anchor="middle" font-size="12" font-family="Arial, sans-serif" transform="rotate(-45 490 500)">antibody</text>
  <rect x="527.5" y="470.16655460123803" width="20" height="9.833445398761988" fill="#FF6B6B" opacity="0.8"/>
  <text x="537.5" y="465.16655460123803" text-anchor="middle" font-size="10" font-family="Arial, sans-serif">705.9</text>
  <line x1="537.5" y1="470.1288653994522" x2="537.5" y2="470.20424380302387" stroke="black" stroke-width="1"/>
  <line x1="534.5" y1="470.1288653994522" x2="540.5" y2="470.1288653994522" stroke="black" stroke-width="1"/>
  <line x1="534.5" y1="470.20424380302387" x2="540.5" y2="470.20424380302387" stroke="black" stroke-width="1"/>
  <rect x="552.5" y="470.08481460033624" width="20" height="9.915185399663784" fill="#45B7D1" opacity="0.8"/>
  <text x="562.5" y="465.08481460033624" text-anchor="middle" font-size="10" font-family="Arial, sans-serif">711.8</text>
  <line x1="562.5" y1="469.88075439355663" x2="562.5" y2="470.28887480711586" stroke="black" stroke-width="1"/>
  <line x1="559.5" y1="469.88075439355663" x2="565.5" y2="469.88075439355663" stroke="black" stroke-width="1"/>
  <line x1="559.5" y1="470.28887480711586" x2="565.5" y2="470.28887480711586" stroke="black" stroke-width="1"/>
  <text x="550" y="500" text-anchor="middle" font-size="12" font-family="Arial, sans-serif" transform="rotate(-45 550 500)">prezto</text>
  <rect x="587.5" y="471.21336923399116" width="20" height="8.786630766008827" fill="#FF6B6B" opacity="0.8"/>
  <text x="597.5" y="466.21336923399116" text-anchor="middle" font-size="10" font-family="Arial, sans-serif">630.8</text>
  <line x1="597.5" y1="471.1392461548363" x2="597.5" y2="471.287492313146" stroke="black" stroke-width="1"/>
  <line x1="594.5" y1="471.1392461548363" x2="600.5" y2="471.1392461548363" stroke="black" stroke-width="1"/>
  <line x1="594.5" y1="471.287492313146" x2="600.5" y2="471.287492313146" stroke="black" stroke-width="1"/>
  <rect x="612.5" y="411.0311501041017" width="20" height="68.9688498958983" fill="#45B7D1" opacity="0.8"/>
  <text x="622.5" y="406.0311501041017" text-anchor="middle" font-size="10" font-family="Arial, sans-serif">4951.3</text>
  <line x1="622.5" y1="409.80965568559236" x2="622.5" y2="412.25264452261104" stroke="black" stroke-width="1"/>
  <line x1="619.5" y1="409.80965568559236" x2="625.5" y2="409.80965568559236" stroke="black" stroke-width="1"/>
  <line x1="619.5" y1="412.25264452261104" x2="625.5" y2="412.25264452261104" stroke="black" stroke-width="1"/>
  <text x="610" y="500" text-anchor="middle" font-size="12" font-family="Arial, sans-serif" transform="rotate(-45 610 500)">antigen</text>
  <rect x="647.5" y="479.56379790353037" width="20" height="0.4362020964696001" fill="#FF6B6B" opacity="0.8"/>
  <text x="657.5" y="474.56379790353037" text-anchor="middle" font-size="10" font-family="Arial, sans-serif">31.3</text>
  <line x1="657.5" y1="479.5614909644304" x2="657.5" y2="479.56610484263035" stroke="black" stroke-width="1"/>
  <line x1="654.5" y1="479.5614909644304" x2="660.5" y2="479.5614909644304" stroke="black" stroke-width="1"/>
  <line x1="654.5" y1="479.56610484263035" x2="660.5" y2="479.56610484263035" stroke="black" stroke-width="1"/>
  <rect x="672.5" y="409.0654701675857" width="20" height="70.93452983241428" fill="#45B7D1" opacity="0.8"/>
  <text x="682.5" y="404.0654701675857" text-anchor="middle" font-size="10" font-family="Arial, sans-serif">5092.4</text>
  <line x1="682.5" y1="407.8938762862499" x2="682.5" y2="410.2370640489215" stroke="black" stroke-width="1"/>
  <line x1="679.5" y1="407.8938762862499" x2="685.5" y2="407.8938762862499" stroke="black" stroke-width="1"/>
  <line x1="679.5" y1="410.2370640489215" x2="685.5" y2="410.2370640489215" stroke="black" stroke-width="1"/>
  <text x="670" y="500" text-anchor="middle" font-size="12" font-family="Arial, sans-serif" transform="rotate(-45 670 500)">antigen-hs</text>
  <rect x="707.5" y="479.55338198673815" width="20" height="0.4466180132618373" fill="#FF6B6B" opacity="0.8"/>
  <text x="717.5" y="474.55338198673815" text-anchor="middle" font-size="10" font-family="Arial, sans-serif">32.1</text>
  <line x1="717.5" y1="479.5511746667106" x2="717.5" y2="479.5555893067657" stroke="black" stroke-width="1"/>
  <line x1="714.5" y1="479.5511746667106" x2="720.5" y2="479.5511746667106" stroke="black" stroke-width="1"/>
  <line x1="714.5" y1="479.5555893067657" x2="720.5" y2="479.5555893067657" stroke="black" stroke-width="1"/>
  <rect x="732.5" y="408.6410691241922" width="20" height="71.35893087580777" fill="#45B7D1" opacity="0.8"/>
  <text x="742.5" y="403.6410691241922" text-anchor="middle" font-size="10" font-family="Arial, sans-serif">5122.9</text>
  <line x1="742.5" y1="407.45043258660826" x2="742.5" y2="409.83170566177614" stroke="black" stroke-width="1"/>
  <line x1="739.5" y1="407.45043258660826" x2="745.5" y2="407.45043258660826" stroke="black" stroke-width="1"/>
  <line x1="739.5" y1="409.83170566177614" x2="745.5" y2="409.83170566177614" stroke="black" stroke-width="1"/>
  <text x="730" y="500" text-anchor="middle" font-size="12" font-family="Arial, sans-serif" transform="rotate(-45 730 500)">zr</text>
  <rect x="767.5" y="479.56757659996487" width="20" height="0.4324234000351183" fill="#FF6B6B" opacity="0.8"/>
  <text x="777.5" y="474.56757659996487" text-anchor="middle" font-size="10" font-family="Arial, sans-serif">31.0</text>
  <line x1="777.5" y1="479.5641829435821" x2="777.5" y2="479.5709702563476" stroke="black" stroke-width="1"/>
  <line x1="774.5" y1="479.5641829435821" x2="780.5" y2="479.5641829435821" stroke="black" stroke-width="1"/>
  <line x1="774.5" y1="479.5709702563476" x2="780.5" y2="479.5709702563476" stroke="black" stroke-width="1"/>
  <rect x="792.5" y="407.3292021332797" width="20" height="72.67079786672032" fill="#45B7D1" opacity="0.8"/>
  <text x="802.5" y="402.3292021332797" text-anchor="middle" font-size="10" font-family="Arial, sans-serif">5217.1</text>
  <line x1="802.5" y1="405.9556975044676" x2="802.5" y2="408.7027067620918" stroke="black" stroke-width="1"/>
  <line x1="799.5" y1="405.9556975044676" x2="805.5" y2="405.9556975044676" stroke="black" stroke-width="1"/>
  <line x1="799.5" y1="408.7027067620918" x2="805.5" y2="408.7027067620918" stroke="black" stroke-width="1"/>
  <text x="790" y="500" text-anchor="middle" font-size="12" font-family="Arial, sans-serif" transform="rotate(-45 790 500)">alf</text>
  <rect x="827.5" y="476.38539944829205" width="20" height="3.6146005517079405" fill="#FF6B6B" opacity="0.8"/>
  <text x="837.5" y="471.38539944829205" text-anchor="middle" font-size="10" font-family="Arial, sans-serif">259.5</text>
  <line x1="837.5" y1="476.28686268402913" x2="837.5" y2="476.48393621255497" stroke="black" stroke-width="1"/>
  <line x1="834.5" y1="476.28686268402913" x2="840.5" y2="476.28686268402913" stroke="black" stroke-width="1"/>
  <line x1="834.5" y1="476.48393621255497" x2="840.5" y2="476.48393621255497" stroke="black" stroke-width="1"/>
  <rect x="852.5" y="384.1356059947407" width="20" height="95.86439400525934" fill="#45B7D1" opacity="0.8"/>
  <text x="862.5" y="379.1356059947407" text-anchor="middle" font-size="10" font-family="Arial, sans-serif">6882.2</text>
  <line x1="862.5" y1="379.4327114536383" x2="862.5" y2="388.838500535843" stroke="black" stroke-width="1"/>
  <line x1="859.5" y1="379.4327114536383" x2="865.5" y2="379.4327114536383" stroke="black" stroke-width="1"/>
  <line x1="859.5" y1="388.838500535843" x2="865.5" y2="388.838500535843" stroke="black" stroke-width="1"/>
  <text x="850" y="500" text-anchor="middle" font-size="12" font-family="Arial, sans-serif" transform="rotate(-45 850 500)">zpm</text>
  <rect x="887.5" y="479.54101257728115" width="20" height="0.4589874227188417" fill="#FF6B6B" opacity="0.8"/>
  <text x="897.5" y="474.54101257728115" text-anchor="middle" font-size="10" font-family="Arial, sans-serif">33.0</text>
  <line x1="897.5" y1="479.53780775100734" x2="897.5" y2="479.54421740355497" stroke="black" stroke-width="1"/>
  <line x1="894.5" y1="479.53780775100734" x2="900.5" y2="479.53780775100734" stroke="black" stroke-width="1"/>
  <line x1="894.5" y1="479.54421740355497" x2="900.5" y2="479.54421740355497" stroke="black" stroke-width="1"/>
  <rect x="912.5" y="330.1442670759865" width="20" height="149.8557329240135" fill="#45B7D1" opacity="0.8"/>
  <text x="922.5" y="325.1442670759865" text-anchor="middle" font-size="10" font-family="Arial, sans-serif">10758.2</text>
  <line x1="922.5" y1="328.7107317342085" x2="922.5" y2="331.5778024177645" stroke="black" stroke-width="1"/>
  <line x1="919.5" y1="328.7107317342085" x2="925.5" y2="328.7107317342085" stroke="black" stroke-width="1"/>
  <line x1="919.5" y1="331.5778024177645" x2="925.5" y2="331.5778024177645" stroke="black" stroke-width="1"/>
  <text x="910" y="500" text-anchor="middle" font-size="12" font-family="Arial, sans-serif" transform="rotate(-45 910 500)">zcomet</text>
  <rect x="947.5" y="478.34697924250383" width="20" height="1.6530207574961675" fill="#FF6B6B" opacity="0.8"/>
  <text x="957.5" y="473.34697924250383" text-anchor="middle" font-size="10" font-family="Arial, sans-serif">118.7</text>
  <line x1="957.5" y1="478.31317926018795" x2="957.5" y2="478.3807792248197" stroke="black" stroke-width="1"/>
  <line x1="954.5" y1="478.31317926018795" x2="960.5" y2="478.31317926018795" stroke="black" stroke-width="1"/>
  <line x1="954.5" y1="478.3807792248197" x2="960.5" y2="478.3807792248197" stroke="black" stroke-width="1"/>
  <rect x="972.5" y="305.2247634140923" width="20" height="174.7752365859077" fill="#45B7D1" opacity="0.8"/>
  <text x="982.5" y="300.2247634140923" text-anchor="middle" font-size="10" font-family="Arial, sans-serif">12547.2</text>
  <line x1="982.5" y1="302.44465352346486" x2="982.5" y2="308.00487330471975" stroke="black" stroke-width="1"/>
  <line x1="979.5" y1="302.44465352346486" x2="985.5" y2="302.44465352346486" stroke="black" stroke-width="1"/>
  <line x1="979.5" y1="308.00487330471975" x2="985.5" y2="308.00487330471975" stroke="black" stroke-width="1"/>
  <text x="970" y="500" text-anchor="middle" font-size="12" font-family="Arial, sans-serif" transform="rotate(-45 970 500)">zplug</text>
  <rect x="1007.5" y="462.27247315510044" width="20" height="17.727526844899533" fill="#FF6B6B" opacity="0.8"/>
  <text x="1017.5" y="457.27247315510044" text-anchor="middle" font-size="10" font-family="Arial, sans-serif">1272.7</text>
  <line x1="1017.5" y1="462.0145096357719" x2="1017.5" y2="462.530436674429" stroke="black" stroke-width="1"/>
  <line x1="1014.5" y1="462.0145096357719" x2="1020.5" y2="462.0145096357719" stroke="black" stroke-width="1"/>
  <line x1="1014.5" y1="462.530436674429" x2="1020.5" y2="462.530436674429" stroke="black" stroke-width="1"/>
  <rect x="1032.5" y="52.818182714995885" width="20" height="427.1818172850041" fill="#45B7D1" opacity="0.8"/>
  <text x="1042.5" y="47.818182714995885" text-anchor="middle" font-size="10" font-family="Arial, sans-serif">30667.6</text>
  <line x1="1042.5" y1="50.00000000000002" x2="1042.5" y2="55.63636542999175" stroke="black" stroke-width="1"/>
  <line x1="1039.5" y1="50.00000000000002" x2="1045.5" y2="50.00000000000002" stroke="black" stroke-width="1"/>
  <line x1="1039.5" y1="55.63636542999175" x2="1045.5" y2="55.63636542999175" stroke="black" stroke-width="1"/>
  <text x="1030" y="500" text-anchor="middle" font-size="12" font-family="Arial, sans-serif" transform="rotate(-45 1030 500)">zinit</text>
  <!-- Legend -->
  <rect x="1090" y="60" width="15" height="15" fill="#FF6B6B" opacity="0.8"/>
  <text x="1110" y="72" font-size="12" font-family="Arial, sans-serif">0 plugins</text>
  <rect x="1090" y="80" width="15" height="15" fill="#45B7D1" opacity="0.8"/>
  <text x="1110" y="92" font-size="12" font-family="Arial, sans-serif">25 plugins</text>
</svg>