<svg width="1200" height="600" xmlns="http://www.w3.org/2000/svg" style="background: white;">
  <text x="600" y="30" text-anchor="middle" font-size="20" font-weight="bold" font-family="Arial, sans-serif">Zsh Plugin Manager Install Time Comparison</text>
  
  <!-- Grid lines -->
  <line x1="80" y1="480" x2="1080" y2="480" stroke="#e0e0e0" stroke-width="1"/>
  <text x="70" y="485" text-anchor="end" font-size="12" font-family="Arial, sans-serif">0</text>
  <line x1="80" y1="394" x2="1080" y2="394" stroke="#e0e0e0" stroke-width="1"/>
  <text x="70" y="399" text-anchor="end" font-size="12" font-family="Arial, sans-serif">6231</text>
  <line x1="80" y1="308" x2="1080" y2="308" stroke="#e0e0e0" stroke-width="1"/>
  <text x="70" y="313" text-anchor="end" font-size="12" font-family="Arial, sans-serif">12462</text>
  <line x1="80" y1="222" x2="1080" y2="222" stroke="#e0e0e0" stroke-width="1"/>
  <text x="70" y="227" text-anchor="end" font-size="12" font-family="Arial, sans-serif">18692</text>
  <line x1="80" y1="136" x2="1080" y2="136" stroke="#e0e0e0" stroke-width="1"/>
  <text x="70" y="141" text-anchor="end" font-size="12" font-family="Arial, sans-serif">24923</text>
  <line x1="80" y1="50" x2="1080" y2="50" stroke="#e0e0e0" stroke-width="1"/>
  <text x="70" y="55" text-anchor="end" font-size="12" font-family="Arial, sans-serif">31154</text>
  
  <!-- Axes -->
  <line x1="80" y1="50" x2="80" y2="480" stroke="black" stroke-width="2"/>
  <line x1="80" y1="480" x2="1080" y2="480" stroke="black" stroke-width="2"/>
  
  <!-- Y-axis label -->
  <text x="20" y="300" text-anchor="middle" font-size="14" font-family="Arial, sans-serif" transform="rotate(-90 20 300)">Time (ms)</text>
  <rect x="77.5" y="479.5771380839166" width="20" height="0.42286191608337803" fill="#FF6B6B" opacity="0.8"/>
  <text x="87.5" y="474.5771380839166" text-anchor="middle" font-size="10" font-family="Arial, sans-serif">30.6</text>
  <line x1="87.5" y1="479.5732468467113" x2="87.5" y2="479.58102932112195" stroke="black" stroke-width="1"/>
  <line x1="84.5" y1="479.5732468467113" x2="90.5" y2="479.5732468467113" stroke="black" stroke-width="1"/>
  <line x1="84.5" y1="479.58102932112195" x2="90.5" y2="479.58102932112195" stroke="black" stroke-width="1"/>
  <rect x="102.5" y="479.39985115237255" width="20" height="0.6001488476274499" fill="#45B7D1" opacity="0.8"/>
  <text x="112.5" y="474.39985115237255" text-anchor="middle" font-size="10" font-family="Arial, sans-serif">43.5</text>
  <line x1="112.5" y1="479.39350523415226" x2="112.5" y2="479.40619707059284" stroke="black" stroke-width="1"/>
  <line x1="109.5" y1="479.39350523415226" x2="115.5" y2="479.39350523415226" stroke="black" stroke-width="1"/>
  <line x1="109.5" y1="479.40619707059284" x2="115.5" y2="479.40619707059284" stroke="black" stroke-width="1"/>
  <text x="100" y="500" text-anchor="middle" font-size="12" font-family="Arial, sans-serif" transform="rotate(-45 100 500)">znap</text>
  <rect x="137.5" y="479.5712744503772" width="20" height="0.42872554962283266" fill="#FF6B6B" opacity="0.8"/>
  <text x="147.5" y="474.5712744503772" text-anchor="middle" font-size="10" font-family="Arial, sans-serif">31.1</text>
  <line x1="147.5" y1="479.567255962019" x2="147.5" y2="479.5752929387354" stroke="black" stroke-width="1"/>
  <line x1="144.5" y1="479.567255962019" x2="150.5" y2="479.567255962019" stroke="black" stroke-width="1"/>
  <line x1="144.5" y1="479.5752929387354" x2="150.5" y2="479.5752929387354" stroke="black" stroke-width="1"/>
  <rect x="162.5" y="479.39215865600767" width="20" height="0.6078413439923404" fill="#45B7D1" opacity="0.8"/>
  <text x="172.5" y="474.39215865600767" text-anchor="middle" font-size="10" font-family="Arial, sans-serif">44.0</text>
  <line x1="172.5" y1="479.3822415805959" x2="172.5" y2="479.4020757314194" stroke="black" stroke-width="1"/>
  <line x1="169.5" y1="479.3822415805959" x2="175.5" y2="479.3822415805959" stroke="black" stroke-width="1"/>
  <line x1="169.5" y1="479.4020757314194" x2="175.5" y2="479.4020757314194" stroke="black" stroke-width="1"/>
  <text x="160" y="500" text-anchor="middle" font-size="12" font-family="Arial, sans-serif" transform="rotate(-45 160 500)">zgenom</text>
  <rect x="197.5" y="478.4195749261912" width="20" height="1.5804250738087982" fill="#FF6B6B" opacity="0.8"/>
  <text x="207.5" y="473.4195749261912" text-anchor="middle" font-size="10" font-family="Arial, sans-serif">114.5</text>
  <line x1="207.5" y1="478.40631370330726" x2="207.5" y2="478.4328361490752" stroke="black" stroke-width="1"/>
  <line x1="204.5" y1="478.40631370330726" x2="210.5" y2="478.40631370330726" stroke="black" stroke-width="1"/>
  <line x1="204.5" y1="478.4328361490752" x2="210.5" y2="478.4328361490752" stroke="black" stroke-width="1"/>
  <rect x="222.5" y="468.1931121076234" width="20" height="11.806887892376597" fill="#45B7D1" opacity="0.8"/>
  <text x="232.5" y="463.1931121076234" text-anchor="middle" font-size="10" font-family="Arial, sans-serif">855.4</text>
  <line x1="232.5" y1="468.15921665572995" x2="232.5" y2="468.22700755951684" stroke="black" stroke-width="1"/>
  <line x1="229.5" y1="468.15921665572995" x2="235.5" y2="468.15921665572995" stroke="black" stroke-width="1"/>
  <line x1="229.5" y1="468.22700755951684" x2="235.5" y2="468.22700755951684" stroke="black" stroke-width="1"/>
  <text x="220" y="500" text-anchor="middle" font-size="12" font-family="Arial, sans-serif" transform="rotate(-45 220 500)">zplug</text>
  <rect x="257.5" y="471.4749270419943" width="20" height="8.5250729580057" fill="#FF6B6B" opacity="0.8"/>
  <text x="267.5" y="466.4749270419943" text-anchor="middle" font-size="10" font-family="Arial, sans-serif">617.7</text>
  <line x1="267.5" y1="471.43625451974435" x2="267.5" y2="471.51359956424426" stroke="black" stroke-width="1"/>
  <line x1="264.5" y1="471.43625451974435" x2="270.5" y2="471.43625451974435" stroke="black" stroke-width="1"/>
  <line x1="264.5" y1="471.51359956424426" x2="270.5" y2="471.51359956424426" stroke="black" stroke-width="1"/>
  <rect x="282.5" y="423.3734437067048" width="20" height="56.62655629329523" fill="#45B7D1" opacity="0.8"/>
  <text x="292.5" y="418.3734437067048" text-anchor="middle" font-size="10" font-family="Arial, sans-serif">4102.7</text>
  <line x1="292.5" y1="422.80669266476764" x2="292.5" y2="423.94019474864194" stroke="black" stroke-width="1"/>
  <line x1="289.5" y1="422.80669266476764" x2="295.5" y2="422.80669266476764" stroke="black" stroke-width="1"/>
  <line x1="289.5" y1="423.94019474864194" x2="295.5" y2="423.94019474864194" stroke="black" stroke-width="1"/>
  <text x="280" y="500" text-anchor="middle" font-size="12" font-family="Arial, sans-serif" transform="rotate(-45 280 500)">antigen</text>
  <rect x="317.5" y="479.58592392801205" width="20" height="0.41407607198795265" fill="#FF6B6B" opacity="0.8"/>
  <text x="327.5" y="474.58592392801205" text-anchor="middle" font-size="10" font-family="Arial, sans-serif">30.0</text>
  <line x1="327.5" y1="479.58154002433827" x2="327.5" y2="479.59030783168583" stroke="black" stroke-width="1"/>
  <line x1="324.5" y1="479.58154002433827" x2="330.5" y2="479.58154002433827" stroke="black" stroke-width="1"/>
  <line x1="324.5" y1="479.59030783168583" x2="330.5" y2="479.59030783168583" stroke="black" stroke-width="1"/>
  <rect x="342.5" y="399.3553686452578" width="20" height="80.6446313547422" fill="#45B7D1" opacity="0.8"/>
  <text x="352.5" y="394.3553686452578" text-anchor="middle" font-size="10" font-family="Arial, sans-serif">5842.8</text>
  <line x1="352.5" y1="398.5582726380848" x2="352.5" y2="400.15246465243075" stroke="black" stroke-width="1"/>
  <line x1="349.5" y1="398.5582726380848" x2="355.5" y2="398.5582726380848" stroke="black" stroke-width="1"/>
  <line x1="349.5" y1="400.15246465243075" x2="355.5" y2="400.15246465243075" stroke="black" stroke-width="1"/>
  <text x="340" y="500" text-anchor="middle" font-size="12" font-family="Arial, sans-serif" transform="rotate(-45 340 500)">alf</text>
  <rect x="377.5" y="479.5938266110613" width="20" height="0.40617338893871135" fill="#FF6B6B" opacity="0.8"/>
  <text x="387.5" y="474.5938266110613" text-anchor="middle" font-size="10" font-family="Arial, sans-serif">29.4</text>
  <line x1="387.5" y1="479.5924607917197" x2="387.5" y2="479.59519243040285" stroke="black" stroke-width="1"/>
  <line x1="384.5" y1="479.5924607917197" x2="390.5" y2="479.5924607917197" stroke="black" stroke-width="1"/>
  <line x1="384.5" y1="479.59519243040285" x2="390.5" y2="479.59519243040285" stroke="black" stroke-width="1"/>
  <rect x="402.5" y="398.86271238133827" width="20" height="81.13728761866176" fill="#45B7D1" opacity="0.8"/>
  <text x="412.5" y="393.86271238133827" text-anchor="middle" font-size="10" font-family="Arial, sans-serif">5878.5</text>
  <line x1="412.5" y1="397.4386640861872" x2="412.5" y2="400.28676067648934" stroke="black" stroke-width="1"/>
  <line x1="409.5" y1="397.4386640861872" x2="415.5" y2="397.4386640861872" stroke="black" stroke-width="1"/>
  <line x1="409.5" y1="400.28676067648934" x2="415.5" y2="400.28676067648934" stroke="black" stroke-width="1"/>
  <text x="400" y="500" text-anchor="middle" font-size="12" font-family="Arial, sans-serif" transform="rotate(-45 400 500)">zr</text>
  <rect x="437.5" y="479.59053853927344" width="20" height="0.40946146072656603" fill="#FF6B6B" opacity="0.8"/>
  <text x="447.5" y="474.59053853927344" text-anchor="middle" font-size="10" font-family="Arial, sans-serif">29.7</text>
  <line x1="447.5" y1="479.58738245211566" x2="447.5" y2="479.5936946264312" stroke="black" stroke-width="1"/>
  <line x1="444.5" y1="479.58738245211566" x2="450.5" y2="479.58738245211566" stroke="black" stroke-width="1"/>
  <line x1="444.5" y1="479.5936946264312" x2="450.5" y2="479.5936946264312" stroke="black" stroke-width="1"/>
  <rect x="462.5" y="397.9147599809568" width="20" height="82.08524001904323" fill="#45B7D1" opacity="0.8"/>
  <text x="472.5" y="392.9147599809568" text-anchor="middle" font-size="10" font-family="Arial, sans-serif">5947.2</text>
  <line x1="472.5" y1="394.3099832577497" x2="472.5" y2="401.51953670416384" stroke="black" stroke-width="1"/>
  <line x1="469.5" y1="394.3099832577497" x2="475.5" y2="394.3099832577497" stroke="black" stroke-width="1"/>
  <line x1="469.5" y1="401.51953670416384" x2="475.5" y2="401.51953670416384" stroke="black" stroke-width="1"/>
  <text x="460" y="500" text-anchor="middle" font-size="12" font-family="Arial, sans-serif" transform="rotate(-45 460 500)">antigen-hs</text>
  <rect x="497.5" y="479.56747357063716" width="20" height="0.432526429362858" fill="#FF6B6B" opacity="0.8"/>
  <text x="507.5" y="474.56747357063716" text-anchor="middle" font-size="10" font-family="Arial, sans-serif">31.3</text>
  <line x1="507.5" y1="479.561070073842" x2="507.5" y2="479.5738770674323" stroke="black" stroke-width="1"/>
  <line x1="504.5" y1="479.561070073842" x2="510.5" y2="479.561070073842" stroke="black" stroke-width="1"/>
  <line x1="504.5" y1="479.5738770674323" x2="510.5" y2="479.5738770674323" stroke="black" stroke-width="1"/>
  <rect x="522.5" y="390.8541368986354" width="20" height="89.14586310136463" fill="#45B7D1" opacity="0.8"/>
  <text x="532.5" y="385.8541368986354" text-anchor="middle" font-size="10" font-family="Arial, sans-serif">6458.7</text>
  <line x1="532.5" y1="390.0169615544319" x2="532.5" y2="391.6913122428389" stroke="black" stroke-width="1"/>
  <line x1="529.5" y1="390.0169615544319" x2="535.5" y2="390.0169615544319" stroke="black" stroke-width="1"/>
  <line x1="529.5" y1="391.6913122428389" x2="535.5" y2="391.6913122428389" stroke="black" stroke-width="1"/>
  <text x="520" y="500" text-anchor="middle" font-size="12" font-family="Arial, sans-serif" transform="rotate(-45 520 500)">antibody</text>
  <rect x="557.5" y="476.13036924235473" width="20" height="3.869630757645256" fill="#FF6B6B" opacity="0.8"/>
  <text x="567.5" y="471.13036924235473" text-anchor="middle" font-size="10" font-family="Arial, sans-serif">280.4</text>
  <line x1="567.5" y1="476.02271180595517" x2="567.5" y2="476.2380266787543" stroke="black" stroke-width="1"/>
  <line x1="564.5" y1="476.02271180595517" x2="570.5" y2="476.02271180595517" stroke="black" stroke-width="1"/>
  <line x1="564.5" y1="476.2380266787543" x2="570.5" y2="476.2380266787543" stroke="black" stroke-width="1"/>
  <rect x="582.5" y="378.68891844325395" width="20" height="101.31108155674606" fill="#45B7D1" opacity="0.8"/>
  <text x="592.5" y="373.68891844325395" text-anchor="middle" font-size="10" font-family="Arial, sans-serif">7340.1</text>
  <line x1="592.5" y1="377.17190244991804" x2="592.5" y2="380.20593443658987" stroke="black" stroke-width="1"/>
  <line x1="589.5" y1="377.17190244991804" x2="595.5" y2="377.17190244991804" stroke="black" stroke-width="1"/>
  <line x1="589.5" y1="380.20593443658987" x2="595.5" y2="380.20593443658987" stroke="black" stroke-width="1"/>
  <text x="580" y="500" text-anchor="middle" font-size="12" font-family="Arial, sans-serif" transform="rotate(-45 580 500)">zpm</text>
  <rect x="617.5" y="479.5219034830275" width="20" height="0.4780965169725196" fill="#FF6B6B" opacity="0.8"/>
  <text x="627.5" y="474.5219034830275" text-anchor="middle" font-size="10" font-family="Arial, sans-serif">34.6</text>
  <line x1="627.5" y1="479.51843956582246" x2="627.5" y2="479.5253674002325" stroke="black" stroke-width="1"/>
  <line x1="624.5" y1="479.51843956582246" x2="630.5" y2="479.51843956582246" stroke="black" stroke-width="1"/>
  <line x1="624.5" y1="479.5253674002325" x2="630.5" y2="479.5253674002325" stroke="black" stroke-width="1"/>
  <rect x="642.5" y="371.9741356508239" width="20" height="108.02586434917615" fill="#45B7D1" opacity="0.8"/>
  <text x="652.5" y="366.9741356508239" text-anchor="middle" font-size="10" font-family="Arial, sans-serif">7826.6</text>
  <line x1="652.5" y1="371.34427580533435" x2="652.5" y2="372.6039954963134" stroke="black" stroke-width="1"/>
  <line x1="649.5" y1="371.34427580533435" x2="655.5" y2="371.34427580533435" stroke="black" stroke-width="1"/>
  <line x1="649.5" y1="372.6039954963134" x2="655.5" y2="372.6039954963134" stroke="black" stroke-width="1"/>
  <text x="640" y="500" text-anchor="middle" font-size="12" font-family="Arial, sans-serif" transform="rotate(-45 640 500)">zim</text>
  <rect x="677.5" y="479.43890024097055" width="20" height="0.5610997590294343" fill="#FF6B6B" opacity="0.8"/>
  <text x="687.5" y="474.43890024097055" text-anchor="middle" font-size="10" font-family="Arial, sans-serif">40.7</text>
  <line x1="687.5" y1="479.4340478882091" x2="687.5" y2="479.44375259373203" stroke="black" stroke-width="1"/>
  <line x1="684.5" y1="479.4340478882091" x2="690.5" y2="479.4340478882091" stroke="black" stroke-width="1"/>
  <line x1="684.5" y1="479.44375259373203" x2="690.5" y2="479.44375259373203" stroke="black" stroke-width="1"/>
  <rect x="702.5" y="368.7727509898664" width="20" height="111.22724901013359" fill="#45B7D1" opacity="0.8"/>
  <text x="712.5" y="363.7727509898664" text-anchor="middle" font-size="10" font-family="Arial, sans-serif">8058.5</text>
  <line x1="712.5" y1="368.3170942670659" x2="712.5" y2="369.22840771266686" stroke="black" stroke-width="1"/>
  <line x1="709.5" y1="368.3170942670659" x2="715.5" y2="368.3170942670659" stroke="black" stroke-width="1"/>
  <line x1="709.5" y1="369.22840771266686" x2="715.5" y2="369.22840771266686" stroke="black" stroke-width="1"/>
  <text x="700" y="500" text-anchor="middle" font-size="12" font-family="Arial, sans-serif" transform="rotate(-45 700 500)">antidote</text>
  <rect x="737.5" y="479.55732226118505" width="20" height="0.442677738814973" fill="#FF6B6B" opacity="0.8"/>
  <text x="747.5" y="474.55732226118505" text-anchor="middle" font-size="10" font-family="Arial, sans-serif">32.1</text>
  <line x1="747.5" y1="479.54224496463934" x2="747.5" y2="479.57239955773076" stroke="black" stroke-width="1"/>
  <line x1="744.5" y1="479.54224496463934" x2="750.5" y2="479.54224496463934" stroke="black" stroke-width="1"/>
  <line x1="744.5" y1="479.57239955773076" x2="750.5" y2="479.57239955773076" stroke="black" stroke-width="1"/>
  <rect x="762.5" y="321.838792372049" width="20" height="158.161207627951" fill="#45B7D1" opacity="0.8"/>
  <text x="772.5" y="316.838792372049" text-anchor="middle" font-size="10" font-family="Arial, sans-serif">11458.9</text>
  <line x1="772.5" y1="320.65102583796994" x2="772.5" y2="323.02655890612806" stroke="black" stroke-width="1"/>
  <line x1="769.5" y1="320.65102583796994" x2="775.5" y2="320.65102583796994" stroke="black" stroke-width="1"/>
  <line x1="769.5" y1="323.02655890612806" x2="775.5" y2="323.02655890612806" stroke="black" stroke-width="1"/>
  <text x="760" y="500" text-anchor="middle" font-size="12" font-family="Arial, sans-serif" transform="rotate(-45 760 500)">zcomet</text>
  <rect x="797.5" y="479.5590447796162" width="20" height="0.44095522038377594" fill="#FF6B6B" opacity="0.8"/>
  <text x="807.5" y="474.5590447796162" text-anchor="middle" font-size="10" font-family="Arial, sans-serif">31.9</text>
  <line x1="807.5" y1="479.55551737183504" x2="807.5" y2="479.5625721873974" stroke="black" stroke-width="1"/>
  <line x1="804.5" y1="479.55551737183504" x2="810.5" y2="479.55551737183504" stroke="black" stroke-width="1"/>
  <line x1="804.5" y1="479.5625721873974" x2="810.5" y2="479.5625721873974" stroke="black" stroke-width="1"/>
  <rect x="822.5" y="320.5207354063789" width="20" height="159.4792645936211" fill="#45B7D1" opacity="0.8"/>
  <text x="832.5" y="315.5207354063789" text-anchor="middle" font-size="10" font-family="Arial, sans-serif">11554.4</text>
  <line x1="832.5" y1="319.3274040414944" x2="832.5" y2="321.7140667712634" stroke="black" stroke-width="1"/>
  <line x1="829.5" y1="319.3274040414944" x2="835.5" y2="319.3274040414944" stroke="black" stroke-width="1"/>
  <line x1="829.5" y1="321.7140667712634" x2="835.5" y2="321.7140667712634" stroke="black" stroke-width="1"/>
  <text x="820" y="500" text-anchor="middle" font-size="12" font-family="Arial, sans-serif" transform="rotate(-45 820 500)">sheldon</text>
  <rect x="857.5" y="462.8615055574671" width="20" height="17.138494442532895" fill="#FF6B6B" opacity="0.8"/>
  <text x="867.5" y="457.8615055574671" text-anchor="middle" font-size="10" font-family="Arial, sans-serif">1241.7</text>
  <line x1="867.5" y1="462.69673228167613" x2="867.5" y2="463.0262788332581" stroke="black" stroke-width="1"/>
  <line x1="864.5" y1="462.69673228167613" x2="870.5" y2="462.69673228167613" stroke="black" stroke-width="1"/>
  <line x1="864.5" y1="463.0262788332581" x2="870.5" y2="463.0262788332581" stroke="black" stroke-width="1"/>
  <rect x="882.5" y="52.29390904907257" width="20" height="427.70609095092743" fill="#45B7D1" opacity="0.8"/>
  <text x="892.5" y="47.29390904907257" text-anchor="middle" font-size="10" font-family="Arial, sans-serif">30987.7</text>
  <line x1="892.5" y1="49.99999999999995" x2="892.5" y2="54.587818098145185" stroke="black" stroke-width="1"/>
  <line x1="889.5" y1="49.99999999999995" x2="895.5" y2="49.99999999999995" stroke="black" stroke-width="1"/>
  <line x1="889.5" y1="54.587818098145185" x2="895.5" y2="54.587818098145185" stroke="black" stroke-width="1"/>
  <text x="880" y="500" text-anchor="middle" font-size="12" font-family="Arial, sans-serif" transform="rotate(-45 880 500)">zinit</text>
  <rect x="917.5" y="479.5825930885733" width="20" height="0.41740691142674163" fill="#FF6B6B" opacity="0.8"/>
  <text x="927.5" y="474.5825930885733" text-anchor="middle" font-size="10" font-family="Arial, sans-serif">30.2</text>
  <line x1="927.5" y1="479.5797273000509" x2="927.5" y2="479.5854588770957" stroke="black" stroke-width="1"/>
  <line x1="924.5" y1="479.5797273000509" x2="930.5" y2="479.5797273000509" stroke="black" stroke-width="1"/>
  <line x1="924.5" y1="479.5854588770957" x2="930.5" y2="479.5854588770957" stroke="black" stroke-width="1"/>
  <text x="940" y="500" text-anchor="middle" font-size="12" font-family="Arial, sans-serif" transform="rotate(-45 940 500)">vanilla</text>
  <rect x="977.5" y="478.77430927535323" width="20" height="1.2256907246467619" fill="#FF6B6B" opacity="0.8"/>
  <text x="987.5" y="473.77430927535323" text-anchor="middle" font-size="10" font-family="Arial, sans-serif">88.8</text>
  <line x1="987.5" y1="478.7607343936149" x2="987.5" y2="478.7878841570916" stroke="black" stroke-width="1"/>
  <line x1="984.5" y1="478.7607343936149" x2="990.5" y2="478.7607343936149" stroke="black" stroke-width="1"/>
  <line x1="984.5" y1="478.7878841570916" x2="990.5" y2="478.7878841570916" stroke="black" stroke-width="1"/>
  <text x="1000" y="500" text-anchor="middle" font-size="12" font-family="Arial, sans-serif" transform="rotate(-45 1000 500)">oh-my-zsh</text>
  <rect x="1037.5" y="470.3416446560519" width="20" height="9.658355343948084" fill="#FF6B6B" opacity="0.8"/>
  <text x="1047.5" y="465.3416446560519" text-anchor="middle" font-size="10" font-family="Arial, sans-serif">699.8</text>
  <line x1="1047.5" y1="470.21951792776076" x2="1047.5" y2="470.4637713843431" stroke="black" stroke-width="1"/>
  <line x1="1044.5" y1="470.21951792776076" x2="1050.5" y2="470.21951792776076" stroke="black" stroke-width="1"/>
  <line x1="1044.5" y1="470.4637713843431" x2="1050.5" y2="470.4637713843431" stroke="black" stroke-width="1"/>
  <text x="1060" y="500" text-anchor="middle" font-size="12" font-family="Arial, sans-serif" transform="rotate(-45 1060 500)">prezto</text>
  <!-- Legend -->
  <rect x="1090" y="60" width="15" height="15" fill="#FF6B6B" opacity="0.8"/>
  <text x="1110" y="72" font-size="12" font-family="Arial, sans-serif">0 plugins</text>
  <rect x="1090" y="80" width="15" height="15" fill="#45B7D1" opacity="0.8"/>
  <text x="1110" y="92" font-size="12" font-family="Arial, sans-serif">25 plugins</text>
</svg>