<svg width="1400" height="600" xmlns="http://www.w3.org/2000/svg" style="background: white;">
  <text x="700" y="30" text-anchor="middle" font-size="20" font-weight="bold" font-family="Arial, sans-serif">Zsh Plugin Manager Install Time Comparison</text>
  
  <!-- Grid lines -->
  <line x1="80" y1="480" x2="1280" y2="480" stroke="#e0e0e0" stroke-width="1"/>
  <text x="70" y="485" text-anchor="end" font-size="12" font-family="Arial, sans-serif">0</text>
  <line x1="80" y1="394" x2="1280" y2="394" stroke="#e0e0e0" stroke-width="1"/>
  <text x="70" y="399" text-anchor="end" font-size="12" font-family="Arial, sans-serif">6205</text>
  <line x1="80" y1="308" x2="1280" y2="308" stroke="#e0e0e0" stroke-width="1"/>
  <text x="70" y="313" text-anchor="end" font-size="12" font-family="Arial, sans-serif">12409</text>
  <line x1="80" y1="222" x2="1280" y2="222" stroke="#e0e0e0" stroke-width="1"/>
  <text x="70" y="227" text-anchor="end" font-size="12" font-family="Arial, sans-serif">18614</text>
  <line x1="80" y1="136" x2="1280" y2="136" stroke="#e0e0e0" stroke-width="1"/>
  <text x="70" y="141" text-anchor="end" font-size="12" font-family="Arial, sans-serif">24819</text>
  <line x1="80" y1="50" x2="1280" y2="50" stroke="#e0e0e0" stroke-width="1"/>
  <text x="70" y="55" text-anchor="end" font-size="12" font-family="Arial, sans-serif">31023</text>
  
  <!-- Axes -->
  <line x1="80" y1="50" x2="80" y2="480" stroke="black" stroke-width="2"/>
  <line x1="80" y1="480" x2="1280" y2="480" stroke="black" stroke-width="2"/>
  
  <!-- Y-axis label -->
  <text x="20" y="300" text-anchor="middle" font-size="14" font-family="Arial, sans-serif" transform="rotate(-90 20 300)">Time (ms)</text>
  <rect x="177.5" y="479.5899000246044" width="20" height="0.41009997539558873" fill="#FF6B6B" opacity="0.8"/>
  <text x="187.5" y="474.5899000246044" text-anchor="middle" font-size="10" font-family="Arial, sans-serif">29.6</text>
  <line x1="187.5" y1="479.5865801897162" x2="187.5" y2="479.5932198594926" stroke="black" stroke-width="1"/>
  <line x1="184.5" y1="479.5865801897162" x2="190.5" y2="479.5865801897162" stroke="black" stroke-width="1"/>
  <line x1="184.5" y1="479.5932198594926" x2="190.5" y2="479.5932198594926" stroke="black" stroke-width="1"/>
  <text x="200" y="500" text-anchor="middle" font-size="12" font-family="Arial, sans-serif" transform="rotate(-45 200 500)">vanilla</text>
  <rect x="237.5" y="478.40176478067343" width="20" height="1.5982352193265916" fill="#FF6B6B" opacity="0.8"/>
  <text x="247.5" y="473.40176478067343" text-anchor="middle" font-size="10" font-family="Arial, sans-serif">115.3</text>
  <line x1="247.5" y1="478.34561692034305" x2="247.5" y2="478.4579126410038" stroke="black" stroke-width="1"/>
  <line x1="244.5" y1="478.34561692034305" x2="250.5" y2="478.34561692034305" stroke="black" stroke-width="1"/>
  <line x1="244.5" y1="478.4579126410038" x2="250.5" y2="478.4579126410038" stroke="black" stroke-width="1"/>
  <rect x="262.5" y="467.90960798936817" width="20" height="12.090392010631836" fill="#45B7D1" opacity="0.8"/>
  <text x="272.5" y="462.90960798936817" text-anchor="middle" font-size="10" font-family="Arial, sans-serif">872.3</text>
  <line x1="272.5" y1="467.81716301702517" x2="272.5" y2="468.0020529617112" stroke="black" stroke-width="1"/>
  <line x1="269.5" y1="467.81716301702517" x2="275.5" y2="467.81716301702517" stroke="black" stroke-width="1"/>
  <line x1="269.5" y1="468.0020529617112" x2="275.5" y2="468.0020529617112" stroke="black" stroke-width="1"/>
  <text x="260" y="500" text-anchor="middle" font-size="12" font-family="Arial, sans-serif" transform="rotate(-45 260 500)">zplug</text>
  <rect x="297.5" y="479.52929000003536" width="20" height="0.47070999996463603" fill="#FF6B6B" opacity="0.8"/>
  <text x="307.5" y="474.52929000003536" text-anchor="middle" font-size="10" font-family="Arial, sans-serif">34.0</text>
  <line x1="307.5" y1="479.52324307025975" x2="307.5" y2="479.53533692981097" stroke="black" stroke-width="1"/>
  <line x1="304.5" y1="479.52324307025975" x2="310.5" y2="479.52324307025975" stroke="black" stroke-width="1"/>
  <line x1="304.5" y1="479.53533692981097" x2="310.5" y2="479.53533692981097" stroke="black" stroke-width="1"/>
  <rect x="322.5" y="455.14727965601764" width="20" height="24.852720343982327" fill="#45B7D1" opacity="0.8"/>
  <text x="332.5" y="450.14727965601764" text-anchor="middle" font-size="10" font-family="Arial, sans-serif">1793.1</text>
  <line x1="332.5" y1="455.0136508119371" x2="332.5" y2="455.2809085000982" stroke="black" stroke-width="1"/>
  <line x1="329.5" y1="455.0136508119371" x2="335.5" y2="455.0136508119371" stroke="black" stroke-width="1"/>
  <line x1="329.5" y1="455.2809085000982" x2="335.5" y2="455.2809085000982" stroke="black" stroke-width="1"/>
  <text x="320" y="500" text-anchor="middle" font-size="12" font-family="Arial, sans-serif" transform="rotate(-45 320 500)">zgenom</text>
  <rect x="357.5" y="478.82794990161227" width="20" height="1.1720500983877293" fill="#FF6B6B" opacity="0.8"/>
  <text x="367.5" y="473.82794990161227" text-anchor="middle" font-size="10" font-family="Arial, sans-serif">84.6</text>
  <line x1="367.5" y1="476.5076257115308" x2="367.5" y2="481.14827409169374" stroke="black" stroke-width="1"/>
  <line x1="364.5" y1="476.5076257115308" x2="370.5" y2="476.5076257115308" stroke="black" stroke-width="1"/>
  <line x1="364.5" y1="481.14827409169374" x2="370.5" y2="481.14827409169374" stroke="black" stroke-width="1"/>
  <rect x="382.5" y="453.490984972384" width="20" height="26.50901502761599" fill="#45B7D1" opacity="0.8"/>
  <text x="392.5" y="448.490984972384" text-anchor="middle" font-size="10" font-family="Arial, sans-serif">1912.6</text>
  <line x1="392.5" y1="452.89741419078933" x2="392.5" y2="454.0845557539787" stroke="black" stroke-width="1"/>
  <line x1="389.5" y1="452.89741419078933" x2="395.5" y2="452.89741419078933" stroke="black" stroke-width="1"/>
  <line x1="389.5" y1="454.0845557539787" x2="395.5" y2="454.0845557539787" stroke="black" stroke-width="1"/>
  <text x="380" y="500" text-anchor="middle" font-size="12" font-family="Arial, sans-serif" transform="rotate(-45 380 500)">znap</text>
  <rect x="417.5" y="471.36823281828913" width="20" height="8.631767181710883" fill="#FF6B6B" opacity="0.8"/>
  <text x="427.5" y="466.36823281828913" text-anchor="middle" font-size="10" font-family="Arial, sans-serif">622.8</text>
  <line x1="427.5" y1="471.23410808943015" x2="427.5" y2="471.5023575471481" stroke="black" stroke-width="1"/>
  <line x1="424.5" y1="471.23410808943015" x2="430.5" y2="471.23410808943015" stroke="black" stroke-width="1"/>
  <line x1="424.5" y1="471.5023575471481" x2="430.5" y2="471.5023575471481" stroke="black" stroke-width="1"/>
  <rect x="442.5" y="427.1484557754056" width="20" height="52.85154422459443" fill="#45B7D1" opacity="0.8"/>
  <text x="452.5" y="422.1484557754056" text-anchor="middle" font-size="10" font-family="Arial, sans-serif">3813.1</text>
  <line x1="452.5" y1="425.53088805413535" x2="452.5" y2="428.7660234966758" stroke="black" stroke-width="1"/>
  <line x1="449.5" y1="425.53088805413535" x2="455.5" y2="425.53088805413535" stroke="black" stroke-width="1"/>
  <line x1="449.5" y1="428.7660234966758" x2="455.5" y2="428.7660234966758" stroke="black" stroke-width="1"/>
  <text x="440" y="500" text-anchor="middle" font-size="12" font-family="Arial, sans-serif" transform="rotate(-45 440 500)">antigen</text>
  <rect x="477.5" y="479.5856942553142" width="20" height="0.4143057446857895" fill="#FF6B6B" opacity="0.8"/>
  <text x="487.5" y="474.5856942553142" text-anchor="middle" font-size="10" font-family="Arial, sans-serif">29.9</text>
  <line x1="487.5" y1="479.5812604352058" x2="487.5" y2="479.59012807542257" stroke="black" stroke-width="1"/>
  <line x1="484.5" y1="479.5812604352058" x2="490.5" y2="479.5812604352058" stroke="black" stroke-width="1"/>
  <line x1="484.5" y1="479.59012807542257" x2="490.5" y2="479.59012807542257" stroke="black" stroke-width="1"/>
  <rect x="502.5" y="404.94545882017763" width="20" height="75.05454117982237" fill="#45B7D1" opacity="0.8"/>
  <text x="512.5" y="399.94545882017763" text-anchor="middle" font-size="10" font-family="Arial, sans-serif">5415.0</text>
  <line x1="512.5" y1="403.53197331136425" x2="512.5" y2="406.358944328991" stroke="black" stroke-width="1"/>
  <line x1="509.5" y1="403.53197331136425" x2="515.5" y2="403.53197331136425" stroke="black" stroke-width="1"/>
  <line x1="509.5" y1="406.358944328991" x2="515.5" y2="406.358944328991" stroke="black" stroke-width="1"/>
  <text x="500" y="500" text-anchor="middle" font-size="12" font-family="Arial, sans-serif" transform="rotate(-45 500 500)">antigen-hs</text>
  <rect x="537.5" y="479.5872423025643" width="20" height="0.4127576974357356" fill="#FF6B6B" opacity="0.8"/>
  <text x="547.5" y="474.5872423025643" text-anchor="middle" font-size="10" font-family="Arial, sans-serif">29.8</text>
  <line x1="547.5" y1="479.5853489546268" x2="547.5" y2="479.58913565050176" stroke="black" stroke-width="1"/>
  <line x1="544.5" y1="479.5853489546268" x2="550.5" y2="479.5853489546268" stroke="black" stroke-width="1"/>
  <line x1="544.5" y1="479.58913565050176" x2="550.5" y2="479.58913565050176" stroke="black" stroke-width="1"/>
  <rect x="562.5" y="404.63595579595335" width="20" height="75.36404420404668" fill="#45B7D1" opacity="0.8"/>
  <text x="572.5" y="399.63595579595335" text-anchor="middle" font-size="10" font-family="Arial, sans-serif">5437.3</text>
  <line x1="572.5" y1="402.65378271382605" x2="572.5" y2="406.61812887808065" stroke="black" stroke-width="1"/>
  <line x1="569.5" y1="402.65378271382605" x2="575.5" y2="402.65378271382605" stroke="black" stroke-width="1"/>
  <line x1="569.5" y1="406.61812887808065" x2="575.5" y2="406.61812887808065" stroke="black" stroke-width="1"/>
  <text x="560" y="500" text-anchor="middle" font-size="12" font-family="Arial, sans-serif" transform="rotate(-45 560 500)">zr</text>
  <rect x="597.5" y="479.5854582481394" width="20" height="0.4145417518606339" fill="#FF6B6B" opacity="0.8"/>
  <text x="607.5" y="474.5854582481394" text-anchor="middle" font-size="10" font-family="Arial, sans-serif">29.9</text>
  <line x1="607.5" y1="479.5825329496947" x2="607.5" y2="479.58838354658405" stroke="black" stroke-width="1"/>
  <line x1="604.5" y1="479.5825329496947" x2="610.5" y2="479.5825329496947" stroke="black" stroke-width="1"/>
  <line x1="604.5" y1="479.58838354658405" x2="610.5" y2="479.58838354658405" stroke="black" stroke-width="1"/>
  <rect x="622.5" y="402.75940461262803" width="20" height="77.24059538737194" fill="#45B7D1" opacity="0.8"/>
  <text x="632.5" y="397.75940461262803" text-anchor="middle" font-size="10" font-family="Arial, sans-serif">5572.7</text>
  <line x1="632.5" y1="400.24524347202737" x2="632.5" y2="405.2735657532287" stroke="black" stroke-width="1"/>
  <line x1="629.5" y1="400.24524347202737" x2="635.5" y2="400.24524347202737" stroke="black" stroke-width="1"/>
  <line x1="629.5" y1="405.2735657532287" x2="635.5" y2="405.2735657532287" stroke="black" stroke-width="1"/>
  <text x="620" y="500" text-anchor="middle" font-size="12" font-family="Arial, sans-serif" transform="rotate(-45 620 500)">alf</text>
  <rect x="657.5" y="479.5600544463398" width="20" height="0.43994555366018584" fill="#FF6B6B" opacity="0.8"/>
  <text x="667.5" y="474.5600544463398" text-anchor="middle" font-size="10" font-family="Arial, sans-serif">31.7</text>
  <line x1="667.5" y1="479.5575427659927" x2="667.5" y2="479.5625661266869" stroke="black" stroke-width="1"/>
  <line x1="664.5" y1="479.5575427659927" x2="670.5" y2="479.5575427659927" stroke="black" stroke-width="1"/>
  <line x1="664.5" y1="479.5625661266869" x2="670.5" y2="479.5625661266869" stroke="black" stroke-width="1"/>
  <rect x="682.5" y="393.3430163650181" width="20" height="86.65698363498187" fill="#45B7D1" opacity="0.8"/>
  <text x="692.5" y="388.3430163650181" text-anchor="middle" font-size="10" font-family="Arial, sans-serif">6252.1</text>
  <line x1="692.5" y1="391.5833974179224" x2="692.5" y2="395.1026353121138" stroke="black" stroke-width="1"/>
  <line x1="689.5" y1="391.5833974179224" x2="695.5" y2="391.5833974179224" stroke="black" stroke-width="1"/>
  <line x1="689.5" y1="395.1026353121138" x2="695.5" y2="395.1026353121138" stroke="black" stroke-width="1"/>
  <text x="680" y="500" text-anchor="middle" font-size="12" font-family="Arial, sans-serif" transform="rotate(-45 680 500)">antibody</text>
  <rect x="717.5" y="476.2282970963049" width="20" height="3.7717029036951" fill="#FF6B6B" opacity="0.8"/>
  <text x="727.5" y="471.2282970963049" text-anchor="middle" font-size="10" font-family="Arial, sans-serif">272.1</text>
  <line x1="727.5" y1="476.0873618841776" x2="727.5" y2="476.36923230843223" stroke="black" stroke-width="1"/>
  <line x1="724.5" y1="476.0873618841776" x2="730.5" y2="476.0873618841776" stroke="black" stroke-width="1"/>
  <line x1="724.5" y1="476.36923230843223" x2="730.5" y2="476.36923230843223" stroke="black" stroke-width="1"/>
  <rect x="742.5" y="384.78478738117855" width="20" height="95.21521261882145" fill="#45B7D1" opacity="0.8"/>
  <text x="752.5" y="379.78478738117855" text-anchor="middle" font-size="10" font-family="Arial, sans-serif">6869.5</text>
  <line x1="752.5" y1="383.4568135231612" x2="752.5" y2="386.1127612391959" stroke="black" stroke-width="1"/>
  <line x1="749.5" y1="383.4568135231612" x2="755.5" y2="383.4568135231612" stroke="black" stroke-width="1"/>
  <line x1="749.5" y1="386.1127612391959" x2="755.5" y2="386.1127612391959" stroke="black" stroke-width="1"/>
  <text x="740" y="500" text-anchor="middle" font-size="12" font-family="Arial, sans-serif" transform="rotate(-45 740 500)">zpm</text>
  <rect x="777.5" y="479.5248929812911" width="20" height="0.47510701870893807" fill="#FF6B6B" opacity="0.8"/>
  <text x="787.5" y="474.5248929812911" text-anchor="middle" font-size="10" font-family="Arial, sans-serif">34.3</text>
  <line x1="787.5" y1="479.5220966575448" x2="787.5" y2="479.52768930503737" stroke="black" stroke-width="1"/>
  <line x1="784.5" y1="479.5220966575448" x2="790.5" y2="479.5220966575448" stroke="black" stroke-width="1"/>
  <line x1="784.5" y1="479.52768930503737" x2="790.5" y2="479.52768930503737" stroke="black" stroke-width="1"/>
  <rect x="802.5" y="371.32901748134645" width="20" height="108.67098251865355" fill="#45B7D1" opacity="0.8"/>
  <text x="812.5" y="366.32901748134645" text-anchor="middle" font-size="10" font-family="Arial, sans-serif">7840.3</text>
  <line x1="812.5" y1="370.95887119308765" x2="812.5" y2="371.69916376960526" stroke="black" stroke-width="1"/>
  <line x1="809.5" y1="370.95887119308765" x2="815.5" y2="370.95887119308765" stroke="black" stroke-width="1"/>
  <line x1="809.5" y1="371.69916376960526" x2="815.5" y2="371.69916376960526" stroke="black" stroke-width="1"/>
  <text x="800" y="500" text-anchor="middle" font-size="12" font-family="Arial, sans-serif" transform="rotate(-45 800 500)">zim</text>
  <rect x="837.5" y="479.44177852701773" width="20" height="0.5582214729822708" fill="#FF6B6B" opacity="0.8"/>
  <text x="847.5" y="474.44177852701773" text-anchor="middle" font-size="10" font-family="Arial, sans-serif">40.3</text>
  <line x1="847.5" y1="479.433014139253" x2="847.5" y2="479.4505429147825" stroke="black" stroke-width="1"/>
  <line x1="844.5" y1="479.433014139253" x2="850.5" y2="479.433014139253" stroke="black" stroke-width="1"/>
  <line x1="844.5" y1="479.4505429147825" x2="850.5" y2="479.4505429147825" stroke="black" stroke-width="1"/>
  <rect x="862.5" y="367.98433080398536" width="20" height="112.01566919601461" fill="#45B7D1" opacity="0.8"/>
  <text x="872.5" y="362.98433080398536" text-anchor="middle" font-size="10" font-family="Arial, sans-serif">8081.7</text>
  <line x1="872.5" y1="367.5922656912094" x2="872.5" y2="368.37639591676134" stroke="black" stroke-width="1"/>
  <line x1="869.5" y1="367.5922656912094" x2="875.5" y2="367.5922656912094" stroke="black" stroke-width="1"/>
  <line x1="869.5" y1="368.37639591676134" x2="875.5" y2="368.37639591676134" stroke="black" stroke-width="1"/>
  <text x="860" y="500" text-anchor="middle" font-size="12" font-family="Arial, sans-serif" transform="rotate(-45 860 500)">antidote</text>
  <rect x="897.5" y="479.56115422474426" width="20" height="0.4388457752557198" fill="#FF6B6B" opacity="0.8"/>
  <text x="907.5" y="474.56115422474426" text-anchor="middle" font-size="10" font-family="Arial, sans-serif">31.7</text>
  <line x1="907.5" y1="479.55586584344667" x2="907.5" y2="479.56644260604185" stroke="black" stroke-width="1"/>
  <line x1="904.5" y1="479.55586584344667" x2="910.5" y2="479.55586584344667" stroke="black" stroke-width="1"/>
  <line x1="904.5" y1="479.56644260604185" x2="910.5" y2="479.56644260604185" stroke="black" stroke-width="1"/>
  <rect x="922.5" y="328.90109978177816" width="20" height="151.09890021822187" fill="#45B7D1" opacity="0.8"/>
  <text x="932.5" y="323.90109978177816" text-anchor="middle" font-size="10" font-family="Arial, sans-serif">10901.4</text>
  <line x1="932.5" y1="327.1446237826451" x2="932.5" y2="330.6575757809112" stroke="black" stroke-width="1"/>
  <line x1="929.5" y1="327.1446237826451" x2="935.5" y2="327.1446237826451" stroke="black" stroke-width="1"/>
  <line x1="929.5" y1="330.6575757809112" x2="935.5" y2="330.6575757809112" stroke="black" stroke-width="1"/>
  <text x="920" y="500" text-anchor="middle" font-size="12" font-family="Arial, sans-serif" transform="rotate(-45 920 500)">zcomet</text>
  <rect x="957.5" y="479.5563587104299" width="20" height="0.44364128957010024" fill="#FF6B6B" opacity="0.8"/>
  <text x="967.5" y="474.5563587104299" text-anchor="middle" font-size="10" font-family="Arial, sans-serif">32.0</text>
  <line x1="967.5" y1="479.55178151240625" x2="967.5" y2="479.56093590845353" stroke="black" stroke-width="1"/>
  <line x1="964.5" y1="479.55178151240625" x2="970.5" y2="479.55178151240625" stroke="black" stroke-width="1"/>
  <line x1="964.5" y1="479.56093590845353" x2="970.5" y2="479.56093590845353" stroke="black" stroke-width="1"/>
  <rect x="982.5" y="321.73748465488666" width="20" height="158.26251534511337" fill="#45B7D1" opacity="0.8"/>
  <text x="992.5" y="316.73748465488666" text-anchor="middle" font-size="10" font-family="Arial, sans-serif">11418.3</text>
  <line x1="992.5" y1="320.5297534520769" x2="992.5" y2="322.94521585769644" stroke="black" stroke-width="1"/>
  <line x1="989.5" y1="320.5297534520769" x2="995.5" y2="320.5297534520769" stroke="black" stroke-width="1"/>
  <line x1="989.5" y1="322.94521585769644" x2="995.5" y2="322.94521585769644" stroke="black" stroke-width="1"/>
  <text x="980" y="500" text-anchor="middle" font-size="12" font-family="Arial, sans-serif" transform="rotate(-45 980 500)">sheldon</text>
  <rect x="1017.5" y="462.73409163033074" width="20" height="17.265908369669265" fill="#FF6B6B" opacity="0.8"/>
  <text x="1027.5" y="457.73409163033074" text-anchor="middle" font-size="10" font-family="Arial, sans-serif">1245.7</text>
  <line x1="1027.5" y1="462.627565597902" x2="1027.5" y2="462.8406176627595" stroke="black" stroke-width="1"/>
  <line x1="1024.5" y1="462.627565597902" x2="1030.5" y2="462.627565597902" stroke="black" stroke-width="1"/>
  <line x1="1024.5" y1="462.8406176627595" x2="1030.5" y2="462.8406176627595" stroke="black" stroke-width="1"/>
  <rect x="1042.5" y="51.99646164290789" width="20" height="428.0035383570921" fill="#45B7D1" opacity="0.8"/>
  <text x="1052.5" y="46.99646164290789" text-anchor="middle" font-size="10" font-family="Arial, sans-serif">30879.4</text>
  <line x1="1052.5" y1="49.999999999999986" x2="1052.5" y2="53.99292328581579" stroke="black" stroke-width="1"/>
  <line x1="1049.5" y1="49.999999999999986" x2="1055.5" y2="49.999999999999986" stroke="black" stroke-width="1"/>
  <line x1="1049.5" y1="53.99292328581579" x2="1055.5" y2="53.99292328581579" stroke="black" stroke-width="1"/>
  <text x="1040" y="500" text-anchor="middle" font-size="12" font-family="Arial, sans-serif" transform="rotate(-45 1040 500)">zinit</text>
  <rect x="1077.5" y="478.78874735754505" width="20" height="1.2112526424549488" fill="#FF6B6B" opacity="0.8"/>
  <text x="1087.5" y="473.78874735754505" text-anchor="middle" font-size="10" font-family="Arial, sans-serif">87.4</text>
  <line x1="1087.5" y1="478.7819538982193" x2="1087.5" y2="478.7955408168708" stroke="black" stroke-width="1"/>
  <line x1="1084.5" y1="478.7819538982193" x2="1090.5" y2="478.7819538982193" stroke="black" stroke-width="1"/>
  <line x1="1084.5" y1="478.7955408168708" x2="1090.5" y2="478.7955408168708" stroke="black" stroke-width="1"/>
  <text x="1100" y="500" text-anchor="middle" font-size="12" font-family="Arial, sans-serif" transform="rotate(-45 1100 500)">oh-my-zsh</text>
  <rect x="1137.5" y="470.2222523494171" width="20" height="9.777747650582928" fill="#FF6B6B" opacity="0.8"/>
  <text x="1147.5" y="465.2222523494171" text-anchor="middle" font-size="10" font-family="Arial, sans-serif">705.4</text>
  <line x1="1147.5" y1="470.17710917846256" x2="1147.5" y2="470.2673955203716" stroke="black" stroke-width="1"/>
  <line x1="1144.5" y1="470.17710917846256" x2="1150.5" y2="470.17710917846256" stroke="black" stroke-width="1"/>
  <line x1="1144.5" y1="470.2673955203716" x2="1150.5" y2="470.2673955203716" stroke="black" stroke-width="1"/>
  <text x="1160" y="500" text-anchor="middle" font-size="12" font-family="Arial, sans-serif" transform="rotate(-45 1160 500)">prezto</text>
  <!-- Legend -->
  <rect x="1290" y="60" width="15" height="15" fill="#FF6B6B" opacity="0.8"/>
  <text x="1310" y="72" font-size="12" font-family="Arial, sans-serif">0 plugins</text>
  <rect x="1290" y="80" width="15" height="15" fill="#45B7D1" opacity="0.8"/>
  <text x="1310" y="92" font-size="12" font-family="Arial, sans-serif">25 plugins</text>
</svg>