<svg width="1400" height="600" xmlns="http://www.w3.org/2000/svg" style="background: white;">
  <text x="700" y="30" text-anchor="middle" font-size="20" font-weight="bold" font-family="Arial, sans-serif">Zsh Plugin Manager Install Time Comparison</text>
  
  <!-- Grid lines -->
  <line x1="80" y1="480" x2="1280" y2="480" stroke="#e0e0e0" stroke-width="1"/>
  <text x="70" y="485" text-anchor="end" font-size="12" font-family="Arial, sans-serif">0</text>
  <line x1="80" y1="394" x2="1280" y2="394" stroke="#e0e0e0" stroke-width="1"/>
  <text x="70" y="399" text-anchor="end" font-size="12" font-family="Arial, sans-serif">6274</text>
  <line x1="80" y1="308" x2="1280" y2="308" stroke="#e0e0e0" stroke-width="1"/>
  <text x="70" y="313" text-anchor="end" font-size="12" font-family="Arial, sans-serif">12549</text>
  <line x1="80" y1="222" x2="1280" y2="222" stroke="#e0e0e0" stroke-width="1"/>
  <text x="70" y="227" text-anchor="end" font-size="12" font-family="Arial, sans-serif">18823</text>
  <line x1="80" y1="136" x2="1280" y2="136" stroke="#e0e0e0" stroke-width="1"/>
  <text x="70" y="141" text-anchor="end" font-size="12" font-family="Arial, sans-serif">25097</text>
  <line x1="80" y1="50" x2="1280" y2="50" stroke="#e0e0e0" stroke-width="1"/>
  <text x="70" y="55" text-anchor="end" font-size="12" font-family="Arial, sans-serif">31372</text>
  
  <!-- Axes -->
  <line x1="80" y1="50" x2="80" y2="480" stroke="black" stroke-width="2"/>
  <line x1="80" y1="480" x2="1280" y2="480" stroke="black" stroke-width="2"/>
  
  <!-- Y-axis label -->
  <text x="20" y="300" text-anchor="middle" font-size="14" font-family="Arial, sans-serif" transform="rotate(-90 20 300)">Time (ms)</text>
  <rect x="177.5" y="479.5826212498124" width="20" height="0.4173787501875931" fill="#FF6B6B" opacity="0.8"/>
  <text x="187.5" y="474.5826212498124" text-anchor="middle" font-size="10" font-family="Arial, sans-serif">30.5</text>
  <line x1="187.5" y1="479.5698226971248" x2="187.5" y2="479.59541980250003" stroke="black" stroke-width="1"/>
  <line x1="184.5" y1="479.5698226971248" x2="190.5" y2="479.5698226971248" stroke="black" stroke-width="1"/>
  <line x1="184.5" y1="479.59541980250003" x2="190.5" y2="479.59541980250003" stroke="black" stroke-width="1"/>
  <text x="200" y="500" text-anchor="middle" font-size="12" font-family="Arial, sans-serif" transform="rotate(-45 200 500)">vanilla</text>
  <rect x="237.5" y="478.8465572594773" width="20" height="1.1534427405226821" fill="#FF6B6B" opacity="0.8"/>
  <text x="247.5" y="473.8465572594773" text-anchor="middle" font-size="10" font-family="Arial, sans-serif">84.2</text>
  <line x1="247.5" y1="476.58787246213956" x2="247.5" y2="481.1052420568151" stroke="black" stroke-width="1"/>
  <line x1="244.5" y1="476.58787246213956" x2="250.5" y2="476.58787246213956" stroke="black" stroke-width="1"/>
  <line x1="244.5" y1="481.1052420568151" x2="250.5" y2="481.1052420568151" stroke="black" stroke-width="1"/>
  <rect x="262.5" y="457.04574738840796" width="20" height="22.954252611592022" fill="#45B7D1" opacity="0.8"/>
  <text x="272.5" y="452.04574738840796" text-anchor="middle" font-size="10" font-family="Arial, sans-serif">1674.7</text>
  <line x1="272.5" y1="449.44068392459485" x2="272.5" y2="464.65081085222107" stroke="black" stroke-width="1"/>
  <line x1="269.5" y1="449.44068392459485" x2="275.5" y2="449.44068392459485" stroke="black" stroke-width="1"/>
  <line x1="269.5" y1="464.65081085222107" x2="275.5" y2="464.65081085222107" stroke="black" stroke-width="1"/>
  <text x="260" y="500" text-anchor="middle" font-size="12" font-family="Arial, sans-serif" transform="rotate(-45 260 500)">znap</text>
  <rect x="297.5" y="471.3682251871405" width="20" height="8.631774812859467" fill="#FF6B6B" opacity="0.8"/>
  <text x="307.5" y="466.3682251871405" text-anchor="middle" font-size="10" font-family="Arial, sans-serif">629.7</text>
  <line x1="307.5" y1="470.9688610790437" x2="307.5" y2="471.76758929523737" stroke="black" stroke-width="1"/>
  <line x1="304.5" y1="470.9688610790437" x2="310.5" y2="470.9688610790437" stroke="black" stroke-width="1"/>
  <line x1="304.5" y1="471.76758929523737" x2="310.5" y2="471.76758929523737" stroke="black" stroke-width="1"/>
  <rect x="322.5" y="411.3369824214933" width="20" height="68.66301757850667" fill="#45B7D1" opacity="0.8"/>
  <text x="332.5" y="406.3369824214933" text-anchor="middle" font-size="10" font-family="Arial, sans-serif">5009.4</text>
  <line x1="332.5" y1="410.59640385020447" x2="332.5" y2="412.07756099278214" stroke="black" stroke-width="1"/>
  <line x1="329.5" y1="410.59640385020447" x2="335.5" y2="410.59640385020447" stroke="black" stroke-width="1"/>
  <line x1="329.5" y1="412.07756099278214" x2="335.5" y2="412.07756099278214" stroke="black" stroke-width="1"/>
  <text x="320" y="500" text-anchor="middle" font-size="12" font-family="Arial, sans-serif" transform="rotate(-45 320 500)">antigen</text>
  <rect x="357.5" y="479.5900207667458" width="20" height="0.4099792332542289" fill="#FF6B6B" opacity="0.8"/>
  <text x="367.5" y="474.5900207667458" text-anchor="middle" font-size="10" font-family="Arial, sans-serif">29.9</text>
  <line x1="367.5" y1="479.5878953874377" x2="367.5" y2="479.5921461460539" stroke="black" stroke-width="1"/>
  <line x1="364.5" y1="479.5878953874377" x2="370.5" y2="479.5878953874377" stroke="black" stroke-width="1"/>
  <line x1="364.5" y1="479.5921461460539" x2="370.5" y2="479.5921461460539" stroke="black" stroke-width="1"/>
  <rect x="382.5" y="396.5324283751694" width="20" height="83.46757162483061" fill="#45B7D1" opacity="0.8"/>
  <text x="392.5" y="391.5324283751694" text-anchor="middle" font-size="10" font-family="Arial, sans-serif">6089.5</text>
  <line x1="392.5" y1="395.3182777022558" x2="392.5" y2="397.746579048083" stroke="black" stroke-width="1"/>
  <line x1="389.5" y1="395.3182777022558" x2="395.5" y2="395.3182777022558" stroke="black" stroke-width="1"/>
  <line x1="389.5" y1="397.746579048083" x2="395.5" y2="397.746579048083" stroke="black" stroke-width="1"/>
  <text x="380" y="500" text-anchor="middle" font-size="12" font-family="Arial, sans-serif" transform="rotate(-45 380 500)">alf</text>
  <rect x="417.5" y="479.5028698026434" width="20" height="0.497130197356612" fill="#FF6B6B" opacity="0.8"/>
  <text x="427.5" y="474.5028698026434" text-anchor="middle" font-size="10" font-family="Arial, sans-serif">36.3</text>
  <line x1="427.5" y1="479.3924576108587" x2="427.5" y2="479.61328199442806" stroke="black" stroke-width="1"/>
  <line x1="424.5" y1="479.3924576108587" x2="430.5" y2="479.3924576108587" stroke="black" stroke-width="1"/>
  <line x1="424.5" y1="479.61328199442806" x2="430.5" y2="479.61328199442806" stroke="black" stroke-width="1"/>
  <rect x="442.5" y="396.4733702604485" width="20" height="83.5266297395515" fill="#45B7D1" opacity="0.8"/>
  <text x="452.5" y="391.4733702604485" text-anchor="middle" font-size="10" font-family="Arial, sans-serif">6093.9</text>
  <line x1="452.5" y1="394.87959021777243" x2="452.5" y2="398.0671503031246" stroke="black" stroke-width="1"/>
  <line x1="449.5" y1="394.87959021777243" x2="455.5" y2="394.87959021777243" stroke="black" stroke-width="1"/>
  <line x1="449.5" y1="398.0671503031246" x2="455.5" y2="398.0671503031246" stroke="black" stroke-width="1"/>
  <text x="440" y="500" text-anchor="middle" font-size="12" font-family="Arial, sans-serif" transform="rotate(-45 440 500)">antigen-hs</text>
  <rect x="477.5" y="479.5915494304138" width="20" height="0.4084505695861873" fill="#FF6B6B" opacity="0.8"/>
  <text x="487.5" y="474.5915494304138" text-anchor="middle" font-size="10" font-family="Arial, sans-serif">29.8</text>
  <line x1="487.5" y1="479.5877770318831" x2="487.5" y2="479.5953218289445" stroke="black" stroke-width="1"/>
  <line x1="484.5" y1="479.5877770318831" x2="490.5" y2="479.5877770318831" stroke="black" stroke-width="1"/>
  <line x1="484.5" y1="479.5953218289445" x2="490.5" y2="479.5953218289445" stroke="black" stroke-width="1"/>
  <rect x="502.5" y="393.3079609700264" width="20" height="86.69203902997363" fill="#45B7D1" opacity="0.8"/>
  <text x="512.5" y="388.3079609700264" text-anchor="middle" font-size="10" font-family="Arial, sans-serif">6324.8</text>
  <line x1="512.5" y1="381.42308230954905" x2="512.5" y2="405.1928396305037" stroke="black" stroke-width="1"/>
  <line x1="509.5" y1="381.42308230954905" x2="515.5" y2="381.42308230954905" stroke="black" stroke-width="1"/>
  <line x1="509.5" y1="405.1928396305037" x2="515.5" y2="405.1928396305037" stroke="black" stroke-width="1"/>
  <text x="500" y="500" text-anchor="middle" font-size="12" font-family="Arial, sans-serif" transform="rotate(-45 500 500)">zr</text>
  <rect x="537.5" y="479.5521421146385" width="20" height="0.4478578853614641" fill="#FF6B6B" opacity="0.8"/>
  <text x="547.5" y="474.5521421146385" text-anchor="middle" font-size="10" font-family="Arial, sans-serif">32.7</text>
  <line x1="547.5" y1="479.5457808311612" x2="547.5" y2="479.5585033981158" stroke="black" stroke-width="1"/>
  <line x1="544.5" y1="479.5457808311612" x2="550.5" y2="479.5457808311612" stroke="black" stroke-width="1"/>
  <line x1="544.5" y1="479.5585033981158" x2="550.5" y2="479.5585033981158" stroke="black" stroke-width="1"/>
  <rect x="562.5" y="388.0116456978639" width="20" height="91.98835430213607" fill="#45B7D1" opacity="0.8"/>
  <text x="572.5" y="383.0116456978639" text-anchor="middle" font-size="10" font-family="Arial, sans-serif">6711.2</text>
  <line x1="572.5" y1="386.91024248111825" x2="572.5" y2="389.1130489146096" stroke="black" stroke-width="1"/>
  <line x1="569.5" y1="386.91024248111825" x2="575.5" y2="386.91024248111825" stroke="black" stroke-width="1"/>
  <line x1="569.5" y1="389.1130489146096" x2="575.5" y2="389.1130489146096" stroke="black" stroke-width="1"/>
  <text x="560" y="500" text-anchor="middle" font-size="12" font-family="Arial, sans-serif" transform="rotate(-45 560 500)">antibody</text>
  <rect x="597.5" y="476.2241582721839" width="20" height="3.7758417278161005" fill="#FF6B6B" opacity="0.8"/>
  <text x="607.5" y="471.2241582721839" text-anchor="middle" font-size="10" font-family="Arial, sans-serif">275.5</text>
  <line x1="607.5" y1="476.0614604504619" x2="607.5" y2="476.3868560939059" stroke="black" stroke-width="1"/>
  <line x1="604.5" y1="476.0614604504619" x2="610.5" y2="476.0614604504619" stroke="black" stroke-width="1"/>
  <line x1="604.5" y1="476.3868560939059" x2="610.5" y2="476.3868560939059" stroke="black" stroke-width="1"/>
  <rect x="622.5" y="377.1380438805544" width="20" height="102.86195611944562" fill="#45B7D1" opacity="0.8"/>
  <text x="632.5" y="372.1380438805544" text-anchor="middle" font-size="10" font-family="Arial, sans-serif">7504.5</text>
  <line x1="632.5" y1="375.6691366692942" x2="632.5" y2="378.6069510918146" stroke="black" stroke-width="1"/>
  <line x1="629.5" y1="375.6691366692942" x2="635.5" y2="375.6691366692942" stroke="black" stroke-width="1"/>
  <line x1="629.5" y1="378.6069510918146" x2="635.5" y2="378.6069510918146" stroke="black" stroke-width="1"/>
  <text x="620" y="500" text-anchor="middle" font-size="12" font-family="Arial, sans-serif" transform="rotate(-45 620 500)">zpm</text>
  <rect x="657.5" y="479.52679799768055" width="20" height="0.4732020023194748" fill="#FF6B6B" opacity="0.8"/>
  <text x="667.5" y="474.52679799768055" text-anchor="middle" font-size="10" font-family="Arial, sans-serif">34.5</text>
  <line x1="667.5" y1="479.52431190175173" x2="667.5" y2="479.52928409360936" stroke="black" stroke-width="1"/>
  <line x1="664.5" y1="479.52431190175173" x2="670.5" y2="479.52431190175173" stroke="black" stroke-width="1"/>
  <line x1="664.5" y1="479.52928409360936" x2="670.5" y2="479.52928409360936" stroke="black" stroke-width="1"/>
  <rect x="682.5" y="372.3818072809595" width="20" height="107.61819271904048" fill="#45B7D1" opacity="0.8"/>
  <text x="692.5" y="367.3818072809595" text-anchor="middle" font-size="10" font-family="Arial, sans-serif">7851.5</text>
  <line x1="692.5" y1="371.5804231154" x2="692.5" y2="373.183191446519" stroke="black" stroke-width="1"/>
  <line x1="689.5" y1="371.5804231154" x2="695.5" y2="371.5804231154" stroke="black" stroke-width="1"/>
  <line x1="689.5" y1="373.183191446519" x2="695.5" y2="373.183191446519" stroke="black" stroke-width="1"/>
  <text x="680" y="500" text-anchor="middle" font-size="12" font-family="Arial, sans-serif" transform="rotate(-45 680 500)">zim</text>
  <rect x="717.5" y="479.4518361288255" width="20" height="0.54816387117452" fill="#FF6B6B" opacity="0.8"/>
  <text x="727.5" y="474.4518361288255" text-anchor="middle" font-size="10" font-family="Arial, sans-serif">40.0</text>
  <line x1="727.5" y1="479.4476383176284" x2="727.5" y2="479.4560339400226" stroke="black" stroke-width="1"/>
  <line x1="724.5" y1="479.4476383176284" x2="730.5" y2="479.4476383176284" stroke="black" stroke-width="1"/>
  <line x1="724.5" y1="479.4560339400226" x2="730.5" y2="479.4560339400226" stroke="black" stroke-width="1"/>
  <rect x="742.5" y="367.810572591293" width="20" height="112.189427408707" fill="#45B7D1" opacity="0.8"/>
  <text x="752.5" y="362.810572591293" text-anchor="middle" font-size="10" font-family="Arial, sans-serif">8185.0</text>
  <line x1="752.5" y1="366.64368142251146" x2="752.5" y2="368.97746376007456" stroke="black" stroke-width="1"/>
  <line x1="749.5" y1="366.64368142251146" x2="755.5" y2="366.64368142251146" stroke="black" stroke-width="1"/>
  <line x1="749.5" y1="368.97746376007456" x2="755.5" y2="368.97746376007456" stroke="black" stroke-width="1"/>
  <text x="740" y="500" text-anchor="middle" font-size="12" font-family="Arial, sans-serif" transform="rotate(-45 740 500)">antidote</text>
  <rect x="777.5" y="479.51916694793636" width="20" height="0.48083305206363747" fill="#FF6B6B" opacity="0.8"/>
  <text x="787.5" y="474.51916694793636" text-anchor="middle" font-size="10" font-family="Arial, sans-serif">35.1</text>
  <line x1="787.5" y1="479.513867458269" x2="787.5" y2="479.52446643760373" stroke="black" stroke-width="1"/>
  <line x1="784.5" y1="479.513867458269" x2="790.5" y2="479.513867458269" stroke="black" stroke-width="1"/>
  <line x1="784.5" y1="479.52446643760373" x2="790.5" y2="479.52446643760373" stroke="black" stroke-width="1"/>
  <rect x="802.5" y="360.23501695471174" width="20" height="119.76498304528826" fill="#45B7D1" opacity="0.8"/>
  <text x="812.5" y="355.23501695471174" text-anchor="middle" font-size="10" font-family="Arial, sans-serif">8737.7</text>
  <line x1="812.5" y1="357.6288718305431" x2="812.5" y2="362.84116207888036" stroke="black" stroke-width="1"/>
  <line x1="809.5" y1="357.6288718305431" x2="815.5" y2="357.6288718305431" stroke="black" stroke-width="1"/>
  <line x1="809.5" y1="362.84116207888036" x2="815.5" y2="362.84116207888036" stroke="black" stroke-width="1"/>
  <text x="800" y="500" text-anchor="middle" font-size="12" font-family="Arial, sans-serif" transform="rotate(-45 800 500)">zgenom</text>
  <rect x="837.5" y="479.38402795841847" width="20" height="0.6159720415815123" fill="#FF6B6B" opacity="0.8"/>
  <text x="847.5" y="474.38402795841847" text-anchor="middle" font-size="10" font-family="Arial, sans-serif">44.9</text>
  <line x1="847.5" y1="479.2738875166848" x2="847.5" y2="479.49416840015215" stroke="black" stroke-width="1"/>
  <line x1="844.5" y1="479.2738875166848" x2="850.5" y2="479.2738875166848" stroke="black" stroke-width="1"/>
  <line x1="844.5" y1="479.49416840015215" x2="850.5" y2="479.49416840015215" stroke="black" stroke-width="1"/>
  <rect x="862.5" y="319.65521692623247" width="20" height="160.34478307376756" fill="#45B7D1" opacity="0.8"/>
  <text x="872.5" y="314.65521692623247" text-anchor="middle" font-size="10" font-family="Arial, sans-serif">11698.3</text>
  <line x1="872.5" y1="318.1936547882827" x2="872.5" y2="321.11677906418225" stroke="black" stroke-width="1"/>
  <line x1="869.5" y1="318.1936547882827" x2="875.5" y2="318.1936547882827" stroke="black" stroke-width="1"/>
  <line x1="869.5" y1="321.11677906418225" x2="875.5" y2="321.11677906418225" stroke="black" stroke-width="1"/>
  <text x="860" y="500" text-anchor="middle" font-size="12" font-family="Arial, sans-serif" transform="rotate(-45 860 500)">sheldon</text>
  <rect x="897.5" y="479.56678550313177" width="20" height="0.43321449686823355" fill="#FF6B6B" opacity="0.8"/>
  <text x="907.5" y="474.56678550313177" text-anchor="middle" font-size="10" font-family="Arial, sans-serif">31.6</text>
  <line x1="907.5" y1="479.5634442473049" x2="907.5" y2="479.5701267589586" stroke="black" stroke-width="1"/>
  <line x1="904.5" y1="479.5634442473049" x2="910.5" y2="479.5634442473049" stroke="black" stroke-width="1"/>
  <line x1="904.5" y1="479.5701267589586" x2="910.5" y2="479.5701267589586" stroke="black" stroke-width="1"/>
  <rect x="922.5" y="319.2272309470346" width="20" height="160.77276905296537" fill="#45B7D1" opacity="0.8"/>
  <text x="932.5" y="314.2272309470346" text-anchor="middle" font-size="10" font-family="Arial, sans-serif">11729.5</text>
  <line x1="932.5" y1="316.0051821051926" x2="932.5" y2="322.44927978887665" stroke="black" stroke-width="1"/>
  <line x1="929.5" y1="316.0051821051926" x2="935.5" y2="316.0051821051926" stroke="black" stroke-width="1"/>
  <line x1="929.5" y1="322.44927978887665" x2="935.5" y2="322.44927978887665" stroke="black" stroke-width="1"/>
  <text x="920" y="500" text-anchor="middle" font-size="12" font-family="Arial, sans-serif" transform="rotate(-45 920 500)">zcomet</text>
  <rect x="957.5" y="478.26357434460124" width="20" height="1.7364256553987805" fill="#FF6B6B" opacity="0.8"/>
  <text x="967.5" y="473.26357434460124" text-anchor="middle" font-size="10" font-family="Arial, sans-serif">126.7</text>
  <line x1="967.5" y1="478.2501432207364" x2="967.5" y2="478.2770054684661" stroke="black" stroke-width="1"/>
  <line x1="964.5" y1="478.2501432207364" x2="970.5" y2="478.2501432207364" stroke="black" stroke-width="1"/>
  <line x1="964.5" y1="478.2770054684661" x2="970.5" y2="478.2770054684661" stroke="black" stroke-width="1"/>
  <rect x="982.5" y="319.17120228487545" width="20" height="160.82879771512452" fill="#45B7D1" opacity="0.8"/>
  <text x="992.5" y="314.17120228487545" text-anchor="middle" font-size="10" font-family="Arial, sans-serif">11733.6</text>
  <line x1="992.5" y1="318.977801768351" x2="992.5" y2="319.3646028013999" stroke="black" stroke-width="1"/>
  <line x1="989.5" y1="318.977801768351" x2="995.5" y2="318.977801768351" stroke="black" stroke-width="1"/>
  <line x1="989.5" y1="319.3646028013999" x2="995.5" y2="319.3646028013999" stroke="black" stroke-width="1"/>
  <text x="980" y="500" text-anchor="middle" font-size="12" font-family="Arial, sans-serif" transform="rotate(-45 980 500)">zplug</text>
  <rect x="1017.5" y="462.70507360848643" width="20" height="17.294926391513567" fill="#FF6B6B" opacity="0.8"/>
  <text x="1027.5" y="457.70507360848643" text-anchor="middle" font-size="10" font-family="Arial, sans-serif">1261.8</text>
  <line x1="1027.5" y1="462.5115263851668" x2="1027.5" y2="462.89862083180606" stroke="black" stroke-width="1"/>
  <line x1="1024.5" y1="462.5115263851668" x2="1030.5" y2="462.5115263851668" stroke="black" stroke-width="1"/>
  <line x1="1024.5" y1="462.89862083180606" x2="1030.5" y2="462.89862083180606" stroke="black" stroke-width="1"/>
  <rect x="1042.5" y="51.33561386795242" width="20" height="428.6643861320476" fill="#45B7D1" opacity="0.8"/>
  <text x="1052.5" y="46.33561386795242" text-anchor="middle" font-size="10" font-family="Arial, sans-serif">31274.1</text>
  <line x1="1052.5" y1="49.999999999999936" x2="1052.5" y2="52.6712277359049" stroke="black" stroke-width="1"/>
  <line x1="1049.5" y1="49.999999999999936" x2="1055.5" y2="49.999999999999936" stroke="black" stroke-width="1"/>
  <line x1="1049.5" y1="52.6712277359049" x2="1055.5" y2="52.6712277359049" stroke="black" stroke-width="1"/>
  <text x="1040" y="500" text-anchor="middle" font-size="12" font-family="Arial, sans-serif" transform="rotate(-45 1040 500)">zinit</text>
  <rect x="1077.5" y="478.79469534357963" width="20" height="1.2053046564203798" fill="#FF6B6B" opacity="0.8"/>
  <text x="1087.5" y="473.79469534357963" text-anchor="middle" font-size="10" font-family="Arial, sans-serif">87.9</text>
  <line x1="1087.5" y1="478.7839238959173" x2="1087.5" y2="478.80546679124194" stroke="black" stroke-width="1"/>
  <line x1="1084.5" y1="478.7839238959173" x2="1090.5" y2="478.7839238959173" stroke="black" stroke-width="1"/>
  <line x1="1084.5" y1="478.80546679124194" x2="1090.5" y2="478.80546679124194" stroke="black" stroke-width="1"/>
  <text x="1100" y="500" text-anchor="middle" font-size="12" font-family="Arial, sans-serif" transform="rotate(-45 1100 500)">oh-my-zsh</text>
  <rect x="1137.5" y="470.3478414521245" width="20" height="9.652158547875523" fill="#FF6B6B" opacity="0.8"/>
  <text x="1147.5" y="465.3478414521245" text-anchor="middle" font-size="10" font-family="Arial, sans-serif">704.2</text>
  <line x1="1147.5" y1="470.3155185746261" x2="1147.5" y2="470.3801643296229" stroke="black" stroke-width="1"/>
  <line x1="1144.5" y1="470.3155185746261" x2="1150.5" y2="470.3155185746261" stroke="black" stroke-width="1"/>
  <line x1="1144.5" y1="470.3801643296229" x2="1150.5" y2="470.3801643296229" stroke="black" stroke-width="1"/>
  <text x="1160" y="500" text-anchor="middle" font-size="12" font-family="Arial, sans-serif" transform="rotate(-45 1160 500)">prezto</text>
  <!-- Legend -->
  <rect x="1290" y="60" width="15" height="15" fill="#FF6B6B" opacity="0.8"/>
  <text x="1310" y="72" font-size="12" font-family="Arial, sans-serif">0 plugins</text>
  <rect x="1290" y="80" width="15" height="15" fill="#45B7D1" opacity="0.8"/>
  <text x="1310" y="92" font-size="12" font-family="Arial, sans-serif">25 plugins</text>
</svg>