<svg xmlns="http://www.w3.org/2000/svg" xmlns:xlink="http://www.w3.org/1999/xlink" version="1.1" width="1400px" height="600px" viewBox="0 0 1400 600">
<defs>
<clipPath id="clip-1" fill-rule="nonzero" ><path d="M 20,69.2 L 20,106.2 1380,106.2 1380,69.2 Z" /></clipPath>
<clipPath id="clip-2" fill-rule="nonzero" ><path d="M 0,506.8 L 0,560 1400,560 1400,506.8 Z" /></clipPath>
<clipPath id="clip-3" fill-rule="nonzero" ><path d="M 20,0 L 20,600 94.8,600 94.8,0 Z" /></clipPath>
<clipPath id="clip-4" fill-rule="nonzero" ><path d="M 94.8,106.2 L 94.8,506.8 1380,506.8 1380,106.2 Z" /></clipPath>
<clipPath id="clip-5" fill-rule="nonzero" ><path d="M 108.640615,505.874592 L 108.640615,506.55 179.820923,506.55 179.820923,505.874592 Z" /></clipPath>
<clipPath id="clip-6" fill-rule="nonzero" ><path d="M 207.502154,477.054467 L 207.502154,506.55 278.682462,506.55 278.682462,477.054467 Z" /></clipPath>
<clipPath id="clip-7" fill-rule="nonzero" ><path d="M 306.363692,454.240289 L 306.363692,506.55 377.544,506.55 377.544,454.240289 Z" /></clipPath>
<clipPath id="clip-8" fill-rule="nonzero" ><path d="M 405.225231,435.210131 L 405.225231,506.55 476.405538,506.55 476.405538,435.210131 Z" /></clipPath>
<clipPath id="clip-9" fill-rule="nonzero" ><path d="M 504.086769,428.309913 L 504.086769,506.55 575.267077,506.55 575.267077,428.309913 Z" /></clipPath>
<clipPath id="clip-10" fill-rule="nonzero" ><path d="M 602.948308,398.716914 L 602.948308,506.55 674.128615,506.55 674.128615,398.716914 Z" /></clipPath>
<clipPath id="clip-11" fill-rule="nonzero" ><path d="M 701.809846,377.152932 L 701.809846,506.55 772.990154,506.55 772.990154,377.152932 Z" /></clipPath>
<clipPath id="clip-12" fill-rule="nonzero" ><path d="M 800.671385,377.073315 L 800.671385,506.55 871.851692,506.55 871.851692,377.073315 Z" /></clipPath>
<clipPath id="clip-13" fill-rule="nonzero" ><path d="M 899.532923,376.829288 L 899.532923,506.55 970.713231,506.55 970.713231,376.829288 Z" /></clipPath>
<clipPath id="clip-14" fill-rule="nonzero" ><path d="M 998.394462,371.978032 L 998.394462,506.55 1069.574769,506.55 1069.574769,371.978032 Z" /></clipPath>
<clipPath id="clip-15" fill-rule="nonzero" ><path d="M 1097.256,360.671638 L 1097.256,506.55 1168.436308,506.55 1168.436308,360.671638 Z" /></clipPath>
<clipPath id="clip-16" fill-rule="nonzero" ><path d="M 1196.117538,342.937498 L 1196.117538,506.55 1267.297846,506.55 1267.297846,342.937498 Z" /></clipPath>
<clipPath id="clip-17" fill-rule="nonzero" ><path d="M 1294.979077,137.921029 L 1294.979077,506.55 1366.159385,506.55 1366.159385,137.921029 Z" /></clipPath></defs>
<g stroke="none" fill="transparent" fill-rule="nonzero" fill-opacity="1" >
<rect x="0" y="0" width="1400" height="600" transform="matrix(1 0 0 1 0 0)" /></g>
<g stroke="none" fill="#666" fill-rule="nonzero" fill-opacity="1" >
<text style="font:normal bold 14px &apos;Helvetica Neue&apos;, &apos;Helvetica&apos;, &apos;Arial&apos;, sans-serif;" text-anchor="middle" dominant-baseline="middle" transform="matrix(1 0 0 1 737.4 547.6)" 
><tspan x="0" y="0">Plugin Manager</tspan></text></g>
<g stroke="#e0e0e0" stroke-width="0.5" stroke-linecap="butt" stroke-linejoin="miter" stroke-miterlimit="4" stroke-opacity="1" fill="none">
<path d="M 95,506.5 L 1380,506.5" />
</g>
<g stroke="#e0e0e0" stroke-width="0.5" stroke-linecap="butt" stroke-linejoin="miter" stroke-miterlimit="4" stroke-opacity="1" fill="none">
<path d="M 86.8,506.5 L 94,506.5" />
</g>
<g stroke="#e0e0e0" stroke-width="0.5" stroke-linecap="butt" stroke-linejoin="miter" stroke-miterlimit="4" stroke-opacity="1" fill="none">
<path d="M 95,462.5 L 1380,462.5" />
</g>
<g stroke="#e0e0e0" stroke-width="0.5" stroke-linecap="butt" stroke-linejoin="miter" stroke-miterlimit="4" stroke-opacity="1" fill="none">
<path d="M 86.8,462.5 L 94,462.5" />
</g>
<g stroke="#e0e0e0" stroke-width="0.5" stroke-linecap="butt" stroke-linejoin="miter" stroke-miterlimit="4" stroke-opacity="1" fill="none">
<path d="M 95,417.5 L 1380,417.5" />
</g>
<g stroke="#e0e0e0" stroke-width="0.5" stroke-linecap="butt" stroke-linejoin="miter" stroke-miterlimit="4" stroke-opacity="1" fill="none">
<path d="M 86.8,417.5 L 94,417.5" />
</g>
<g stroke="#e0e0e0" stroke-width="0.5" stroke-linecap="butt" stroke-linejoin="miter" stroke-miterlimit="4" stroke-opacity="1" fill="none">
<path d="M 95,373.5 L 1380,373.5" />
</g>
<g stroke="#e0e0e0" stroke-width="0.5" stroke-linecap="butt" stroke-linejoin="miter" stroke-miterlimit="4" stroke-opacity="1" fill="none">
<path d="M 86.8,373.5 L 94,373.5" />
</g>
<g stroke="#e0e0e0" stroke-width="0.5" stroke-linecap="butt" stroke-linejoin="miter" stroke-miterlimit="4" stroke-opacity="1" fill="none">
<path d="M 95,328.5 L 1380,328.5" />
</g>
<g stroke="#e0e0e0" stroke-width="0.5" stroke-linecap="butt" stroke-linejoin="miter" stroke-miterlimit="4" stroke-opacity="1" fill="none">
<path d="M 86.8,328.5 L 94,328.5" />
</g>
<g stroke="#e0e0e0" stroke-width="0.5" stroke-linecap="butt" stroke-linejoin="miter" stroke-miterlimit="4" stroke-opacity="1" fill="none">
<path d="M 95,284.5 L 1380,284.5" />
</g>
<g stroke="#e0e0e0" stroke-width="0.5" stroke-linecap="butt" stroke-linejoin="miter" stroke-miterlimit="4" stroke-opacity="1" fill="none">
<path d="M 86.8,284.5 L 94,284.5" />
</g>
<g stroke="#e0e0e0" stroke-width="0.5" stroke-linecap="butt" stroke-linejoin="miter" stroke-miterlimit="4" stroke-opacity="1" fill="none">
<path d="M 95,239.5 L 1380,239.5" />
</g>
<g stroke="#e0e0e0" stroke-width="0.5" stroke-linecap="butt" stroke-linejoin="miter" stroke-miterlimit="4" stroke-opacity="1" fill="none">
<path d="M 86.8,239.5 L 94,239.5" />
</g>
<g stroke="#e0e0e0" stroke-width="0.5" stroke-linecap="butt" stroke-linejoin="miter" stroke-miterlimit="4" stroke-opacity="1" fill="none">
<path d="M 95,195.5 L 1380,195.5" />
</g>
<g stroke="#e0e0e0" stroke-width="0.5" stroke-linecap="butt" stroke-linejoin="miter" stroke-miterlimit="4" stroke-opacity="1" fill="none">
<path d="M 86.8,195.5 L 94,195.5" />
</g>
<g stroke="#e0e0e0" stroke-width="0.5" stroke-linecap="butt" stroke-linejoin="miter" stroke-miterlimit="4" stroke-opacity="1" fill="none">
<path d="M 95,150.5 L 1380,150.5" />
</g>
<g stroke="#e0e0e0" stroke-width="0.5" stroke-linecap="butt" stroke-linejoin="miter" stroke-miterlimit="4" stroke-opacity="1" fill="none">
<path d="M 86.8,150.5 L 94,150.5" />
</g>
<g stroke="#e0e0e0" stroke-width="0.5" stroke-linecap="butt" stroke-linejoin="miter" stroke-miterlimit="4" stroke-opacity="1" fill="none">
<path d="M 95,106.5 L 1380,106.5" />
</g>
<g stroke="#e0e0e0" stroke-width="0.5" stroke-linecap="butt" stroke-linejoin="miter" stroke-miterlimit="4" stroke-opacity="1" fill="none">
<path d="M 86.8,106.5 L 94,106.5" />
</g>
<g stroke="none" fill="#666" fill-rule="nonzero" fill-opacity="1" >
<text style="font:normal bold 14px &apos;Helvetica Neue&apos;, &apos;Helvetica&apos;, &apos;Arial&apos;, sans-serif;" text-anchor="middle" dominant-baseline="middle" transform="matrix(6.123233995736766e-17 -1 1 6.123233995736766e-17 32.4 306.5)" 
><tspan x="0" y="0">Install Time (ms)</tspan></text></g>
<g stroke="none" fill="rgb(255,99,132)" fill-rule="nonzero" fill-opacity="1"  clip-path="url(#clip-1)" >
<path d="M 657,84.2 L 657,96.2 677,96.2 677,84.2 Z" />
</g>
<g stroke="rgb(255,99,132)" stroke-width="1" stroke-linecap="butt" stroke-linejoin="miter" stroke-miterlimit="4" stroke-opacity="1" fill="none" clip-path="url(#clip-1)" >
<path d="M 657,84.2 L 657,96.2 677,96.2 677,84.2 Z" />
</g>
<g stroke="none" fill="#666" fill-rule="nonzero" fill-opacity="1"  clip-path="url(#clip-1)" >
<text style="font:normal 12px &apos;Helvetica Neue&apos;, &apos;Helvetica&apos;, &apos;Arial&apos;, sans-serif;" text-anchor="start" dominant-baseline="middle" transform="matrix(1 0 0 1 0 0)" 
><tspan x="683" y="90.2">25 plugins</tspan></text></g>
<g stroke="none" fill="#666" fill-rule="nonzero" fill-opacity="1" >
<text style="font:normal bold 16px &apos;Helvetica Neue&apos;, &apos;Helvetica&apos;, &apos;Arial&apos;, sans-serif;" text-anchor="middle" dominant-baseline="middle" transform="matrix(1 0 0 1 700 39.6)" 
><tspan x="0" y="0">Zsh Plugin Manager Install Time Comparison</tspan></text></g>
<g stroke="rgb(0,0,0)" stroke-width="1" stroke-linecap="butt" stroke-linejoin="miter" stroke-miterlimit="4" stroke-opacity="0.1" fill="none">
<path d="M 94,506.5 L 1381,506.5" />
</g>
<g stroke="none" fill="#666" fill-rule="nonzero" fill-opacity="1"  clip-path="url(#clip-2)" >
<text style="font:normal 12px &apos;Helvetica Neue&apos;, &apos;Helvetica&apos;, &apos;Arial&apos;, sans-serif;" text-anchor="middle" dominant-baseline="middle" transform="matrix(1 0 0 1 144.23076923076923 517.8)" 
><tspan x="0" y="7.199999999999999">zcomet</tspan></text></g>
<g stroke="none" fill="#666" fill-rule="nonzero" fill-opacity="1"  clip-path="url(#clip-2)" >
<text style="font:normal 12px &apos;Helvetica Neue&apos;, &apos;Helvetica&apos;, &apos;Arial&apos;, sans-serif;" text-anchor="middle" dominant-baseline="middle" transform="matrix(1 0 0 1 243.0923076923077 517.8)" 
><tspan x="0" y="7.199999999999999">znap</tspan></text></g>
<g stroke="none" fill="#666" fill-rule="nonzero" fill-opacity="1"  clip-path="url(#clip-2)" >
<text style="font:normal 12px &apos;Helvetica Neue&apos;, &apos;Helvetica&apos;, &apos;Arial&apos;, sans-serif;" text-anchor="middle" dominant-baseline="middle" transform="matrix(1 0 0 1 341.9538461538462 517.8)" 
><tspan x="0" y="7.199999999999999">antigen</tspan></text></g>
<g stroke="none" fill="#666" fill-rule="nonzero" fill-opacity="1"  clip-path="url(#clip-2)" >
<text style="font:normal 12px &apos;Helvetica Neue&apos;, &apos;Helvetica&apos;, &apos;Arial&apos;, sans-serif;" text-anchor="middle" dominant-baseline="middle" transform="matrix(1 0 0 1 440.81538461538463 517.8)" 
><tspan x="0" y="7.199999999999999">zim</tspan></text></g>
<g stroke="none" fill="#666" fill-rule="nonzero" fill-opacity="1"  clip-path="url(#clip-2)" >
<text style="font:normal 12px &apos;Helvetica Neue&apos;, &apos;Helvetica&apos;, &apos;Arial&apos;, sans-serif;" text-anchor="middle" dominant-baseline="middle" transform="matrix(1 0 0 1 539.6769230769231 517.8)" 
><tspan x="0" y="7.199999999999999">antidote</tspan></text></g>
<g stroke="none" fill="#666" fill-rule="nonzero" fill-opacity="1"  clip-path="url(#clip-2)" >
<text style="font:normal 12px &apos;Helvetica Neue&apos;, &apos;Helvetica&apos;, &apos;Arial&apos;, sans-serif;" text-anchor="middle" dominant-baseline="middle" transform="matrix(1 0 0 1 638.5384615384615 517.8)" 
><tspan x="0" y="7.199999999999999">zplug</tspan></text></g>
<g stroke="none" fill="#666" fill-rule="nonzero" fill-opacity="1"  clip-path="url(#clip-2)" >
<text style="font:normal 12px &apos;Helvetica Neue&apos;, &apos;Helvetica&apos;, &apos;Arial&apos;, sans-serif;" text-anchor="middle" dominant-baseline="middle" transform="matrix(1 0 0 1 737.4 517.8)" 
><tspan x="0" y="7.199999999999999">zr</tspan></text></g>
<g stroke="none" fill="#666" fill-rule="nonzero" fill-opacity="1"  clip-path="url(#clip-2)" >
<text style="font:normal 12px &apos;Helvetica Neue&apos;, &apos;Helvetica&apos;, &apos;Arial&apos;, sans-serif;" text-anchor="middle" dominant-baseline="middle" transform="matrix(1 0 0 1 836.2615384615384 517.8)" 
><tspan x="0" y="7.199999999999999">alf</tspan></text></g>
<g stroke="none" fill="#666" fill-rule="nonzero" fill-opacity="1"  clip-path="url(#clip-2)" >
<text style="font:normal 12px &apos;Helvetica Neue&apos;, &apos;Helvetica&apos;, &apos;Arial&apos;, sans-serif;" text-anchor="middle" dominant-baseline="middle" transform="matrix(1 0 0 1 935.123076923077 517.8)" 
><tspan x="0" y="7.199999999999999">antigen-hs</tspan></text></g>
<g stroke="none" fill="#666" fill-rule="nonzero" fill-opacity="1"  clip-path="url(#clip-2)" >
<text style="font:normal 12px &apos;Helvetica Neue&apos;, &apos;Helvetica&apos;, &apos;Arial&apos;, sans-serif;" text-anchor="middle" dominant-baseline="middle" transform="matrix(1 0 0 1 1033.9846153846154 517.8)" 
><tspan x="0" y="7.199999999999999">antibody</tspan></text></g>
<g stroke="none" fill="#666" fill-rule="nonzero" fill-opacity="1"  clip-path="url(#clip-2)" >
<text style="font:normal 12px &apos;Helvetica Neue&apos;, &apos;Helvetica&apos;, &apos;Arial&apos;, sans-serif;" text-anchor="middle" dominant-baseline="middle" transform="matrix(1 0 0 1 1132.8461538461538 517.8)" 
><tspan x="0" y="7.199999999999999">zpm</tspan></text></g>
<g stroke="none" fill="#666" fill-rule="nonzero" fill-opacity="1"  clip-path="url(#clip-2)" >
<text style="font:normal 12px &apos;Helvetica Neue&apos;, &apos;Helvetica&apos;, &apos;Arial&apos;, sans-serif;" text-anchor="middle" dominant-baseline="middle" transform="matrix(1 0 0 1 1231.7076923076922 517.8)" 
><tspan x="0" y="7.199999999999999">sheldon</tspan></text></g>
<g stroke="none" fill="#666" fill-rule="nonzero" fill-opacity="1"  clip-path="url(#clip-2)" >
<text style="font:normal 12px &apos;Helvetica Neue&apos;, &apos;Helvetica&apos;, &apos;Arial&apos;, sans-serif;" text-anchor="middle" dominant-baseline="middle" transform="matrix(1 0 0 1 1330.569230769231 517.8)" 
><tspan x="0" y="7.199999999999999">zinit</tspan></text></g>
<g stroke="rgb(0,0,0)" stroke-width="1" stroke-linecap="butt" stroke-linejoin="miter" stroke-miterlimit="4" stroke-opacity="0.1" fill="none">
<path d="M 94.5,106 L 94.5,506.75" />
</g>
<g stroke="none" fill="#666" fill-rule="nonzero" fill-opacity="1"  clip-path="url(#clip-3)" >
<text style="font:normal 12px &apos;Helvetica Neue&apos;, &apos;Helvetica&apos;, &apos;Arial&apos;, sans-serif;" text-anchor="end" dominant-baseline="middle" transform="matrix(1 0 0 1 83.8 506.8)" 
><tspan x="0" y="0">0</tspan></text></g>
<g stroke="none" fill="#666" fill-rule="nonzero" fill-opacity="1"  clip-path="url(#clip-3)" >
<text style="font:normal 12px &apos;Helvetica Neue&apos;, &apos;Helvetica&apos;, &apos;Arial&apos;, sans-serif;" text-anchor="end" dominant-baseline="middle" transform="matrix(1 0 0 1 83.8 462.2888888888889)" 
><tspan x="0" y="0">5,000</tspan></text></g>
<g stroke="none" fill="#666" fill-rule="nonzero" fill-opacity="1"  clip-path="url(#clip-3)" >
<text style="font:normal 12px &apos;Helvetica Neue&apos;, &apos;Helvetica&apos;, &apos;Arial&apos;, sans-serif;" text-anchor="end" dominant-baseline="middle" transform="matrix(1 0 0 1 83.8 417.77777777777777)" 
><tspan x="0" y="0">10,000</tspan></text></g>
<g stroke="none" fill="#666" fill-rule="nonzero" fill-opacity="1"  clip-path="url(#clip-3)" >
<text style="font:normal 12px &apos;Helvetica Neue&apos;, &apos;Helvetica&apos;, &apos;Arial&apos;, sans-serif;" text-anchor="end" dominant-baseline="middle" transform="matrix(1 0 0 1 83.8 373.2666666666667)" 
><tspan x="0" y="0">15,000</tspan></text></g>
<g stroke="none" fill="#666" fill-rule="nonzero" fill-opacity="1"  clip-path="url(#clip-3)" >
<text style="font:normal 12px &apos;Helvetica Neue&apos;, &apos;Helvetica&apos;, &apos;Arial&apos;, sans-serif;" text-anchor="end" dominant-baseline="middle" transform="matrix(1 0 0 1 83.8 328.7555555555556)" 
><tspan x="0" y="0">20,000</tspan></text></g>
<g stroke="none" fill="#666" fill-rule="nonzero" fill-opacity="1"  clip-path="url(#clip-3)" >
<text style="font:normal 12px &apos;Helvetica Neue&apos;, &apos;Helvetica&apos;, &apos;Arial&apos;, sans-serif;" text-anchor="end" dominant-baseline="middle" transform="matrix(1 0 0 1 83.8 284.24444444444447)" 
><tspan x="0" y="0">25,000</tspan></text></g>
<g stroke="none" fill="#666" fill-rule="nonzero" fill-opacity="1"  clip-path="url(#clip-3)" >
<text style="font:normal 12px &apos;Helvetica Neue&apos;, &apos;Helvetica&apos;, &apos;Arial&apos;, sans-serif;" text-anchor="end" dominant-baseline="middle" transform="matrix(1 0 0 1 83.8 239.73333333333335)" 
><tspan x="0" y="0">30,000</tspan></text></g>
<g stroke="none" fill="#666" fill-rule="nonzero" fill-opacity="1"  clip-path="url(#clip-3)" >
<text style="font:normal 12px &apos;Helvetica Neue&apos;, &apos;Helvetica&apos;, &apos;Arial&apos;, sans-serif;" text-anchor="end" dominant-baseline="middle" transform="matrix(1 0 0 1 83.8 195.22222222222223)" 
><tspan x="0" y="0">35,000</tspan></text></g>
<g stroke="none" fill="#666" fill-rule="nonzero" fill-opacity="1"  clip-path="url(#clip-3)" >
<text style="font:normal 12px &apos;Helvetica Neue&apos;, &apos;Helvetica&apos;, &apos;Arial&apos;, sans-serif;" text-anchor="end" dominant-baseline="middle" transform="matrix(1 0 0 1 83.8 150.71111111111114)" 
><tspan x="0" y="0">40,000</tspan></text></g>
<g stroke="none" fill="#666" fill-rule="nonzero" fill-opacity="1"  clip-path="url(#clip-3)" >
<text style="font:normal 12px &apos;Helvetica Neue&apos;, &apos;Helvetica&apos;, &apos;Arial&apos;, sans-serif;" text-anchor="end" dominant-baseline="middle" transform="matrix(1 0 0 1 83.8 106.2)" 
><tspan x="0" y="0">45,000</tspan></text></g>
<g stroke="none" fill="rgb(255,99,132)" fill-rule="evenodd" fill-opacity="1"  clip-path="url(#clip-5)" >
<path d="M 108.640615,505.874592 L 108.640615,506.55 179.820923,506.55 179.820923,505.874592 Z M 109.640615,506.212296 L 109.640615,506.55
178.820923,506.55 178.820923,506.212296 Z" />
</g>
<g stroke="none" fill="rgb(255,99,132)" fill-rule="nonzero" fill-opacity="1"  clip-path="url(#clip-5)" >
<path d="M 109.640615,506.212296 L 109.640615,506.55 178.820923,506.55 178.820923,506.212296 Z" />
</g>
<g stroke="none" fill="rgb(255,99,132)" fill-rule="evenodd" fill-opacity="1"  clip-path="url(#clip-6)" >
<path d="M 207.502154,477.054467 L 207.502154,506.55 278.682462,506.55 278.682462,477.054467 Z M 208.502154,478.054467 L 208.502154,506.55
277.682462,506.55 277.682462,478.054467 Z" />
</g>
<g stroke="none" fill="rgb(255,99,132)" fill-rule="nonzero" fill-opacity="1"  clip-path="url(#clip-6)" >
<path d="M 208.502154,478.054467 L 208.502154,506.55 277.682462,506.55 277.682462,478.054467 Z" />
</g>
<g stroke="none" fill="rgb(255,99,132)" fill-rule="evenodd" fill-opacity="1"  clip-path="url(#clip-7)" >
<path d="M 306.363692,454.240289 L 306.363692,506.55 377.544,506.55 377.544,454.240289 Z M 307.363692,455.240289 L 307.363692,506.55
376.544,506.55 376.544,455.240289 Z" />
</g>
<g stroke="none" fill="rgb(255,99,132)" fill-rule="nonzero" fill-opacity="1"  clip-path="url(#clip-7)" >
<path d="M 307.363692,455.240289 L 307.363692,506.55 376.544,506.55 376.544,455.240289 Z" />
</g>
<g stroke="none" fill="rgb(255,99,132)" fill-rule="evenodd" fill-opacity="1"  clip-path="url(#clip-8)" >
<path d="M 405.225231,435.210131 L 405.225231,506.55 476.405538,506.55 476.405538,435.210131 Z M 406.225231,436.210131 L 406.225231,506.55
475.405538,506.55 475.405538,436.210131 Z" />
</g>
<g stroke="none" fill="rgb(255,99,132)" fill-rule="nonzero" fill-opacity="1"  clip-path="url(#clip-8)" >
<path d="M 406.225231,436.210131 L 406.225231,506.55 475.405538,506.55 475.405538,436.210131 Z" />
</g>
<g stroke="none" fill="rgb(255,99,132)" fill-rule="evenodd" fill-opacity="1"  clip-path="url(#clip-9)" >
<path d="M 504.086769,428.309913 L 504.086769,506.55 575.267077,506.55 575.267077,428.309913 Z M 505.086769,429.309913 L 505.086769,506.55
574.267077,506.55 574.267077,429.309913 Z" />
</g>
<g stroke="none" fill="rgb(255,99,132)" fill-rule="nonzero" fill-opacity="1"  clip-path="url(#clip-9)" >
<path d="M 505.086769,429.309913 L 505.086769,506.55 574.267077,506.55 574.267077,429.309913 Z" />
</g>
<g stroke="none" fill="rgb(255,99,132)" fill-rule="evenodd" fill-opacity="1"  clip-path="url(#clip-10)" >
<path d="M 602.948308,398.716914 L 602.948308,506.55 674.128615,506.55 674.128615,398.716914 Z M 603.948308,399.716914 L 603.948308,506.55
673.128615,506.55 673.128615,399.716914 Z" />
</g>
<g stroke="none" fill="rgb(255,99,132)" fill-rule="nonzero" fill-opacity="1"  clip-path="url(#clip-10)" >
<path d="M 603.948308,399.716914 L 603.948308,506.55 673.128615,506.55 673.128615,399.716914 Z" />
</g>
<g stroke="none" fill="rgb(255,99,132)" fill-rule="evenodd" fill-opacity="1"  clip-path="url(#clip-11)" >
<path d="M 701.809846,377.152932 L 701.809846,506.55 772.990154,506.55 772.990154,377.152932 Z M 702.809846,378.152932 L 702.809846,506.55
771.990154,506.55 771.990154,378.152932 Z" />
</g>
<g stroke="none" fill="rgb(255,99,132)" fill-rule="nonzero" fill-opacity="1"  clip-path="url(#clip-11)" >
<path d="M 702.809846,378.152932 L 702.809846,506.55 771.990154,506.55 771.990154,378.152932 Z" />
</g>
<g stroke="none" fill="rgb(255,99,132)" fill-rule="evenodd" fill-opacity="1"  clip-path="url(#clip-12)" >
<path d="M 800.671385,377.073315 L 800.671385,506.55 871.851692,506.55 871.851692,377.073315 Z M 801.671385,378.073315 L 801.671385,506.55
870.851692,506.55 870.851692,378.073315 Z" />
</g>
<g stroke="none" fill="rgb(255,99,132)" fill-rule="nonzero" fill-opacity="1"  clip-path="url(#clip-12)" >
<path d="M 801.671385,378.073315 L 801.671385,506.55 870.851692,506.55 870.851692,378.073315 Z" />
</g>
<g stroke="none" fill="rgb(255,99,132)" fill-rule="evenodd" fill-opacity="1"  clip-path="url(#clip-13)" >
<path d="M 899.532923,376.829288 L 899.532923,506.55 970.713231,506.55 970.713231,376.829288 Z M 900.532923,377.829288 L 900.532923,506.55
969.713231,506.55 969.713231,377.829288 Z" />
</g>
<g stroke="none" fill="rgb(255,99,132)" fill-rule="nonzero" fill-opacity="1"  clip-path="url(#clip-13)" >
<path d="M 900.532923,377.829288 L 900.532923,506.55 969.713231,506.55 969.713231,377.829288 Z" />
</g>
<g stroke="none" fill="rgb(255,99,132)" fill-rule="evenodd" fill-opacity="1"  clip-path="url(#clip-14)" >
<path d="M 998.394462,371.978032 L 998.394462,506.55 1069.574769,506.55 1069.574769,371.978032 Z M 999.394462,372.978032 L 999.394462,506.55
1068.574769,506.55 1068.574769,372.978032 Z" />
</g>
<g stroke="none" fill="rgb(255,99,132)" fill-rule="nonzero" fill-opacity="1"  clip-path="url(#clip-14)" >
<path d="M 999.394462,372.978032 L 999.394462,506.55 1068.574769,506.55 1068.574769,372.978032 Z" />
</g>
<g stroke="none" fill="rgb(255,99,132)" fill-rule="evenodd" fill-opacity="1"  clip-path="url(#clip-15)" >
<path d="M 1097.256,360.671638 L 1097.256,506.55 1168.436308,506.55 1168.436308,360.671638 Z M 1098.256,361.671638 L 1098.256,506.55
1167.436308,506.55 1167.436308,361.671638 Z" />
</g>
<g stroke="none" fill="rgb(255,99,132)" fill-rule="nonzero" fill-opacity="1"  clip-path="url(#clip-15)" >
<path d="M 1098.256,361.671638 L 1098.256,506.55 1167.436308,506.55 1167.436308,361.671638 Z" />
</g>
<g stroke="none" fill="rgb(255,99,132)" fill-rule="evenodd" fill-opacity="1"  clip-path="url(#clip-16)" >
<path d="M 1196.117538,342.937498 L 1196.117538,506.55 1267.297846,506.55 1267.297846,342.937498 Z M 1197.117538,343.937498 L 1197.117538,506.55
1266.297846,506.55 1266.297846,343.937498 Z" />
</g>
<g stroke="none" fill="rgb(255,99,132)" fill-rule="nonzero" fill-opacity="1"  clip-path="url(#clip-16)" >
<path d="M 1197.117538,343.937498 L 1197.117538,506.55 1266.297846,506.55 1266.297846,343.937498 Z" />
</g>
<g stroke="none" fill="rgb(255,99,132)" fill-rule="evenodd" fill-opacity="1"  clip-path="url(#clip-17)" >
<path d="M 1294.979077,137.921029 L 1294.979077,506.55 1366.159385,506.55 1366.159385,137.921029 Z M 1295.979077,138.921029 L 1295.979077,506.55
1365.159385,506.55 1365.159385,138.921029 Z" />
</g>
<g stroke="none" fill="rgb(255,99,132)" fill-rule="nonzero" fill-opacity="1"  clip-path="url(#clip-17)" >
<path d="M 1295.979077,138.921029 L 1295.979077,506.55 1365.159385,506.55 1365.159385,138.921029 Z" />
</g>
</svg>