<svg width="1200" height="600" xmlns="http://www.w3.org/2000/svg" style="background: white;">
  <text x="600" y="30" text-anchor="middle" font-size="20" font-weight="bold" font-family="Arial, sans-serif">Zsh Plugin Manager Install Time Comparison</text>
  
  <!-- Grid lines -->
  <line x1="80" y1="480" x2="1080" y2="480" stroke="#e0e0e0" stroke-width="1"/>
  <text x="70" y="485" text-anchor="end" font-size="12" font-family="Arial, sans-serif">0</text>
  <line x1="80" y1="394" x2="1080" y2="394" stroke="#e0e0e0" stroke-width="1"/>
  <text x="70" y="399" text-anchor="end" font-size="12" font-family="Arial, sans-serif">6187</text>
  <line x1="80" y1="308" x2="1080" y2="308" stroke="#e0e0e0" stroke-width="1"/>
  <text x="70" y="313" text-anchor="end" font-size="12" font-family="Arial, sans-serif">12374</text>
  <line x1="80" y1="222" x2="1080" y2="222" stroke="#e0e0e0" stroke-width="1"/>
  <text x="70" y="227" text-anchor="end" font-size="12" font-family="Arial, sans-serif">18561</text>
  <line x1="80" y1="136" x2="1080" y2="136" stroke="#e0e0e0" stroke-width="1"/>
  <text x="70" y="141" text-anchor="end" font-size="12" font-family="Arial, sans-serif">24748</text>
  <line x1="80" y1="50" x2="1080" y2="50" stroke="#e0e0e0" stroke-width="1"/>
  <text x="70" y="55" text-anchor="end" font-size="12" font-family="Arial, sans-serif">30935</text>
  
  <!-- Axes -->
  <line x1="80" y1="50" x2="80" y2="480" stroke="black" stroke-width="2"/>
  <line x1="80" y1="480" x2="1080" y2="480" stroke="black" stroke-width="2"/>
  
  <!-- Y-axis label -->
  <text x="20" y="300" text-anchor="middle" font-size="14" font-family="Arial, sans-serif" transform="rotate(-90 20 300)">Time (ms)</text>
  <rect x="107.5" y="479.580461332375" width="20" height="0.41953866762495434" fill="#FF6B6B" opacity="0.8"/>
  <text x="117.5" y="474.580461332375" text-anchor="middle" font-size="10" font-family="Arial, sans-serif">30.2</text>
  <line x1="117.5" y1="479.57855689521057" x2="117.5" y2="479.5823657695395" stroke="black" stroke-width="1"/>
  <line x1="114.5" y1="479.57855689521057" x2="120.5" y2="479.57855689521057" stroke="black" stroke-width="1"/>
  <line x1="114.5" y1="479.5823657695395" x2="120.5" y2="479.5823657695395" stroke="black" stroke-width="1"/>
  <rect x="132.5" y="479.5769534297668" width="20" height="0.423046570233252" fill="#45B7D1" opacity="0.8"/>
  <text x="142.5" y="474.5769534297668" text-anchor="middle" font-size="10" font-family="Arial, sans-serif">30.4</text>
  <line x1="142.5" y1="479.5752524833582" x2="142.5" y2="479.57865437617534" stroke="black" stroke-width="1"/>
  <line x1="139.5" y1="479.5752524833582" x2="145.5" y2="479.5752524833582" stroke="black" stroke-width="1"/>
  <line x1="139.5" y1="479.57865437617534" x2="145.5" y2="479.57865437617534" stroke="black" stroke-width="1"/>
  <text x="130" y="500" text-anchor="middle" font-size="12" font-family="Arial, sans-serif" transform="rotate(-45 130 500)">zim</text>
  <rect x="167.5" y="479.56467032477457" width="20" height="0.43532967522544186" fill="#FF6B6B" opacity="0.8"/>
  <text x="177.5" y="474.56467032477457" text-anchor="middle" font-size="10" font-family="Arial, sans-serif">31.3</text>
  <line x1="177.5" y1="479.5618669002847" x2="177.5" y2="479.5674737492644" stroke="black" stroke-width="1"/>
  <line x1="174.5" y1="479.5618669002847" x2="180.5" y2="479.5618669002847" stroke="black" stroke-width="1"/>
  <line x1="174.5" y1="479.5674737492644" x2="180.5" y2="479.5674737492644" stroke="black" stroke-width="1"/>
  <rect x="192.5" y="479.5617783857349" width="20" height="0.43822161426510237" fill="#45B7D1" opacity="0.8"/>
  <text x="202.5" y="474.5617783857349" text-anchor="middle" font-size="10" font-family="Arial, sans-serif">31.5</text>
  <line x1="202.5" y1="479.55853584226884" x2="202.5" y2="479.56502092920095" stroke="black" stroke-width="1"/>
  <line x1="199.5" y1="479.55853584226884" x2="205.5" y2="479.55853584226884" stroke="black" stroke-width="1"/>
  <line x1="199.5" y1="479.56502092920095" x2="205.5" y2="479.56502092920095" stroke="black" stroke-width="1"/>
  <text x="190" y="500" text-anchor="middle" font-size="12" font-family="Arial, sans-serif" transform="rotate(-45 190 500)">antidote</text>
  <rect x="227.5" y="479.5842648739881" width="20" height="0.41573512601191387" fill="#FF6B6B" opacity="0.8"/>
  <text x="237.5" y="474.5842648739881" text-anchor="middle" font-size="10" font-family="Arial, sans-serif">29.9</text>
  <line x1="237.5" y1="479.5797526813815" x2="237.5" y2="479.58877706659473" stroke="black" stroke-width="1"/>
  <line x1="234.5" y1="479.5797526813815" x2="240.5" y2="479.5797526813815" stroke="black" stroke-width="1"/>
  <line x1="234.5" y1="479.58877706659473" x2="240.5" y2="479.58877706659473" stroke="black" stroke-width="1"/>
  <rect x="252.5" y="479.41141190468375" width="20" height="0.5885880953162475" fill="#45B7D1" opacity="0.8"/>
  <text x="262.5" y="474.41141190468375" text-anchor="middle" font-size="10" font-family="Arial, sans-serif">42.3</text>
  <line x1="262.5" y1="479.4082355301725" x2="262.5" y2="479.414588279195" stroke="black" stroke-width="1"/>
  <line x1="259.5" y1="479.4082355301725" x2="265.5" y2="479.4082355301725" stroke="black" stroke-width="1"/>
  <line x1="259.5" y1="479.414588279195" x2="265.5" y2="479.414588279195" stroke="black" stroke-width="1"/>
  <text x="250" y="500" text-anchor="middle" font-size="12" font-family="Arial, sans-serif" transform="rotate(-45 250 500)">znap</text>
  <rect x="287.5" y="479.55492381354105" width="20" height="0.44507618645893116" fill="#FF6B6B" opacity="0.8"/>
  <text x="297.5" y="474.55492381354105" text-anchor="middle" font-size="10" font-family="Arial, sans-serif">32.0</text>
  <line x1="297.5" y1="479.55146226226987" x2="297.5" y2="479.55838536481224" stroke="black" stroke-width="1"/>
  <line x1="294.5" y1="479.55146226226987" x2="300.5" y2="479.55146226226987" stroke="black" stroke-width="1"/>
  <line x1="294.5" y1="479.55838536481224" x2="300.5" y2="479.55838536481224" stroke="black" stroke-width="1"/>
  <rect x="312.5" y="479.37403182085575" width="20" height="0.6259681791442243" fill="#45B7D1" opacity="0.8"/>
  <text x="322.5" y="474.37403182085575" text-anchor="middle" font-size="10" font-family="Arial, sans-serif">45.0</text>
  <line x1="322.5" y1="479.3709722493892" x2="322.5" y2="479.3770913923223" stroke="black" stroke-width="1"/>
  <line x1="319.5" y1="479.3709722493892" x2="325.5" y2="479.3709722493892" stroke="black" stroke-width="1"/>
  <line x1="319.5" y1="479.3770913923223" x2="325.5" y2="479.3770913923223" stroke="black" stroke-width="1"/>
  <text x="310" y="500" text-anchor="middle" font-size="12" font-family="Arial, sans-serif" transform="rotate(-45 310 500)">zgenom</text>
  <rect x="347.5" y="479.53789407154386" width="20" height="0.46210592845612614" fill="#FF6B6B" opacity="0.8"/>
  <text x="357.5" y="474.53789407154386" text-anchor="middle" font-size="10" font-family="Arial, sans-serif">33.2</text>
  <line x1="357.5" y1="479.5343155395283" x2="357.5" y2="479.54147260355944" stroke="black" stroke-width="1"/>
  <line x1="354.5" y1="479.5343155395283" x2="360.5" y2="479.5343155395283" stroke="black" stroke-width="1"/>
  <line x1="354.5" y1="479.54147260355944" x2="360.5" y2="479.54147260355944" stroke="black" stroke-width="1"/>
  <rect x="372.5" y="472.2042173028096" width="20" height="7.795782697190409" fill="#45B7D1" opacity="0.8"/>
  <text x="382.5" y="467.2042173028096" text-anchor="middle" font-size="10" font-family="Arial, sans-serif">560.8</text>
  <line x1="382.5" y1="472.1052928771198" x2="382.5" y2="472.3031417284994" stroke="black" stroke-width="1"/>
  <line x1="379.5" y1="472.1052928771198" x2="385.5" y2="472.1052928771198" stroke="black" stroke-width="1"/>
  <line x1="379.5" y1="472.3031417284994" x2="385.5" y2="472.3031417284994" stroke="black" stroke-width="1"/>
  <text x="370" y="500" text-anchor="middle" font-size="12" font-family="Arial, sans-serif" transform="rotate(-45 370 500)">sheldon</text>
  <rect x="407.5" y="479.5433268002896" width="20" height="0.4566731997104226" fill="#FF6B6B" opacity="0.8"/>
  <text x="417.5" y="474.5433268002896" text-anchor="middle" font-size="10" font-family="Arial, sans-serif">32.9</text>
  <line x1="417.5" y1="479.5393372955951" x2="417.5" y2="479.5473163049841" stroke="black" stroke-width="1"/>
  <line x1="414.5" y1="479.5393372955951" x2="420.5" y2="479.5393372955951" stroke="black" stroke-width="1"/>
  <line x1="414.5" y1="479.5473163049841" x2="420.5" y2="479.5473163049841" stroke="black" stroke-width="1"/>
  <rect x="432.5" y="471.5823769906293" width="20" height="8.417623009370699" fill="#45B7D1" opacity="0.8"/>
  <text x="442.5" y="466.5823769906293" text-anchor="middle" font-size="10" font-family="Arial, sans-serif">605.6</text>
  <line x1="442.5" y1="471.49111174345376" x2="442.5" y2="471.67364223780487" stroke="black" stroke-width="1"/>
  <line x1="439.5" y1="471.49111174345376" x2="445.5" y2="471.49111174345376" stroke="black" stroke-width="1"/>
  <line x1="439.5" y1="471.67364223780487" x2="445.5" y2="471.67364223780487" stroke="black" stroke-width="1"/>
  <text x="430" y="500" text-anchor="middle" font-size="12" font-family="Arial, sans-serif" transform="rotate(-45 430 500)">antibody</text>
  <rect x="467.5" y="478.48386601050896" width="20" height="1.5161339894910137" fill="#FF6B6B" opacity="0.8"/>
  <text x="477.5" y="473.48386601050896" text-anchor="middle" font-size="10" font-family="Arial, sans-serif">109.1</text>
  <line x1="477.5" y1="478.46030974146066" x2="477.5" y2="478.50742227955726" stroke="black" stroke-width="1"/>
  <line x1="474.5" y1="478.46030974146066" x2="480.5" y2="478.46030974146066" stroke="black" stroke-width="1"/>
  <line x1="474.5" y1="478.50742227955726" x2="480.5" y2="478.50742227955726" stroke="black" stroke-width="1"/>
  <rect x="492.5" y="468.187419028308" width="20" height="11.81258097169201" fill="#45B7D1" opacity="0.8"/>
  <text x="502.5" y="463.187419028308" text-anchor="middle" font-size="10" font-family="Arial, sans-serif">849.8</text>
  <line x1="502.5" y1="468.06865957912106" x2="502.5" y2="468.30617847749494" stroke="black" stroke-width="1"/>
  <line x1="499.5" y1="468.06865957912106" x2="505.5" y2="468.06865957912106" stroke="black" stroke-width="1"/>
  <line x1="499.5" y1="468.30617847749494" x2="505.5" y2="468.30617847749494" stroke="black" stroke-width="1"/>
  <text x="490" y="500" text-anchor="middle" font-size="12" font-family="Arial, sans-serif" transform="rotate(-45 490 500)">zplug</text>
  <rect x="527.5" y="471.4358567201364" width="20" height="8.564143279863593" fill="#FF6B6B" opacity="0.8"/>
  <text x="537.5" y="466.4358567201364" text-anchor="middle" font-size="10" font-family="Arial, sans-serif">616.1</text>
  <line x1="537.5" y1="471.41515127148705" x2="537.5" y2="471.4565621687858" stroke="black" stroke-width="1"/>
  <line x1="534.5" y1="471.41515127148705" x2="540.5" y2="471.41515127148705" stroke="black" stroke-width="1"/>
  <line x1="534.5" y1="471.4565621687858" x2="540.5" y2="471.4565621687858" stroke="black" stroke-width="1"/>
  <rect x="552.5" y="422.3291941519746" width="20" height="57.67080584802538" fill="#45B7D1" opacity="0.8"/>
  <text x="562.5" y="417.3291941519746" text-anchor="middle" font-size="10" font-family="Arial, sans-serif">4148.9</text>
  <line x1="562.5" y1="421.35935838036414" x2="562.5" y2="423.29902992358507" stroke="black" stroke-width="1"/>
  <line x1="559.5" y1="421.35935838036414" x2="565.5" y2="421.35935838036414" stroke="black" stroke-width="1"/>
  <line x1="559.5" y1="423.29902992358507" x2="565.5" y2="423.29902992358507" stroke="black" stroke-width="1"/>
  <text x="550" y="500" text-anchor="middle" font-size="12" font-family="Arial, sans-serif" transform="rotate(-45 550 500)">antigen</text>
  <rect x="587.5" y="479.56731163484477" width="20" height="0.4326883651552373" fill="#FF6B6B" opacity="0.8"/>
  <text x="597.5" y="474.56731163484477" text-anchor="middle" font-size="10" font-family="Arial, sans-serif">31.1</text>
  <line x1="597.5" y1="479.5626069113997" x2="597.5" y2="479.57201635828983" stroke="black" stroke-width="1"/>
  <line x1="594.5" y1="479.5626069113997" x2="600.5" y2="479.5626069113997" stroke="black" stroke-width="1"/>
  <line x1="594.5" y1="479.57201635828983" x2="600.5" y2="479.57201635828983" stroke="black" stroke-width="1"/>
  <rect x="612.5" y="398.9058409201022" width="20" height="81.09415907989778" fill="#45B7D1" opacity="0.8"/>
  <text x="622.5" y="393.9058409201022" text-anchor="middle" font-size="10" font-family="Arial, sans-serif">5834.0</text>
  <line x1="622.5" y1="398.4501176553051" x2="622.5" y2="399.3615641848993" stroke="black" stroke-width="1"/>
  <line x1="619.5" y1="398.4501176553051" x2="625.5" y2="398.4501176553051" stroke="black" stroke-width="1"/>
  <line x1="619.5" y1="399.3615641848993" x2="625.5" y2="399.3615641848993" stroke="black" stroke-width="1"/>
  <text x="610" y="500" text-anchor="middle" font-size="12" font-family="Arial, sans-serif" transform="rotate(-45 610 500)">alf</text>
  <rect x="647.5" y="479.5699379948544" width="20" height="0.43006200514560966" fill="#FF6B6B" opacity="0.8"/>
  <text x="657.5" y="474.5699379948544" text-anchor="middle" font-size="10" font-family="Arial, sans-serif">30.9</text>
  <line x1="657.5" y1="479.56758167282993" x2="657.5" y2="479.57229431687887" stroke="black" stroke-width="1"/>
  <line x1="654.5" y1="479.56758167282993" x2="660.5" y2="479.56758167282993" stroke="black" stroke-width="1"/>
  <line x1="654.5" y1="479.57229431687887" x2="660.5" y2="479.57229431687887" stroke="black" stroke-width="1"/>
  <rect x="672.5" y="398.66611914242594" width="20" height="81.33388085757403" fill="#45B7D1" opacity="0.8"/>
  <text x="682.5" y="393.66611914242594" text-anchor="middle" font-size="10" font-family="Arial, sans-serif">5851.2</text>
  <line x1="682.5" y1="397.4279387577818" x2="682.5" y2="399.90429952707007" stroke="black" stroke-width="1"/>
  <line x1="679.5" y1="397.4279387577818" x2="685.5" y2="397.4279387577818" stroke="black" stroke-width="1"/>
  <line x1="679.5" y1="399.90429952707007" x2="685.5" y2="399.90429952707007" stroke="black" stroke-width="1"/>
  <text x="670" y="500" text-anchor="middle" font-size="12" font-family="Arial, sans-serif" transform="rotate(-45 670 500)">antigen-hs</text>
  <rect x="707.5" y="479.5719521760716" width="20" height="0.42804782392842355" fill="#FF6B6B" opacity="0.8"/>
  <text x="717.5" y="474.5719521760716" text-anchor="middle" font-size="10" font-family="Arial, sans-serif">30.8</text>
  <line x1="717.5" y1="479.5693782762956" x2="717.5" y2="479.5745260758476" stroke="black" stroke-width="1"/>
  <line x1="714.5" y1="479.5693782762956" x2="720.5" y2="479.5693782762956" stroke="black" stroke-width="1"/>
  <line x1="714.5" y1="479.5745260758476" x2="720.5" y2="479.5745260758476" stroke="black" stroke-width="1"/>
  <rect x="732.5" y="398.2234208165346" width="20" height="81.7765791834654" fill="#45B7D1" opacity="0.8"/>
  <text x="742.5" y="393.2234208165346" text-anchor="middle" font-size="10" font-family="Arial, sans-serif">5883.1</text>
  <line x1="742.5" y1="397.3627186268785" x2="742.5" y2="399.0841230061907" stroke="black" stroke-width="1"/>
  <line x1="739.5" y1="397.3627186268785" x2="745.5" y2="397.3627186268785" stroke="black" stroke-width="1"/>
  <line x1="739.5" y1="399.0841230061907" x2="745.5" y2="399.0841230061907" stroke="black" stroke-width="1"/>
  <text x="730" y="500" text-anchor="middle" font-size="12" font-family="Arial, sans-serif" transform="rotate(-45 730 500)">zr</text>
  <rect x="767.5" y="476.03215734326403" width="20" height="3.9678426567359604" fill="#FF6B6B" opacity="0.8"/>
  <text x="777.5" y="471.03215734326403" text-anchor="middle" font-size="10" font-family="Arial, sans-serif">285.4</text>
  <line x1="777.5" y1="475.8425534975516" x2="777.5" y2="476.2217611889765" stroke="black" stroke-width="1"/>
  <line x1="774.5" y1="475.8425534975516" x2="780.5" y2="475.8425534975516" stroke="black" stroke-width="1"/>
  <line x1="774.5" y1="476.2217611889765" x2="780.5" y2="476.2217611889765" stroke="black" stroke-width="1"/>
  <rect x="792.5" y="378.94214403684015" width="20" height="101.05785596315985" fill="#45B7D1" opacity="0.8"/>
  <text x="802.5" y="373.94214403684015" text-anchor="middle" font-size="10" font-family="Arial, sans-serif">7270.2</text>
  <line x1="802.5" y1="378.1015485817733" x2="802.5" y2="379.782739491907" stroke="black" stroke-width="1"/>
  <line x1="799.5" y1="378.1015485817733" x2="805.5" y2="378.1015485817733" stroke="black" stroke-width="1"/>
  <line x1="799.5" y1="379.782739491907" x2="805.5" y2="379.782739491907" stroke="black" stroke-width="1"/>
  <text x="790" y="500" text-anchor="middle" font-size="12" font-family="Arial, sans-serif" transform="rotate(-45 790 500)">zpm</text>
  <rect x="827.5" y="479.54924762365937" width="20" height="0.45075237634063603" fill="#FF6B6B" opacity="0.8"/>
  <text x="837.5" y="474.54924762365937" text-anchor="middle" font-size="10" font-family="Arial, sans-serif">32.4</text>
  <line x1="837.5" y1="479.5472992806728" x2="837.5" y2="479.55119596664593" stroke="black" stroke-width="1"/>
  <line x1="834.5" y1="479.5472992806728" x2="840.5" y2="479.5472992806728" stroke="black" stroke-width="1"/>
  <line x1="834.5" y1="479.55119596664593" x2="840.5" y2="479.55119596664593" stroke="black" stroke-width="1"/>
  <rect x="852.5" y="321.6237922215806" width="20" height="158.37620777841943" fill="#45B7D1" opacity="0.8"/>
  <text x="862.5" y="316.6237922215806" text-anchor="middle" font-size="10" font-family="Arial, sans-serif">11393.7</text>
  <line x1="862.5" y1="319.77164365628835" x2="862.5" y2="323.4759407868728" stroke="black" stroke-width="1"/>
  <line x1="859.5" y1="319.77164365628835" x2="865.5" y2="319.77164365628835" stroke="black" stroke-width="1"/>
  <line x1="859.5" y1="323.4759407868728" x2="865.5" y2="323.4759407868728" stroke="black" stroke-width="1"/>
  <text x="850" y="500" text-anchor="middle" font-size="12" font-family="Arial, sans-serif" transform="rotate(-45 850 500)">zcomet</text>
  <rect x="887.5" y="462.77273503240934" width="20" height="17.22726496759064" fill="#FF6B6B" opacity="0.8"/>
  <text x="897.5" y="457.77273503240934" text-anchor="middle" font-size="10" font-family="Arial, sans-serif">1239.3</text>
  <line x1="897.5" y1="462.67192650550965" x2="897.5" y2="462.87354355930904" stroke="black" stroke-width="1"/>
  <line x1="894.5" y1="462.67192650550965" x2="900.5" y2="462.67192650550965" stroke="black" stroke-width="1"/>
  <line x1="894.5" y1="462.87354355930904" x2="900.5" y2="462.87354355930904" stroke="black" stroke-width="1"/>
  <rect x="912.5" y="53.50657236249316" width="20" height="426.49342763750684" fill="#45B7D1" opacity="0.8"/>
  <text x="922.5" y="48.50657236249316" text-anchor="middle" font-size="10" font-family="Arial, sans-serif">30682.3</text>
  <line x1="922.5" y1="50" x2="922.5" y2="57.01314472498632" stroke="black" stroke-width="1"/>
  <line x1="919.5" y1="50" x2="925.5" y2="50" stroke="black" stroke-width="1"/>
  <line x1="919.5" y1="57.01314472498632" x2="925.5" y2="57.01314472498632" stroke="black" stroke-width="1"/>
  <text x="910" y="500" text-anchor="middle" font-size="12" font-family="Arial, sans-serif" transform="rotate(-45 910 500)">zinit</text>
  <rect x="947.5" y="478.7804363140074" width="20" height="1.2195636859926298" fill="#FF6B6B" opacity="0.8"/>
  <text x="957.5" y="473.7804363140074" text-anchor="middle" font-size="10" font-family="Arial, sans-serif">87.7</text>
  <line x1="957.5" y1="478.77393509228415" x2="957.5" y2="478.7869375357306" stroke="black" stroke-width="1"/>
  <line x1="954.5" y1="478.77393509228415" x2="960.5" y2="478.77393509228415" stroke="black" stroke-width="1"/>
  <line x1="954.5" y1="478.7869375357306" x2="960.5" y2="478.7869375357306" stroke="black" stroke-width="1"/>
  <text x="970" y="500" text-anchor="middle" font-size="12" font-family="Arial, sans-serif" transform="rotate(-45 970 500)">oh-my-zsh</text>
  <rect x="1007.5" y="470.29142372482835" width="20" height="9.70857627517167" fill="#FF6B6B" opacity="0.8"/>
  <text x="1017.5" y="465.29142372482835" text-anchor="middle" font-size="10" font-family="Arial, sans-serif">698.4</text>
  <line x1="1017.5" y1="470.2356582873697" x2="1017.5" y2="470.347189162287" stroke="black" stroke-width="1"/>
  <line x1="1014.5" y1="470.2356582873697" x2="1020.5" y2="470.2356582873697" stroke="black" stroke-width="1"/>
  <line x1="1014.5" y1="470.347189162287" x2="1020.5" y2="470.347189162287" stroke="black" stroke-width="1"/>
  <text x="1030" y="500" text-anchor="middle" font-size="12" font-family="Arial, sans-serif" transform="rotate(-45 1030 500)">prezto</text>
  <!-- Legend -->
  <rect x="1090" y="60" width="15" height="15" fill="#FF6B6B" opacity="0.8"/>
  <text x="1110" y="72" font-size="12" font-family="Arial, sans-serif">0 plugins</text>
  <rect x="1090" y="80" width="15" height="15" fill="#45B7D1" opacity="0.8"/>
  <text x="1110" y="92" font-size="12" font-family="Arial, sans-serif">25 plugins</text>
</svg>