<svg width="1200" height="600" xmlns="http://www.w3.org/2000/svg" style="background: white;">
  <text x="600" y="30" text-anchor="middle" font-size="20" font-weight="bold" font-family="Arial, sans-serif">Zsh Plugin Manager Install Time Comparison</text>
  
  <!-- Grid lines -->
  <line x1="80" y1="480" x2="1080" y2="480" stroke="#e0e0e0" stroke-width="1"/>
  <text x="70" y="485" text-anchor="end" font-size="12" font-family="Arial, sans-serif">0</text>
  <line x1="80" y1="394" x2="1080" y2="394" stroke="#e0e0e0" stroke-width="1"/>
  <text x="70" y="399" text-anchor="end" font-size="12" font-family="Arial, sans-serif">0</text>
  <line x1="80" y1="308" x2="1080" y2="308" stroke="#e0e0e0" stroke-width="1"/>
  <text x="70" y="313" text-anchor="end" font-size="12" font-family="Arial, sans-serif">1</text>
  <line x1="80" y1="222" x2="1080" y2="222" stroke="#e0e0e0" stroke-width="1"/>
  <text x="70" y="227" text-anchor="end" font-size="12" font-family="Arial, sans-serif">1</text>
  <line x1="80" y1="136" x2="1080" y2="136" stroke="#e0e0e0" stroke-width="1"/>
  <text x="70" y="141" text-anchor="end" font-size="12" font-family="Arial, sans-serif">1</text>
  <line x1="80" y1="50" x2="1080" y2="50" stroke="#e0e0e0" stroke-width="1"/>
  <text x="70" y="55" text-anchor="end" font-size="12" font-family="Arial, sans-serif">2</text>
  
  <!-- Axes -->
  <line x1="80" y1="50" x2="80" y2="480" stroke="black" stroke-width="2"/>
  <line x1="80" y1="480" x2="1080" y2="480" stroke="black" stroke-width="2"/>
  
  <!-- Y-axis label -->
  <text x="20" y="300" text-anchor="middle" font-size="14" font-family="Arial, sans-serif" transform="rotate(-90 20 300)">Time (ms)</text>
  <rect x="107.5" y="478.3218253194796" width="20" height="1.6781746805204094" fill="#FF6B6B" opacity="0.8"/>
  <text x="117.5" y="473.3218253194796" text-anchor="middle" font-size="10" font-family="Arial, sans-serif">0.0</text>
  <line x1="117.5" y1="474.53075005992235" x2="117.5" y2="482.1129005790369" stroke="black" stroke-width="1"/>
  <line x1="114.5" y1="474.53075005992235" x2="120.5" y2="474.53075005992235" stroke="black" stroke-width="1"/>
  <line x1="114.5" y1="482.1129005790369" x2="120.5" y2="482.1129005790369" stroke="black" stroke-width="1"/>
  <rect x="132.5" y="478.2907417656363" width="20" height="1.7092582343636957" fill="#45B7D1" opacity="0.8"/>
  <text x="142.5" y="473.2907417656363" text-anchor="middle" font-size="10" font-family="Arial, sans-serif">0.0</text>
  <line x1="142.5" y1="475.5437402775879" x2="142.5" y2="481.0377432536847" stroke="black" stroke-width="1"/>
  <line x1="139.5" y1="475.5437402775879" x2="145.5" y2="475.5437402775879" stroke="black" stroke-width="1"/>
  <line x1="139.5" y1="481.0377432536847" x2="145.5" y2="481.0377432536847" stroke="black" stroke-width="1"/>
  <text x="130" y="500" text-anchor="middle" font-size="12" font-family="Arial, sans-serif" transform="rotate(-45 130 500)">antigen-hs</text>
  <rect x="167.5" y="476.524097655953" width="20" height="3.4759023440469865" fill="#FF6B6B" opacity="0.8"/>
  <text x="177.5" y="471.524097655953" text-anchor="middle" font-size="10" font-family="Arial, sans-serif">0.0</text>
  <line x1="177.5" y1="471.8573461734908" x2="177.5" y2="481.1908491384153" stroke="black" stroke-width="1"/>
  <line x1="174.5" y1="471.8573461734908" x2="180.5" y2="471.8573461734908" stroke="black" stroke-width="1"/>
  <line x1="174.5" y1="481.1908491384153" x2="180.5" y2="481.1908491384153" stroke="black" stroke-width="1"/>
  <rect x="192.5" y="477.86630553202804" width="20" height="2.133694467971974" fill="#45B7D1" opacity="0.8"/>
  <text x="202.5" y="472.86630553202804" text-anchor="middle" font-size="10" font-family="Arial, sans-serif">0.0</text>
  <line x1="202.5" y1="475.44674516555796" x2="202.5" y2="480.2858658984981" stroke="black" stroke-width="1"/>
  <line x1="199.5" y1="475.44674516555796" x2="205.5" y2="475.44674516555796" stroke="black" stroke-width="1"/>
  <line x1="199.5" y1="480.2858658984981" x2="205.5" y2="480.2858658984981" stroke="black" stroke-width="1"/>
  <text x="190" y="500" text-anchor="middle" font-size="12" font-family="Arial, sans-serif" transform="rotate(-45 190 500)">antigen</text>
  <rect x="227.5" y="477.55077006527614" width="20" height="2.4492299347238613" fill="#FF6B6B" opacity="0.8"/>
  <text x="237.5" y="472.55077006527614" text-anchor="middle" font-size="10" font-family="Arial, sans-serif">0.0</text>
  <line x1="237.5" y1="473.4955922409736" x2="237.5" y2="481.60594788957866" stroke="black" stroke-width="1"/>
  <line x1="234.5" y1="473.4955922409736" x2="240.5" y2="473.4955922409736" stroke="black" stroke-width="1"/>
  <line x1="234.5" y1="481.60594788957866" x2="240.5" y2="481.60594788957866" stroke="black" stroke-width="1"/>
  <rect x="252.5" y="477.8138704264937" width="20" height="2.1861295735063204" fill="#45B7D1" opacity="0.8"/>
  <text x="262.5" y="472.8138704264937" text-anchor="middle" font-size="10" font-family="Arial, sans-serif">0.0</text>
  <line x1="262.5" y1="474.644601572613" x2="262.5" y2="480.98313928037436" stroke="black" stroke-width="1"/>
  <line x1="259.5" y1="474.644601572613" x2="265.5" y2="474.644601572613" stroke="black" stroke-width="1"/>
  <line x1="259.5" y1="480.98313928037436" x2="265.5" y2="480.98313928037436" stroke="black" stroke-width="1"/>
  <text x="250" y="500" text-anchor="middle" font-size="12" font-family="Arial, sans-serif" transform="rotate(-45 250 500)">znap</text>
  <rect x="287.5" y="476.14830849837097" width="20" height="3.851691501629037" fill="#FF6B6B" opacity="0.8"/>
  <text x="297.5" y="471.14830849837097" text-anchor="middle" font-size="10" font-family="Arial, sans-serif">0.0</text>
  <line x1="297.5" y1="471.2233250661931" x2="297.5" y2="481.0732919305488" stroke="black" stroke-width="1"/>
  <line x1="294.5" y1="471.2233250661931" x2="300.5" y2="471.2233250661931" stroke="black" stroke-width="1"/>
  <line x1="294.5" y1="481.0732919305488" x2="300.5" y2="481.0732919305488" stroke="black" stroke-width="1"/>
  <rect x="312.5" y="477.1565941820254" width="20" height="2.8434058179746144" fill="#45B7D1" opacity="0.8"/>
  <text x="322.5" y="472.1565941820254" text-anchor="middle" font-size="10" font-family="Arial, sans-serif">0.0</text>
  <line x1="322.5" y1="472.2653835973295" x2="322.5" y2="482.0478047667213" stroke="black" stroke-width="1"/>
  <line x1="319.5" y1="472.2653835973295" x2="325.5" y2="472.2653835973295" stroke="black" stroke-width="1"/>
  <line x1="319.5" y1="482.0478047667213" x2="325.5" y2="482.0478047667213" stroke="black" stroke-width="1"/>
  <text x="310" y="500" text-anchor="middle" font-size="12" font-family="Arial, sans-serif" transform="rotate(-45 310 500)">zinit</text>
  <rect x="347.5" y="475.7875425734273" width="20" height="4.212457426572693" fill="#FF6B6B" opacity="0.8"/>
  <text x="357.5" y="470.7875425734273" text-anchor="middle" font-size="10" font-family="Arial, sans-serif">0.0</text>
  <line x1="357.5" y1="468.60411228436095" x2="357.5" y2="482.9709728624936" stroke="black" stroke-width="1"/>
  <line x1="354.5" y1="468.60411228436095" x2="360.5" y2="468.60411228436095" stroke="black" stroke-width="1"/>
  <line x1="354.5" y1="482.9709728624936" x2="360.5" y2="482.9709728624936" stroke="black" stroke-width="1"/>
  <rect x="372.5" y="476.98984235134765" width="20" height="3.010157648652335" fill="#45B7D1" opacity="0.8"/>
  <text x="382.5" y="471.98984235134765" text-anchor="middle" font-size="10" font-family="Arial, sans-serif">0.0</text>
  <line x1="382.5" y1="471.9821269807023" x2="382.5" y2="481.997557721993" stroke="black" stroke-width="1"/>
  <line x1="379.5" y1="471.9821269807023" x2="385.5" y2="471.9821269807023" stroke="black" stroke-width="1"/>
  <line x1="379.5" y1="481.997557721993" x2="385.5" y2="481.997557721993" stroke="black" stroke-width="1"/>
  <text x="370" y="500" text-anchor="middle" font-size="12" font-family="Arial, sans-serif" transform="rotate(-45 370 500)">zplug</text>
  <rect x="407.5" y="477.1079909917069" width="20" height="2.892009008293107" fill="#FF6B6B" opacity="0.8"/>
  <text x="417.5" y="472.1079909917069" text-anchor="middle" font-size="10" font-family="Arial, sans-serif">0.0</text>
  <line x1="417.5" y1="474.0360970376158" x2="417.5" y2="480.17988494579805" stroke="black" stroke-width="1"/>
  <line x1="414.5" y1="474.0360970376158" x2="420.5" y2="474.0360970376158" stroke="black" stroke-width="1"/>
  <line x1="414.5" y1="480.17988494579805" x2="420.5" y2="480.17988494579805" stroke="black" stroke-width="1"/>
  <rect x="432.5" y="476.9506870609683" width="20" height="3.049312939031711" fill="#45B7D1" opacity="0.8"/>
  <text x="442.5" y="471.9506870609683" text-anchor="middle" font-size="10" font-family="Arial, sans-serif">0.0</text>
  <line x1="442.5" y1="472.21364499378865" x2="442.5" y2="481.6877291281479" stroke="black" stroke-width="1"/>
  <line x1="439.5" y1="472.21364499378865" x2="445.5" y2="472.21364499378865" stroke="black" stroke-width="1"/>
  <line x1="439.5" y1="481.6877291281479" x2="445.5" y2="481.6877291281479" stroke="black" stroke-width="1"/>
  <text x="430" y="500" text-anchor="middle" font-size="12" font-family="Arial, sans-serif" transform="rotate(-45 430 500)">alf</text>
  <rect x="467.5" y="476.7476075653526" width="20" height="3.252392434647386" fill="#FF6B6B" opacity="0.8"/>
  <text x="477.5" y="471.7476075653526" text-anchor="middle" font-size="10" font-family="Arial, sans-serif">0.0</text>
  <line x1="477.5" y1="472.9380687990882" x2="477.5" y2="480.557146331617" stroke="black" stroke-width="1"/>
  <line x1="474.5" y1="472.9380687990882" x2="480.5" y2="472.9380687990882" stroke="black" stroke-width="1"/>
  <line x1="474.5" y1="480.557146331617" x2="480.5" y2="480.557146331617" stroke="black" stroke-width="1"/>
  <rect x="492.5" y="475.818310150175" width="20" height="4.181689849824984" fill="#45B7D1" opacity="0.8"/>
  <text x="502.5" y="470.818310150175" text-anchor="middle" font-size="10" font-family="Arial, sans-serif">0.0</text>
  <line x1="502.5" y1="468.4526136524504" x2="502.5" y2="483.18400664789965" stroke="black" stroke-width="1"/>
  <line x1="499.5" y1="468.4526136524504" x2="505.5" y2="468.4526136524504" stroke="black" stroke-width="1"/>
  <line x1="499.5" y1="483.18400664789965" x2="505.5" y2="483.18400664789965" stroke="black" stroke-width="1"/>
  <text x="490" y="500" text-anchor="middle" font-size="12" font-family="Arial, sans-serif" transform="rotate(-45 490 500)">zcomet</text>
  <rect x="527.5" y="476.76432062871544" width="20" height="3.2356793712845553" fill="#FF6B6B" opacity="0.8"/>
  <text x="537.5" y="471.76432062871544" text-anchor="middle" font-size="10" font-family="Arial, sans-serif">0.0</text>
  <line x1="537.5" y1="472.6290932076959" x2="537.5" y2="480.89954804973496" stroke="black" stroke-width="1"/>
  <line x1="534.5" y1="472.6290932076959" x2="540.5" y2="472.6290932076959" stroke="black" stroke-width="1"/>
  <line x1="534.5" y1="480.89954804973496" x2="540.5" y2="480.89954804973496" stroke="black" stroke-width="1"/>
  <rect x="552.5" y="475.7925473919262" width="20" height="4.207452608073803" fill="#45B7D1" opacity="0.8"/>
  <text x="562.5" y="470.7925473919262" text-anchor="middle" font-size="10" font-family="Arial, sans-serif">0.0</text>
  <line x1="562.5" y1="471.9103191499612" x2="562.5" y2="479.67477563389116" stroke="black" stroke-width="1"/>
  <line x1="559.5" y1="471.9103191499612" x2="565.5" y2="471.9103191499612" stroke="black" stroke-width="1"/>
  <line x1="559.5" y1="479.67477563389116" x2="565.5" y2="479.67477563389116" stroke="black" stroke-width="1"/>
  <text x="550" y="500" text-anchor="middle" font-size="12" font-family="Arial, sans-serif" transform="rotate(-45 550 500)">zpm</text>
  <rect x="587.5" y="454.53361348428854" width="20" height="25.466386515711456" fill="#FF6B6B" opacity="0.8"/>
  <text x="597.5" y="449.53361348428854" text-anchor="middle" font-size="10" font-family="Arial, sans-serif">0.1</text>
  <line x1="597.5" y1="440.5568658314318" x2="597.5" y2="468.51036113714525" stroke="black" stroke-width="1"/>
  <line x1="594.5" y1="440.5568658314318" x2="600.5" y2="440.5568658314318" stroke="black" stroke-width="1"/>
  <line x1="594.5" y1="468.51036113714525" x2="600.5" y2="468.51036113714525" stroke="black" stroke-width="1"/>
  <rect x="612.5" y="474.55115792121063" width="20" height="5.448842078789391" fill="#45B7D1" opacity="0.8"/>
  <text x="622.5" y="469.55115792121063" text-anchor="middle" font-size="10" font-family="Arial, sans-serif">0.0</text>
  <line x1="622.5" y1="469.2711282554648" x2="622.5" y2="479.83118758695645" stroke="black" stroke-width="1"/>
  <line x1="619.5" y1="469.2711282554648" x2="625.5" y2="469.2711282554648" stroke="black" stroke-width="1"/>
  <line x1="619.5" y1="479.83118758695645" x2="625.5" y2="479.83118758695645" stroke="black" stroke-width="1"/>
  <text x="610" y="500" text-anchor="middle" font-size="12" font-family="Arial, sans-serif" transform="rotate(-45 610 500)">zr</text>
  <rect x="647.5" y="478.47812034089554" width="20" height="1.521879659104454" fill="#FF6B6B" opacity="0.8"/>
  <text x="657.5" y="473.47812034089554" text-anchor="middle" font-size="10" font-family="Arial, sans-serif">0.0</text>
  <line x1="657.5" y1="476.0418775185992" x2="657.5" y2="480.91436316319187" stroke="black" stroke-width="1"/>
  <line x1="654.5" y1="476.0418775185992" x2="660.5" y2="476.0418775185992" stroke="black" stroke-width="1"/>
  <line x1="654.5" y1="480.91436316319187" x2="660.5" y2="480.91436316319187" stroke="black" stroke-width="1"/>
  <rect x="672.5" y="474.2480767563538" width="20" height="5.751923243646202" fill="#45B7D1" opacity="0.8"/>
  <text x="682.5" y="469.2480767563538" text-anchor="middle" font-size="10" font-family="Arial, sans-serif">0.0</text>
  <line x1="682.5" y1="470.4220052327051" x2="682.5" y2="478.0741482800025" stroke="black" stroke-width="1"/>
  <line x1="679.5" y1="470.4220052327051" x2="685.5" y2="470.4220052327051" stroke="black" stroke-width="1"/>
  <line x1="679.5" y1="478.0741482800025" x2="685.5" y2="478.0741482800025" stroke="black" stroke-width="1"/>
  <text x="670" y="500" text-anchor="middle" font-size="12" font-family="Arial, sans-serif" transform="rotate(-45 670 500)">zgenom</text>
  <rect x="707.5" y="477.9747018442231" width="20" height="2.025298155776926" fill="#FF6B6B" opacity="0.8"/>
  <text x="717.5" y="472.9747018442231" text-anchor="middle" font-size="10" font-family="Arial, sans-serif">0.0</text>
  <line x1="717.5" y1="475.131234795602" x2="717.5" y2="480.8181688928442" stroke="black" stroke-width="1"/>
  <line x1="714.5" y1="475.131234795602" x2="720.5" y2="475.131234795602" stroke="black" stroke-width="1"/>
  <line x1="714.5" y1="480.8181688928442" x2="720.5" y2="480.8181688928442" stroke="black" stroke-width="1"/>
  <rect x="732.5" y="472.6078461206798" width="20" height="7.392153879320198" fill="#45B7D1" opacity="0.8"/>
  <text x="742.5" y="467.6078461206798" text-anchor="middle" font-size="10" font-family="Arial, sans-serif">0.0</text>
  <line x1="742.5" y1="463.31327291914613" x2="742.5" y2="481.9024193222135" stroke="black" stroke-width="1"/>
  <line x1="739.5" y1="463.31327291914613" x2="745.5" y2="463.31327291914613" stroke="black" stroke-width="1"/>
  <line x1="739.5" y1="481.9024193222135" x2="745.5" y2="481.9024193222135" stroke="black" stroke-width="1"/>
  <text x="730" y="500" text-anchor="middle" font-size="12" font-family="Arial, sans-serif" transform="rotate(-45 730 500)">antidote</text>
  <rect x="767.5" y="474.4750480932051" width="20" height="5.524951906794883" fill="#FF6B6B" opacity="0.8"/>
  <text x="777.5" y="469.4750480932051" text-anchor="middle" font-size="10" font-family="Arial, sans-serif">0.0</text>
  <line x1="777.5" y1="470.01039052946686" x2="777.5" y2="478.9397056569433" stroke="black" stroke-width="1"/>
  <line x1="774.5" y1="470.01039052946686" x2="780.5" y2="470.01039052946686" stroke="black" stroke-width="1"/>
  <line x1="774.5" y1="478.9397056569433" x2="780.5" y2="478.9397056569433" stroke="black" stroke-width="1"/>
  <rect x="792.5" y="469.2152813497218" width="20" height="10.784718650278192" fill="#45B7D1" opacity="0.8"/>
  <text x="802.5" y="464.2152813497218" text-anchor="middle" font-size="10" font-family="Arial, sans-serif">0.0</text>
  <line x1="802.5" y1="462.13786462000076" x2="802.5" y2="476.29269807944286" stroke="black" stroke-width="1"/>
  <line x1="799.5" y1="462.13786462000076" x2="805.5" y2="462.13786462000076" stroke="black" stroke-width="1"/>
  <line x1="799.5" y1="476.29269807944286" x2="805.5" y2="476.29269807944286" stroke="black" stroke-width="1"/>
  <text x="790" y="500" text-anchor="middle" font-size="12" font-family="Arial, sans-serif" transform="rotate(-45 790 500)">antibody</text>
  <rect x="827.5" y="473.03902966636076" width="20" height="6.960970333639232" fill="#FF6B6B" opacity="0.8"/>
  <text x="837.5" y="468.03902966636076" text-anchor="middle" font-size="10" font-family="Arial, sans-serif">0.0</text>
  <line x1="837.5" y1="461.1188673134938" x2="837.5" y2="484.9591920192277" stroke="black" stroke-width="1"/>
  <line x1="834.5" y1="461.1188673134938" x2="840.5" y2="461.1188673134938" stroke="black" stroke-width="1"/>
  <line x1="834.5" y1="484.9591920192277" x2="840.5" y2="484.9591920192277" stroke="black" stroke-width="1"/>
  <rect x="852.5" y="440.4790123279961" width="20" height="39.52098767200388" fill="#45B7D1" opacity="0.8"/>
  <text x="862.5" y="435.4790123279961" text-anchor="middle" font-size="10" font-family="Arial, sans-serif">0.2</text>
  <line x1="862.5" y1="435.1847124036078" x2="862.5" y2="445.77331225238436" stroke="black" stroke-width="1"/>
  <line x1="859.5" y1="435.1847124036078" x2="865.5" y2="435.1847124036078" stroke="black" stroke-width="1"/>
  <line x1="859.5" y1="445.77331225238436" x2="865.5" y2="445.77331225238436" stroke="black" stroke-width="1"/>
  <text x="850" y="500" text-anchor="middle" font-size="12" font-family="Arial, sans-serif" transform="rotate(-45 850 500)">sheldon</text>
  <rect x="887.5" y="172.6041956206326" width="20" height="307.3958043793674" fill="#FF6B6B" opacity="0.8"/>
  <text x="897.5" y="167.6041956206326" text-anchor="middle" font-size="10" font-family="Arial, sans-serif">1.3</text>
  <line x1="897.5" y1="157.33982925941072" x2="897.5" y2="187.86856198185447" stroke="black" stroke-width="1"/>
  <line x1="894.5" y1="157.33982925941072" x2="900.5" y2="157.33982925941072" stroke="black" stroke-width="1"/>
  <line x1="894.5" y1="187.86856198185447" x2="900.5" y2="187.86856198185447" stroke="black" stroke-width="1"/>
  <rect x="912.5" y="137.81422120735232" width="20" height="342.1857787926477" fill="#45B7D1" opacity="0.8"/>
  <text x="922.5" y="132.81422120735232" text-anchor="middle" font-size="10" font-family="Arial, sans-serif">1.5</text>
  <line x1="922.5" y1="50.00000000000004" x2="922.5" y2="225.62844241470458" stroke="black" stroke-width="1"/>
  <line x1="919.5" y1="50.00000000000004" x2="925.5" y2="50.00000000000004" stroke="black" stroke-width="1"/>
  <line x1="919.5" y1="225.62844241470458" x2="925.5" y2="225.62844241470458" stroke="black" stroke-width="1"/>
  <text x="910" y="500" text-anchor="middle" font-size="12" font-family="Arial, sans-serif" transform="rotate(-45 910 500)">zim</text>
  <rect x="947.5" y="479.40408752378966" width="20" height="0.5959124762103529" fill="#FF6B6B" opacity="0.8"/>
  <text x="957.5" y="474.40408752378966" text-anchor="middle" font-size="10" font-family="Arial, sans-serif">0.0</text>
  <line x1="957.5" y1="478.30564113682533" x2="957.5" y2="480.502533910754" stroke="black" stroke-width="1"/>
  <line x1="954.5" y1="478.30564113682533" x2="960.5" y2="478.30564113682533" stroke="black" stroke-width="1"/>
  <line x1="954.5" y1="480.502533910754" x2="960.5" y2="480.502533910754" stroke="black" stroke-width="1"/>
  <text x="970" y="500" text-anchor="middle" font-size="12" font-family="Arial, sans-serif" transform="rotate(-45 970 500)">oh-my-zsh</text>
  <rect x="1007.5" y="474.9974455416231" width="20" height="5.002554458376878" fill="#FF6B6B" opacity="0.8"/>
  <text x="1017.5" y="469.9974455416231" text-anchor="middle" font-size="10" font-family="Arial, sans-serif">0.0</text>
  <line x1="1017.5" y1="469.4516873485906" x2="1017.5" y2="480.5432037346556" stroke="black" stroke-width="1"/>
  <line x1="1014.5" y1="469.4516873485906" x2="1020.5" y2="469.4516873485906" stroke="black" stroke-width="1"/>
  <line x1="1014.5" y1="480.5432037346556" x2="1020.5" y2="480.5432037346556" stroke="black" stroke-width="1"/>
  <text x="1030" y="500" text-anchor="middle" font-size="12" font-family="Arial, sans-serif" transform="rotate(-45 1030 500)">prezto</text>
  <!-- Legend -->
  <rect x="1090" y="60" width="15" height="15" fill="#FF6B6B" opacity="0.8"/>
  <text x="1110" y="72" font-size="12" font-family="Arial, sans-serif">0 plugins</text>
  <rect x="1090" y="80" width="15" height="15" fill="#45B7D1" opacity="0.8"/>
  <text x="1110" y="92" font-size="12" font-family="Arial, sans-serif">25 plugins</text>
</svg>