<svg width="1200" height="600" xmlns="http://www.w3.org/2000/svg" style="background: white;">
  <text x="600" y="30" text-anchor="middle" font-size="20" font-weight="bold" font-family="Arial, sans-serif">Zsh Plugin Manager Install Time Comparison</text>
  
  <!-- Grid lines -->
  <line x1="80" y1="480" x2="1080" y2="480" stroke="#e0e0e0" stroke-width="1"/>
  <text x="70" y="485" text-anchor="end" font-size="12" font-family="Arial, sans-serif">0</text>
  <line x1="80" y1="394" x2="1080" y2="394" stroke="#e0e0e0" stroke-width="1"/>
  <text x="70" y="399" text-anchor="end" font-size="12" font-family="Arial, sans-serif">6207</text>
  <line x1="80" y1="308" x2="1080" y2="308" stroke="#e0e0e0" stroke-width="1"/>
  <text x="70" y="313" text-anchor="end" font-size="12" font-family="Arial, sans-serif">12415</text>
  <line x1="80" y1="222" x2="1080" y2="222" stroke="#e0e0e0" stroke-width="1"/>
  <text x="70" y="227" text-anchor="end" font-size="12" font-family="Arial, sans-serif">18622</text>
  <line x1="80" y1="136" x2="1080" y2="136" stroke="#e0e0e0" stroke-width="1"/>
  <text x="70" y="141" text-anchor="end" font-size="12" font-family="Arial, sans-serif">24829</text>
  <line x1="80" y1="50" x2="1080" y2="50" stroke="#e0e0e0" stroke-width="1"/>
  <text x="70" y="55" text-anchor="end" font-size="12" font-family="Arial, sans-serif">31036</text>
  
  <!-- Axes -->
  <line x1="80" y1="50" x2="80" y2="480" stroke="black" stroke-width="2"/>
  <line x1="80" y1="480" x2="1080" y2="480" stroke="black" stroke-width="2"/>
  
  <!-- Y-axis label -->
  <text x="20" y="300" text-anchor="middle" font-size="14" font-family="Arial, sans-serif" transform="rotate(-90 20 300)">Time (ms)</text>
  <rect x="77.5" y="479.58112545807353" width="20" height="0.41887454192647894" fill="#FF6B6B" opacity="0.8"/>
  <text x="87.5" y="474.58112545807353" text-anchor="middle" font-size="10" font-family="Arial, sans-serif">30.2</text>
  <line x1="87.5" y1="479.57114852512893" x2="87.5" y2="479.5911023910181" stroke="black" stroke-width="1"/>
  <line x1="84.5" y1="479.57114852512893" x2="90.5" y2="479.57114852512893" stroke="black" stroke-width="1"/>
  <line x1="84.5" y1="479.5911023910181" x2="90.5" y2="479.5911023910181" stroke="black" stroke-width="1"/>
  <text x="100" y="500" text-anchor="middle" font-size="12" font-family="Arial, sans-serif" transform="rotate(-45 100 500)">vanilla</text>
  <rect x="137.5" y="479.57740559314715" width="20" height="0.4225944068528799" fill="#FF6B6B" opacity="0.8"/>
  <text x="147.5" y="474.57740559314715" text-anchor="middle" font-size="10" font-family="Arial, sans-serif">30.5</text>
  <line x1="147.5" y1="479.5756740352074" x2="147.5" y2="479.5791371510869" stroke="black" stroke-width="1"/>
  <line x1="144.5" y1="479.5756740352074" x2="150.5" y2="479.5756740352074" stroke="black" stroke-width="1"/>
  <line x1="144.5" y1="479.5791371510869" x2="150.5" y2="479.5791371510869" stroke="black" stroke-width="1"/>
  <rect x="162.5" y="479.4040502394058" width="20" height="0.5959497605941793" fill="#45B7D1" opacity="0.8"/>
  <text x="172.5" y="474.4040502394058" text-anchor="middle" font-size="10" font-family="Arial, sans-serif">43.0</text>
  <line x1="172.5" y1="479.40136988479344" x2="172.5" y2="479.4067305940182" stroke="black" stroke-width="1"/>
  <line x1="169.5" y1="479.40136988479344" x2="175.5" y2="479.40136988479344" stroke="black" stroke-width="1"/>
  <line x1="169.5" y1="479.4067305940182" x2="175.5" y2="479.4067305940182" stroke="black" stroke-width="1"/>
  <text x="160" y="500" text-anchor="middle" font-size="12" font-family="Arial, sans-serif" transform="rotate(-45 160 500)">zgenom</text>
  <rect x="197.5" y="478.4081408251958" width="20" height="1.5918591748041964" fill="#FF6B6B" opacity="0.8"/>
  <text x="207.5" y="473.4081408251958" text-anchor="middle" font-size="10" font-family="Arial, sans-serif">114.9</text>
  <line x1="207.5" y1="478.3945217100371" x2="207.5" y2="478.4217599403545" stroke="black" stroke-width="1"/>
  <line x1="204.5" y1="478.3945217100371" x2="210.5" y2="478.3945217100371" stroke="black" stroke-width="1"/>
  <line x1="204.5" y1="478.4217599403545" x2="210.5" y2="478.4217599403545" stroke="black" stroke-width="1"/>
  <rect x="222.5" y="468.0903416910484" width="20" height="11.909658308951595" fill="#45B7D1" opacity="0.8"/>
  <text x="232.5" y="463.0903416910484" text-anchor="middle" font-size="10" font-family="Arial, sans-serif">859.6</text>
  <line x1="232.5" y1="468.05972268792914" x2="232.5" y2="468.1209606941677" stroke="black" stroke-width="1"/>
  <line x1="229.5" y1="468.05972268792914" x2="235.5" y2="468.05972268792914" stroke="black" stroke-width="1"/>
  <line x1="229.5" y1="468.1209606941677" x2="235.5" y2="468.1209606941677" stroke="black" stroke-width="1"/>
  <text x="220" y="500" text-anchor="middle" font-size="12" font-family="Arial, sans-serif" transform="rotate(-45 220 500)">zplug</text>
  <rect x="257.5" y="478.82025014498623" width="20" height="1.1797498550137486" fill="#FF6B6B" opacity="0.8"/>
  <text x="267.5" y="473.82025014498623" text-anchor="middle" font-size="10" font-family="Arial, sans-serif">85.2</text>
  <line x1="267.5" y1="476.50088701348113" x2="267.5" y2="481.13961327649133" stroke="black" stroke-width="1"/>
  <line x1="264.5" y1="476.50088701348113" x2="270.5" y2="476.50088701348113" stroke="black" stroke-width="1"/>
  <line x1="264.5" y1="481.13961327649133" x2="270.5" y2="481.13961327649133" stroke="black" stroke-width="1"/>
  <rect x="282.5" y="454.4818641573857" width="20" height="25.5181358426143" fill="#45B7D1" opacity="0.8"/>
  <text x="292.5" y="449.4818641573857" text-anchor="middle" font-size="10" font-family="Arial, sans-serif">1841.8</text>
  <line x1="292.5" y1="449.44116618532047" x2="292.5" y2="459.52256212945093" stroke="black" stroke-width="1"/>
  <line x1="289.5" y1="449.44116618532047" x2="295.5" y2="449.44116618532047" stroke="black" stroke-width="1"/>
  <line x1="289.5" y1="459.52256212945093" x2="295.5" y2="459.52256212945093" stroke="black" stroke-width="1"/>
  <text x="280" y="500" text-anchor="middle" font-size="12" font-family="Arial, sans-serif" transform="rotate(-45 280 500)">znap</text>
  <rect x="317.5" y="471.4364912948463" width="20" height="8.563508705153685" fill="#FF6B6B" opacity="0.8"/>
  <text x="327.5" y="466.4364912948463" text-anchor="middle" font-size="10" font-family="Arial, sans-serif">618.1</text>
  <line x1="327.5" y1="471.398159544802" x2="327.5" y2="471.47482304489057" stroke="black" stroke-width="1"/>
  <line x1="324.5" y1="471.398159544802" x2="330.5" y2="471.398159544802" stroke="black" stroke-width="1"/>
  <line x1="324.5" y1="471.47482304489057" x2="330.5" y2="471.47482304489057" stroke="black" stroke-width="1"/>
  <rect x="342.5" y="424.3911573107494" width="20" height="55.60884268925057" fill="#45B7D1" opacity="0.8"/>
  <text x="352.5" y="419.3911573107494" text-anchor="middle" font-size="10" font-family="Arial, sans-serif">4013.7</text>
  <line x1="352.5" y1="422.4435657663916" x2="352.5" y2="426.3387488551072" stroke="black" stroke-width="1"/>
  <line x1="349.5" y1="422.4435657663916" x2="355.5" y2="422.4435657663916" stroke="black" stroke-width="1"/>
  <line x1="349.5" y1="426.3387488551072" x2="355.5" y2="426.3387488551072" stroke="black" stroke-width="1"/>
  <text x="340" y="500" text-anchor="middle" font-size="12" font-family="Arial, sans-serif" transform="rotate(-45 340 500)">antigen</text>
  <rect x="377.5" y="479.57203923194766" width="20" height="0.4279607680523257" fill="#FF6B6B" opacity="0.8"/>
  <text x="387.5" y="474.57203923194766" text-anchor="middle" font-size="10" font-family="Arial, sans-serif">30.9</text>
  <line x1="387.5" y1="479.56877073154806" x2="387.5" y2="479.57530773234726" stroke="black" stroke-width="1"/>
  <line x1="384.5" y1="479.56877073154806" x2="390.5" y2="479.56877073154806" stroke="black" stroke-width="1"/>
  <line x1="384.5" y1="479.57530773234726" x2="390.5" y2="479.57530773234726" stroke="black" stroke-width="1"/>
  <rect x="402.5" y="398.4924752612162" width="20" height="81.5075247387838" fill="#45B7D1" opacity="0.8"/>
  <text x="412.5" y="393.4924752612162" text-anchor="middle" font-size="10" font-family="Arial, sans-serif">5883.0</text>
  <line x1="412.5" y1="397.6269579115751" x2="412.5" y2="399.3579926108573" stroke="black" stroke-width="1"/>
  <line x1="409.5" y1="397.6269579115751" x2="415.5" y2="397.6269579115751" stroke="black" stroke-width="1"/>
  <line x1="409.5" y1="399.3579926108573" x2="415.5" y2="399.3579926108573" stroke="black" stroke-width="1"/>
  <text x="400" y="500" text-anchor="middle" font-size="12" font-family="Arial, sans-serif" transform="rotate(-45 400 500)">zr</text>
  <rect x="437.5" y="479.5830644666241" width="20" height="0.4169355333759452" fill="#FF6B6B" opacity="0.8"/>
  <text x="447.5" y="474.5830644666241" text-anchor="middle" font-size="10" font-family="Arial, sans-serif">30.1</text>
  <line x1="447.5" y1="479.57831988235625" x2="447.5" y2="479.5878090508919" stroke="black" stroke-width="1"/>
  <line x1="444.5" y1="479.57831988235625" x2="450.5" y2="479.57831988235625" stroke="black" stroke-width="1"/>
  <line x1="444.5" y1="479.5878090508919" x2="450.5" y2="479.5878090508919" stroke="black" stroke-width="1"/>
  <rect x="462.5" y="398.2764165969174" width="20" height="81.72358340308261" fill="#45B7D1" opacity="0.8"/>
  <text x="472.5" y="393.2764165969174" text-anchor="middle" font-size="10" font-family="Arial, sans-serif">5898.6</text>
  <line x1="472.5" y1="397.0200056564785" x2="472.5" y2="399.5328275373563" stroke="black" stroke-width="1"/>
  <line x1="469.5" y1="397.0200056564785" x2="475.5" y2="397.0200056564785" stroke="black" stroke-width="1"/>
  <line x1="469.5" y1="399.5328275373563" x2="475.5" y2="399.5328275373563" stroke="black" stroke-width="1"/>
  <text x="460" y="500" text-anchor="middle" font-size="12" font-family="Arial, sans-serif" transform="rotate(-45 460 500)">alf</text>
  <rect x="497.5" y="479.5700350659891" width="20" height="0.42996493401089175" fill="#FF6B6B" opacity="0.8"/>
  <text x="507.5" y="474.5700350659891" text-anchor="middle" font-size="10" font-family="Arial, sans-serif">31.0</text>
  <line x1="507.5" y1="479.56773840477695" x2="507.5" y2="479.57233172720123" stroke="black" stroke-width="1"/>
  <line x1="504.5" y1="479.56773840477695" x2="510.5" y2="479.56773840477695" stroke="black" stroke-width="1"/>
  <line x1="504.5" y1="479.57233172720123" x2="510.5" y2="479.57233172720123" stroke="black" stroke-width="1"/>
  <rect x="522.5" y="397.88733013654434" width="20" height="82.11266986345566" fill="#45B7D1" opacity="0.8"/>
  <text x="532.5" y="392.88733013654434" text-anchor="middle" font-size="10" font-family="Arial, sans-serif">5926.7</text>
  <line x1="532.5" y1="395.71476933817746" x2="532.5" y2="400.0598909349112" stroke="black" stroke-width="1"/>
  <line x1="529.5" y1="395.71476933817746" x2="535.5" y2="395.71476933817746" stroke="black" stroke-width="1"/>
  <line x1="529.5" y1="400.0598909349112" x2="535.5" y2="400.0598909349112" stroke="black" stroke-width="1"/>
  <text x="520" y="500" text-anchor="middle" font-size="12" font-family="Arial, sans-serif" transform="rotate(-45 520 500)">antigen-hs</text>
  <rect x="557.5" y="479.54882996901944" width="20" height="0.4511700309805477" fill="#FF6B6B" opacity="0.8"/>
  <text x="567.5" y="474.54882996901944" text-anchor="middle" font-size="10" font-family="Arial, sans-serif">32.6</text>
  <line x1="567.5" y1="479.5441600547671" x2="567.5" y2="479.5534998832718" stroke="black" stroke-width="1"/>
  <line x1="564.5" y1="479.5441600547671" x2="570.5" y2="479.5441600547671" stroke="black" stroke-width="1"/>
  <line x1="564.5" y1="479.5534998832718" x2="570.5" y2="479.5534998832718" stroke="black" stroke-width="1"/>
  <rect x="582.5" y="390.35483520371884" width="20" height="89.64516479628114" fill="#45B7D1" opacity="0.8"/>
  <text x="592.5" y="385.35483520371884" text-anchor="middle" font-size="10" font-family="Arial, sans-serif">6470.4</text>
  <line x1="592.5" y1="389.519991176181" x2="592.5" y2="391.18967923125666" stroke="black" stroke-width="1"/>
  <line x1="589.5" y1="389.519991176181" x2="595.5" y2="389.519991176181" stroke="black" stroke-width="1"/>
  <line x1="589.5" y1="391.18967923125666" x2="595.5" y2="391.18967923125666" stroke="black" stroke-width="1"/>
  <text x="580" y="500" text-anchor="middle" font-size="12" font-family="Arial, sans-serif" transform="rotate(-45 580 500)">antibody</text>
  <rect x="617.5" y="476.0544308432393" width="20" height="3.945569156760721" fill="#FF6B6B" opacity="0.8"/>
  <text x="627.5" y="471.0544308432393" text-anchor="middle" font-size="10" font-family="Arial, sans-serif">284.8</text>
  <line x1="627.5" y1="475.80565041898615" x2="627.5" y2="476.30321126749243" stroke="black" stroke-width="1"/>
  <line x1="624.5" y1="475.80565041898615" x2="630.5" y2="475.80565041898615" stroke="black" stroke-width="1"/>
  <line x1="624.5" y1="476.30321126749243" x2="630.5" y2="476.30321126749243" stroke="black" stroke-width="1"/>
  <rect x="642.5" y="378.2765132863499" width="20" height="101.72348671365015" fill="#45B7D1" opacity="0.8"/>
  <text x="652.5" y="373.2765132863499" text-anchor="middle" font-size="10" font-family="Arial, sans-serif">7342.2</text>
  <line x1="652.5" y1="376.8992229408583" x2="652.5" y2="379.65380363184147" stroke="black" stroke-width="1"/>
  <line x1="649.5" y1="376.8992229408583" x2="655.5" y2="376.8992229408583" stroke="black" stroke-width="1"/>
  <line x1="649.5" y1="379.65380363184147" x2="655.5" y2="379.65380363184147" stroke="black" stroke-width="1"/>
  <text x="640" y="500" text-anchor="middle" font-size="12" font-family="Arial, sans-serif" transform="rotate(-45 640 500)">zpm</text>
  <rect x="677.5" y="479.52879536700306" width="20" height="0.4712046329969437" fill="#FF6B6B" opacity="0.8"/>
  <text x="687.5" y="474.52879536700306" text-anchor="middle" font-size="10" font-family="Arial, sans-serif">34.0</text>
  <line x1="687.5" y1="479.5248163596457" x2="687.5" y2="479.53277437436043" stroke="black" stroke-width="1"/>
  <line x1="684.5" y1="479.5248163596457" x2="690.5" y2="479.5248163596457" stroke="black" stroke-width="1"/>
  <line x1="684.5" y1="479.53277437436043" x2="690.5" y2="479.53277437436043" stroke="black" stroke-width="1"/>
  <rect x="702.5" y="371.3133703858312" width="20" height="108.6866296141688" fill="#45B7D1" opacity="0.8"/>
  <text x="712.5" y="366.3133703858312" text-anchor="middle" font-size="10" font-family="Arial, sans-serif">7844.8</text>
  <line x1="712.5" y1="370.8352700245917" x2="712.5" y2="371.7914707470707" stroke="black" stroke-width="1"/>
  <line x1="709.5" y1="370.8352700245917" x2="715.5" y2="370.8352700245917" stroke="black" stroke-width="1"/>
  <line x1="709.5" y1="371.7914707470707" x2="715.5" y2="371.7914707470707" stroke="black" stroke-width="1"/>
  <text x="700" y="500" text-anchor="middle" font-size="12" font-family="Arial, sans-serif" transform="rotate(-45 700 500)">zim</text>
  <rect x="737.5" y="479.43818158981816" width="20" height="0.5618184101818227" fill="#FF6B6B" opacity="0.8"/>
  <text x="747.5" y="474.43818158981816" text-anchor="middle" font-size="10" font-family="Arial, sans-serif">40.6</text>
  <line x1="747.5" y1="479.4339670116179" x2="747.5" y2="479.44239616801843" stroke="black" stroke-width="1"/>
  <line x1="744.5" y1="479.4339670116179" x2="750.5" y2="479.4339670116179" stroke="black" stroke-width="1"/>
  <line x1="744.5" y1="479.44239616801843" x2="750.5" y2="479.44239616801843" stroke="black" stroke-width="1"/>
  <rect x="762.5" y="367.45506341150013" width="20" height="112.54493658849985" fill="#45B7D1" opacity="0.8"/>
  <text x="772.5" y="362.45506341150013" text-anchor="middle" font-size="10" font-family="Arial, sans-serif">8123.2</text>
  <line x1="772.5" y1="366.95180175527094" x2="772.5" y2="367.95832506772933" stroke="black" stroke-width="1"/>
  <line x1="769.5" y1="366.95180175527094" x2="775.5" y2="366.95180175527094" stroke="black" stroke-width="1"/>
  <line x1="769.5" y1="367.95832506772933" x2="775.5" y2="367.95832506772933" stroke="black" stroke-width="1"/>
  <text x="760" y="500" text-anchor="middle" font-size="12" font-family="Arial, sans-serif" transform="rotate(-45 760 500)">antidote</text>
  <rect x="797.5" y="479.5492596297908" width="20" height="0.4507403702092067" fill="#FF6B6B" opacity="0.8"/>
  <text x="807.5" y="474.5492596297908" text-anchor="middle" font-size="10" font-family="Arial, sans-serif">32.5</text>
  <line x1="807.5" y1="479.5434745806187" x2="807.5" y2="479.55504467896293" stroke="black" stroke-width="1"/>
  <line x1="804.5" y1="479.5434745806187" x2="810.5" y2="479.5434745806187" stroke="black" stroke-width="1"/>
  <line x1="804.5" y1="479.55504467896293" x2="810.5" y2="479.55504467896293" stroke="black" stroke-width="1"/>
  <rect x="822.5" y="321.34971099181723" width="20" height="158.6502890081828" fill="#45B7D1" opacity="0.8"/>
  <text x="832.5" y="316.34971099181723" text-anchor="middle" font-size="10" font-family="Arial, sans-serif">11451.0</text>
  <line x1="832.5" y1="320.25658879601696" x2="832.5" y2="322.4428331876175" stroke="black" stroke-width="1"/>
  <line x1="829.5" y1="320.25658879601696" x2="835.5" y2="320.25658879601696" stroke="black" stroke-width="1"/>
  <line x1="829.5" y1="322.4428331876175" x2="835.5" y2="322.4428331876175" stroke="black" stroke-width="1"/>
  <text x="820" y="500" text-anchor="middle" font-size="12" font-family="Arial, sans-serif" transform="rotate(-45 820 500)">zcomet</text>
  <rect x="857.5" y="479.5451944718333" width="20" height="0.4548055281666795" fill="#FF6B6B" opacity="0.8"/>
  <text x="867.5" y="474.5451944718333" text-anchor="middle" font-size="10" font-family="Arial, sans-serif">32.8</text>
  <line x1="867.5" y1="479.54138198018603" x2="867.5" y2="479.5490069634806" stroke="black" stroke-width="1"/>
  <line x1="864.5" y1="479.54138198018603" x2="870.5" y2="479.54138198018603" stroke="black" stroke-width="1"/>
  <line x1="864.5" y1="479.5490069634806" x2="870.5" y2="479.5490069634806" stroke="black" stroke-width="1"/>
  <rect x="882.5" y="319.99790326798757" width="20" height="160.00209673201243" fill="#45B7D1" opacity="0.8"/>
  <text x="892.5" y="314.99790326798757" text-anchor="middle" font-size="10" font-family="Arial, sans-serif">11548.6</text>
  <line x1="892.5" y1="318.49153166262715" x2="892.5" y2="321.504274873348" stroke="black" stroke-width="1"/>
  <line x1="889.5" y1="318.49153166262715" x2="895.5" y2="318.49153166262715" stroke="black" stroke-width="1"/>
  <line x1="889.5" y1="321.504274873348" x2="895.5" y2="321.504274873348" stroke="black" stroke-width="1"/>
  <text x="880" y="500" text-anchor="middle" font-size="12" font-family="Arial, sans-serif" transform="rotate(-45 880 500)">sheldon</text>
  <rect x="917.5" y="462.5044623466895" width="20" height="17.495537653310496" fill="#FF6B6B" opacity="0.8"/>
  <text x="927.5" y="457.5044623466895" text-anchor="middle" font-size="10" font-family="Arial, sans-serif">1262.8</text>
  <line x1="927.5" y1="462.2726626863363" x2="927.5" y2="462.7362620070427" stroke="black" stroke-width="1"/>
  <line x1="924.5" y1="462.2726626863363" x2="930.5" y2="462.2726626863363" stroke="black" stroke-width="1"/>
  <line x1="924.5" y1="462.7362620070427" x2="930.5" y2="462.7362620070427" stroke="black" stroke-width="1"/>
  <rect x="942.5" y="51.35036520056747" width="20" height="428.64963479943253" fill="#45B7D1" opacity="0.8"/>
  <text x="952.5" y="46.35036520056747" text-anchor="middle" font-size="10" font-family="Arial, sans-serif">30939.0</text>
  <line x1="952.5" y1="50.000000000000036" x2="952.5" y2="52.7007304011349" stroke="black" stroke-width="1"/>
  <line x1="949.5" y1="50.000000000000036" x2="955.5" y2="50.000000000000036" stroke="black" stroke-width="1"/>
  <line x1="949.5" y1="52.7007304011349" x2="955.5" y2="52.7007304011349" stroke="black" stroke-width="1"/>
  <text x="940" y="500" text-anchor="middle" font-size="12" font-family="Arial, sans-serif" transform="rotate(-45 940 500)">zinit</text>
  <rect x="977.5" y="478.77598993104647" width="20" height="1.2240100689535454" fill="#FF6B6B" opacity="0.8"/>
  <text x="987.5" y="473.77598993104647" text-anchor="middle" font-size="10" font-family="Arial, sans-serif">88.3</text>
  <line x1="987.5" y1="478.7605293048375" x2="987.5" y2="478.7914505572554" stroke="black" stroke-width="1"/>
  <line x1="984.5" y1="478.7605293048375" x2="990.5" y2="478.7605293048375" stroke="black" stroke-width="1"/>
  <line x1="984.5" y1="478.7914505572554" x2="990.5" y2="478.7914505572554" stroke="black" stroke-width="1"/>
  <text x="1000" y="500" text-anchor="middle" font-size="12" font-family="Arial, sans-serif" transform="rotate(-45 1000 500)">oh-my-zsh</text>
  <rect x="1037.5" y="470.2713023158184" width="20" height="9.72869768418159" fill="#FF6B6B" opacity="0.8"/>
  <text x="1047.5" y="465.2713023158184" text-anchor="middle" font-size="10" font-family="Arial, sans-serif">702.2</text>
  <line x1="1047.5" y1="470.24225208634425" x2="1047.5" y2="470.3003525452925" stroke="black" stroke-width="1"/>
  <line x1="1044.5" y1="470.24225208634425" x2="1050.5" y2="470.24225208634425" stroke="black" stroke-width="1"/>
  <line x1="1044.5" y1="470.3003525452925" x2="1050.5" y2="470.3003525452925" stroke="black" stroke-width="1"/>
  <text x="1060" y="500" text-anchor="middle" font-size="12" font-family="Arial, sans-serif" transform="rotate(-45 1060 500)">prezto</text>
  <!-- Legend -->
  <rect x="1090" y="60" width="15" height="15" fill="#FF6B6B" opacity="0.8"/>
  <text x="1110" y="72" font-size="12" font-family="Arial, sans-serif">0 plugins</text>
  <rect x="1090" y="80" width="15" height="15" fill="#45B7D1" opacity="0.8"/>
  <text x="1110" y="92" font-size="12" font-family="Arial, sans-serif">25 plugins</text>
</svg>