<svg width="1200" height="600" xmlns="http://www.w3.org/2000/svg" style="background: white;">
  <text x="600" y="30" text-anchor="middle" font-size="20" font-weight="bold" font-family="Arial, sans-serif">Zsh Plugin Manager Install Time Comparison</text>
  
  <!-- Grid lines -->
  <line x1="80" y1="480" x2="1080" y2="480" stroke="#e0e0e0" stroke-width="1"/>
  <text x="70" y="485" text-anchor="end" font-size="12" font-family="Arial, sans-serif">0</text>
  <line x1="80" y1="394" x2="1080" y2="394" stroke="#e0e0e0" stroke-width="1"/>
  <text x="70" y="399" text-anchor="end" font-size="12" font-family="Arial, sans-serif">236</text>
  <line x1="80" y1="308" x2="1080" y2="308" stroke="#e0e0e0" stroke-width="1"/>
  <text x="70" y="313" text-anchor="end" font-size="12" font-family="Arial, sans-serif">472</text>
  <line x1="80" y1="222" x2="1080" y2="222" stroke="#e0e0e0" stroke-width="1"/>
  <text x="70" y="227" text-anchor="end" font-size="12" font-family="Arial, sans-serif">708</text>
  <line x1="80" y1="136" x2="1080" y2="136" stroke="#e0e0e0" stroke-width="1"/>
  <text x="70" y="141" text-anchor="end" font-size="12" font-family="Arial, sans-serif">944</text>
  <line x1="80" y1="50" x2="1080" y2="50" stroke="#e0e0e0" stroke-width="1"/>
  <text x="70" y="55" text-anchor="end" font-size="12" font-family="Arial, sans-serif">1181</text>
  
  <!-- Axes -->
  <line x1="80" y1="50" x2="80" y2="480" stroke="black" stroke-width="2"/>
  <line x1="80" y1="480" x2="1080" y2="480" stroke="black" stroke-width="2"/>
  
  <!-- Y-axis label -->
  <text x="20" y="300" text-anchor="middle" font-size="14" font-family="Arial, sans-serif" transform="rotate(-90 20 300)">Time (ms)</text>
  <rect x="107.5" y="469.02325265856416" width="20" height="10.97674734143585" fill="#FF6B6B" opacity="0.8"/>
  <text x="117.5" y="464.02325265856416" text-anchor="middle" font-size="10" font-family="Arial, sans-serif">30.1</text>
  <line x1="117.5" y1="468.95670523408484" x2="117.5" y2="469.0898000830435" stroke="black" stroke-width="1"/>
  <line x1="114.5" y1="468.95670523408484" x2="120.5" y2="468.95670523408484" stroke="black" stroke-width="1"/>
  <line x1="114.5" y1="469.0898000830435" x2="120.5" y2="469.0898000830435" stroke="black" stroke-width="1"/>
  <rect x="132.5" y="468.95925379716493" width="20" height="11.040746202835079" fill="#45B7D1" opacity="0.8"/>
  <text x="142.5" y="463.95925379716493" text-anchor="middle" font-size="10" font-family="Arial, sans-serif">30.3</text>
  <line x1="142.5" y1="468.8917299369899" x2="142.5" y2="469.02677765733995" stroke="black" stroke-width="1"/>
  <line x1="139.5" y1="468.8917299369899" x2="145.5" y2="468.8917299369899" stroke="black" stroke-width="1"/>
  <line x1="139.5" y1="469.02677765733995" x2="145.5" y2="469.02677765733995" stroke="black" stroke-width="1"/>
  <text x="130" y="500" text-anchor="middle" font-size="12" font-family="Arial, sans-serif" transform="rotate(-45 130 500)">zim</text>
  <rect x="167.5" y="468.83968093732295" width="20" height="11.160319062677072" fill="#FF6B6B" opacity="0.8"/>
  <text x="177.5" y="463.83968093732295" text-anchor="middle" font-size="10" font-family="Arial, sans-serif">30.6</text>
  <line x1="177.5" y1="468.65164824223007" x2="177.5" y2="469.02771363241584" stroke="black" stroke-width="1"/>
  <line x1="174.5" y1="468.65164824223007" x2="180.5" y2="468.65164824223007" stroke="black" stroke-width="1"/>
  <line x1="174.5" y1="469.02771363241584" x2="180.5" y2="469.02771363241584" stroke="black" stroke-width="1"/>
  <rect x="192.5" y="468.92855818065425" width="20" height="11.071441819345756" fill="#45B7D1" opacity="0.8"/>
  <text x="202.5" y="463.92855818065425" text-anchor="middle" font-size="10" font-family="Arial, sans-serif">30.4</text>
  <line x1="202.5" y1="468.8710810937533" x2="202.5" y2="468.9860352675552" stroke="black" stroke-width="1"/>
  <line x1="199.5" y1="468.8710810937533" x2="205.5" y2="468.8710810937533" stroke="black" stroke-width="1"/>
  <line x1="199.5" y1="468.9860352675552" x2="205.5" y2="468.9860352675552" stroke="black" stroke-width="1"/>
  <text x="190" y="500" text-anchor="middle" font-size="12" font-family="Arial, sans-serif" transform="rotate(-45 190 500)">antidote</text>
  <rect x="227.5" y="468.938229914936" width="20" height="11.061770085064001" fill="#FF6B6B" opacity="0.8"/>
  <text x="237.5" y="463.938229914936" text-anchor="middle" font-size="10" font-family="Arial, sans-serif">30.4</text>
  <line x1="237.5" y1="468.8347281635461" x2="237.5" y2="469.0417316663259" stroke="black" stroke-width="1"/>
  <line x1="234.5" y1="468.8347281635461" x2="240.5" y2="468.8347281635461" stroke="black" stroke-width="1"/>
  <line x1="234.5" y1="469.0417316663259" x2="240.5" y2="469.0417316663259" stroke="black" stroke-width="1"/>
  <rect x="252.5" y="464.21438049278055" width="20" height="15.785619507219476" fill="#45B7D1" opacity="0.8"/>
  <text x="262.5" y="459.21438049278055" text-anchor="middle" font-size="10" font-family="Arial, sans-serif">43.3</text>
  <line x1="262.5" y1="464.12977875091445" x2="262.5" y2="464.29898223464664" stroke="black" stroke-width="1"/>
  <line x1="259.5" y1="464.12977875091445" x2="265.5" y2="464.12977875091445" stroke="black" stroke-width="1"/>
  <line x1="259.5" y1="464.29898223464664" x2="265.5" y2="464.29898223464664" stroke="black" stroke-width="1"/>
  <text x="250" y="500" text-anchor="middle" font-size="12" font-family="Arial, sans-serif" transform="rotate(-45 250 500)">znap</text>
  <rect x="287.5" y="468.9518585608415" width="20" height="11.048141439158506" fill="#FF6B6B" opacity="0.8"/>
  <text x="297.5" y="463.9518585608415" text-anchor="middle" font-size="10" font-family="Arial, sans-serif">30.3</text>
  <line x1="297.5" y1="468.76227851579046" x2="297.5" y2="469.1414386058926" stroke="black" stroke-width="1"/>
  <line x1="294.5" y1="468.76227851579046" x2="300.5" y2="468.76227851579046" stroke="black" stroke-width="1"/>
  <line x1="294.5" y1="469.1414386058926" x2="300.5" y2="469.1414386058926" stroke="black" stroke-width="1"/>
  <rect x="312.5" y="446.2431457899945" width="20" height="33.756854210005514" fill="#45B7D1" opacity="0.8"/>
  <text x="322.5" y="441.2431457899945" text-anchor="middle" font-size="10" font-family="Arial, sans-serif">92.7</text>
  <line x1="322.5" y1="445.93554791471496" x2="322.5" y2="446.55074366527407" stroke="black" stroke-width="1"/>
  <line x1="319.5" y1="445.93554791471496" x2="325.5" y2="445.93554791471496" stroke="black" stroke-width="1"/>
  <line x1="319.5" y1="446.55074366527407" x2="325.5" y2="446.55074366527407" stroke="black" stroke-width="1"/>
  <text x="310" y="500" text-anchor="middle" font-size="12" font-family="Arial, sans-serif" transform="rotate(-45 310 500)">zgenom</text>
  <rect x="347.5" y="468.48369957098373" width="20" height="11.516300429016281" fill="#FF6B6B" opacity="0.8"/>
  <text x="357.5" y="463.48369957098373" text-anchor="middle" font-size="10" font-family="Arial, sans-serif">31.6</text>
  <line x1="357.5" y1="468.3728027263418" x2="357.5" y2="468.5945964156257" stroke="black" stroke-width="1"/>
  <line x1="354.5" y1="468.3728027263418" x2="360.5" y2="468.3728027263418" stroke="black" stroke-width="1"/>
  <line x1="354.5" y1="468.5945964156257" x2="360.5" y2="468.5945964156257" stroke="black" stroke-width="1"/>
  <rect x="372.5" y="443.1613918023595" width="20" height="36.8386081976405" fill="#45B7D1" opacity="0.8"/>
  <text x="382.5" y="438.1613918023595" text-anchor="middle" font-size="10" font-family="Arial, sans-serif">101.1</text>
  <line x1="382.5" y1="442.97683219447293" x2="382.5" y2="443.3459514102461" stroke="black" stroke-width="1"/>
  <line x1="379.5" y1="442.97683219447293" x2="385.5" y2="442.97683219447293" stroke="black" stroke-width="1"/>
  <line x1="379.5" y1="443.3459514102461" x2="385.5" y2="443.3459514102461" stroke="black" stroke-width="1"/>
  <text x="370" y="500" text-anchor="middle" font-size="12" font-family="Arial, sans-serif" transform="rotate(-45 370 500)">zcomet</text>
  <rect x="407.5" y="468.13921809879747" width="20" height="11.860781901202506" fill="#FF6B6B" opacity="0.8"/>
  <text x="417.5" y="463.13921809879747" text-anchor="middle" font-size="10" font-family="Arial, sans-serif">32.6</text>
  <line x1="417.5" y1="467.91016219825394" x2="417.5" y2="468.368273999341" stroke="black" stroke-width="1"/>
  <line x1="414.5" y1="467.91016219825394" x2="420.5" y2="467.91016219825394" stroke="black" stroke-width="1"/>
  <line x1="414.5" y1="468.368273999341" x2="420.5" y2="468.368273999341" stroke="black" stroke-width="1"/>
  <rect x="432.5" y="442.77210099163364" width="20" height="37.22789900836637" fill="#45B7D1" opacity="0.8"/>
  <text x="442.5" y="437.77210099163364" text-anchor="middle" font-size="10" font-family="Arial, sans-serif">102.2</text>
  <line x1="442.5" y1="442.7003466238776" x2="442.5" y2="442.8438553593897" stroke="black" stroke-width="1"/>
  <line x1="439.5" y1="442.7003466238776" x2="445.5" y2="442.7003466238776" stroke="black" stroke-width="1"/>
  <line x1="439.5" y1="442.8438553593897" x2="445.5" y2="442.8438553593897" stroke="black" stroke-width="1"/>
  <text x="430" y="500" text-anchor="middle" font-size="12" font-family="Arial, sans-serif" transform="rotate(-45 430 500)">antigen</text>
  <rect x="467.5" y="469.09825574566594" width="20" height="10.901744254334082" fill="#FF6B6B" opacity="0.8"/>
  <text x="477.5" y="464.09825574566594" text-anchor="middle" font-size="10" font-family="Arial, sans-serif">29.9</text>
  <line x1="477.5" y1="469.03698731181316" x2="477.5" y2="469.1595241795187" stroke="black" stroke-width="1"/>
  <line x1="474.5" y1="469.03698731181316" x2="480.5" y2="469.03698731181316" stroke="black" stroke-width="1"/>
  <line x1="474.5" y1="469.1595241795187" x2="480.5" y2="469.1595241795187" stroke="black" stroke-width="1"/>
  <rect x="492.5" y="440.0424751819269" width="20" height="39.957524818073104" fill="#45B7D1" opacity="0.8"/>
  <text x="502.5" y="435.0424751819269" text-anchor="middle" font-size="10" font-family="Arial, sans-serif">109.7</text>
  <line x1="502.5" y1="439.8068394841531" x2="502.5" y2="440.27811087970065" stroke="black" stroke-width="1"/>
  <line x1="499.5" y1="439.8068394841531" x2="505.5" y2="439.8068394841531" stroke="black" stroke-width="1"/>
  <line x1="499.5" y1="440.27811087970065" x2="505.5" y2="440.27811087970065" stroke="black" stroke-width="1"/>
  <text x="490" y="500" text-anchor="middle" font-size="12" font-family="Arial, sans-serif" transform="rotate(-45 490 500)">antigen-hs</text>
  <rect x="527.5" y="469.0713564147698" width="20" height="10.92864358523018" fill="#FF6B6B" opacity="0.8"/>
  <text x="537.5" y="464.0713564147698" text-anchor="middle" font-size="10" font-family="Arial, sans-serif">30.0</text>
  <line x1="537.5" y1="468.9600717618435" x2="537.5" y2="469.1826410676961" stroke="black" stroke-width="1"/>
  <line x1="534.5" y1="468.9600717618435" x2="540.5" y2="468.9600717618435" stroke="black" stroke-width="1"/>
  <line x1="534.5" y1="469.1826410676961" x2="540.5" y2="469.1826410676961" stroke="black" stroke-width="1"/>
  <rect x="552.5" y="440.0243002714047" width="20" height="39.97569972859531" fill="#45B7D1" opacity="0.8"/>
  <text x="562.5" y="435.0243002714047" text-anchor="middle" font-size="10" font-family="Arial, sans-serif">109.7</text>
  <line x1="562.5" y1="439.68652079100485" x2="562.5" y2="440.3620797518045" stroke="black" stroke-width="1"/>
  <line x1="559.5" y1="439.68652079100485" x2="565.5" y2="439.68652079100485" stroke="black" stroke-width="1"/>
  <line x1="559.5" y1="440.3620797518045" x2="565.5" y2="440.3620797518045" stroke="black" stroke-width="1"/>
  <text x="550" y="500" text-anchor="middle" font-size="12" font-family="Arial, sans-serif" transform="rotate(-45 550 500)">alf</text>
  <rect x="587.5" y="469.14075476947846" width="20" height="10.859245230521529" fill="#FF6B6B" opacity="0.8"/>
  <text x="597.5" y="464.14075476947846" text-anchor="middle" font-size="10" font-family="Arial, sans-serif">29.8</text>
  <line x1="597.5" y1="469.0347757927887" x2="597.5" y2="469.2467337461682" stroke="black" stroke-width="1"/>
  <line x1="594.5" y1="469.0347757927887" x2="600.5" y2="469.0347757927887" stroke="black" stroke-width="1"/>
  <line x1="594.5" y1="469.2467337461682" x2="600.5" y2="469.2467337461682" stroke="black" stroke-width="1"/>
  <rect x="612.5" y="439.5088915189544" width="20" height="40.4911084810456" fill="#45B7D1" opacity="0.8"/>
  <text x="622.5" y="434.5088915189544" text-anchor="middle" font-size="10" font-family="Arial, sans-serif">111.2</text>
  <line x1="622.5" y1="436.9476921762396" x2="622.5" y2="442.07009086166914" stroke="black" stroke-width="1"/>
  <line x1="619.5" y1="436.9476921762396" x2="625.5" y2="436.9476921762396" stroke="black" stroke-width="1"/>
  <line x1="619.5" y1="442.07009086166914" x2="625.5" y2="442.07009086166914" stroke="black" stroke-width="1"/>
  <text x="610" y="500" text-anchor="middle" font-size="12" font-family="Arial, sans-serif" transform="rotate(-45 610 500)">zr</text>
  <rect x="647.5" y="468.3890987484765" width="20" height="11.61090125152349" fill="#FF6B6B" opacity="0.8"/>
  <text x="657.5" y="463.3890987484765" text-anchor="middle" font-size="10" font-family="Arial, sans-serif">31.9</text>
  <line x1="657.5" y1="468.3172129342531" x2="657.5" y2="468.4609845626999" stroke="black" stroke-width="1"/>
  <line x1="654.5" y1="468.3172129342531" x2="660.5" y2="468.3172129342531" stroke="black" stroke-width="1"/>
  <line x1="654.5" y1="468.4609845626999" x2="660.5" y2="468.4609845626999" stroke="black" stroke-width="1"/>
  <rect x="672.5" y="437.8987295826334" width="20" height="42.101270417366614" fill="#45B7D1" opacity="0.8"/>
  <text x="682.5" y="432.8987295826334" text-anchor="middle" font-size="10" font-family="Arial, sans-serif">115.6</text>
  <line x1="682.5" y1="435.70231213302026" x2="682.5" y2="440.09514703224653" stroke="black" stroke-width="1"/>
  <line x1="679.5" y1="435.70231213302026" x2="685.5" y2="435.70231213302026" stroke="black" stroke-width="1"/>
  <line x1="679.5" y1="440.09514703224653" x2="685.5" y2="440.09514703224653" stroke="black" stroke-width="1"/>
  <text x="670" y="500" text-anchor="middle" font-size="12" font-family="Arial, sans-serif" transform="rotate(-45 670 500)">sheldon</text>
  <rect x="707.5" y="454.42042199121477" width="20" height="25.57957800878525" fill="#FF6B6B" opacity="0.8"/>
  <text x="717.5" y="449.42042199121477" text-anchor="middle" font-size="10" font-family="Arial, sans-serif">70.2</text>
  <line x1="717.5" y1="454.2610599950178" x2="717.5" y2="454.57978398741176" stroke="black" stroke-width="1"/>
  <line x1="714.5" y1="454.2610599950178" x2="720.5" y2="454.2610599950178" stroke="black" stroke-width="1"/>
  <line x1="714.5" y1="454.57978398741176" x2="720.5" y2="454.57978398741176" stroke="black" stroke-width="1"/>
  <rect x="732.5" y="430.46774463649405" width="20" height="49.532255363505975" fill="#45B7D1" opacity="0.8"/>
  <text x="742.5" y="425.46774463649405" text-anchor="middle" font-size="10" font-family="Arial, sans-serif">136.0</text>
  <line x1="742.5" y1="430.3656019366678" x2="742.5" y2="430.5698873363203" stroke="black" stroke-width="1"/>
  <line x1="739.5" y1="430.3656019366678" x2="745.5" y2="430.3656019366678" stroke="black" stroke-width="1"/>
  <line x1="739.5" y1="430.5698873363203" x2="745.5" y2="430.5698873363203" stroke="black" stroke-width="1"/>
  <text x="730" y="500" text-anchor="middle" font-size="12" font-family="Arial, sans-serif" transform="rotate(-45 730 500)">prezto</text>
  <rect x="767.5" y="447.1797925106638" width="20" height="32.820207489336184" fill="#FF6B6B" opacity="0.8"/>
  <text x="777.5" y="442.1797925106638" text-anchor="middle" font-size="10" font-family="Arial, sans-serif">90.1</text>
  <line x1="777.5" y1="445.6510971378559" x2="777.5" y2="448.70848788347166" stroke="black" stroke-width="1"/>
  <line x1="774.5" y1="445.6510971378559" x2="780.5" y2="445.6510971378559" stroke="black" stroke-width="1"/>
  <line x1="774.5" y1="448.70848788347166" x2="780.5" y2="448.70848788347166" stroke="black" stroke-width="1"/>
  <rect x="792.5" y="422.9523354714799" width="20" height="57.047664528520116" fill="#45B7D1" opacity="0.8"/>
  <text x="802.5" y="417.9523354714799" text-anchor="middle" font-size="10" font-family="Arial, sans-serif">156.6</text>
  <line x1="802.5" y1="422.7252564403595" x2="802.5" y2="423.1794145026003" stroke="black" stroke-width="1"/>
  <line x1="799.5" y1="422.7252564403595" x2="805.5" y2="422.7252564403595" stroke="black" stroke-width="1"/>
  <line x1="799.5" y1="423.1794145026003" x2="805.5" y2="423.1794145026003" stroke="black" stroke-width="1"/>
  <text x="790" y="500" text-anchor="middle" font-size="12" font-family="Arial, sans-serif" transform="rotate(-45 790 500)">oh-my-zsh</text>
  <rect x="827.5" y="468.3518007830392" width="20" height="11.648199216960801" fill="#FF6B6B" opacity="0.8"/>
  <text x="837.5" y="463.3518007830392" text-anchor="middle" font-size="10" font-family="Arial, sans-serif">32.0</text>
  <line x1="837.5" y1="468.2250114266322" x2="837.5" y2="468.4785901394462" stroke="black" stroke-width="1"/>
  <line x1="834.5" y1="468.2250114266322" x2="840.5" y2="468.2250114266322" stroke="black" stroke-width="1"/>
  <line x1="834.5" y1="468.4785901394462" x2="840.5" y2="468.4785901394462" stroke="black" stroke-width="1"/>
  <rect x="852.5" y="421.07060860007573" width="20" height="58.92939139992424" fill="#45B7D1" opacity="0.8"/>
  <text x="862.5" y="416.07060860007573" text-anchor="middle" font-size="10" font-family="Arial, sans-serif">161.8</text>
  <line x1="862.5" y1="420.8246360326746" x2="862.5" y2="421.31658116747684" stroke="black" stroke-width="1"/>
  <line x1="859.5" y1="420.8246360326746" x2="865.5" y2="420.8246360326746" stroke="black" stroke-width="1"/>
  <line x1="859.5" y1="421.31658116747684" x2="865.5" y2="421.31658116747684" stroke="black" stroke-width="1"/>
  <text x="850" y="500" text-anchor="middle" font-size="12" font-family="Arial, sans-serif" transform="rotate(-45 850 500)">antibody</text>
  <rect x="887.5" y="460.60403168247615" width="20" height="19.39596831752385" fill="#FF6B6B" opacity="0.8"/>
  <text x="897.5" y="455.60403168247615" text-anchor="middle" font-size="10" font-family="Arial, sans-serif">53.2</text>
  <line x1="897.5" y1="460.4772734338161" x2="897.5" y2="460.7307899311362" stroke="black" stroke-width="1"/>
  <line x1="894.5" y1="460.4772734338161" x2="900.5" y2="460.4772734338161" stroke="black" stroke-width="1"/>
  <line x1="894.5" y1="460.7307899311362" x2="900.5" y2="460.7307899311362" stroke="black" stroke-width="1"/>
  <rect x="912.5" y="358.6660187744825" width="20" height="121.33398122551748" fill="#45B7D1" opacity="0.8"/>
  <text x="922.5" y="353.6660187744825" text-anchor="middle" font-size="10" font-family="Arial, sans-serif">333.1</text>
  <line x1="922.5" y1="358.0590586120495" x2="922.5" y2="359.2729789369155" stroke="black" stroke-width="1"/>
  <line x1="919.5" y1="358.0590586120495" x2="925.5" y2="358.0590586120495" stroke="black" stroke-width="1"/>
  <line x1="919.5" y1="359.2729789369155" x2="925.5" y2="359.2729789369155" stroke="black" stroke-width="1"/>
  <text x="910" y="500" text-anchor="middle" font-size="12" font-family="Arial, sans-serif" transform="rotate(-45 910 500)">zpm</text>
  <rect x="947.5" y="438.22525029288306" width="20" height="41.77474970711691" fill="#FF6B6B" opacity="0.8"/>
  <text x="957.5" y="433.22525029288306" text-anchor="middle" font-size="10" font-family="Arial, sans-serif">114.7</text>
  <line x1="957.5" y1="436.8028657500368" x2="957.5" y2="439.6476348357293" stroke="black" stroke-width="1"/>
  <line x1="954.5" y1="436.8028657500368" x2="960.5" y2="436.8028657500368" stroke="black" stroke-width="1"/>
  <line x1="954.5" y1="439.6476348357293" x2="960.5" y2="439.6476348357293" stroke="black" stroke-width="1"/>
  <rect x="972.5" y="314.70308277019376" width="20" height="165.2969172298062" fill="#45B7D1" opacity="0.8"/>
  <text x="982.5" y="309.70308277019376" text-anchor="middle" font-size="10" font-family="Arial, sans-serif">453.8</text>
  <line x1="982.5" y1="311.6848204473165" x2="982.5" y2="317.721345093071" stroke="black" stroke-width="1"/>
  <line x1="979.5" y1="311.6848204473165" x2="985.5" y2="311.6848204473165" stroke="black" stroke-width="1"/>
  <line x1="979.5" y1="317.721345093071" x2="985.5" y2="317.721345093071" stroke="black" stroke-width="1"/>
  <text x="970" y="500" text-anchor="middle" font-size="12" font-family="Arial, sans-serif" transform="rotate(-45 970 500)">zplug</text>
  <rect x="1007.5" y="443.40056433068395" width="20" height="36.59943566931604" fill="#FF6B6B" opacity="0.8"/>
  <text x="1017.5" y="438.40056433068395" text-anchor="middle" font-size="10" font-family="Arial, sans-serif">100.5</text>
  <line x1="1017.5" y1="382.2189064644961" x2="1017.5" y2="504.5822221968718" stroke="black" stroke-width="1"/>
  <line x1="1014.5" y1="382.2189064644961" x2="1020.5" y2="382.2189064644961" stroke="black" stroke-width="1"/>
  <line x1="1014.5" y1="504.5822221968718" x2="1020.5" y2="504.5822221968718" stroke="black" stroke-width="1"/>
  <rect x="1032.5" y="263.6477739189387" width="20" height="216.35222608106133" fill="#45B7D1" opacity="0.8"/>
  <text x="1042.5" y="258.6477739189387" text-anchor="middle" font-size="10" font-family="Arial, sans-serif">594.0</text>
  <line x1="1042.5" y1="50.00000000000003" x2="1042.5" y2="477.2955478378774" stroke="black" stroke-width="1"/>
  <line x1="1039.5" y1="50.00000000000003" x2="1045.5" y2="50.00000000000003" stroke="black" stroke-width="1"/>
  <line x1="1039.5" y1="477.2955478378774" x2="1045.5" y2="477.2955478378774" stroke="black" stroke-width="1"/>
  <text x="1030" y="500" text-anchor="middle" font-size="12" font-family="Arial, sans-serif" transform="rotate(-45 1030 500)">zinit</text>
  <!-- Legend -->
  <rect x="1090" y="60" width="15" height="15" fill="#FF6B6B" opacity="0.8"/>
  <text x="1110" y="72" font-size="12" font-family="Arial, sans-serif">0 plugins</text>
  <rect x="1090" y="80" width="15" height="15" fill="#45B7D1" opacity="0.8"/>
  <text x="1110" y="92" font-size="12" font-family="Arial, sans-serif">25 plugins</text>
</svg>