<svg width="1200" height="600" xmlns="http://www.w3.org/2000/svg" style="background: white;">
  <text x="600" y="30" text-anchor="middle" font-size="20" font-weight="bold" font-family="Arial, sans-serif">Zsh Plugin Manager Install Time Comparison</text>
  
  <!-- Grid lines -->
  <line x1="80" y1="480" x2="1080" y2="480" stroke="#e0e0e0" stroke-width="1"/>
  <text x="70" y="485" text-anchor="end" font-size="12" font-family="Arial, sans-serif">0</text>
  <line x1="80" y1="394" x2="1080" y2="394" stroke="#e0e0e0" stroke-width="1"/>
  <text x="70" y="399" text-anchor="end" font-size="12" font-family="Arial, sans-serif">6240</text>
  <line x1="80" y1="308" x2="1080" y2="308" stroke="#e0e0e0" stroke-width="1"/>
  <text x="70" y="313" text-anchor="end" font-size="12" font-family="Arial, sans-serif">12480</text>
  <line x1="80" y1="222" x2="1080" y2="222" stroke="#e0e0e0" stroke-width="1"/>
  <text x="70" y="227" text-anchor="end" font-size="12" font-family="Arial, sans-serif">18720</text>
  <line x1="80" y1="136" x2="1080" y2="136" stroke="#e0e0e0" stroke-width="1"/>
  <text x="70" y="141" text-anchor="end" font-size="12" font-family="Arial, sans-serif">24959</text>
  <line x1="80" y1="50" x2="1080" y2="50" stroke="#e0e0e0" stroke-width="1"/>
  <text x="70" y="55" text-anchor="end" font-size="12" font-family="Arial, sans-serif">31199</text>
  
  <!-- Axes -->
  <line x1="80" y1="50" x2="80" y2="480" stroke="black" stroke-width="2"/>
  <line x1="80" y1="480" x2="1080" y2="480" stroke="black" stroke-width="2"/>
  
  <!-- Y-axis label -->
  <text x="20" y="300" text-anchor="middle" font-size="14" font-family="Arial, sans-serif" transform="rotate(-90 20 300)">Time (ms)</text>
  <rect x="77.5" y="479.5821604487783" width="20" height="0.4178395512216667" fill="#FF6B6B" opacity="0.8"/>
  <text x="87.5" y="474.5821604487783" text-anchor="middle" font-size="10" font-family="Arial, sans-serif">30.3</text>
  <line x1="87.5" y1="479.57746627817517" x2="87.5" y2="479.5868546193815" stroke="black" stroke-width="1"/>
  <line x1="84.5" y1="479.57746627817517" x2="90.5" y2="479.57746627817517" stroke="black" stroke-width="1"/>
  <line x1="84.5" y1="479.5868546193815" x2="90.5" y2="479.5868546193815" stroke="black" stroke-width="1"/>
  <text x="100" y="500" text-anchor="middle" font-size="12" font-family="Arial, sans-serif" transform="rotate(-45 100 500)">vanilla</text>
  <rect x="137.5" y="479.5658424941694" width="20" height="0.4341575058306202" fill="#FF6B6B" opacity="0.8"/>
  <text x="147.5" y="474.5658424941694" text-anchor="middle" font-size="10" font-family="Arial, sans-serif">31.5</text>
  <line x1="147.5" y1="479.55870174001524" x2="147.5" y2="479.5729832483235" stroke="black" stroke-width="1"/>
  <line x1="144.5" y1="479.55870174001524" x2="150.5" y2="479.55870174001524" stroke="black" stroke-width="1"/>
  <line x1="144.5" y1="479.5729832483235" x2="150.5" y2="479.5729832483235" stroke="black" stroke-width="1"/>
  <rect x="162.5" y="479.39255067126237" width="20" height="0.6074493287376538" fill="#45B7D1" opacity="0.8"/>
  <text x="172.5" y="474.39255067126237" text-anchor="middle" font-size="10" font-family="Arial, sans-serif">44.1</text>
  <line x1="172.5" y1="479.3894412035832" x2="172.5" y2="479.39566013894154" stroke="black" stroke-width="1"/>
  <line x1="169.5" y1="479.3894412035832" x2="175.5" y2="479.3894412035832" stroke="black" stroke-width="1"/>
  <line x1="169.5" y1="479.39566013894154" x2="175.5" y2="479.39566013894154" stroke="black" stroke-width="1"/>
  <text x="160" y="500" text-anchor="middle" font-size="12" font-family="Arial, sans-serif" transform="rotate(-45 160 500)">zgenom</text>
  <rect x="197.5" y="478.4020088543984" width="20" height="1.5979911456016251" fill="#FF6B6B" opacity="0.8"/>
  <text x="207.5" y="473.4020088543984" text-anchor="middle" font-size="10" font-family="Arial, sans-serif">115.9</text>
  <line x1="207.5" y1="478.3940699866443" x2="207.5" y2="478.4099477221525" stroke="black" stroke-width="1"/>
  <line x1="204.5" y1="478.3940699866443" x2="210.5" y2="478.3940699866443" stroke="black" stroke-width="1"/>
  <line x1="204.5" y1="478.4099477221525" x2="210.5" y2="478.4099477221525" stroke="black" stroke-width="1"/>
  <rect x="222.5" y="467.690373750531" width="20" height="12.309626249468959" fill="#45B7D1" opacity="0.8"/>
  <text x="232.5" y="462.690373750531" text-anchor="middle" font-size="10" font-family="Arial, sans-serif">893.1</text>
  <line x1="232.5" y1="467.52078539601297" x2="232.5" y2="467.8599621050491" stroke="black" stroke-width="1"/>
  <line x1="229.5" y1="467.52078539601297" x2="235.5" y2="467.52078539601297" stroke="black" stroke-width="1"/>
  <line x1="229.5" y1="467.8599621050491" x2="235.5" y2="467.8599621050491" stroke="black" stroke-width="1"/>
  <text x="220" y="500" text-anchor="middle" font-size="12" font-family="Arial, sans-serif" transform="rotate(-45 220 500)">zplug</text>
  <rect x="257.5" y="478.8308112308366" width="20" height="1.1691887691633966" fill="#FF6B6B" opacity="0.8"/>
  <text x="267.5" y="473.8308112308366" text-anchor="middle" font-size="10" font-family="Arial, sans-serif">84.8</text>
  <line x1="267.5" y1="476.5349081285266" x2="267.5" y2="481.12671433314665" stroke="black" stroke-width="1"/>
  <line x1="264.5" y1="476.5349081285266" x2="270.5" y2="476.5349081285266" stroke="black" stroke-width="1"/>
  <line x1="264.5" y1="481.12671433314665" x2="270.5" y2="481.12671433314665" stroke="black" stroke-width="1"/>
  <rect x="282.5" y="454.6452312681128" width="20" height="25.35476873188719" fill="#45B7D1" opacity="0.8"/>
  <text x="292.5" y="449.6452312681128" text-anchor="middle" font-size="10" font-family="Arial, sans-serif">1839.7</text>
  <line x1="292.5" y1="449.4874115686388" x2="292.5" y2="459.80305096758684" stroke="black" stroke-width="1"/>
  <line x1="289.5" y1="449.4874115686388" x2="295.5" y2="449.4874115686388" stroke="black" stroke-width="1"/>
  <line x1="289.5" y1="459.80305096758684" x2="295.5" y2="459.80305096758684" stroke="black" stroke-width="1"/>
  <text x="280" y="500" text-anchor="middle" font-size="12" font-family="Arial, sans-serif" transform="rotate(-45 280 500)">znap</text>
  <rect x="317.5" y="471.4290600931546" width="20" height="8.570939906845384" fill="#FF6B6B" opacity="0.8"/>
  <text x="327.5" y="466.4290600931546" text-anchor="middle" font-size="10" font-family="Arial, sans-serif">621.9</text>
  <line x1="327.5" y1="471.3012901313084" x2="327.5" y2="471.5568300550008" stroke="black" stroke-width="1"/>
  <line x1="324.5" y1="471.3012901313084" x2="330.5" y2="471.3012901313084" stroke="black" stroke-width="1"/>
  <line x1="324.5" y1="471.5568300550008" x2="330.5" y2="471.5568300550008" stroke="black" stroke-width="1"/>
  <rect x="342.5" y="425.11399476424543" width="20" height="54.88600523575459" fill="#45B7D1" opacity="0.8"/>
  <text x="352.5" y="420.11399476424543" text-anchor="middle" font-size="10" font-family="Arial, sans-serif">3982.3</text>
  <line x1="352.5" y1="422.60218777205625" x2="352.5" y2="427.6258017564346" stroke="black" stroke-width="1"/>
  <line x1="349.5" y1="422.60218777205625" x2="355.5" y2="422.60218777205625" stroke="black" stroke-width="1"/>
  <line x1="349.5" y1="427.6258017564346" x2="355.5" y2="427.6258017564346" stroke="black" stroke-width="1"/>
  <text x="340" y="500" text-anchor="middle" font-size="12" font-family="Arial, sans-serif" transform="rotate(-45 340 500)">antigen</text>
  <rect x="377.5" y="479.57378804271445" width="20" height="0.4262119572855273" fill="#FF6B6B" opacity="0.8"/>
  <text x="387.5" y="474.57378804271445" text-anchor="middle" font-size="10" font-family="Arial, sans-serif">30.9</text>
  <line x1="387.5" y1="479.5707572173471" x2="387.5" y2="479.57681886808183" stroke="black" stroke-width="1"/>
  <line x1="384.5" y1="479.5707572173471" x2="390.5" y2="479.5707572173471" stroke="black" stroke-width="1"/>
  <line x1="384.5" y1="479.57681886808183" x2="390.5" y2="479.57681886808183" stroke="black" stroke-width="1"/>
  <rect x="402.5" y="398.2803229597623" width="20" height="81.71967704023771" fill="#45B7D1" opacity="0.8"/>
  <text x="412.5" y="393.2803229597623" text-anchor="middle" font-size="10" font-family="Arial, sans-serif">5929.3</text>
  <line x1="412.5" y1="396.926296233372" x2="412.5" y2="399.63434968615263" stroke="black" stroke-width="1"/>
  <line x1="409.5" y1="396.926296233372" x2="415.5" y2="396.926296233372" stroke="black" stroke-width="1"/>
  <line x1="409.5" y1="399.63434968615263" x2="415.5" y2="399.63434968615263" stroke="black" stroke-width="1"/>
  <text x="400" y="500" text-anchor="middle" font-size="12" font-family="Arial, sans-serif" transform="rotate(-45 400 500)">alf</text>
  <rect x="437.5" y="479.57416755033273" width="20" height="0.4258324496672813" fill="#FF6B6B" opacity="0.8"/>
  <text x="447.5" y="474.57416755033273" text-anchor="middle" font-size="10" font-family="Arial, sans-serif">30.9</text>
  <line x1="447.5" y1="479.57104408680357" x2="447.5" y2="479.5772910138619" stroke="black" stroke-width="1"/>
  <line x1="444.5" y1="479.57104408680357" x2="450.5" y2="479.57104408680357" stroke="black" stroke-width="1"/>
  <line x1="444.5" y1="479.5772910138619" x2="450.5" y2="479.5772910138619" stroke="black" stroke-width="1"/>
  <rect x="462.5" y="398.1670918379348" width="20" height="81.83290816206522" fill="#45B7D1" opacity="0.8"/>
  <text x="472.5" y="393.1670918379348" text-anchor="middle" font-size="10" font-family="Arial, sans-serif">5937.5</text>
  <line x1="472.5" y1="397.62833455511225" x2="472.5" y2="398.7058491207573" stroke="black" stroke-width="1"/>
  <line x1="469.5" y1="397.62833455511225" x2="475.5" y2="397.62833455511225" stroke="black" stroke-width="1"/>
  <line x1="469.5" y1="398.7058491207573" x2="475.5" y2="398.7058491207573" stroke="black" stroke-width="1"/>
  <text x="460" y="500" text-anchor="middle" font-size="12" font-family="Arial, sans-serif" transform="rotate(-45 460 500)">zr</text>
  <rect x="497.5" y="479.5776512630935" width="20" height="0.422348736906477" fill="#FF6B6B" opacity="0.8"/>
  <text x="507.5" y="474.5776512630935" text-anchor="middle" font-size="10" font-family="Arial, sans-serif">30.6</text>
  <line x1="507.5" y1="479.57121203546643" x2="507.5" y2="479.5840904907206" stroke="black" stroke-width="1"/>
  <line x1="504.5" y1="479.57121203546643" x2="510.5" y2="479.57121203546643" stroke="black" stroke-width="1"/>
  <line x1="504.5" y1="479.5840904907206" x2="510.5" y2="479.5840904907206" stroke="black" stroke-width="1"/>
  <rect x="522.5" y="397.67376589067896" width="20" height="82.32623410932104" fill="#45B7D1" opacity="0.8"/>
  <text x="532.5" y="392.67376589067896" text-anchor="middle" font-size="10" font-family="Arial, sans-serif">5973.3</text>
  <line x1="532.5" y1="396.4617083039052" x2="532.5" y2="398.88582347745273" stroke="black" stroke-width="1"/>
  <line x1="529.5" y1="396.4617083039052" x2="535.5" y2="396.4617083039052" stroke="black" stroke-width="1"/>
  <line x1="529.5" y1="398.88582347745273" x2="535.5" y2="398.88582347745273" stroke="black" stroke-width="1"/>
  <text x="520" y="500" text-anchor="middle" font-size="12" font-family="Arial, sans-serif" transform="rotate(-45 520 500)">antigen-hs</text>
  <rect x="557.5" y="479.5571001644752" width="20" height="0.44289983552481665" fill="#FF6B6B" opacity="0.8"/>
  <text x="567.5" y="474.5571001644752" text-anchor="middle" font-size="10" font-family="Arial, sans-serif">32.1</text>
  <line x1="567.5" y1="479.5538169621374" x2="567.5" y2="479.56038336681297" stroke="black" stroke-width="1"/>
  <line x1="564.5" y1="479.5538169621374" x2="570.5" y2="479.5538169621374" stroke="black" stroke-width="1"/>
  <line x1="564.5" y1="479.56038336681297" x2="570.5" y2="479.56038336681297" stroke="black" stroke-width="1"/>
  <rect x="582.5" y="389.7392497913673" width="20" height="90.26075020863271" fill="#45B7D1" opacity="0.8"/>
  <text x="592.5" y="384.7392497913673" text-anchor="middle" font-size="10" font-family="Arial, sans-serif">6549.0</text>
  <line x1="592.5" y1="388.67322486660953" x2="592.5" y2="390.80527471612504" stroke="black" stroke-width="1"/>
  <line x1="589.5" y1="388.67322486660953" x2="595.5" y2="388.67322486660953" stroke="black" stroke-width="1"/>
  <line x1="589.5" y1="390.80527471612504" x2="595.5" y2="390.80527471612504" stroke="black" stroke-width="1"/>
  <text x="580" y="500" text-anchor="middle" font-size="12" font-family="Arial, sans-serif" transform="rotate(-45 580 500)">antibody</text>
  <rect x="617.5" y="476.15602234961534" width="20" height="3.8439776503846774" fill="#FF6B6B" opacity="0.8"/>
  <text x="627.5" y="471.15602234961534" text-anchor="middle" font-size="10" font-family="Arial, sans-serif">278.9</text>
  <line x1="627.5" y1="475.96516196917247" x2="627.5" y2="476.3468827300582" stroke="black" stroke-width="1"/>
  <line x1="624.5" y1="475.96516196917247" x2="630.5" y2="475.96516196917247" stroke="black" stroke-width="1"/>
  <line x1="624.5" y1="476.3468827300582" x2="630.5" y2="476.3468827300582" stroke="black" stroke-width="1"/>
  <rect x="642.5" y="376.5541279148965" width="20" height="103.44587208510346" fill="#45B7D1" opacity="0.8"/>
  <text x="652.5" y="371.5541279148965" text-anchor="middle" font-size="10" font-family="Arial, sans-serif">7505.7</text>
  <line x1="652.5" y1="375.3722359230976" x2="652.5" y2="377.73601990669545" stroke="black" stroke-width="1"/>
  <line x1="649.5" y1="375.3722359230976" x2="655.5" y2="375.3722359230976" stroke="black" stroke-width="1"/>
  <line x1="649.5" y1="377.73601990669545" x2="655.5" y2="377.73601990669545" stroke="black" stroke-width="1"/>
  <text x="640" y="500" text-anchor="middle" font-size="12" font-family="Arial, sans-serif" transform="rotate(-45 640 500)">zpm</text>
  <rect x="677.5" y="479.51698790368687" width="20" height="0.48301209631312547" fill="#FF6B6B" opacity="0.8"/>
  <text x="687.5" y="474.51698790368687" text-anchor="middle" font-size="10" font-family="Arial, sans-serif">35.0</text>
  <line x1="687.5" y1="479.5124651049049" x2="687.5" y2="479.52151070246885" stroke="black" stroke-width="1"/>
  <line x1="684.5" y1="479.5124651049049" x2="690.5" y2="479.5124651049049" stroke="black" stroke-width="1"/>
  <line x1="684.5" y1="479.52151070246885" x2="690.5" y2="479.52151070246885" stroke="black" stroke-width="1"/>
  <rect x="702.5" y="371.91597800349456" width="20" height="108.08402199650543" fill="#45B7D1" opacity="0.8"/>
  <text x="712.5" y="366.91597800349456" text-anchor="middle" font-size="10" font-family="Arial, sans-serif">7842.2</text>
  <line x1="712.5" y1="371.3915902063611" x2="712.5" y2="372.440365800628" stroke="black" stroke-width="1"/>
  <line x1="709.5" y1="371.3915902063611" x2="715.5" y2="371.3915902063611" stroke="black" stroke-width="1"/>
  <line x1="709.5" y1="372.440365800628" x2="715.5" y2="372.440365800628" stroke="black" stroke-width="1"/>
  <text x="700" y="500" text-anchor="middle" font-size="12" font-family="Arial, sans-serif" transform="rotate(-45 700 500)">zim</text>
  <rect x="737.5" y="479.43506114082373" width="20" height="0.5649388591762833" fill="#FF6B6B" opacity="0.8"/>
  <text x="747.5" y="474.43506114082373" text-anchor="middle" font-size="10" font-family="Arial, sans-serif">41.0</text>
  <line x1="747.5" y1="479.4317235599048" x2="747.5" y2="479.43839872174266" stroke="black" stroke-width="1"/>
  <line x1="744.5" y1="479.4317235599048" x2="750.5" y2="479.4317235599048" stroke="black" stroke-width="1"/>
  <line x1="744.5" y1="479.43839872174266" x2="750.5" y2="479.43839872174266" stroke="black" stroke-width="1"/>
  <rect x="762.5" y="368.27558921344513" width="20" height="111.72441078655488" fill="#45B7D1" opacity="0.8"/>
  <text x="772.5" y="363.27558921344513" text-anchor="middle" font-size="10" font-family="Arial, sans-serif">8106.3</text>
  <line x1="772.5" y1="367.8530712470384" x2="772.5" y2="368.6981071798519" stroke="black" stroke-width="1"/>
  <line x1="769.5" y1="367.8530712470384" x2="775.5" y2="367.8530712470384" stroke="black" stroke-width="1"/>
  <line x1="769.5" y1="368.6981071798519" x2="775.5" y2="368.6981071798519" stroke="black" stroke-width="1"/>
  <text x="760" y="500" text-anchor="middle" font-size="12" font-family="Arial, sans-serif" transform="rotate(-45 760 500)">antidote</text>
  <rect x="797.5" y="479.551349802326" width="20" height="0.4486501976740066" fill="#FF6B6B" opacity="0.8"/>
  <text x="807.5" y="474.551349802326" text-anchor="middle" font-size="10" font-family="Arial, sans-serif">32.6</text>
  <line x1="807.5" y1="479.5464266578982" x2="807.5" y2="479.5562729467538" stroke="black" stroke-width="1"/>
  <line x1="804.5" y1="479.5464266578982" x2="810.5" y2="479.5464266578982" stroke="black" stroke-width="1"/>
  <line x1="804.5" y1="479.5562729467538" x2="810.5" y2="479.5562729467538" stroke="black" stroke-width="1"/>
  <rect x="822.5" y="321.17269469918443" width="20" height="158.82730530081557" fill="#45B7D1" opacity="0.8"/>
  <text x="832.5" y="316.17269469918443" text-anchor="middle" font-size="10" font-family="Arial, sans-serif">11523.9</text>
  <line x1="832.5" y1="320.19667321193117" x2="832.5" y2="322.1487161864377" stroke="black" stroke-width="1"/>
  <line x1="829.5" y1="320.19667321193117" x2="835.5" y2="320.19667321193117" stroke="black" stroke-width="1"/>
  <line x1="829.5" y1="322.1487161864377" x2="835.5" y2="322.1487161864377" stroke="black" stroke-width="1"/>
  <text x="820" y="500" text-anchor="middle" font-size="12" font-family="Arial, sans-serif" transform="rotate(-45 820 500)">zcomet</text>
  <rect x="857.5" y="479.55462393119655" width="20" height="0.4453760688034395" fill="#FF6B6B" opacity="0.8"/>
  <text x="867.5" y="474.55462393119655" text-anchor="middle" font-size="10" font-family="Arial, sans-serif">32.3</text>
  <line x1="867.5" y1="479.5498976271356" x2="867.5" y2="479.5593502352575" stroke="black" stroke-width="1"/>
  <line x1="864.5" y1="479.5498976271356" x2="870.5" y2="479.5498976271356" stroke="black" stroke-width="1"/>
  <line x1="864.5" y1="479.5593502352575" x2="870.5" y2="479.5593502352575" stroke="black" stroke-width="1"/>
  <rect x="882.5" y="319.3571774090639" width="20" height="160.64282259093608" fill="#45B7D1" opacity="0.8"/>
  <text x="892.5" y="314.3571774090639" text-anchor="middle" font-size="10" font-family="Arial, sans-serif">11655.7</text>
  <line x1="892.5" y1="317.906103276265" x2="892.5" y2="320.80825154186283" stroke="black" stroke-width="1"/>
  <line x1="889.5" y1="317.906103276265" x2="895.5" y2="317.906103276265" stroke="black" stroke-width="1"/>
  <line x1="889.5" y1="320.80825154186283" x2="895.5" y2="320.80825154186283" stroke="black" stroke-width="1"/>
  <text x="880" y="500" text-anchor="middle" font-size="12" font-family="Arial, sans-serif" transform="rotate(-45 880 500)">sheldon</text>
  <rect x="917.5" y="462.8093520364017" width="20" height="17.190647963598256" fill="#FF6B6B" opacity="0.8"/>
  <text x="927.5" y="457.8093520364017" text-anchor="middle" font-size="10" font-family="Arial, sans-serif">1247.3</text>
  <line x1="927.5" y1="462.74007561425833" x2="927.5" y2="462.8786284585451" stroke="black" stroke-width="1"/>
  <line x1="924.5" y1="462.74007561425833" x2="930.5" y2="462.74007561425833" stroke="black" stroke-width="1"/>
  <line x1="924.5" y1="462.8786284585451" x2="930.5" y2="462.8786284585451" stroke="black" stroke-width="1"/>
  <rect x="942.5" y="51.16121140612813" width="20" height="428.83878859387187" fill="#45B7D1" opacity="0.8"/>
  <text x="952.5" y="46.16121140612813" text-anchor="middle" font-size="10" font-family="Arial, sans-serif">31115.0</text>
  <line x1="952.5" y1="50.000000000000014" x2="952.5" y2="52.32242281225625" stroke="black" stroke-width="1"/>
  <line x1="949.5" y1="50.000000000000014" x2="955.5" y2="50.000000000000014" stroke="black" stroke-width="1"/>
  <line x1="949.5" y1="52.32242281225625" x2="955.5" y2="52.32242281225625" stroke="black" stroke-width="1"/>
  <text x="940" y="500" text-anchor="middle" font-size="12" font-family="Arial, sans-serif" transform="rotate(-45 940 500)">zinit</text>
  <rect x="977.5" y="478.7614193756568" width="20" height="1.2385806243431847" fill="#FF6B6B" opacity="0.8"/>
  <text x="987.5" y="473.7614193756568" text-anchor="middle" font-size="10" font-family="Arial, sans-serif">89.9</text>
  <line x1="987.5" y1="478.74933899039394" x2="987.5" y2="478.7734997609197" stroke="black" stroke-width="1"/>
  <line x1="984.5" y1="478.74933899039394" x2="990.5" y2="478.74933899039394" stroke="black" stroke-width="1"/>
  <line x1="984.5" y1="478.7734997609197" x2="990.5" y2="478.7734997609197" stroke="black" stroke-width="1"/>
  <text x="1000" y="500" text-anchor="middle" font-size="12" font-family="Arial, sans-serif" transform="rotate(-45 1000 500)">oh-my-zsh</text>
  <rect x="1037.5" y="470.2723747102804" width="20" height="9.727625289719569" fill="#FF6B6B" opacity="0.8"/>
  <text x="1047.5" y="465.2723747102804" text-anchor="middle" font-size="10" font-family="Arial, sans-serif">705.8</text>
  <line x1="1047.5" y1="470.24296575113334" x2="1047.5" y2="470.3017836694275" stroke="black" stroke-width="1"/>
  <line x1="1044.5" y1="470.24296575113334" x2="1050.5" y2="470.24296575113334" stroke="black" stroke-width="1"/>
  <line x1="1044.5" y1="470.3017836694275" x2="1050.5" y2="470.3017836694275" stroke="black" stroke-width="1"/>
  <text x="1060" y="500" text-anchor="middle" font-size="12" font-family="Arial, sans-serif" transform="rotate(-45 1060 500)">prezto</text>
  <!-- Legend -->
  <rect x="1090" y="60" width="15" height="15" fill="#FF6B6B" opacity="0.8"/>
  <text x="1110" y="72" font-size="12" font-family="Arial, sans-serif">0 plugins</text>
  <rect x="1090" y="80" width="15" height="15" fill="#45B7D1" opacity="0.8"/>
  <text x="1110" y="92" font-size="12" font-family="Arial, sans-serif">25 plugins</text>
</svg>