<svg xmlns="http://www.w3.org/2000/svg" xmlns:xlink="http://www.w3.org/1999/xlink" version="1.1" width="1400px" height="600px" viewBox="0 0 1400 600">
<defs>
<clipPath id="clip-1" fill-rule="nonzero" ><path d="M 0,486.8 L 0,540 1400,540 1400,486.8 Z" /></clipPath>
<clipPath id="clip-2" fill-rule="nonzero" ><path d="M 10,0 L 10,600 78.8,600 78.8,0 Z" /></clipPath>
<clipPath id="clip-3" fill-rule="nonzero" ><path d="M 78.8,101.6 L 78.8,486.8 1300,486.8 1300,101.6 Z" /></clipPath>
<clipPath id="clip-4" fill-rule="nonzero" ><path d="M 107.294667,477.68039 L 107.294667,486.55 253.838667,486.55 253.838667,477.68039 Z" /></clipPath>
<clipPath id="clip-5" fill-rule="nonzero" ><path d="M 310.828,474.941618 L 310.828,486.55 457.372,486.55 457.372,474.941618 Z" /></clipPath>
<clipPath id="clip-6" fill-rule="nonzero" ><path d="M 514.361333,473.50097 L 514.361333,486.55 660.905333,486.55 660.905333,473.50097 Z" /></clipPath>
<clipPath id="clip-7" fill-rule="nonzero" ><path d="M 717.894667,471.61349 L 717.894667,486.55 864.438667,486.55 864.438667,471.61349 Z" /></clipPath>
<clipPath id="clip-8" fill-rule="nonzero" ><path d="M 921.428,403.586207 L 921.428,486.55 1067.972,486.55 1067.972,403.586207 Z" /></clipPath>
<clipPath id="clip-9" fill-rule="nonzero" ><path d="M 1124.961333,147.4388 L 1124.961333,486.55 1271.505333,486.55 1271.505333,147.4388 Z" /></clipPath></defs>
<g stroke="none" fill="transparent" fill-rule="nonzero" fill-opacity="1" >
<rect x="0" y="0" width="1400" height="600" transform="matrix(1 0 0 1 0 0)" /></g>
<g stroke="none" fill="#666" fill-rule="nonzero" fill-opacity="1" >
<text style="font:normal bold 14px &apos;Helvetica Neue&apos;, &apos;Helvetica&apos;, &apos;Arial&apos;, sans-serif;" text-anchor="middle" dominant-baseline="middle" textLength="1221.2" transform="matrix(1 0 0 1 689.4 527.6000000000001)" 
><tspan x="0" y="0">Plugin Manager</tspan></text></g>
<g stroke="#e0e0e0" stroke-width="0.5" stroke-linecap="butt" stroke-linejoin="miter" stroke-miterlimit="4" stroke-opacity="1" fill="none">
<path d="M 79,486.5 L 1300,486.5" />
</g>
<g stroke="#e0e0e0" stroke-width="0.5" stroke-linecap="butt" stroke-linejoin="miter" stroke-miterlimit="4" stroke-opacity="1" fill="none">
<path d="M 70.8,486.5 L 78,486.5" />
</g>
<g stroke="#e0e0e0" stroke-width="0.5" stroke-linecap="butt" stroke-linejoin="miter" stroke-miterlimit="4" stroke-opacity="1" fill="none">
<path d="M 79,438.5 L 1300,438.5" />
</g>
<g stroke="#e0e0e0" stroke-width="0.5" stroke-linecap="butt" stroke-linejoin="miter" stroke-miterlimit="4" stroke-opacity="1" fill="none">
<path d="M 70.8,438.5 L 78,438.5" />
</g>
<g stroke="#e0e0e0" stroke-width="0.5" stroke-linecap="butt" stroke-linejoin="miter" stroke-miterlimit="4" stroke-opacity="1" fill="none">
<path d="M 79,390.5 L 1300,390.5" />
</g>
<g stroke="#e0e0e0" stroke-width="0.5" stroke-linecap="butt" stroke-linejoin="miter" stroke-miterlimit="4" stroke-opacity="1" fill="none">
<path d="M 70.8,390.5 L 78,390.5" />
</g>
<g stroke="#e0e0e0" stroke-width="0.5" stroke-linecap="butt" stroke-linejoin="miter" stroke-miterlimit="4" stroke-opacity="1" fill="none">
<path d="M 79,342.5 L 1300,342.5" />
</g>
<g stroke="#e0e0e0" stroke-width="0.5" stroke-linecap="butt" stroke-linejoin="miter" stroke-miterlimit="4" stroke-opacity="1" fill="none">
<path d="M 70.8,342.5 L 78,342.5" />
</g>
<g stroke="#e0e0e0" stroke-width="0.5" stroke-linecap="butt" stroke-linejoin="miter" stroke-miterlimit="4" stroke-opacity="1" fill="none">
<path d="M 79,294.5 L 1300,294.5" />
</g>
<g stroke="#e0e0e0" stroke-width="0.5" stroke-linecap="butt" stroke-linejoin="miter" stroke-miterlimit="4" stroke-opacity="1" fill="none">
<path d="M 70.8,294.5 L 78,294.5" />
</g>
<g stroke="#e0e0e0" stroke-width="0.5" stroke-linecap="butt" stroke-linejoin="miter" stroke-miterlimit="4" stroke-opacity="1" fill="none">
<path d="M 79,246.5 L 1300,246.5" />
</g>
<g stroke="#e0e0e0" stroke-width="0.5" stroke-linecap="butt" stroke-linejoin="miter" stroke-miterlimit="4" stroke-opacity="1" fill="none">
<path d="M 70.8,246.5 L 78,246.5" />
</g>
<g stroke="#e0e0e0" stroke-width="0.5" stroke-linecap="butt" stroke-linejoin="miter" stroke-miterlimit="4" stroke-opacity="1" fill="none">
<path d="M 79,197.5 L 1300,197.5" />
</g>
<g stroke="#e0e0e0" stroke-width="0.5" stroke-linecap="butt" stroke-linejoin="miter" stroke-miterlimit="4" stroke-opacity="1" fill="none">
<path d="M 70.8,197.5 L 78,197.5" />
</g>
<g stroke="#e0e0e0" stroke-width="0.5" stroke-linecap="butt" stroke-linejoin="miter" stroke-miterlimit="4" stroke-opacity="1" fill="none">
<path d="M 79,149.5 L 1300,149.5" />
</g>
<g stroke="#e0e0e0" stroke-width="0.5" stroke-linecap="butt" stroke-linejoin="miter" stroke-miterlimit="4" stroke-opacity="1" fill="none">
<path d="M 70.8,149.5 L 78,149.5" />
</g>
<g stroke="#e0e0e0" stroke-width="0.5" stroke-linecap="butt" stroke-linejoin="miter" stroke-miterlimit="4" stroke-opacity="1" fill="none">
<path d="M 79,101.5 L 1300,101.5" />
</g>
<g stroke="#e0e0e0" stroke-width="0.5" stroke-linecap="butt" stroke-linejoin="miter" stroke-miterlimit="4" stroke-opacity="1" fill="none">
<path d="M 70.8,101.5 L 78,101.5" />
</g>
<g stroke="none" fill="#666" fill-rule="nonzero" fill-opacity="1" >
<text style="font:normal bold 14px &apos;Helvetica Neue&apos;, &apos;Helvetica&apos;, &apos;Arial&apos;, sans-serif;" text-anchor="middle" dominant-baseline="middle" transform="matrix(6.123233995736766e-17 -1 1 6.123233995736766e-17 22.4 294.20000000000005)" 
><tspan x="0" y="0">Load Time (ms)</tspan></text></g>
<g stroke="none" fill="#666" fill-rule="nonzero" fill-opacity="1" >
<text style="font:normal bold 18px &apos;Helvetica Neue&apos;, &apos;Helvetica&apos;, &apos;Arial&apos;, sans-serif;" text-anchor="middle" dominant-baseline="middle" textLength="1290" transform="matrix(1 0 0 1 655 60.8)" 
><tspan x="0" y="0">Zsh Plugin Manager Load Time Comparison</tspan></text></g>
<g stroke="rgb(0,0,0)" stroke-width="1" stroke-linecap="butt" stroke-linejoin="miter" stroke-miterlimit="4" stroke-opacity="0.1" fill="none">
<path d="M 78,486.5 L 1301,486.5" />
</g>
<g stroke="none" fill="#666" fill-rule="nonzero" fill-opacity="1"  clip-path="url(#clip-1)" >
<text style="font:normal 12px &apos;Helvetica Neue&apos;, &apos;Helvetica&apos;, &apos;Arial&apos;, sans-serif;" text-anchor="middle" dominant-baseline="middle" transform="matrix(1 0 0 1 180.56666666666666 497.80000000000007)" 
><tspan x="0" y="7.199999999999999">zim</tspan></text></g>
<g stroke="none" fill="#666" fill-rule="nonzero" fill-opacity="1"  clip-path="url(#clip-1)" >
<text style="font:normal 12px &apos;Helvetica Neue&apos;, &apos;Helvetica&apos;, &apos;Arial&apos;, sans-serif;" text-anchor="middle" dominant-baseline="middle" transform="matrix(1 0 0 1 384.1 497.80000000000007)" 
><tspan x="0" y="7.199999999999999">vanilla</tspan></text></g>
<g stroke="none" fill="#666" fill-rule="nonzero" fill-opacity="1"  clip-path="url(#clip-1)" >
<text style="font:normal 12px &apos;Helvetica Neue&apos;, &apos;Helvetica&apos;, &apos;Arial&apos;, sans-serif;" text-anchor="middle" dominant-baseline="middle" transform="matrix(1 0 0 1 587.6333333333333 497.80000000000007)" 
><tspan x="0" y="7.199999999999999">prezto</tspan></text></g>
<g stroke="none" fill="#666" fill-rule="nonzero" fill-opacity="1"  clip-path="url(#clip-1)" >
<text style="font:normal 12px &apos;Helvetica Neue&apos;, &apos;Helvetica&apos;, &apos;Arial&apos;, sans-serif;" text-anchor="middle" dominant-baseline="middle" transform="matrix(1 0 0 1 791.1666666666667 497.80000000000007)" 
><tspan x="0" y="7.199999999999999">oh-my-zsh</tspan></text></g>
<g stroke="none" fill="#666" fill-rule="nonzero" fill-opacity="1"  clip-path="url(#clip-1)" >
<text style="font:normal 12px &apos;Helvetica Neue&apos;, &apos;Helvetica&apos;, &apos;Arial&apos;, sans-serif;" text-anchor="middle" dominant-baseline="middle" transform="matrix(1 0 0 1 994.7 497.80000000000007)" 
><tspan x="0" y="7.199999999999999">zinit</tspan></text></g>
<g stroke="none" fill="#666" fill-rule="nonzero" fill-opacity="1"  clip-path="url(#clip-1)" >
<text style="font:normal 12px &apos;Helvetica Neue&apos;, &apos;Helvetica&apos;, &apos;Arial&apos;, sans-serif;" text-anchor="middle" dominant-baseline="middle" transform="matrix(1 0 0 1 1198.2333333333333 497.80000000000007)" 
><tspan x="0" y="7.199999999999999">zplug</tspan></text></g>
<g stroke="rgb(0,0,0)" stroke-width="1" stroke-linecap="butt" stroke-linejoin="miter" stroke-miterlimit="4" stroke-opacity="0.1" fill="none">
<path d="M 78.5,101 L 78.5,486.75" />
</g>
<g stroke="none" fill="#666" fill-rule="nonzero" fill-opacity="1"  clip-path="url(#clip-2)" >
<text style="font:normal 12px &apos;Helvetica Neue&apos;, &apos;Helvetica&apos;, &apos;Arial&apos;, sans-serif;" text-anchor="end" dominant-baseline="middle" transform="matrix(1 0 0 1 67.8 486.80000000000007)" 
><tspan x="0" y="0">0</tspan></text></g>
<g stroke="none" fill="#666" fill-rule="nonzero" fill-opacity="1"  clip-path="url(#clip-2)" >
<text style="font:normal 12px &apos;Helvetica Neue&apos;, &apos;Helvetica&apos;, &apos;Arial&apos;, sans-serif;" text-anchor="end" dominant-baseline="middle" transform="matrix(1 0 0 1 67.8 438.6500000000001)" 
><tspan x="0" y="0">500</tspan></text></g>
<g stroke="none" fill="#666" fill-rule="nonzero" fill-opacity="1"  clip-path="url(#clip-2)" >
<text style="font:normal 12px &apos;Helvetica Neue&apos;, &apos;Helvetica&apos;, &apos;Arial&apos;, sans-serif;" text-anchor="end" dominant-baseline="middle" transform="matrix(1 0 0 1 67.8 390.5)" 
><tspan x="0" y="0">1,000</tspan></text></g>
<g stroke="none" fill="#666" fill-rule="nonzero" fill-opacity="1"  clip-path="url(#clip-2)" >
<text style="font:normal 12px &apos;Helvetica Neue&apos;, &apos;Helvetica&apos;, &apos;Arial&apos;, sans-serif;" text-anchor="end" dominant-baseline="middle" transform="matrix(1 0 0 1 67.8 342.35)" 
><tspan x="0" y="0">1,500</tspan></text></g>
<g stroke="none" fill="#666" fill-rule="nonzero" fill-opacity="1"  clip-path="url(#clip-2)" >
<text style="font:normal 12px &apos;Helvetica Neue&apos;, &apos;Helvetica&apos;, &apos;Arial&apos;, sans-serif;" text-anchor="end" dominant-baseline="middle" transform="matrix(1 0 0 1 67.8 294.20000000000005)" 
><tspan x="0" y="0">2,000</tspan></text></g>
<g stroke="none" fill="#666" fill-rule="nonzero" fill-opacity="1"  clip-path="url(#clip-2)" >
<text style="font:normal 12px &apos;Helvetica Neue&apos;, &apos;Helvetica&apos;, &apos;Arial&apos;, sans-serif;" text-anchor="end" dominant-baseline="middle" transform="matrix(1 0 0 1 67.8 246.05)" 
><tspan x="0" y="0">2,500</tspan></text></g>
<g stroke="none" fill="#666" fill-rule="nonzero" fill-opacity="1"  clip-path="url(#clip-2)" >
<text style="font:normal 12px &apos;Helvetica Neue&apos;, &apos;Helvetica&apos;, &apos;Arial&apos;, sans-serif;" text-anchor="end" dominant-baseline="middle" transform="matrix(1 0 0 1 67.8 197.9)" 
><tspan x="0" y="0">3,000</tspan></text></g>
<g stroke="none" fill="#666" fill-rule="nonzero" fill-opacity="1"  clip-path="url(#clip-2)" >
<text style="font:normal 12px &apos;Helvetica Neue&apos;, &apos;Helvetica&apos;, &apos;Arial&apos;, sans-serif;" text-anchor="end" dominant-baseline="middle" transform="matrix(1 0 0 1 67.8 149.75)" 
><tspan x="0" y="0">3,500</tspan></text></g>
<g stroke="none" fill="#666" fill-rule="nonzero" fill-opacity="1"  clip-path="url(#clip-2)" >
<text style="font:normal 12px &apos;Helvetica Neue&apos;, &apos;Helvetica&apos;, &apos;Arial&apos;, sans-serif;" text-anchor="end" dominant-baseline="middle" transform="matrix(1 0 0 1 67.8 101.6)" 
><tspan x="0" y="0">4,000</tspan></text></g>
<g stroke="none" fill="rgb(54,162,235)" fill-rule="evenodd" fill-opacity="1"  clip-path="url(#clip-4)" >
<path d="M 107.294667,477.68039 L 107.294667,486.55 253.838667,486.55 253.838667,477.68039 Z M 108.294667,478.68039 L 108.294667,486.55
252.838667,486.55 252.838667,478.68039 Z" />
</g>
<g stroke="none" fill="rgb(54,162,235)" fill-rule="nonzero" fill-opacity="1"  clip-path="url(#clip-4)" >
<path d="M 108.294667,478.68039 L 108.294667,486.55 252.838667,486.55 252.838667,478.68039 Z" />
</g>
<g stroke="none" fill="rgb(255,99,132)" fill-rule="evenodd" fill-opacity="1"  clip-path="url(#clip-5)" >
<path d="M 310.828,474.941618 L 310.828,486.55 457.372,486.55 457.372,474.941618 Z M 311.828,475.941618 L 311.828,486.55 456.372,486.55
456.372,475.941618 Z" />
</g>
<g stroke="none" fill="rgb(255,99,132)" fill-rule="nonzero" fill-opacity="1"  clip-path="url(#clip-5)" >
<path d="M 311.828,475.941618 L 311.828,486.55 456.372,486.55 456.372,475.941618 Z" />
</g>
<g stroke="none" fill="rgb(75,192,192)" fill-rule="evenodd" fill-opacity="1"  clip-path="url(#clip-6)" >
<path d="M 514.361333,473.50097 L 514.361333,486.55 660.905333,486.55 660.905333,473.50097 Z M 515.361333,474.50097 L 515.361333,486.55
659.905333,486.55 659.905333,474.50097 Z" />
</g>
<g stroke="none" fill="rgb(75,192,192)" fill-rule="nonzero" fill-opacity="1"  clip-path="url(#clip-6)" >
<path d="M 515.361333,474.50097 L 515.361333,486.55 659.905333,486.55 659.905333,474.50097 Z" />
</g>
<g stroke="none" fill="rgb(255,159,64)" fill-rule="evenodd" fill-opacity="1"  clip-path="url(#clip-7)" >
<path d="M 717.894667,471.61349 L 717.894667,486.55 864.438667,486.55 864.438667,471.61349 Z M 718.894667,472.61349 L 718.894667,486.55
863.438667,486.55 863.438667,472.61349 Z" />
</g>
<g stroke="none" fill="rgb(255,159,64)" fill-rule="nonzero" fill-opacity="1"  clip-path="url(#clip-7)" >
<path d="M 718.894667,472.61349 L 718.894667,486.55 863.438667,486.55 863.438667,472.61349 Z" />
</g>
<g stroke="none" fill="rgb(153,102,255)" fill-rule="evenodd" fill-opacity="1"  clip-path="url(#clip-8)" >
<path d="M 921.428,403.586207 L 921.428,486.55 1067.972,486.55 1067.972,403.586207 Z M 922.428,404.586207 L 922.428,486.55 1066.972,486.55
1066.972,404.586207 Z" />
</g>
<g stroke="none" fill="rgb(153,102,255)" fill-rule="nonzero" fill-opacity="1"  clip-path="url(#clip-8)" >
<path d="M 922.428,404.586207 L 922.428,486.55 1066.972,486.55 1066.972,404.586207 Z" />
</g>
<g stroke="none" fill="rgb(255,205,86)" fill-rule="evenodd" fill-opacity="1"  clip-path="url(#clip-9)" >
<path d="M 1124.961333,147.4388 L 1124.961333,486.55 1271.505333,486.55 1271.505333,147.4388 Z M 1125.961333,148.4388 L 1125.961333,486.55
1270.505333,486.55 1270.505333,148.4388 Z" />
</g>
<g stroke="none" fill="rgb(255,205,86)" fill-rule="nonzero" fill-opacity="1"  clip-path="url(#clip-9)" >
<path d="M 1125.961333,148.4388 L 1125.961333,486.55 1270.505333,486.55 1270.505333,148.4388 Z" />
</g>
</svg>