<svg xmlns="http://www.w3.org/2000/svg" xmlns:xlink="http://www.w3.org/1999/xlink" version="1.1" width="1400px" height="600px" viewBox="0 0 1400 600">
<defs>
<clipPath id="clip-1" fill-rule="nonzero" ><path d="M 20,69.2 L 20,106.2 1380,106.2 1380,69.2 Z" /></clipPath>
<clipPath id="clip-2" fill-rule="nonzero" ><path d="M 0,506.8 L 0,560 1400,560 1400,506.8 Z" /></clipPath>
<clipPath id="clip-3" fill-rule="nonzero" ><path d="M 20,0 L 20,600 88.8,600 88.8,0 Z" /></clipPath>
<clipPath id="clip-4" fill-rule="nonzero" ><path d="M 88.8,106.2 L 88.8,506.8 1380,506.8 1380,106.2 Z" /></clipPath>
<clipPath id="clip-5" fill-rule="nonzero" ><path d="M 130.764,497.206963 L 130.764,506.55 159.816,506.55 159.816,497.206963 Z" /></clipPath>
<clipPath id="clip-6" fill-rule="nonzero" ><path d="M 211.464,496.64117 L 211.464,506.55 240.516,506.55 240.516,496.64117 Z" /></clipPath>
<clipPath id="clip-7" fill-rule="nonzero" ><path d="M 292.164,496.126653 L 292.164,506.55 321.216,506.55 321.216,496.126653 Z" /></clipPath>
<clipPath id="clip-8" fill-rule="nonzero" ><path d="M 372.864,495.608631 L 372.864,506.55 401.916,506.55 401.916,495.608631 Z" /></clipPath>
<clipPath id="clip-9" fill-rule="nonzero" ><path d="M 453.564,495.545278 L 453.564,506.55 482.616,506.55 482.616,495.545278 Z" /></clipPath>
<clipPath id="clip-10" fill-rule="nonzero" ><path d="M 534.264,494.746577 L 534.264,506.55 563.316,506.55 563.316,494.746577 Z" /></clipPath>
<clipPath id="clip-11" fill-rule="nonzero" ><path d="M 614.964,494.15723 L 614.964,506.55 644.016,506.55 644.016,494.15723 Z" /></clipPath>
<clipPath id="clip-12" fill-rule="nonzero" ><path d="M 695.664,494.1297 L 695.664,506.55 724.716,506.55 724.716,494.1297 Z" /></clipPath>
<clipPath id="clip-13" fill-rule="nonzero" ><path d="M 776.364,492.301011 L 776.364,506.55 805.416,506.55 805.416,492.301011 Z" /></clipPath>
<clipPath id="clip-14" fill-rule="nonzero" ><path d="M 857.064,492.161438 L 857.064,506.55 886.116,506.55 886.116,492.161438 Z" /></clipPath>
<clipPath id="clip-15" fill-rule="nonzero" ><path d="M 937.764,492.030561 L 937.764,506.55 966.816,506.55 966.816,492.030561 Z" /></clipPath>
<clipPath id="clip-16" fill-rule="nonzero" ><path d="M 1018.464,489.924754 L 1018.464,506.55 1047.516,506.55 1047.516,489.924754 Z" /></clipPath>
<clipPath id="clip-17" fill-rule="nonzero" ><path d="M 1099.164,488.870386 L 1099.164,506.55 1128.216,506.55 1128.216,488.870386 Z" /></clipPath>
<clipPath id="clip-18" fill-rule="nonzero" ><path d="M 1179.864,471.464692 L 1179.864,506.55 1208.916,506.55 1208.916,471.464692 Z" /></clipPath>
<clipPath id="clip-19" fill-rule="nonzero" ><path d="M 1260.564,469.495212 L 1260.564,506.55 1289.616,506.55 1289.616,469.495212 Z" /></clipPath>
<clipPath id="clip-20" fill-rule="nonzero" ><path d="M 1341.264,150.418496 L 1341.264,506.55 1370.316,506.55 1370.316,150.418496 Z" /></clipPath>
<clipPath id="clip-21" fill-rule="nonzero" ><path d="M 88.8,106.2 L 88.8,506.8 1380,506.8 1380,106.2 Z" /></clipPath>
<clipPath id="clip-22" fill-rule="nonzero" ><path d="M 98.484,503.009208 L 98.484,506.55 127.536,506.55 127.536,503.009208 Z" /></clipPath>
<clipPath id="clip-23" fill-rule="nonzero" ><path d="M 179.184,503.500291 L 179.184,506.55 208.236,506.55 208.236,503.500291 Z" /></clipPath>
<clipPath id="clip-24" fill-rule="nonzero" ><path d="M 259.884,503.476774 L 259.884,506.55 288.936,506.55 288.936,503.476774 Z" /></clipPath>
<clipPath id="clip-25" fill-rule="nonzero" ><path d="M 340.584,503.693878 L 340.584,506.55 369.636,506.55 369.636,503.693878 Z" /></clipPath>
<clipPath id="clip-26" fill-rule="nonzero" ><path d="M 421.284,503.629516 L 421.284,506.55 450.336,506.55 450.336,503.629516 Z" /></clipPath>
<clipPath id="clip-27" fill-rule="nonzero" ><path d="M 501.984,503.361726 L 501.984,506.55 531.036,506.55 531.036,503.361726 Z" /></clipPath>
<clipPath id="clip-28" fill-rule="nonzero" ><path d="M 582.684,503.104135 L 582.684,506.55 611.736,506.55 611.736,503.104135 Z" /></clipPath>
<clipPath id="clip-29" fill-rule="nonzero" ><path d="M 663.384,503.480758 L 663.384,506.55 692.436,506.55 692.436,503.480758 Z" /></clipPath>
<clipPath id="clip-30" fill-rule="nonzero" ><path d="M 744.084,503.391177 L 744.084,506.55 773.136,506.55 773.136,503.391177 Z" /></clipPath>
<clipPath id="clip-31" fill-rule="nonzero" ><path d="M 824.784,499.116441 L 824.784,506.55 853.836,506.55 853.836,499.116441 Z" /></clipPath>
<clipPath id="clip-32" fill-rule="nonzero" ><path d="M 905.484,501.588715 L 905.484,506.55 934.536,506.55 934.536,501.588715 Z" /></clipPath>
<clipPath id="clip-33" fill-rule="nonzero" ><path d="M 986.184,497.093965 L 986.184,506.55 1015.236,506.55 1015.236,497.093965 Z" /></clipPath>
<clipPath id="clip-34" fill-rule="nonzero" ><path d="M 1066.884,503.432669 L 1066.884,506.55 1095.936,506.55 1095.936,503.432669 Z" /></clipPath>
<clipPath id="clip-35" fill-rule="nonzero" ><path d="M 1147.584,500.858712 L 1147.584,506.55 1176.636,506.55 1176.636,500.858712 Z" /></clipPath>
<clipPath id="clip-36" fill-rule="nonzero" ><path d="M 1228.284,501.652033 L 1228.284,506.55 1257.336,506.55 1257.336,501.652033 Z" /></clipPath>
<clipPath id="clip-37" fill-rule="nonzero" ><path d="M 1308.984,493.717313 L 1308.984,506.55 1338.036,506.55 1338.036,493.717313 Z" /></clipPath></defs>
<g stroke="none" fill="transparent" fill-rule="nonzero" fill-opacity="1" >
<rect x="0" y="0" width="1400" height="600" transform="matrix(1 0 0 1 0 0)" /></g>
<g stroke="none" fill="#666" fill-rule="nonzero" fill-opacity="1" >
<text style="font:normal bold 14px &apos;Helvetica Neue&apos;, &apos;Helvetica&apos;, &apos;Arial&apos;, sans-serif;" text-anchor="middle" dominant-baseline="middle" transform="matrix(1 0 0 1 734.4 547.6)" 
><tspan x="0" y="0">Plugin Manager</tspan></text></g>
<g stroke="#e0e0e0" stroke-width="0.5" stroke-linecap="butt" stroke-linejoin="miter" stroke-miterlimit="4" stroke-opacity="1" fill="none">
<path d="M 89,506.5 L 1380,506.5" />
</g>
<g stroke="#e0e0e0" stroke-width="0.5" stroke-linecap="butt" stroke-linejoin="miter" stroke-miterlimit="4" stroke-opacity="1" fill="none">
<path d="M 80.8,506.5 L 88,506.5" />
</g>
<g stroke="#e0e0e0" stroke-width="0.5" stroke-linecap="butt" stroke-linejoin="miter" stroke-miterlimit="4" stroke-opacity="1" fill="none">
<path d="M 89,456.5 L 1380,456.5" />
</g>
<g stroke="#e0e0e0" stroke-width="0.5" stroke-linecap="butt" stroke-linejoin="miter" stroke-miterlimit="4" stroke-opacity="1" fill="none">
<path d="M 80.8,456.5 L 88,456.5" />
</g>
<g stroke="#e0e0e0" stroke-width="0.5" stroke-linecap="butt" stroke-linejoin="miter" stroke-miterlimit="4" stroke-opacity="1" fill="none">
<path d="M 89,406.5 L 1380,406.5" />
</g>
<g stroke="#e0e0e0" stroke-width="0.5" stroke-linecap="butt" stroke-linejoin="miter" stroke-miterlimit="4" stroke-opacity="1" fill="none">
<path d="M 80.8,406.5 L 88,406.5" />
</g>
<g stroke="#e0e0e0" stroke-width="0.5" stroke-linecap="butt" stroke-linejoin="miter" stroke-miterlimit="4" stroke-opacity="1" fill="none">
<path d="M 89,356.5 L 1380,356.5" />
</g>
<g stroke="#e0e0e0" stroke-width="0.5" stroke-linecap="butt" stroke-linejoin="miter" stroke-miterlimit="4" stroke-opacity="1" fill="none">
<path d="M 80.8,356.5 L 88,356.5" />
</g>
<g stroke="#e0e0e0" stroke-width="0.5" stroke-linecap="butt" stroke-linejoin="miter" stroke-miterlimit="4" stroke-opacity="1" fill="none">
<path d="M 89,306.5 L 1380,306.5" />
</g>
<g stroke="#e0e0e0" stroke-width="0.5" stroke-linecap="butt" stroke-linejoin="miter" stroke-miterlimit="4" stroke-opacity="1" fill="none">
<path d="M 80.8,306.5 L 88,306.5" />
</g>
<g stroke="#e0e0e0" stroke-width="0.5" stroke-linecap="butt" stroke-linejoin="miter" stroke-miterlimit="4" stroke-opacity="1" fill="none">
<path d="M 89,256.5 L 1380,256.5" />
</g>
<g stroke="#e0e0e0" stroke-width="0.5" stroke-linecap="butt" stroke-linejoin="miter" stroke-miterlimit="4" stroke-opacity="1" fill="none">
<path d="M 80.8,256.5 L 88,256.5" />
</g>
<g stroke="#e0e0e0" stroke-width="0.5" stroke-linecap="butt" stroke-linejoin="miter" stroke-miterlimit="4" stroke-opacity="1" fill="none">
<path d="M 89,206.5 L 1380,206.5" />
</g>
<g stroke="#e0e0e0" stroke-width="0.5" stroke-linecap="butt" stroke-linejoin="miter" stroke-miterlimit="4" stroke-opacity="1" fill="none">
<path d="M 80.8,206.5 L 88,206.5" />
</g>
<g stroke="#e0e0e0" stroke-width="0.5" stroke-linecap="butt" stroke-linejoin="miter" stroke-miterlimit="4" stroke-opacity="1" fill="none">
<path d="M 89,156.5 L 1380,156.5" />
</g>
<g stroke="#e0e0e0" stroke-width="0.5" stroke-linecap="butt" stroke-linejoin="miter" stroke-miterlimit="4" stroke-opacity="1" fill="none">
<path d="M 80.8,156.5 L 88,156.5" />
</g>
<g stroke="#e0e0e0" stroke-width="0.5" stroke-linecap="butt" stroke-linejoin="miter" stroke-miterlimit="4" stroke-opacity="1" fill="none">
<path d="M 89,106.5 L 1380,106.5" />
</g>
<g stroke="#e0e0e0" stroke-width="0.5" stroke-linecap="butt" stroke-linejoin="miter" stroke-miterlimit="4" stroke-opacity="1" fill="none">
<path d="M 80.8,106.5 L 88,106.5" />
</g>
<g stroke="none" fill="#666" fill-rule="nonzero" fill-opacity="1" >
<text style="font:normal bold 14px &apos;Helvetica Neue&apos;, &apos;Helvetica&apos;, &apos;Arial&apos;, sans-serif;" text-anchor="middle" dominant-baseline="middle" transform="matrix(6.123233995736766e-17 -1 1 6.123233995736766e-17 32.4 306.5)" 
><tspan x="0" y="0">Load Time (ms)</tspan></text></g>
<g stroke="none" fill="rgb(54,162,235)" fill-rule="nonzero" fill-opacity="1"  clip-path="url(#clip-1)" >
<path d="M 609.5,84.2 L 609.5,96.2 629.5,96.2 629.5,84.2 Z" />
</g>
<g stroke="rgb(54,162,235)" stroke-width="1" stroke-linecap="butt" stroke-linejoin="miter" stroke-miterlimit="4" stroke-opacity="1" fill="none" clip-path="url(#clip-1)" >
<path d="M 609.5,84.2 L 609.5,96.2 629.5,96.2 629.5,84.2 Z" />
</g>
<g stroke="none" fill="#666" fill-rule="nonzero" fill-opacity="1"  clip-path="url(#clip-1)" >
<text style="font:normal 12px &apos;Helvetica Neue&apos;, &apos;Helvetica&apos;, &apos;Arial&apos;, sans-serif;" text-anchor="start" dominant-baseline="middle" transform="matrix(1 0 0 1 0 0)" 
><tspan x="635.5" y="90.2">0 plugins</tspan></text></g>
<g stroke="none" fill="rgb(255,99,132)" fill-rule="nonzero" fill-opacity="1"  clip-path="url(#clip-1)" >
<path d="M 704.5,84.2 L 704.5,96.2 724.5,96.2 724.5,84.2 Z" />
</g>
<g stroke="rgb(255,99,132)" stroke-width="1" stroke-linecap="butt" stroke-linejoin="miter" stroke-miterlimit="4" stroke-opacity="1" fill="none" clip-path="url(#clip-1)" >
<path d="M 704.5,84.2 L 704.5,96.2 724.5,96.2 724.5,84.2 Z" />
</g>
<g stroke="none" fill="#666" fill-rule="nonzero" fill-opacity="1"  clip-path="url(#clip-1)" >
<text style="font:normal 12px &apos;Helvetica Neue&apos;, &apos;Helvetica&apos;, &apos;Arial&apos;, sans-serif;" text-anchor="start" dominant-baseline="middle" transform="matrix(1 0 0 1 0 0)" 
><tspan x="730.5" y="90.2">25 plugins</tspan></text></g>
<g stroke="none" fill="#666" fill-rule="nonzero" fill-opacity="1" >
<text style="font:normal bold 16px &apos;Helvetica Neue&apos;, &apos;Helvetica&apos;, &apos;Arial&apos;, sans-serif;" text-anchor="middle" dominant-baseline="middle" transform="matrix(1 0 0 1 700 39.6)" 
><tspan x="0" y="0">Zsh Plugin Manager Load Time Comparison</tspan></text></g>
<g stroke="rgb(0,0,0)" stroke-width="1" stroke-linecap="butt" stroke-linejoin="miter" stroke-miterlimit="4" stroke-opacity="0.1" fill="none">
<path d="M 88,506.5 L 1381,506.5" />
</g>
<g stroke="none" fill="#666" fill-rule="nonzero" fill-opacity="1"  clip-path="url(#clip-2)" >
<text style="font:normal 12px &apos;Helvetica Neue&apos;, &apos;Helvetica&apos;, &apos;Arial&apos;, sans-serif;" text-anchor="middle" dominant-baseline="middle" transform="matrix(1 0 0 1 129.15 517.8)" 
><tspan x="0" y="7.199999999999999">zim</tspan></text></g>
<g stroke="none" fill="#666" fill-rule="nonzero" fill-opacity="1"  clip-path="url(#clip-2)" >
<text style="font:normal 12px &apos;Helvetica Neue&apos;, &apos;Helvetica&apos;, &apos;Arial&apos;, sans-serif;" text-anchor="middle" dominant-baseline="middle" transform="matrix(1 0 0 1 209.85000000000002 517.8)" 
><tspan x="0" y="7.199999999999999">zgenom</tspan></text></g>
<g stroke="none" fill="#666" fill-rule="nonzero" fill-opacity="1"  clip-path="url(#clip-2)" >
<text style="font:normal 12px &apos;Helvetica Neue&apos;, &apos;Helvetica&apos;, &apos;Arial&apos;, sans-serif;" text-anchor="middle" dominant-baseline="middle" transform="matrix(1 0 0 1 290.55 517.8)" 
><tspan x="0" y="7.199999999999999">antigen</tspan></text></g>
<g stroke="none" fill="#666" fill-rule="nonzero" fill-opacity="1"  clip-path="url(#clip-2)" >
<text style="font:normal 12px &apos;Helvetica Neue&apos;, &apos;Helvetica&apos;, &apos;Arial&apos;, sans-serif;" text-anchor="middle" dominant-baseline="middle" transform="matrix(1 0 0 1 371.25 517.8)" 
><tspan x="0" y="7.199999999999999">antigen-hs</tspan></text></g>
<g stroke="none" fill="#666" fill-rule="nonzero" fill-opacity="1"  clip-path="url(#clip-2)" >
<text style="font:normal 12px &apos;Helvetica Neue&apos;, &apos;Helvetica&apos;, &apos;Arial&apos;, sans-serif;" text-anchor="middle" dominant-baseline="middle" transform="matrix(1 0 0 1 451.95000000000005 517.8)" 
><tspan x="0" y="7.199999999999999">zr</tspan></text></g>
<g stroke="none" fill="#666" fill-rule="nonzero" fill-opacity="1"  clip-path="url(#clip-2)" >
<text style="font:normal 12px &apos;Helvetica Neue&apos;, &apos;Helvetica&apos;, &apos;Arial&apos;, sans-serif;" text-anchor="middle" dominant-baseline="middle" transform="matrix(1 0 0 1 532.65 517.8)" 
><tspan x="0" y="7.199999999999999">sheldon</tspan></text></g>
<g stroke="none" fill="#666" fill-rule="nonzero" fill-opacity="1"  clip-path="url(#clip-2)" >
<text style="font:normal 12px &apos;Helvetica Neue&apos;, &apos;Helvetica&apos;, &apos;Arial&apos;, sans-serif;" text-anchor="middle" dominant-baseline="middle" transform="matrix(1 0 0 1 613.35 517.8)" 
><tspan x="0" y="7.199999999999999">antidote</tspan></text></g>
<g stroke="none" fill="#666" fill-rule="nonzero" fill-opacity="1"  clip-path="url(#clip-2)" >
<text style="font:normal 12px &apos;Helvetica Neue&apos;, &apos;Helvetica&apos;, &apos;Arial&apos;, sans-serif;" text-anchor="middle" dominant-baseline="middle" transform="matrix(1 0 0 1 694.05 517.8)" 
><tspan x="0" y="7.199999999999999">alf</tspan></text></g>
<g stroke="none" fill="#666" fill-rule="nonzero" fill-opacity="1"  clip-path="url(#clip-2)" >
<text style="font:normal 12px &apos;Helvetica Neue&apos;, &apos;Helvetica&apos;, &apos;Arial&apos;, sans-serif;" text-anchor="middle" dominant-baseline="middle" transform="matrix(1 0 0 1 774.75 517.8)" 
><tspan x="0" y="7.199999999999999">znap</tspan></text></g>
<g stroke="none" fill="#666" fill-rule="nonzero" fill-opacity="1"  clip-path="url(#clip-2)" >
<text style="font:normal 12px &apos;Helvetica Neue&apos;, &apos;Helvetica&apos;, &apos;Arial&apos;, sans-serif;" text-anchor="middle" dominant-baseline="middle" transform="matrix(1 0 0 1 855.4499999999999 517.8)" 
><tspan x="0" y="7.199999999999999">prezto</tspan></text></g>
<g stroke="none" fill="#666" fill-rule="nonzero" fill-opacity="1"  clip-path="url(#clip-2)" >
<text style="font:normal 12px &apos;Helvetica Neue&apos;, &apos;Helvetica&apos;, &apos;Arial&apos;, sans-serif;" text-anchor="middle" dominant-baseline="middle" transform="matrix(1 0 0 1 936.15 517.8)" 
><tspan x="0" y="7.199999999999999">zcomet</tspan></text></g>
<g stroke="none" fill="#666" fill-rule="nonzero" fill-opacity="1"  clip-path="url(#clip-2)" >
<text style="font:normal 12px &apos;Helvetica Neue&apos;, &apos;Helvetica&apos;, &apos;Arial&apos;, sans-serif;" text-anchor="middle" dominant-baseline="middle" transform="matrix(1 0 0 1 1016.85 517.8)" 
><tspan x="0" y="7.199999999999999">oh-my-zsh</tspan></text></g>
<g stroke="none" fill="#666" fill-rule="nonzero" fill-opacity="1"  clip-path="url(#clip-2)" >
<text style="font:normal 12px &apos;Helvetica Neue&apos;, &apos;Helvetica&apos;, &apos;Arial&apos;, sans-serif;" text-anchor="middle" dominant-baseline="middle" transform="matrix(1 0 0 1 1097.55 517.8)" 
><tspan x="0" y="7.199999999999999">antibody</tspan></text></g>
<g stroke="none" fill="#666" fill-rule="nonzero" fill-opacity="1"  clip-path="url(#clip-2)" >
<text style="font:normal 12px &apos;Helvetica Neue&apos;, &apos;Helvetica&apos;, &apos;Arial&apos;, sans-serif;" text-anchor="middle" dominant-baseline="middle" transform="matrix(1 0 0 1 1178.25 517.8)" 
><tspan x="0" y="7.199999999999999">zpm</tspan></text></g>
<g stroke="none" fill="#666" fill-rule="nonzero" fill-opacity="1"  clip-path="url(#clip-2)" >
<text style="font:normal 12px &apos;Helvetica Neue&apos;, &apos;Helvetica&apos;, &apos;Arial&apos;, sans-serif;" text-anchor="middle" dominant-baseline="middle" transform="matrix(1 0 0 1 1258.95 517.8)" 
><tspan x="0" y="7.199999999999999">zinit</tspan></text></g>
<g stroke="none" fill="#666" fill-rule="nonzero" fill-opacity="1"  clip-path="url(#clip-2)" >
<text style="font:normal 12px &apos;Helvetica Neue&apos;, &apos;Helvetica&apos;, &apos;Arial&apos;, sans-serif;" text-anchor="middle" dominant-baseline="middle" transform="matrix(1 0 0 1 1339.65 517.8)" 
><tspan x="0" y="7.199999999999999">zplug</tspan></text></g>
<g stroke="rgb(0,0,0)" stroke-width="1" stroke-linecap="butt" stroke-linejoin="miter" stroke-miterlimit="4" stroke-opacity="0.1" fill="none">
<path d="M 88.5,106 L 88.5,506.75" />
</g>
<g stroke="none" fill="#666" fill-rule="nonzero" fill-opacity="1"  clip-path="url(#clip-3)" >
<text style="font:normal 12px &apos;Helvetica Neue&apos;, &apos;Helvetica&apos;, &apos;Arial&apos;, sans-serif;" text-anchor="end" dominant-baseline="middle" transform="matrix(1 0 0 1 77.8 506.8)" 
><tspan x="0" y="0">0</tspan></text></g>
<g stroke="none" fill="#666" fill-rule="nonzero" fill-opacity="1"  clip-path="url(#clip-3)" >
<text style="font:normal 12px &apos;Helvetica Neue&apos;, &apos;Helvetica&apos;, &apos;Arial&apos;, sans-serif;" text-anchor="end" dominant-baseline="middle" transform="matrix(1 0 0 1 77.8 456.725)" 
><tspan x="0" y="0">500</tspan></text></g>
<g stroke="none" fill="#666" fill-rule="nonzero" fill-opacity="1"  clip-path="url(#clip-3)" >
<text style="font:normal 12px &apos;Helvetica Neue&apos;, &apos;Helvetica&apos;, &apos;Arial&apos;, sans-serif;" text-anchor="end" dominant-baseline="middle" transform="matrix(1 0 0 1 77.8 406.65000000000003)" 
><tspan x="0" y="0">1,000</tspan></text></g>
<g stroke="none" fill="#666" fill-rule="nonzero" fill-opacity="1"  clip-path="url(#clip-3)" >
<text style="font:normal 12px &apos;Helvetica Neue&apos;, &apos;Helvetica&apos;, &apos;Arial&apos;, sans-serif;" text-anchor="end" dominant-baseline="middle" transform="matrix(1 0 0 1 77.8 356.575)" 
><tspan x="0" y="0">1,500</tspan></text></g>
<g stroke="none" fill="#666" fill-rule="nonzero" fill-opacity="1"  clip-path="url(#clip-3)" >
<text style="font:normal 12px &apos;Helvetica Neue&apos;, &apos;Helvetica&apos;, &apos;Arial&apos;, sans-serif;" text-anchor="end" dominant-baseline="middle" transform="matrix(1 0 0 1 77.8 306.5)" 
><tspan x="0" y="0">2,000</tspan></text></g>
<g stroke="none" fill="#666" fill-rule="nonzero" fill-opacity="1"  clip-path="url(#clip-3)" >
<text style="font:normal 12px &apos;Helvetica Neue&apos;, &apos;Helvetica&apos;, &apos;Arial&apos;, sans-serif;" text-anchor="end" dominant-baseline="middle" transform="matrix(1 0 0 1 77.8 256.425)" 
><tspan x="0" y="0">2,500</tspan></text></g>
<g stroke="none" fill="#666" fill-rule="nonzero" fill-opacity="1"  clip-path="url(#clip-3)" >
<text style="font:normal 12px &apos;Helvetica Neue&apos;, &apos;Helvetica&apos;, &apos;Arial&apos;, sans-serif;" text-anchor="end" dominant-baseline="middle" transform="matrix(1 0 0 1 77.8 206.35000000000002)" 
><tspan x="0" y="0">3,000</tspan></text></g>
<g stroke="none" fill="#666" fill-rule="nonzero" fill-opacity="1"  clip-path="url(#clip-3)" >
<text style="font:normal 12px &apos;Helvetica Neue&apos;, &apos;Helvetica&apos;, &apos;Arial&apos;, sans-serif;" text-anchor="end" dominant-baseline="middle" transform="matrix(1 0 0 1 77.8 156.275)" 
><tspan x="0" y="0">3,500</tspan></text></g>
<g stroke="none" fill="#666" fill-rule="nonzero" fill-opacity="1"  clip-path="url(#clip-3)" >
<text style="font:normal 12px &apos;Helvetica Neue&apos;, &apos;Helvetica&apos;, &apos;Arial&apos;, sans-serif;" text-anchor="end" dominant-baseline="middle" transform="matrix(1 0 0 1 77.8 106.2)" 
><tspan x="0" y="0">4,000</tspan></text></g>
<g stroke="none" fill="rgb(255,99,132)" fill-rule="evenodd" fill-opacity="1"  clip-path="url(#clip-5)" >
<path d="M 130.764,497.206963 L 130.764,506.55 159.816,506.55 159.816,497.206963 Z M 131.764,498.206963 L 131.764,506.55 158.816,506.55
158.816,498.206963 Z" />
</g>
<g stroke="none" fill="rgb(255,99,132)" fill-rule="nonzero" fill-opacity="1"  clip-path="url(#clip-5)" >
<path d="M 131.764,498.206963 L 131.764,506.55 158.816,506.55 158.816,498.206963 Z" />
</g>
<g stroke="none" fill="rgb(255,99,132)" fill-rule="evenodd" fill-opacity="1"  clip-path="url(#clip-6)" >
<path d="M 211.464,496.64117 L 211.464,506.55 240.516,506.55 240.516,496.64117 Z M 212.464,497.64117 L 212.464,506.55 239.516,506.55
239.516,497.64117 Z" />
</g>
<g stroke="none" fill="rgb(255,99,132)" fill-rule="nonzero" fill-opacity="1"  clip-path="url(#clip-6)" >
<path d="M 212.464,497.64117 L 212.464,506.55 239.516,506.55 239.516,497.64117 Z" />
</g>
<g stroke="none" fill="rgb(255,99,132)" fill-rule="evenodd" fill-opacity="1"  clip-path="url(#clip-7)" >
<path d="M 292.164,496.126653 L 292.164,506.55 321.216,506.55 321.216,496.126653 Z M 293.164,497.126653 L 293.164,506.55 320.216,506.55
320.216,497.126653 Z" />
</g>
<g stroke="none" fill="rgb(255,99,132)" fill-rule="nonzero" fill-opacity="1"  clip-path="url(#clip-7)" >
<path d="M 293.164,497.126653 L 293.164,506.55 320.216,506.55 320.216,497.126653 Z" />
</g>
<g stroke="none" fill="rgb(255,99,132)" fill-rule="evenodd" fill-opacity="1"  clip-path="url(#clip-8)" >
<path d="M 372.864,495.608631 L 372.864,506.55 401.916,506.55 401.916,495.608631 Z M 373.864,496.608631 L 373.864,506.55 400.916,506.55
400.916,496.608631 Z" />
</g>
<g stroke="none" fill="rgb(255,99,132)" fill-rule="nonzero" fill-opacity="1"  clip-path="url(#clip-8)" >
<path d="M 373.864,496.608631 L 373.864,506.55 400.916,506.55 400.916,496.608631 Z" />
</g>
<g stroke="none" fill="rgb(255,99,132)" fill-rule="evenodd" fill-opacity="1"  clip-path="url(#clip-9)" >
<path d="M 453.564,495.545278 L 453.564,506.55 482.616,506.55 482.616,495.545278 Z M 454.564,496.545278 L 454.564,506.55 481.616,506.55
481.616,496.545278 Z" />
</g>
<g stroke="none" fill="rgb(255,99,132)" fill-rule="nonzero" fill-opacity="1"  clip-path="url(#clip-9)" >
<path d="M 454.564,496.545278 L 454.564,506.55 481.616,506.55 481.616,496.545278 Z" />
</g>
<g stroke="none" fill="rgb(255,99,132)" fill-rule="evenodd" fill-opacity="1"  clip-path="url(#clip-10)" >
<path d="M 534.264,494.746577 L 534.264,506.55 563.316,506.55 563.316,494.746577 Z M 535.264,495.746577 L 535.264,506.55 562.316,506.55
562.316,495.746577 Z" />
</g>
<g stroke="none" fill="rgb(255,99,132)" fill-rule="nonzero" fill-opacity="1"  clip-path="url(#clip-10)" >
<path d="M 535.264,495.746577 L 535.264,506.55 562.316,506.55 562.316,495.746577 Z" />
</g>
<g stroke="none" fill="rgb(255,99,132)" fill-rule="evenodd" fill-opacity="1"  clip-path="url(#clip-11)" >
<path d="M 614.964,494.15723 L 614.964,506.55 644.016,506.55 644.016,494.15723 Z M 615.964,495.15723 L 615.964,506.55 643.016,506.55
643.016,495.15723 Z" />
</g>
<g stroke="none" fill="rgb(255,99,132)" fill-rule="nonzero" fill-opacity="1"  clip-path="url(#clip-11)" >
<path d="M 615.964,495.15723 L 615.964,506.55 643.016,506.55 643.016,495.15723 Z" />
</g>
<g stroke="none" fill="rgb(255,99,132)" fill-rule="evenodd" fill-opacity="1"  clip-path="url(#clip-12)" >
<path d="M 695.664,494.1297 L 695.664,506.55 724.716,506.55 724.716,494.1297 Z M 696.664,495.1297 L 696.664,506.55 723.716,506.55
723.716,495.1297 Z" />
</g>
<g stroke="none" fill="rgb(255,99,132)" fill-rule="nonzero" fill-opacity="1"  clip-path="url(#clip-12)" >
<path d="M 696.664,495.1297 L 696.664,506.55 723.716,506.55 723.716,495.1297 Z" />
</g>
<g stroke="none" fill="rgb(255,99,132)" fill-rule="evenodd" fill-opacity="1"  clip-path="url(#clip-13)" >
<path d="M 776.364,492.301011 L 776.364,506.55 805.416,506.55 805.416,492.301011 Z M 777.364,493.301011 L 777.364,506.55 804.416,506.55
804.416,493.301011 Z" />
</g>
<g stroke="none" fill="rgb(255,99,132)" fill-rule="nonzero" fill-opacity="1"  clip-path="url(#clip-13)" >
<path d="M 777.364,493.301011 L 777.364,506.55 804.416,506.55 804.416,493.301011 Z" />
</g>
<g stroke="none" fill="rgb(255,99,132)" fill-rule="evenodd" fill-opacity="1"  clip-path="url(#clip-14)" >
<path d="M 857.064,492.161438 L 857.064,506.55 886.116,506.55 886.116,492.161438 Z M 858.064,493.161438 L 858.064,506.55 885.116,506.55
885.116,493.161438 Z" />
</g>
<g stroke="none" fill="rgb(255,99,132)" fill-rule="nonzero" fill-opacity="1"  clip-path="url(#clip-14)" >
<path d="M 858.064,493.161438 L 858.064,506.55 885.116,506.55 885.116,493.161438 Z" />
</g>
<g stroke="none" fill="rgb(255,99,132)" fill-rule="evenodd" fill-opacity="1"  clip-path="url(#clip-15)" >
<path d="M 937.764,492.030561 L 937.764,506.55 966.816,506.55 966.816,492.030561 Z M 938.764,493.030561 L 938.764,506.55 965.816,506.55
965.816,493.030561 Z" />
</g>
<g stroke="none" fill="rgb(255,99,132)" fill-rule="nonzero" fill-opacity="1"  clip-path="url(#clip-15)" >
<path d="M 938.764,493.030561 L 938.764,506.55 965.816,506.55 965.816,493.030561 Z" />
</g>
<g stroke="none" fill="rgb(255,99,132)" fill-rule="evenodd" fill-opacity="1"  clip-path="url(#clip-16)" >
<path d="M 1018.464,489.924754 L 1018.464,506.55 1047.516,506.55 1047.516,489.924754 Z M 1019.464,490.924754 L 1019.464,506.55 1046.516,506.55
1046.516,490.924754 Z" />
</g>
<g stroke="none" fill="rgb(255,99,132)" fill-rule="nonzero" fill-opacity="1"  clip-path="url(#clip-16)" >
<path d="M 1019.464,490.924754 L 1019.464,506.55 1046.516,506.55 1046.516,490.924754 Z" />
</g>
<g stroke="none" fill="rgb(255,99,132)" fill-rule="evenodd" fill-opacity="1"  clip-path="url(#clip-17)" >
<path d="M 1099.164,488.870386 L 1099.164,506.55 1128.216,506.55 1128.216,488.870386 Z M 1100.164,489.870386 L 1100.164,506.55 1127.216,506.55
1127.216,489.870386 Z" />
</g>
<g stroke="none" fill="rgb(255,99,132)" fill-rule="nonzero" fill-opacity="1"  clip-path="url(#clip-17)" >
<path d="M 1100.164,489.870386 L 1100.164,506.55 1127.216,506.55 1127.216,489.870386 Z" />
</g>
<g stroke="none" fill="rgb(255,99,132)" fill-rule="evenodd" fill-opacity="1"  clip-path="url(#clip-18)" >
<path d="M 1179.864,471.464692 L 1179.864,506.55 1208.916,506.55 1208.916,471.464692 Z M 1180.864,472.464692 L 1180.864,506.55 1207.916,506.55
1207.916,472.464692 Z" />
</g>
<g stroke="none" fill="rgb(255,99,132)" fill-rule="nonzero" fill-opacity="1"  clip-path="url(#clip-18)" >
<path d="M 1180.864,472.464692 L 1180.864,506.55 1207.916,506.55 1207.916,472.464692 Z" />
</g>
<g stroke="none" fill="rgb(255,99,132)" fill-rule="evenodd" fill-opacity="1"  clip-path="url(#clip-19)" >
<path d="M 1260.564,469.495212 L 1260.564,506.55 1289.616,506.55 1289.616,469.495212 Z M 1261.564,470.495212 L 1261.564,506.55 1288.616,506.55
1288.616,470.495212 Z" />
</g>
<g stroke="none" fill="rgb(255,99,132)" fill-rule="nonzero" fill-opacity="1"  clip-path="url(#clip-19)" >
<path d="M 1261.564,470.495212 L 1261.564,506.55 1288.616,506.55 1288.616,470.495212 Z" />
</g>
<g stroke="none" fill="rgb(255,99,132)" fill-rule="evenodd" fill-opacity="1"  clip-path="url(#clip-20)" >
<path d="M 1341.264,150.418496 L 1341.264,506.55 1370.316,506.55 1370.316,150.418496 Z M 1342.264,151.418496 L 1342.264,506.55 1369.316,506.55
1369.316,151.418496 Z" />
</g>
<g stroke="none" fill="rgb(255,99,132)" fill-rule="nonzero" fill-opacity="1"  clip-path="url(#clip-20)" >
<path d="M 1342.264,151.418496 L 1342.264,506.55 1369.316,506.55 1369.316,151.418496 Z" />
</g>
<g stroke="none" fill="rgb(54,162,235)" fill-rule="evenodd" fill-opacity="1"  clip-path="url(#clip-22)" >
<path d="M 98.484,503.009208 L 98.484,506.55 127.536,506.55 127.536,503.009208 Z M 99.484,504.009208 L 99.484,506.55 126.536,506.55
126.536,504.009208 Z" />
</g>
<g stroke="none" fill="rgb(54,162,235)" fill-rule="nonzero" fill-opacity="1"  clip-path="url(#clip-22)" >
<path d="M 99.484,504.009208 L 99.484,506.55 126.536,506.55 126.536,504.009208 Z" />
</g>
<g stroke="none" fill="rgb(54,162,235)" fill-rule="evenodd" fill-opacity="1"  clip-path="url(#clip-23)" >
<path d="M 179.184,503.500291 L 179.184,506.55 208.236,506.55 208.236,503.500291 Z M 180.184,504.500291 L 180.184,506.55 207.236,506.55
207.236,504.500291 Z" />
</g>
<g stroke="none" fill="rgb(54,162,235)" fill-rule="nonzero" fill-opacity="1"  clip-path="url(#clip-23)" >
<path d="M 180.184,504.500291 L 180.184,506.55 207.236,506.55 207.236,504.500291 Z" />
</g>
<g stroke="none" fill="rgb(54,162,235)" fill-rule="evenodd" fill-opacity="1"  clip-path="url(#clip-24)" >
<path d="M 259.884,503.476774 L 259.884,506.55 288.936,506.55 288.936,503.476774 Z M 260.884,504.476774 L 260.884,506.55 287.936,506.55
287.936,504.476774 Z" />
</g>
<g stroke="none" fill="rgb(54,162,235)" fill-rule="nonzero" fill-opacity="1"  clip-path="url(#clip-24)" >
<path d="M 260.884,504.476774 L 260.884,506.55 287.936,506.55 287.936,504.476774 Z" />
</g>
<g stroke="none" fill="rgb(54,162,235)" fill-rule="evenodd" fill-opacity="1"  clip-path="url(#clip-25)" >
<path d="M 340.584,503.693878 L 340.584,506.55 369.636,506.55 369.636,503.693878 Z M 341.584,504.693878 L 341.584,506.55 368.636,506.55
368.636,504.693878 Z" />
</g>
<g stroke="none" fill="rgb(54,162,235)" fill-rule="nonzero" fill-opacity="1"  clip-path="url(#clip-25)" >
<path d="M 341.584,504.693878 L 341.584,506.55 368.636,506.55 368.636,504.693878 Z" />
</g>
<g stroke="none" fill="rgb(54,162,235)" fill-rule="evenodd" fill-opacity="1"  clip-path="url(#clip-26)" >
<path d="M 421.284,503.629516 L 421.284,506.55 450.336,506.55 450.336,503.629516 Z M 422.284,504.629516 L 422.284,506.55 449.336,506.55
449.336,504.629516 Z" />
</g>
<g stroke="none" fill="rgb(54,162,235)" fill-rule="nonzero" fill-opacity="1"  clip-path="url(#clip-26)" >
<path d="M 422.284,504.629516 L 422.284,506.55 449.336,506.55 449.336,504.629516 Z" />
</g>
<g stroke="none" fill="rgb(54,162,235)" fill-rule="evenodd" fill-opacity="1"  clip-path="url(#clip-27)" >
<path d="M 501.984,503.361726 L 501.984,506.55 531.036,506.55 531.036,503.361726 Z M 502.984,504.361726 L 502.984,506.55 530.036,506.55
530.036,504.361726 Z" />
</g>
<g stroke="none" fill="rgb(54,162,235)" fill-rule="nonzero" fill-opacity="1"  clip-path="url(#clip-27)" >
<path d="M 502.984,504.361726 L 502.984,506.55 530.036,506.55 530.036,504.361726 Z" />
</g>
<g stroke="none" fill="rgb(54,162,235)" fill-rule="evenodd" fill-opacity="1"  clip-path="url(#clip-28)" >
<path d="M 582.684,503.104135 L 582.684,506.55 611.736,506.55 611.736,503.104135 Z M 583.684,504.104135 L 583.684,506.55 610.736,506.55
610.736,504.104135 Z" />
</g>
<g stroke="none" fill="rgb(54,162,235)" fill-rule="nonzero" fill-opacity="1"  clip-path="url(#clip-28)" >
<path d="M 583.684,504.104135 L 583.684,506.55 610.736,506.55 610.736,504.104135 Z" />
</g>
<g stroke="none" fill="rgb(54,162,235)" fill-rule="evenodd" fill-opacity="1"  clip-path="url(#clip-29)" >
<path d="M 663.384,503.480758 L 663.384,506.55 692.436,506.55 692.436,503.480758 Z M 664.384,504.480758 L 664.384,506.55 691.436,506.55
691.436,504.480758 Z" />
</g>
<g stroke="none" fill="rgb(54,162,235)" fill-rule="nonzero" fill-opacity="1"  clip-path="url(#clip-29)" >
<path d="M 664.384,504.480758 L 664.384,506.55 691.436,506.55 691.436,504.480758 Z" />
</g>
<g stroke="none" fill="rgb(54,162,235)" fill-rule="evenodd" fill-opacity="1"  clip-path="url(#clip-30)" >
<path d="M 744.084,503.391177 L 744.084,506.55 773.136,506.55 773.136,503.391177 Z M 745.084,504.391177 L 745.084,506.55 772.136,506.55
772.136,504.391177 Z" />
</g>
<g stroke="none" fill="rgb(54,162,235)" fill-rule="nonzero" fill-opacity="1"  clip-path="url(#clip-30)" >
<path d="M 745.084,504.391177 L 745.084,506.55 772.136,506.55 772.136,504.391177 Z" />
</g>
<g stroke="none" fill="rgb(54,162,235)" fill-rule="evenodd" fill-opacity="1"  clip-path="url(#clip-31)" >
<path d="M 824.784,499.116441 L 824.784,506.55 853.836,506.55 853.836,499.116441 Z M 825.784,500.116441 L 825.784,506.55 852.836,506.55
852.836,500.116441 Z" />
</g>
<g stroke="none" fill="rgb(54,162,235)" fill-rule="nonzero" fill-opacity="1"  clip-path="url(#clip-31)" >
<path d="M 825.784,500.116441 L 825.784,506.55 852.836,506.55 852.836,500.116441 Z" />
</g>
<g stroke="none" fill="rgb(54,162,235)" fill-rule="evenodd" fill-opacity="1"  clip-path="url(#clip-32)" >
<path d="M 905.484,501.588715 L 905.484,506.55 934.536,506.55 934.536,501.588715 Z M 906.484,502.588715 L 906.484,506.55 933.536,506.55
933.536,502.588715 Z" />
</g>
<g stroke="none" fill="rgb(54,162,235)" fill-rule="nonzero" fill-opacity="1"  clip-path="url(#clip-32)" >
<path d="M 906.484,502.588715 L 906.484,506.55 933.536,506.55 933.536,502.588715 Z" />
</g>
<g stroke="none" fill="rgb(54,162,235)" fill-rule="evenodd" fill-opacity="1"  clip-path="url(#clip-33)" >
<path d="M 986.184,497.093965 L 986.184,506.55 1015.236,506.55 1015.236,497.093965 Z M 987.184,498.093965 L 987.184,506.55 1014.236,506.55
1014.236,498.093965 Z" />
</g>
<g stroke="none" fill="rgb(54,162,235)" fill-rule="nonzero" fill-opacity="1"  clip-path="url(#clip-33)" >
<path d="M 987.184,498.093965 L 987.184,506.55 1014.236,506.55 1014.236,498.093965 Z" />
</g>
<g stroke="none" fill="rgb(54,162,235)" fill-rule="evenodd" fill-opacity="1"  clip-path="url(#clip-34)" >
<path d="M 1066.884,503.432669 L 1066.884,506.55 1095.936,506.55 1095.936,503.432669 Z M 1067.884,504.432669 L 1067.884,506.55 1094.936,506.55
1094.936,504.432669 Z" />
</g>
<g stroke="none" fill="rgb(54,162,235)" fill-rule="nonzero" fill-opacity="1"  clip-path="url(#clip-34)" >
<path d="M 1067.884,504.432669 L 1067.884,506.55 1094.936,506.55 1094.936,504.432669 Z" />
</g>
<g stroke="none" fill="rgb(54,162,235)" fill-rule="evenodd" fill-opacity="1"  clip-path="url(#clip-35)" >
<path d="M 1147.584,500.858712 L 1147.584,506.55 1176.636,506.55 1176.636,500.858712 Z M 1148.584,501.858712 L 1148.584,506.55 1175.636,506.55
1175.636,501.858712 Z" />
</g>
<g stroke="none" fill="rgb(54,162,235)" fill-rule="nonzero" fill-opacity="1"  clip-path="url(#clip-35)" >
<path d="M 1148.584,501.858712 L 1148.584,506.55 1175.636,506.55 1175.636,501.858712 Z" />
</g>
<g stroke="none" fill="rgb(54,162,235)" fill-rule="evenodd" fill-opacity="1"  clip-path="url(#clip-36)" >
<path d="M 1228.284,501.652033 L 1228.284,506.55 1257.336,506.55 1257.336,501.652033 Z M 1229.284,502.652033 L 1229.284,506.55 1256.336,506.55
1256.336,502.652033 Z" />
</g>
<g stroke="none" fill="rgb(54,162,235)" fill-rule="nonzero" fill-opacity="1"  clip-path="url(#clip-36)" >
<path d="M 1229.284,502.652033 L 1229.284,506.55 1256.336,506.55 1256.336,502.652033 Z" />
</g>
<g stroke="none" fill="rgb(54,162,235)" fill-rule="evenodd" fill-opacity="1"  clip-path="url(#clip-37)" >
<path d="M 1308.984,493.717313 L 1308.984,506.55 1338.036,506.55 1338.036,493.717313 Z M 1309.984,494.717313 L 1309.984,506.55 1337.036,506.55
1337.036,494.717313 Z" />
</g>
<g stroke="none" fill="rgb(54,162,235)" fill-rule="nonzero" fill-opacity="1"  clip-path="url(#clip-37)" >
<path d="M 1309.984,494.717313 L 1309.984,506.55 1337.036,506.55 1337.036,494.717313 Z" />
</g>
</svg>