<svg width="1200" height="600" xmlns="http://www.w3.org/2000/svg" style="background: white;">
  <text x="600" y="30" text-anchor="middle" font-size="20" font-weight="bold" font-family="Arial, sans-serif">Zsh Plugin Manager Load Time Comparison</text>
  
  <!-- Grid lines -->
  <line x1="80" y1="480" x2="1080" y2="480" stroke="#e0e0e0" stroke-width="1"/>
  <text x="70" y="485" text-anchor="end" font-size="12" font-family="Arial, sans-serif">0</text>
  <line x1="80" y1="394" x2="1080" y2="394" stroke="#e0e0e0" stroke-width="1"/>
  <text x="70" y="399" text-anchor="end" font-size="12" font-family="Arial, sans-serif">180</text>
  <line x1="80" y1="308" x2="1080" y2="308" stroke="#e0e0e0" stroke-width="1"/>
  <text x="70" y="313" text-anchor="end" font-size="12" font-family="Arial, sans-serif">360</text>
  <line x1="80" y1="222" x2="1080" y2="222" stroke="#e0e0e0" stroke-width="1"/>
  <text x="70" y="227" text-anchor="end" font-size="12" font-family="Arial, sans-serif">539</text>
  <line x1="80" y1="136" x2="1080" y2="136" stroke="#e0e0e0" stroke-width="1"/>
  <text x="70" y="141" text-anchor="end" font-size="12" font-family="Arial, sans-serif">719</text>
  <line x1="80" y1="50" x2="1080" y2="50" stroke="#e0e0e0" stroke-width="1"/>
  <text x="70" y="55" text-anchor="end" font-size="12" font-family="Arial, sans-serif">899</text>
  
  <!-- Axes -->
  <line x1="80" y1="50" x2="80" y2="480" stroke="black" stroke-width="2"/>
  <line x1="80" y1="480" x2="1080" y2="480" stroke="black" stroke-width="2"/>
  
  <!-- Y-axis label -->
  <text x="20" y="300" text-anchor="middle" font-size="14" font-family="Arial, sans-serif" transform="rotate(-90 20 300)">Time (ms)</text>
  <rect x="77.5" y="465.2623913394649" width="20" height="14.73760866053511" fill="#4ECDC4" opacity="0.8"/>
  <text x="87.5" y="460.2623913394649" text-anchor="middle" font-size="10" font-family="Arial, sans-serif">30.8</text>
  <line x1="87.5" y1="464.0770614959142" x2="87.5" y2="466.4477211830156" stroke="black" stroke-width="1"/>
  <line x1="84.5" y1="464.0770614959142" x2="90.5" y2="464.0770614959142" stroke="black" stroke-width="1"/>
  <line x1="84.5" y1="466.4477211830156" x2="90.5" y2="466.4477211830156" stroke="black" stroke-width="1"/>
  <text x="100" y="500" text-anchor="middle" font-size="12" font-family="Arial, sans-serif" transform="rotate(-45 100 500)">vanilla</text>
  <rect x="137.5" y="465.4054763620654" width="20" height="14.594523637934614" fill="#4ECDC4" opacity="0.8"/>
  <text x="147.5" y="460.4054763620654" text-anchor="middle" font-size="10" font-family="Arial, sans-serif">30.5</text>
  <line x1="147.5" y1="465.25513067670715" x2="147.5" y2="465.5558220474236" stroke="black" stroke-width="1"/>
  <line x1="144.5" y1="465.25513067670715" x2="150.5" y2="465.25513067670715" stroke="black" stroke-width="1"/>
  <line x1="144.5" y1="465.5558220474236" x2="150.5" y2="465.5558220474236" stroke="black" stroke-width="1"/>
  <rect x="162.5" y="459.2466994654612" width="20" height="20.753300534538845" fill="#98D8C8" opacity="0.8"/>
  <text x="172.5" y="454.2466994654612" text-anchor="middle" font-size="10" font-family="Arial, sans-serif">43.4</text>
  <line x1="172.5" y1="459.1126376459562" x2="172.5" y2="459.3807612849661" stroke="black" stroke-width="1"/>
  <line x1="169.5" y1="459.1126376459562" x2="175.5" y2="459.1126376459562" stroke="black" stroke-width="1"/>
  <line x1="169.5" y1="459.3807612849661" x2="175.5" y2="459.3807612849661" stroke="black" stroke-width="1"/>
  <text x="160" y="500" text-anchor="middle" font-size="12" font-family="Arial, sans-serif" transform="rotate(-45 160 500)">zgenom</text>
  <rect x="197.5" y="463.46608706179796" width="20" height="16.533912938202025" fill="#4ECDC4" opacity="0.8"/>
  <text x="207.5" y="458.46608706179796" text-anchor="middle" font-size="10" font-family="Arial, sans-serif">34.6</text>
  <line x1="207.5" y1="463.3230322995683" x2="207.5" y2="463.60914182402763" stroke="black" stroke-width="1"/>
  <line x1="204.5" y1="463.3230322995683" x2="210.5" y2="463.3230322995683" stroke="black" stroke-width="1"/>
  <line x1="204.5" y1="463.60914182402763" x2="210.5" y2="463.60914182402763" stroke="black" stroke-width="1"/>
  <rect x="222.5" y="435.658130151864" width="20" height="44.34186984813602" fill="#98D8C8" opacity="0.8"/>
  <text x="232.5" y="430.658130151864" text-anchor="middle" font-size="10" font-family="Arial, sans-serif">92.7</text>
  <line x1="232.5" y1="435.2902498162206" x2="232.5" y2="436.0260104875074" stroke="black" stroke-width="1"/>
  <line x1="229.5" y1="435.2902498162206" x2="235.5" y2="435.2902498162206" stroke="black" stroke-width="1"/>
  <line x1="229.5" y1="436.0260104875074" x2="235.5" y2="436.0260104875074" stroke="black" stroke-width="1"/>
  <text x="220" y="500" text-anchor="middle" font-size="12" font-family="Arial, sans-serif" transform="rotate(-45 220 500)">zim</text>
  <rect x="257.5" y="464.2967258955468" width="20" height="15.703274104453197" fill="#4ECDC4" opacity="0.8"/>
  <text x="267.5" y="459.2967258955468" text-anchor="middle" font-size="10" font-family="Arial, sans-serif">32.8</text>
  <line x1="267.5" y1="463.095797893015" x2="267.5" y2="465.49765389807857" stroke="black" stroke-width="1"/>
  <line x1="264.5" y1="463.095797893015" x2="270.5" y2="463.095797893015" stroke="black" stroke-width="1"/>
  <line x1="264.5" y1="465.49765389807857" x2="270.5" y2="465.49765389807857" stroke="black" stroke-width="1"/>
  <rect x="282.5" y="430.3651726734869" width="20" height="49.634827326513125" fill="#98D8C8" opacity="0.8"/>
  <text x="292.5" y="425.3651726734869" text-anchor="middle" font-size="10" font-family="Arial, sans-serif">103.8</text>
  <line x1="292.5" y1="429.725784055285" x2="292.5" y2="431.0045612916888" stroke="black" stroke-width="1"/>
  <line x1="289.5" y1="429.725784055285" x2="295.5" y2="429.725784055285" stroke="black" stroke-width="1"/>
  <line x1="289.5" y1="431.0045612916888" x2="295.5" y2="431.0045612916888" stroke="black" stroke-width="1"/>
  <text x="280" y="500" text-anchor="middle" font-size="12" font-family="Arial, sans-serif" transform="rotate(-45 280 500)">antigen</text>
  <rect x="317.5" y="464.5778926734727" width="20" height="15.422107326527302" fill="#4ECDC4" opacity="0.8"/>
  <text x="327.5" y="459.5778926734727" text-anchor="middle" font-size="10" font-family="Arial, sans-serif">32.2</text>
  <line x1="327.5" y1="464.45113390910706" x2="327.5" y2="464.7046514378384" stroke="black" stroke-width="1"/>
  <line x1="324.5" y1="464.45113390910706" x2="330.5" y2="464.45113390910706" stroke="black" stroke-width="1"/>
  <line x1="324.5" y1="464.7046514378384" x2="330.5" y2="464.7046514378384" stroke="black" stroke-width="1"/>
  <rect x="342.5" y="430.0879996152705" width="20" height="49.91200038472949" fill="#98D8C8" opacity="0.8"/>
  <text x="352.5" y="425.0879996152705" text-anchor="middle" font-size="10" font-family="Arial, sans-serif">104.3</text>
  <line x1="352.5" y1="428.32650299007054" x2="352.5" y2="431.8494962404705" stroke="black" stroke-width="1"/>
  <line x1="349.5" y1="428.32650299007054" x2="355.5" y2="428.32650299007054" stroke="black" stroke-width="1"/>
  <line x1="349.5" y1="431.8494962404705" x2="355.5" y2="431.8494962404705" stroke="black" stroke-width="1"/>
  <text x="340" y="500" text-anchor="middle" font-size="12" font-family="Arial, sans-serif" transform="rotate(-45 340 500)">zcomet</text>
  <rect x="377.5" y="465.1211867189806" width="20" height="14.878813281019381" fill="#4ECDC4" opacity="0.8"/>
  <text x="387.5" y="460.1211867189806" text-anchor="middle" font-size="10" font-family="Arial, sans-serif">31.1</text>
  <line x1="387.5" y1="464.9728298076255" x2="387.5" y2="465.2695436303357" stroke="black" stroke-width="1"/>
  <line x1="384.5" y1="464.9728298076255" x2="390.5" y2="464.9728298076255" stroke="black" stroke-width="1"/>
  <line x1="384.5" y1="465.2695436303357" x2="390.5" y2="465.2695436303357" stroke="black" stroke-width="1"/>
  <rect x="402.5" y="427.46891981704385" width="20" height="52.531080182956124" fill="#98D8C8" opacity="0.8"/>
  <text x="412.5" y="422.46891981704385" text-anchor="middle" font-size="10" font-family="Arial, sans-serif">109.8</text>
  <line x1="412.5" y1="426.9233977071266" x2="412.5" y2="428.0144419269611" stroke="black" stroke-width="1"/>
  <line x1="409.5" y1="426.9233977071266" x2="415.5" y2="426.9233977071266" stroke="black" stroke-width="1"/>
  <line x1="409.5" y1="428.0144419269611" x2="415.5" y2="428.0144419269611" stroke="black" stroke-width="1"/>
  <text x="400" y="500" text-anchor="middle" font-size="12" font-family="Arial, sans-serif" transform="rotate(-45 400 500)">antigen-hs</text>
  <rect x="437.5" y="465.6933419762556" width="20" height="14.3066580237444" fill="#4ECDC4" opacity="0.8"/>
  <text x="447.5" y="460.6933419762556" text-anchor="middle" font-size="10" font-family="Arial, sans-serif">29.9</text>
  <line x1="447.5" y1="465.53422079575967" x2="447.5" y2="465.8524631567516" stroke="black" stroke-width="1"/>
  <line x1="444.5" y1="465.53422079575967" x2="450.5" y2="465.53422079575967" stroke="black" stroke-width="1"/>
  <line x1="444.5" y1="465.8524631567516" x2="450.5" y2="465.8524631567516" stroke="black" stroke-width="1"/>
  <rect x="462.5" y="426.94643491424017" width="20" height="53.05356508575981" fill="#98D8C8" opacity="0.8"/>
  <text x="472.5" y="421.94643491424017" text-anchor="middle" font-size="10" font-family="Arial, sans-serif">110.9</text>
  <line x1="472.5" y1="426.6396478013798" x2="472.5" y2="427.25322202710055" stroke="black" stroke-width="1"/>
  <line x1="469.5" y1="426.6396478013798" x2="475.5" y2="426.6396478013798" stroke="black" stroke-width="1"/>
  <line x1="469.5" y1="427.25322202710055" x2="475.5" y2="427.25322202710055" stroke="black" stroke-width="1"/>
  <text x="460" y="500" text-anchor="middle" font-size="12" font-family="Arial, sans-serif" transform="rotate(-45 460 500)">alf</text>
  <rect x="497.5" y="465.19019355485614" width="20" height="14.809806445143874" fill="#4ECDC4" opacity="0.8"/>
  <text x="507.5" y="460.19019355485614" text-anchor="middle" font-size="10" font-family="Arial, sans-serif">31.0</text>
  <line x1="507.5" y1="465.04287494758904" x2="507.5" y2="465.33751216212323" stroke="black" stroke-width="1"/>
  <line x1="504.5" y1="465.04287494758904" x2="510.5" y2="465.04287494758904" stroke="black" stroke-width="1"/>
  <line x1="504.5" y1="465.33751216212323" x2="510.5" y2="465.33751216212323" stroke="black" stroke-width="1"/>
  <rect x="522.5" y="426.7797096021834" width="20" height="53.220290397816605" fill="#98D8C8" opacity="0.8"/>
  <text x="532.5" y="421.7797096021834" text-anchor="middle" font-size="10" font-family="Arial, sans-serif">111.3</text>
  <line x1="532.5" y1="426.42290517096455" x2="532.5" y2="427.13651403340225" stroke="black" stroke-width="1"/>
  <line x1="529.5" y1="426.42290517096455" x2="535.5" y2="426.42290517096455" stroke="black" stroke-width="1"/>
  <line x1="529.5" y1="427.13651403340225" x2="535.5" y2="427.13651403340225" stroke="black" stroke-width="1"/>
  <text x="520" y="500" text-anchor="middle" font-size="12" font-family="Arial, sans-serif" transform="rotate(-45 520 500)">zr</text>
  <rect x="557.5" y="464.36320660214517" width="20" height="15.63679339785483" fill="#4ECDC4" opacity="0.8"/>
  <text x="567.5" y="459.36320660214517" text-anchor="middle" font-size="10" font-family="Arial, sans-serif">32.7</text>
  <line x1="567.5" y1="464.10554255292567" x2="567.5" y2="464.62087065136467" stroke="black" stroke-width="1"/>
  <line x1="564.5" y1="464.10554255292567" x2="570.5" y2="464.10554255292567" stroke="black" stroke-width="1"/>
  <line x1="564.5" y1="464.62087065136467" x2="570.5" y2="464.62087065136467" stroke="black" stroke-width="1"/>
  <rect x="582.5" y="426.63152382726855" width="20" height="53.36847617273148" fill="#98D8C8" opacity="0.8"/>
  <text x="592.5" y="421.63152382726855" text-anchor="middle" font-size="10" font-family="Arial, sans-serif">111.6</text>
  <line x1="592.5" y1="426.37540941265564" x2="592.5" y2="426.88763824188146" stroke="black" stroke-width="1"/>
  <line x1="589.5" y1="426.37540941265564" x2="595.5" y2="426.37540941265564" stroke="black" stroke-width="1"/>
  <line x1="589.5" y1="426.88763824188146" x2="595.5" y2="426.88763824188146" stroke="black" stroke-width="1"/>
  <text x="580" y="500" text-anchor="middle" font-size="12" font-family="Arial, sans-serif" transform="rotate(-45 580 500)">sheldon</text>
  <rect x="617.5" y="463.57558616342635" width="20" height="16.42441383657364" fill="#4ECDC4" opacity="0.8"/>
  <text x="627.5" y="458.57558616342635" text-anchor="middle" font-size="10" font-family="Arial, sans-serif">34.3</text>
  <line x1="627.5" y1="463.46238951717277" x2="627.5" y2="463.68878280967994" stroke="black" stroke-width="1"/>
  <line x1="624.5" y1="463.46238951717277" x2="630.5" y2="463.46238951717277" stroke="black" stroke-width="1"/>
  <line x1="624.5" y1="463.68878280967994" x2="630.5" y2="463.68878280967994" stroke="black" stroke-width="1"/>
  <rect x="642.5" y="422.9403185932284" width="20" height="57.059681406771546" fill="#98D8C8" opacity="0.8"/>
  <text x="652.5" y="417.9403185932284" text-anchor="middle" font-size="10" font-family="Arial, sans-serif">119.3</text>
  <line x1="652.5" y1="420.9226113009343" x2="652.5" y2="424.95802588552255" stroke="black" stroke-width="1"/>
  <line x1="649.5" y1="420.9226113009343" x2="655.5" y2="420.9226113009343" stroke="black" stroke-width="1"/>
  <line x1="649.5" y1="424.95802588552255" x2="655.5" y2="424.95802588552255" stroke="black" stroke-width="1"/>
  <text x="640" y="500" text-anchor="middle" font-size="12" font-family="Arial, sans-serif" transform="rotate(-45 640 500)">antidote</text>
  <rect x="677.5" y="464.46629436657145" width="20" height="15.533705633428552" fill="#4ECDC4" opacity="0.8"/>
  <text x="687.5" y="459.46629436657145" text-anchor="middle" font-size="10" font-family="Arial, sans-serif">32.5</text>
  <line x1="687.5" y1="464.21006892329075" x2="687.5" y2="464.72251980985214" stroke="black" stroke-width="1"/>
  <line x1="684.5" y1="464.21006892329075" x2="690.5" y2="464.21006892329075" stroke="black" stroke-width="1"/>
  <line x1="684.5" y1="464.72251980985214" x2="690.5" y2="464.72251980985214" stroke="black" stroke-width="1"/>
  <rect x="702.5" y="413.9906006680374" width="20" height="66.00939933196257" fill="#98D8C8" opacity="0.8"/>
  <text x="712.5" y="408.9906006680374" text-anchor="middle" font-size="10" font-family="Arial, sans-serif">138.0</text>
  <line x1="712.5" y1="411.591180841885" x2="712.5" y2="416.39002049418986" stroke="black" stroke-width="1"/>
  <line x1="709.5" y1="411.591180841885" x2="715.5" y2="411.591180841885" stroke="black" stroke-width="1"/>
  <line x1="709.5" y1="416.39002049418986" x2="715.5" y2="416.39002049418986" stroke="black" stroke-width="1"/>
  <text x="700" y="500" text-anchor="middle" font-size="12" font-family="Arial, sans-serif" transform="rotate(-45 700 500)">znap</text>
  <rect x="737.5" y="445.2223312541837" width="20" height="34.77766874581628" fill="#4ECDC4" opacity="0.8"/>
  <text x="747.5" y="440.2223312541837" text-anchor="middle" font-size="10" font-family="Arial, sans-serif">72.7</text>
  <line x1="747.5" y1="444.9377649059848" x2="747.5" y2="445.5068976023826" stroke="black" stroke-width="1"/>
  <line x1="744.5" y1="444.9377649059848" x2="750.5" y2="444.9377649059848" stroke="black" stroke-width="1"/>
  <line x1="744.5" y1="445.5068976023826" x2="750.5" y2="445.5068976023826" stroke="black" stroke-width="1"/>
  <rect x="762.5" y="413.46580886009093" width="20" height="66.53419113990905" fill="#98D8C8" opacity="0.8"/>
  <text x="772.5" y="408.46580886009093" text-anchor="middle" font-size="10" font-family="Arial, sans-serif">139.1</text>
  <line x1="772.5" y1="411.69455792553515" x2="772.5" y2="415.2370597946467" stroke="black" stroke-width="1"/>
  <line x1="769.5" y1="411.69455792553515" x2="775.5" y2="411.69455792553515" stroke="black" stroke-width="1"/>
  <line x1="769.5" y1="415.2370597946467" x2="775.5" y2="415.2370597946467" stroke="black" stroke-width="1"/>
  <text x="760" y="500" text-anchor="middle" font-size="12" font-family="Arial, sans-serif" transform="rotate(-45 760 500)">prezto</text>
  <rect x="797.5" y="437.06678553924536" width="20" height="42.93321446075462" fill="#4ECDC4" opacity="0.8"/>
  <text x="807.5" y="432.06678553924536" text-anchor="middle" font-size="10" font-family="Arial, sans-serif">89.7</text>
  <line x1="807.5" y1="436.5104756545025" x2="807.5" y2="437.6230954239882" stroke="black" stroke-width="1"/>
  <line x1="804.5" y1="436.5104756545025" x2="810.5" y2="436.5104756545025" stroke="black" stroke-width="1"/>
  <line x1="804.5" y1="437.6230954239882" x2="810.5" y2="437.6230954239882" stroke="black" stroke-width="1"/>
  <rect x="822.5" y="404.60329840652184" width="20" height="75.39670159347813" fill="#98D8C8" opacity="0.8"/>
  <text x="832.5" y="399.60329840652184" text-anchor="middle" font-size="10" font-family="Arial, sans-serif">157.6</text>
  <line x1="832.5" y1="404.05521442078447" x2="832.5" y2="405.1513823922592" stroke="black" stroke-width="1"/>
  <line x1="829.5" y1="404.05521442078447" x2="835.5" y2="404.05521442078447" stroke="black" stroke-width="1"/>
  <line x1="829.5" y1="405.1513823922592" x2="835.5" y2="405.1513823922592" stroke="black" stroke-width="1"/>
  <text x="820" y="500" text-anchor="middle" font-size="12" font-family="Arial, sans-serif" transform="rotate(-45 820 500)">oh-my-zsh</text>
  <rect x="857.5" y="464.4703441289365" width="20" height="15.52965587106347" fill="#4ECDC4" opacity="0.8"/>
  <text x="867.5" y="459.4703441289365" text-anchor="middle" font-size="10" font-family="Arial, sans-serif">32.5</text>
  <line x1="867.5" y1="464.07391750852724" x2="867.5" y2="464.8667707493458" stroke="black" stroke-width="1"/>
  <line x1="864.5" y1="464.07391750852724" x2="870.5" y2="464.07391750852724" stroke="black" stroke-width="1"/>
  <line x1="864.5" y1="464.8667707493458" x2="870.5" y2="464.8667707493458" stroke="black" stroke-width="1"/>
  <rect x="882.5" y="400.91248404548725" width="20" height="79.08751595451277" fill="#98D8C8" opacity="0.8"/>
  <text x="892.5" y="395.91248404548725" text-anchor="middle" font-size="10" font-family="Arial, sans-serif">165.3</text>
  <line x1="892.5" y1="399.44389484300154" x2="892.5" y2="402.38107324797295" stroke="black" stroke-width="1"/>
  <line x1="889.5" y1="399.44389484300154" x2="895.5" y2="399.44389484300154" stroke="black" stroke-width="1"/>
  <line x1="889.5" y1="402.38107324797295" x2="895.5" y2="402.38107324797295" stroke="black" stroke-width="1"/>
  <text x="880" y="500" text-anchor="middle" font-size="12" font-family="Arial, sans-serif" transform="rotate(-45 880 500)">antibody</text>
  <rect x="917.5" y="454.2139391245597" width="20" height="25.78606087544028" fill="#4ECDC4" opacity="0.8"/>
  <text x="927.5" y="449.2139391245597" text-anchor="middle" font-size="10" font-family="Arial, sans-serif">53.9</text>
  <line x1="927.5" y1="452.5480936516807" x2="927.5" y2="455.87978459743874" stroke="black" stroke-width="1"/>
  <line x1="924.5" y1="452.5480936516807" x2="930.5" y2="452.5480936516807" stroke="black" stroke-width="1"/>
  <line x1="924.5" y1="455.87978459743874" x2="930.5" y2="455.87978459743874" stroke="black" stroke-width="1"/>
  <rect x="942.5" y="317.44720074485406" width="20" height="162.55279925514594" fill="#98D8C8" opacity="0.8"/>
  <text x="952.5" y="312.44720074485406" text-anchor="middle" font-size="10" font-family="Arial, sans-serif">339.8</text>
  <line x1="952.5" y1="316.06466675054406" x2="952.5" y2="318.82973473916405" stroke="black" stroke-width="1"/>
  <line x1="949.5" y1="316.06466675054406" x2="955.5" y2="316.06466675054406" stroke="black" stroke-width="1"/>
  <line x1="949.5" y1="318.82973473916405" x2="955.5" y2="318.82973473916405" stroke="black" stroke-width="1"/>
  <text x="940" y="500" text-anchor="middle" font-size="12" font-family="Arial, sans-serif" transform="rotate(-45 940 500)">zpm</text>
  <rect x="977.5" y="456.6073170133188" width="20" height="23.392682986681237" fill="#4ECDC4" opacity="0.8"/>
  <text x="987.5" y="451.6073170133188" text-anchor="middle" font-size="10" font-family="Arial, sans-serif">48.9</text>
  <line x1="987.5" y1="456.06050168041276" x2="987.5" y2="457.1541323462248" stroke="black" stroke-width="1"/>
  <line x1="984.5" y1="456.06050168041276" x2="990.5" y2="456.06050168041276" stroke="black" stroke-width="1"/>
  <line x1="984.5" y1="457.1541323462248" x2="990.5" y2="457.1541323462248" stroke="black" stroke-width="1"/>
  <rect x="1002.5" y="308.6901560821653" width="20" height="171.3098439178347" fill="#98D8C8" opacity="0.8"/>
  <text x="1012.5" y="303.6901560821653" text-anchor="middle" font-size="10" font-family="Arial, sans-serif">358.1</text>
  <line x1="1012.5" y1="306.7440737866848" x2="1012.5" y2="310.6362383776458" stroke="black" stroke-width="1"/>
  <line x1="1009.5" y1="306.7440737866848" x2="1015.5" y2="306.7440737866848" stroke="black" stroke-width="1"/>
  <line x1="1009.5" y1="310.6362383776458" x2="1015.5" y2="310.6362383776458" stroke="black" stroke-width="1"/>
  <text x="1000" y="500" text-anchor="middle" font-size="12" font-family="Arial, sans-serif" transform="rotate(-45 1000 500)">zinit</text>
  <rect x="1037.5" y="424.73785308253036" width="20" height="55.26214691746964" fill="#4ECDC4" opacity="0.8"/>
  <text x="1047.5" y="419.73785308253036" text-anchor="middle" font-size="10" font-family="Arial, sans-serif">115.5</text>
  <line x1="1047.5" y1="423.5404206823185" x2="1047.5" y2="425.93528548274224" stroke="black" stroke-width="1"/>
  <line x1="1044.5" y1="423.5404206823185" x2="1050.5" y2="423.5404206823185" stroke="black" stroke-width="1"/>
  <line x1="1044.5" y1="425.93528548274224" x2="1050.5" y2="425.93528548274224" stroke="black" stroke-width="1"/>
  <rect x="1062.5" y="61.55479451102866" width="20" height="418.44520548897134" fill="#98D8C8" opacity="0.8"/>
  <text x="1072.5" y="56.55479451102866" text-anchor="middle" font-size="10" font-family="Arial, sans-serif">874.7</text>
  <line x1="1072.5" y1="50.000000000000014" x2="1072.5" y2="73.1095890220573" stroke="black" stroke-width="1"/>
  <line x1="1069.5" y1="50.000000000000014" x2="1075.5" y2="50.000000000000014" stroke="black" stroke-width="1"/>
  <line x1="1069.5" y1="73.1095890220573" x2="1075.5" y2="73.1095890220573" stroke="black" stroke-width="1"/>
  <text x="1060" y="500" text-anchor="middle" font-size="12" font-family="Arial, sans-serif" transform="rotate(-45 1060 500)">zplug</text>
  <!-- Legend -->
  <rect x="1090" y="60" width="15" height="15" fill="#4ECDC4" opacity="0.8"/>
  <text x="1110" y="72" font-size="12" font-family="Arial, sans-serif">0 plugins</text>
  <rect x="1090" y="80" width="15" height="15" fill="#98D8C8" opacity="0.8"/>
  <text x="1110" y="92" font-size="12" font-family="Arial, sans-serif">25 plugins</text>
</svg>