<svg xmlns="http://www.w3.org/2000/svg" xmlns:xlink="http://www.w3.org/1999/xlink" version="1.1" width="1400px" height="600px" viewBox="0 0 1400 600">
<defs>
<clipPath id="clip-1" fill-rule="nonzero" ><path d="M 20,69.2 L 20,106.2 1380,106.2 1380,69.2 Z" /></clipPath>
<clipPath id="clip-2" fill-rule="nonzero" ><path d="M 0,506.8 L 0,560 1400,560 1400,506.8 Z" /></clipPath>
<clipPath id="clip-3" fill-rule="nonzero" ><path d="M 20,0 L 20,600 88.8,600 88.8,0 Z" /></clipPath>
<clipPath id="clip-4" fill-rule="nonzero" ><path d="M 88.8,106.2 L 88.8,506.8 1380,506.8 1380,106.2 Z" /></clipPath>
<clipPath id="clip-5" fill-rule="nonzero" ><path d="M 130.764,502.764835 L 130.764,506.55 159.816,506.55 159.816,502.764835 Z" /></clipPath>
<clipPath id="clip-6" fill-rule="nonzero" ><path d="M 211.464,503.357129 L 211.464,506.55 240.516,506.55 240.516,503.357129 Z" /></clipPath>
<clipPath id="clip-7" fill-rule="nonzero" ><path d="M 292.164,503.180543 L 292.164,506.55 321.216,506.55 321.216,503.180543 Z" /></clipPath>
<clipPath id="clip-8" fill-rule="nonzero" ><path d="M 372.864,503.388799 L 372.864,506.55 401.916,506.55 401.916,503.388799 Z" /></clipPath>
<clipPath id="clip-9" fill-rule="nonzero" ><path d="M 453.564,503.299866 L 453.564,506.55 482.616,506.55 482.616,503.299866 Z" /></clipPath>
<clipPath id="clip-10" fill-rule="nonzero" ><path d="M 534.264,503.227193 L 534.264,506.55 563.316,506.55 563.316,503.227193 Z" /></clipPath>
<clipPath id="clip-11" fill-rule="nonzero" ><path d="M 614.964,503.150776 L 614.964,506.55 644.016,506.55 644.016,503.150776 Z" /></clipPath>
<clipPath id="clip-12" fill-rule="nonzero" ><path d="M 695.664,502.64686 L 695.664,506.55 724.716,506.55 724.716,502.64686 Z" /></clipPath>
<clipPath id="clip-13" fill-rule="nonzero" ><path d="M 776.364,498.41367 L 776.364,506.55 805.416,506.55 805.416,498.41367 Z" /></clipPath>
<clipPath id="clip-14" fill-rule="nonzero" ><path d="M 857.064,502.989288 L 857.064,506.55 886.116,506.55 886.116,502.989288 Z" /></clipPath>
<clipPath id="clip-15" fill-rule="nonzero" ><path d="M 937.764,503.19606 L 937.764,506.55 966.816,506.55 966.816,503.19606 Z" /></clipPath>
<clipPath id="clip-16" fill-rule="nonzero" ><path d="M 1018.464,496.219081 L 1018.464,506.55 1047.516,506.55 1047.516,496.219081 Z" /></clipPath>
<clipPath id="clip-17" fill-rule="nonzero" ><path d="M 1099.164,501.403002 L 1099.164,506.55 1128.216,506.55 1128.216,501.403002 Z" /></clipPath>
<clipPath id="clip-18" fill-rule="nonzero" ><path d="M 1179.864,500.425461 L 1179.864,506.55 1208.916,506.55 1208.916,500.425461 Z" /></clipPath>
<clipPath id="clip-19" fill-rule="nonzero" ><path d="M 1260.564,501.463975 L 1260.564,506.55 1289.616,506.55 1289.616,501.463975 Z" /></clipPath>
<clipPath id="clip-20" fill-rule="nonzero" ><path d="M 1341.264,493.002172 L 1341.264,506.55 1370.316,506.55 1370.316,493.002172 Z" /></clipPath>
<clipPath id="clip-21" fill-rule="nonzero" ><path d="M 88.8,106.2 L 88.8,506.8 1380,506.8 1380,106.2 Z" /></clipPath>
<clipPath id="clip-22" fill-rule="nonzero" ><path d="M 98.484,495.916941 L 98.484,506.55 127.536,506.55 127.536,495.916941 Z" /></clipPath>
<clipPath id="clip-23" fill-rule="nonzero" ><path d="M 179.184,495.837115 L 179.184,506.55 208.236,506.55 208.236,495.837115 Z" /></clipPath>
<clipPath id="clip-24" fill-rule="nonzero" ><path d="M 259.884,495.265032 L 259.884,506.55 288.936,506.55 288.936,495.265032 Z" /></clipPath>
<clipPath id="clip-25" fill-rule="nonzero" ><path d="M 340.584,494.208348 L 340.584,506.55 369.636,506.55 369.636,494.208348 Z" /></clipPath>
<clipPath id="clip-26" fill-rule="nonzero" ><path d="M 421.284,493.730309 L 421.284,506.55 450.336,506.55 450.336,493.730309 Z" /></clipPath>
<clipPath id="clip-27" fill-rule="nonzero" ><path d="M 501.984,493.399257 L 501.984,506.55 531.036,506.55 531.036,493.399257 Z" /></clipPath>
<clipPath id="clip-28" fill-rule="nonzero" ><path d="M 582.684,492.990134 L 582.684,506.55 611.736,506.55 611.736,492.990134 Z" /></clipPath>
<clipPath id="clip-29" fill-rule="nonzero" ><path d="M 663.384,492.520098 L 663.384,506.55 692.436,506.55 692.436,492.520098 Z" /></clipPath>
<clipPath id="clip-30" fill-rule="nonzero" ><path d="M 744.084,490.591936 L 744.084,506.55 773.136,506.55 773.136,490.591936 Z" /></clipPath>
<clipPath id="clip-31" fill-rule="nonzero" ><path d="M 824.784,490.505819 L 824.784,506.55 853.836,506.55 853.836,490.505819 Z" /></clipPath>
<clipPath id="clip-32" fill-rule="nonzero" ><path d="M 905.484,488.278244 L 905.484,506.55 934.536,506.55 934.536,488.278244 Z" /></clipPath>
<clipPath id="clip-33" fill-rule="nonzero" ><path d="M 986.184,488.243679 L 986.184,506.55 1015.236,506.55 1015.236,488.243679 Z" /></clipPath>
<clipPath id="clip-34" fill-rule="nonzero" ><path d="M 1066.884,482.720932 L 1066.884,506.55 1095.936,506.55 1095.936,482.720932 Z" /></clipPath>
<clipPath id="clip-35" fill-rule="nonzero" ><path d="M 1147.584,466.922188 L 1147.584,506.55 1176.636,506.55 1176.636,466.922188 Z" /></clipPath>
<clipPath id="clip-36" fill-rule="nonzero" ><path d="M 1228.284,466.261747 L 1228.284,506.55 1257.336,506.55 1257.336,466.261747 Z" /></clipPath>
<clipPath id="clip-37" fill-rule="nonzero" ><path d="M 1308.984,114.129463 L 1308.984,506.55 1338.036,506.55 1338.036,114.129463 Z" /></clipPath></defs>
<g stroke="none" fill="transparent" fill-rule="nonzero" fill-opacity="1" >
<rect x="0" y="0" width="1400" height="600" transform="matrix(1 0 0 1 0 0)" /></g>
<g stroke="none" fill="#666" fill-rule="nonzero" fill-opacity="1" >
<text style="font:normal bold 14px &apos;Helvetica Neue&apos;, &apos;Helvetica&apos;, &apos;Arial&apos;, sans-serif;" text-anchor="middle" dominant-baseline="middle" transform="matrix(1 0 0 1 734.4 547.6)" 
><tspan x="0" y="0">Plugin Manager</tspan></text></g>
<g stroke="#e0e0e0" stroke-width="0.5" stroke-linecap="butt" stroke-linejoin="miter" stroke-miterlimit="4" stroke-opacity="1" fill="none">
<path d="M 89,506.5 L 1380,506.5" />
</g>
<g stroke="#e0e0e0" stroke-width="0.5" stroke-linecap="butt" stroke-linejoin="miter" stroke-miterlimit="4" stroke-opacity="1" fill="none">
<path d="M 80.8,506.5 L 88,506.5" />
</g>
<g stroke="#e0e0e0" stroke-width="0.5" stroke-linecap="butt" stroke-linejoin="miter" stroke-miterlimit="4" stroke-opacity="1" fill="none">
<path d="M 89,449.5 L 1380,449.5" />
</g>
<g stroke="#e0e0e0" stroke-width="0.5" stroke-linecap="butt" stroke-linejoin="miter" stroke-miterlimit="4" stroke-opacity="1" fill="none">
<path d="M 80.8,449.5 L 88,449.5" />
</g>
<g stroke="#e0e0e0" stroke-width="0.5" stroke-linecap="butt" stroke-linejoin="miter" stroke-miterlimit="4" stroke-opacity="1" fill="none">
<path d="M 89,392.5 L 1380,392.5" />
</g>
<g stroke="#e0e0e0" stroke-width="0.5" stroke-linecap="butt" stroke-linejoin="miter" stroke-miterlimit="4" stroke-opacity="1" fill="none">
<path d="M 80.8,392.5 L 88,392.5" />
</g>
<g stroke="#e0e0e0" stroke-width="0.5" stroke-linecap="butt" stroke-linejoin="miter" stroke-miterlimit="4" stroke-opacity="1" fill="none">
<path d="M 89,335.5 L 1380,335.5" />
</g>
<g stroke="#e0e0e0" stroke-width="0.5" stroke-linecap="butt" stroke-linejoin="miter" stroke-miterlimit="4" stroke-opacity="1" fill="none">
<path d="M 80.8,335.5 L 88,335.5" />
</g>
<g stroke="#e0e0e0" stroke-width="0.5" stroke-linecap="butt" stroke-linejoin="miter" stroke-miterlimit="4" stroke-opacity="1" fill="none">
<path d="M 89,277.5 L 1380,277.5" />
</g>
<g stroke="#e0e0e0" stroke-width="0.5" stroke-linecap="butt" stroke-linejoin="miter" stroke-miterlimit="4" stroke-opacity="1" fill="none">
<path d="M 80.8,277.5 L 88,277.5" />
</g>
<g stroke="#e0e0e0" stroke-width="0.5" stroke-linecap="butt" stroke-linejoin="miter" stroke-miterlimit="4" stroke-opacity="1" fill="none">
<path d="M 89,220.5 L 1380,220.5" />
</g>
<g stroke="#e0e0e0" stroke-width="0.5" stroke-linecap="butt" stroke-linejoin="miter" stroke-miterlimit="4" stroke-opacity="1" fill="none">
<path d="M 80.8,220.5 L 88,220.5" />
</g>
<g stroke="#e0e0e0" stroke-width="0.5" stroke-linecap="butt" stroke-linejoin="miter" stroke-miterlimit="4" stroke-opacity="1" fill="none">
<path d="M 89,163.5 L 1380,163.5" />
</g>
<g stroke="#e0e0e0" stroke-width="0.5" stroke-linecap="butt" stroke-linejoin="miter" stroke-miterlimit="4" stroke-opacity="1" fill="none">
<path d="M 80.8,163.5 L 88,163.5" />
</g>
<g stroke="#e0e0e0" stroke-width="0.5" stroke-linecap="butt" stroke-linejoin="miter" stroke-miterlimit="4" stroke-opacity="1" fill="none">
<path d="M 89,106.5 L 1380,106.5" />
</g>
<g stroke="#e0e0e0" stroke-width="0.5" stroke-linecap="butt" stroke-linejoin="miter" stroke-miterlimit="4" stroke-opacity="1" fill="none">
<path d="M 80.8,106.5 L 88,106.5" />
</g>
<g stroke="none" fill="#666" fill-rule="nonzero" fill-opacity="1" >
<text style="font:normal bold 14px &apos;Helvetica Neue&apos;, &apos;Helvetica&apos;, &apos;Arial&apos;, sans-serif;" text-anchor="middle" dominant-baseline="middle" transform="matrix(6.123233995736766e-17 -1 1 6.123233995736766e-17 32.4 306.5)" 
><tspan x="0" y="0">Load Time (ms)</tspan></text></g>
<g stroke="none" fill="rgb(255,99,132)" fill-rule="nonzero" fill-opacity="0.8"  clip-path="url(#clip-1)" >
<path d="M 576.5,84.2 L 576.5,96.2 596.5,96.2 596.5,84.2 Z" />
</g>
<g stroke="rgb(255,99,132)" stroke-width="2" stroke-linecap="butt" stroke-linejoin="miter" stroke-miterlimit="4" stroke-opacity="1" fill="none" clip-path="url(#clip-1)" >
<path d="M 576.5,84.2 L 576.5,96.2 596.5,96.2 596.5,84.2 Z" />
</g>
<g stroke="none" fill="#666" fill-rule="nonzero" fill-opacity="1"  clip-path="url(#clip-1)" >
<text style="font:normal 12px &apos;Helvetica Neue&apos;, &apos;Helvetica&apos;, &apos;Arial&apos;, sans-serif;" text-anchor="start" dominant-baseline="middle" transform="matrix(1 0 0 1 0 0)" 
><tspan x="602.5" y="90.2">25 plugins</tspan></text></g>
<g stroke="none" fill="rgb(54,162,235)" fill-rule="nonzero" fill-opacity="0.9"  clip-path="url(#clip-1)" >
<path d="M 677.5,84.2 L 677.5,96.2 697.5,96.2 697.5,84.2 Z" />
</g>
<g stroke="rgb(54,162,235)" stroke-width="2" stroke-linecap="butt" stroke-linejoin="miter" stroke-miterlimit="4" stroke-opacity="1" fill="none" clip-path="url(#clip-1)" >
<path d="M 677.5,84.2 L 677.5,96.2 697.5,96.2 697.5,84.2 Z" />
</g>
<g stroke="none" fill="#666" fill-rule="nonzero" fill-opacity="1"  clip-path="url(#clip-1)" >
<text style="font:normal 12px &apos;Helvetica Neue&apos;, &apos;Helvetica&apos;, &apos;Arial&apos;, sans-serif;" text-anchor="start" dominant-baseline="middle" transform="matrix(1 0 0 1 0 0)" 
><tspan x="703.5" y="90.2">0 plugins (baseline)</tspan></text></g>
<g stroke="none" fill="#666" fill-rule="nonzero" fill-opacity="1" >
<text style="font:normal bold 16px &apos;Helvetica Neue&apos;, &apos;Helvetica&apos;, &apos;Arial&apos;, sans-serif;" text-anchor="middle" dominant-baseline="middle" transform="matrix(1 0 0 1 700 39.6)" 
><tspan x="0" y="0">Zsh Plugin Manager Load Time Comparison</tspan></text></g>
<g stroke="rgb(0,0,0)" stroke-width="1" stroke-linecap="butt" stroke-linejoin="miter" stroke-miterlimit="4" stroke-opacity="0.1" fill="none">
<path d="M 88,506.5 L 1381,506.5" />
</g>
<g stroke="none" fill="#666" fill-rule="nonzero" fill-opacity="1"  clip-path="url(#clip-2)" >
<text style="font:normal 12px &apos;Helvetica Neue&apos;, &apos;Helvetica&apos;, &apos;Arial&apos;, sans-serif;" text-anchor="middle" dominant-baseline="middle" transform="matrix(1 0 0 1 129.15 517.8)" 
><tspan x="0" y="7.199999999999999">zim</tspan></text></g>
<g stroke="none" fill="#666" fill-rule="nonzero" fill-opacity="1"  clip-path="url(#clip-2)" >
<text style="font:normal 12px &apos;Helvetica Neue&apos;, &apos;Helvetica&apos;, &apos;Arial&apos;, sans-serif;" text-anchor="middle" dominant-baseline="middle" transform="matrix(1 0 0 1 209.85000000000002 517.8)" 
><tspan x="0" y="7.199999999999999">zgenom</tspan></text></g>
<g stroke="none" fill="#666" fill-rule="nonzero" fill-opacity="1"  clip-path="url(#clip-2)" >
<text style="font:normal 12px &apos;Helvetica Neue&apos;, &apos;Helvetica&apos;, &apos;Arial&apos;, sans-serif;" text-anchor="middle" dominant-baseline="middle" transform="matrix(1 0 0 1 290.55 517.8)" 
><tspan x="0" y="7.199999999999999">antigen</tspan></text></g>
<g stroke="none" fill="#666" fill-rule="nonzero" fill-opacity="1"  clip-path="url(#clip-2)" >
<text style="font:normal 12px &apos;Helvetica Neue&apos;, &apos;Helvetica&apos;, &apos;Arial&apos;, sans-serif;" text-anchor="middle" dominant-baseline="middle" transform="matrix(1 0 0 1 371.25 517.8)" 
><tspan x="0" y="7.199999999999999">alf</tspan></text></g>
<g stroke="none" fill="#666" fill-rule="nonzero" fill-opacity="1"  clip-path="url(#clip-2)" >
<text style="font:normal 12px &apos;Helvetica Neue&apos;, &apos;Helvetica&apos;, &apos;Arial&apos;, sans-serif;" text-anchor="middle" dominant-baseline="middle" transform="matrix(1 0 0 1 451.95000000000005 517.8)" 
><tspan x="0" y="7.199999999999999">antigen-hs</tspan></text></g>
<g stroke="none" fill="#666" fill-rule="nonzero" fill-opacity="1"  clip-path="url(#clip-2)" >
<text style="font:normal 12px &apos;Helvetica Neue&apos;, &apos;Helvetica&apos;, &apos;Arial&apos;, sans-serif;" text-anchor="middle" dominant-baseline="middle" transform="matrix(1 0 0 1 532.65 517.8)" 
><tspan x="0" y="7.199999999999999">zr</tspan></text></g>
<g stroke="none" fill="#666" fill-rule="nonzero" fill-opacity="1"  clip-path="url(#clip-2)" >
<text style="font:normal 12px &apos;Helvetica Neue&apos;, &apos;Helvetica&apos;, &apos;Arial&apos;, sans-serif;" text-anchor="middle" dominant-baseline="middle" transform="matrix(1 0 0 1 613.35 517.8)" 
><tspan x="0" y="7.199999999999999">sheldon</tspan></text></g>
<g stroke="none" fill="#666" fill-rule="nonzero" fill-opacity="1"  clip-path="url(#clip-2)" >
<text style="font:normal 12px &apos;Helvetica Neue&apos;, &apos;Helvetica&apos;, &apos;Arial&apos;, sans-serif;" text-anchor="middle" dominant-baseline="middle" transform="matrix(1 0 0 1 694.05 517.8)" 
><tspan x="0" y="7.199999999999999">antidote</tspan></text></g>
<g stroke="none" fill="#666" fill-rule="nonzero" fill-opacity="1"  clip-path="url(#clip-2)" >
<text style="font:normal 12px &apos;Helvetica Neue&apos;, &apos;Helvetica&apos;, &apos;Arial&apos;, sans-serif;" text-anchor="middle" dominant-baseline="middle" transform="matrix(1 0 0 1 774.75 517.8)" 
><tspan x="0" y="7.199999999999999">prezto</tspan></text></g>
<g stroke="none" fill="#666" fill-rule="nonzero" fill-opacity="1"  clip-path="url(#clip-2)" >
<text style="font:normal 12px &apos;Helvetica Neue&apos;, &apos;Helvetica&apos;, &apos;Arial&apos;, sans-serif;" text-anchor="middle" dominant-baseline="middle" transform="matrix(1 0 0 1 855.4499999999999 517.8)" 
><tspan x="0" y="7.199999999999999">znap</tspan></text></g>
<g stroke="none" fill="#666" fill-rule="nonzero" fill-opacity="1"  clip-path="url(#clip-2)" >
<text style="font:normal 12px &apos;Helvetica Neue&apos;, &apos;Helvetica&apos;, &apos;Arial&apos;, sans-serif;" text-anchor="middle" dominant-baseline="middle" transform="matrix(1 0 0 1 936.15 517.8)" 
><tspan x="0" y="7.199999999999999">antibody</tspan></text></g>
<g stroke="none" fill="#666" fill-rule="nonzero" fill-opacity="1"  clip-path="url(#clip-2)" >
<text style="font:normal 12px &apos;Helvetica Neue&apos;, &apos;Helvetica&apos;, &apos;Arial&apos;, sans-serif;" text-anchor="middle" dominant-baseline="middle" transform="matrix(1 0 0 1 1016.85 517.8)" 
><tspan x="0" y="7.199999999999999">oh-my-zsh</tspan></text></g>
<g stroke="none" fill="#666" fill-rule="nonzero" fill-opacity="1"  clip-path="url(#clip-2)" >
<text style="font:normal 12px &apos;Helvetica Neue&apos;, &apos;Helvetica&apos;, &apos;Arial&apos;, sans-serif;" text-anchor="middle" dominant-baseline="middle" transform="matrix(1 0 0 1 1097.55 517.8)" 
><tspan x="0" y="7.199999999999999">zcomet</tspan></text></g>
<g stroke="none" fill="#666" fill-rule="nonzero" fill-opacity="1"  clip-path="url(#clip-2)" >
<text style="font:normal 12px &apos;Helvetica Neue&apos;, &apos;Helvetica&apos;, &apos;Arial&apos;, sans-serif;" text-anchor="middle" dominant-baseline="middle" transform="matrix(1 0 0 1 1178.25 517.8)" 
><tspan x="0" y="7.199999999999999">zpm</tspan></text></g>
<g stroke="none" fill="#666" fill-rule="nonzero" fill-opacity="1"  clip-path="url(#clip-2)" >
<text style="font:normal 12px &apos;Helvetica Neue&apos;, &apos;Helvetica&apos;, &apos;Arial&apos;, sans-serif;" text-anchor="middle" dominant-baseline="middle" transform="matrix(1 0 0 1 1258.95 517.8)" 
><tspan x="0" y="7.199999999999999">zinit</tspan></text></g>
<g stroke="none" fill="#666" fill-rule="nonzero" fill-opacity="1"  clip-path="url(#clip-2)" >
<text style="font:normal 12px &apos;Helvetica Neue&apos;, &apos;Helvetica&apos;, &apos;Arial&apos;, sans-serif;" text-anchor="middle" dominant-baseline="middle" transform="matrix(1 0 0 1 1339.65 517.8)" 
><tspan x="0" y="7.199999999999999">zplug</tspan></text></g>
<g stroke="rgb(0,0,0)" stroke-width="1" stroke-linecap="butt" stroke-linejoin="miter" stroke-miterlimit="4" stroke-opacity="0.1" fill="none">
<path d="M 88.5,106 L 88.5,506.75" />
</g>
<g stroke="none" fill="#666" fill-rule="nonzero" fill-opacity="1"  clip-path="url(#clip-3)" >
<text style="font:normal 12px &apos;Helvetica Neue&apos;, &apos;Helvetica&apos;, &apos;Arial&apos;, sans-serif;" text-anchor="end" dominant-baseline="middle" transform="matrix(1 0 0 1 77.8 506.8)" 
><tspan x="0" y="0">0</tspan></text></g>
<g stroke="none" fill="#666" fill-rule="nonzero" fill-opacity="1"  clip-path="url(#clip-3)" >
<text style="font:normal 12px &apos;Helvetica Neue&apos;, &apos;Helvetica&apos;, &apos;Arial&apos;, sans-serif;" text-anchor="end" dominant-baseline="middle" transform="matrix(1 0 0 1 77.8 449.5714285714286)" 
><tspan x="0" y="0">500</tspan></text></g>
<g stroke="none" fill="#666" fill-rule="nonzero" fill-opacity="1"  clip-path="url(#clip-3)" >
<text style="font:normal 12px &apos;Helvetica Neue&apos;, &apos;Helvetica&apos;, &apos;Arial&apos;, sans-serif;" text-anchor="end" dominant-baseline="middle" transform="matrix(1 0 0 1 77.8 392.34285714285716)" 
><tspan x="0" y="0">1,000</tspan></text></g>
<g stroke="none" fill="#666" fill-rule="nonzero" fill-opacity="1"  clip-path="url(#clip-3)" >
<text style="font:normal 12px &apos;Helvetica Neue&apos;, &apos;Helvetica&apos;, &apos;Arial&apos;, sans-serif;" text-anchor="end" dominant-baseline="middle" transform="matrix(1 0 0 1 77.8 335.1142857142857)" 
><tspan x="0" y="0">1,500</tspan></text></g>
<g stroke="none" fill="#666" fill-rule="nonzero" fill-opacity="1"  clip-path="url(#clip-3)" >
<text style="font:normal 12px &apos;Helvetica Neue&apos;, &apos;Helvetica&apos;, &apos;Arial&apos;, sans-serif;" text-anchor="end" dominant-baseline="middle" transform="matrix(1 0 0 1 77.8 277.8857142857143)" 
><tspan x="0" y="0">2,000</tspan></text></g>
<g stroke="none" fill="#666" fill-rule="nonzero" fill-opacity="1"  clip-path="url(#clip-3)" >
<text style="font:normal 12px &apos;Helvetica Neue&apos;, &apos;Helvetica&apos;, &apos;Arial&apos;, sans-serif;" text-anchor="end" dominant-baseline="middle" transform="matrix(1 0 0 1 77.8 220.65714285714284)" 
><tspan x="0" y="0">2,500</tspan></text></g>
<g stroke="none" fill="#666" fill-rule="nonzero" fill-opacity="1"  clip-path="url(#clip-3)" >
<text style="font:normal 12px &apos;Helvetica Neue&apos;, &apos;Helvetica&apos;, &apos;Arial&apos;, sans-serif;" text-anchor="end" dominant-baseline="middle" transform="matrix(1 0 0 1 77.8 163.42857142857144)" 
><tspan x="0" y="0">3,000</tspan></text></g>
<g stroke="none" fill="#666" fill-rule="nonzero" fill-opacity="1"  clip-path="url(#clip-3)" >
<text style="font:normal 12px &apos;Helvetica Neue&apos;, &apos;Helvetica&apos;, &apos;Arial&apos;, sans-serif;" text-anchor="end" dominant-baseline="middle" transform="matrix(1 0 0 1 77.8 106.2)" 
><tspan x="0" y="0">3,500</tspan></text></g>
<g stroke="none" fill="rgb(54,162,235)" fill-rule="evenodd" fill-opacity="1"  clip-path="url(#clip-5)" >
<path d="M 130.764,502.764835 L 130.764,506.55 159.816,506.55 159.816,502.764835 Z M 132.764,504.657418 L 132.764,506.55 157.816,506.55
157.816,504.657418 Z" />
</g>
<g stroke="none" fill="rgb(54,162,235)" fill-rule="nonzero" fill-opacity="0.9"  clip-path="url(#clip-5)" >
<path d="M 132.764,504.657418 L 132.764,506.55 157.816,506.55 157.816,504.657418 Z" />
</g>
<g stroke="none" fill="rgb(54,162,235)" fill-rule="evenodd" fill-opacity="1"  clip-path="url(#clip-6)" >
<path d="M 211.464,503.357129 L 211.464,506.55 240.516,506.55 240.516,503.357129 Z M 213.464,504.953565 L 213.464,506.55 238.516,506.55
238.516,504.953565 Z" />
</g>
<g stroke="none" fill="rgb(54,162,235)" fill-rule="nonzero" fill-opacity="0.9"  clip-path="url(#clip-6)" >
<path d="M 213.464,504.953565 L 213.464,506.55 238.516,506.55 238.516,504.953565 Z" />
</g>
<g stroke="none" fill="rgb(54,162,235)" fill-rule="evenodd" fill-opacity="1"  clip-path="url(#clip-7)" >
<path d="M 292.164,503.180543 L 292.164,506.55 321.216,506.55 321.216,503.180543 Z M 294.164,504.865272 L 294.164,506.55 319.216,506.55
319.216,504.865272 Z" />
</g>
<g stroke="none" fill="rgb(54,162,235)" fill-rule="nonzero" fill-opacity="0.9"  clip-path="url(#clip-7)" >
<path d="M 294.164,504.865272 L 294.164,506.55 319.216,506.55 319.216,504.865272 Z" />
</g>
<g stroke="none" fill="rgb(54,162,235)" fill-rule="evenodd" fill-opacity="1"  clip-path="url(#clip-8)" >
<path d="M 372.864,503.388799 L 372.864,506.55 401.916,506.55 401.916,503.388799 Z M 374.864,504.9694 L 374.864,506.55 399.916,506.55
399.916,504.9694 Z" />
</g>
<g stroke="none" fill="rgb(54,162,235)" fill-rule="nonzero" fill-opacity="0.9"  clip-path="url(#clip-8)" >
<path d="M 374.864,504.9694 L 374.864,506.55 399.916,506.55 399.916,504.9694 Z" />
</g>
<g stroke="none" fill="rgb(54,162,235)" fill-rule="evenodd" fill-opacity="1"  clip-path="url(#clip-9)" >
<path d="M 453.564,503.299866 L 453.564,506.55 482.616,506.55 482.616,503.299866 Z M 455.564,504.924933 L 455.564,506.55 480.616,506.55
480.616,504.924933 Z" />
</g>
<g stroke="none" fill="rgb(54,162,235)" fill-rule="nonzero" fill-opacity="0.9"  clip-path="url(#clip-9)" >
<path d="M 455.564,504.924933 L 455.564,506.55 480.616,506.55 480.616,504.924933 Z" />
</g>
<g stroke="none" fill="rgb(54,162,235)" fill-rule="evenodd" fill-opacity="1"  clip-path="url(#clip-10)" >
<path d="M 534.264,503.227193 L 534.264,506.55 563.316,506.55 563.316,503.227193 Z M 536.264,504.888596 L 536.264,506.55 561.316,506.55
561.316,504.888596 Z" />
</g>
<g stroke="none" fill="rgb(54,162,235)" fill-rule="nonzero" fill-opacity="0.9"  clip-path="url(#clip-10)" >
<path d="M 536.264,504.888596 L 536.264,506.55 561.316,506.55 561.316,504.888596 Z" />
</g>
<g stroke="none" fill="rgb(54,162,235)" fill-rule="evenodd" fill-opacity="1"  clip-path="url(#clip-11)" >
<path d="M 614.964,503.150776 L 614.964,506.55 644.016,506.55 644.016,503.150776 Z M 616.964,504.850388 L 616.964,506.55 642.016,506.55
642.016,504.850388 Z" />
</g>
<g stroke="none" fill="rgb(54,162,235)" fill-rule="nonzero" fill-opacity="0.9"  clip-path="url(#clip-11)" >
<path d="M 616.964,504.850388 L 616.964,506.55 642.016,506.55 642.016,504.850388 Z" />
</g>
<g stroke="none" fill="rgb(54,162,235)" fill-rule="evenodd" fill-opacity="1"  clip-path="url(#clip-12)" >
<path d="M 695.664,502.64686 L 695.664,506.55 724.716,506.55 724.716,502.64686 Z M 697.664,504.59843 L 697.664,506.55 722.716,506.55
722.716,504.59843 Z" />
</g>
<g stroke="none" fill="rgb(54,162,235)" fill-rule="nonzero" fill-opacity="0.9"  clip-path="url(#clip-12)" >
<path d="M 697.664,504.59843 L 697.664,506.55 722.716,506.55 722.716,504.59843 Z" />
</g>
<g stroke="none" fill="rgb(54,162,235)" fill-rule="evenodd" fill-opacity="1"  clip-path="url(#clip-13)" >
<path d="M 776.364,498.41367 L 776.364,506.55 805.416,506.55 805.416,498.41367 Z M 778.364,500.41367 L 778.364,506.55 803.416,506.55
803.416,500.41367 Z" />
</g>
<g stroke="none" fill="rgb(54,162,235)" fill-rule="nonzero" fill-opacity="0.9"  clip-path="url(#clip-13)" >
<path d="M 778.364,500.41367 L 778.364,506.55 803.416,506.55 803.416,500.41367 Z" />
</g>
<g stroke="none" fill="rgb(54,162,235)" fill-rule="evenodd" fill-opacity="1"  clip-path="url(#clip-14)" >
<path d="M 857.064,502.989288 L 857.064,506.55 886.116,506.55 886.116,502.989288 Z M 859.064,504.769644 L 859.064,506.55 884.116,506.55
884.116,504.769644 Z" />
</g>
<g stroke="none" fill="rgb(54,162,235)" fill-rule="nonzero" fill-opacity="0.9"  clip-path="url(#clip-14)" >
<path d="M 859.064,504.769644 L 859.064,506.55 884.116,506.55 884.116,504.769644 Z" />
</g>
<g stroke="none" fill="rgb(54,162,235)" fill-rule="evenodd" fill-opacity="1"  clip-path="url(#clip-15)" >
<path d="M 937.764,503.19606 L 937.764,506.55 966.816,506.55 966.816,503.19606 Z M 939.764,504.87303 L 939.764,506.55 964.816,506.55
964.816,504.87303 Z" />
</g>
<g stroke="none" fill="rgb(54,162,235)" fill-rule="nonzero" fill-opacity="0.9"  clip-path="url(#clip-15)" >
<path d="M 939.764,504.87303 L 939.764,506.55 964.816,506.55 964.816,504.87303 Z" />
</g>
<g stroke="none" fill="rgb(54,162,235)" fill-rule="evenodd" fill-opacity="1"  clip-path="url(#clip-16)" >
<path d="M 1018.464,496.219081 L 1018.464,506.55 1047.516,506.55 1047.516,496.219081 Z M 1020.464,498.219081 L 1020.464,506.55 1045.516,506.55
1045.516,498.219081 Z" />
</g>
<g stroke="none" fill="rgb(54,162,235)" fill-rule="nonzero" fill-opacity="0.9"  clip-path="url(#clip-16)" >
<path d="M 1020.464,498.219081 L 1020.464,506.55 1045.516,506.55 1045.516,498.219081 Z" />
</g>
<g stroke="none" fill="rgb(54,162,235)" fill-rule="evenodd" fill-opacity="1"  clip-path="url(#clip-17)" >
<path d="M 1099.164,501.403002 L 1099.164,506.55 1128.216,506.55 1128.216,501.403002 Z M 1101.164,503.403002 L 1101.164,506.55 1126.216,506.55
1126.216,503.403002 Z" />
</g>
<g stroke="none" fill="rgb(54,162,235)" fill-rule="nonzero" fill-opacity="0.9"  clip-path="url(#clip-17)" >
<path d="M 1101.164,503.403002 L 1101.164,506.55 1126.216,506.55 1126.216,503.403002 Z" />
</g>
<g stroke="none" fill="rgb(54,162,235)" fill-rule="evenodd" fill-opacity="1"  clip-path="url(#clip-18)" >
<path d="M 1179.864,500.425461 L 1179.864,506.55 1208.916,506.55 1208.916,500.425461 Z M 1181.864,502.425461 L 1181.864,506.55 1206.916,506.55
1206.916,502.425461 Z" />
</g>
<g stroke="none" fill="rgb(54,162,235)" fill-rule="nonzero" fill-opacity="0.9"  clip-path="url(#clip-18)" >
<path d="M 1181.864,502.425461 L 1181.864,506.55 1206.916,506.55 1206.916,502.425461 Z" />
</g>
<g stroke="none" fill="rgb(54,162,235)" fill-rule="evenodd" fill-opacity="1"  clip-path="url(#clip-19)" >
<path d="M 1260.564,501.463975 L 1260.564,506.55 1289.616,506.55 1289.616,501.463975 Z M 1262.564,503.463975 L 1262.564,506.55 1287.616,506.55
1287.616,503.463975 Z" />
</g>
<g stroke="none" fill="rgb(54,162,235)" fill-rule="nonzero" fill-opacity="0.9"  clip-path="url(#clip-19)" >
<path d="M 1262.564,503.463975 L 1262.564,506.55 1287.616,506.55 1287.616,503.463975 Z" />
</g>
<g stroke="none" fill="rgb(54,162,235)" fill-rule="evenodd" fill-opacity="1"  clip-path="url(#clip-20)" >
<path d="M 1341.264,493.002172 L 1341.264,506.55 1370.316,506.55 1370.316,493.002172 Z M 1343.264,495.002172 L 1343.264,506.55 1368.316,506.55
1368.316,495.002172 Z" />
</g>
<g stroke="none" fill="rgb(54,162,235)" fill-rule="nonzero" fill-opacity="0.9"  clip-path="url(#clip-20)" >
<path d="M 1343.264,495.002172 L 1343.264,506.55 1368.316,506.55 1368.316,495.002172 Z" />
</g>
<g stroke="none" fill="rgb(255,99,132)" fill-rule="evenodd" fill-opacity="1"  clip-path="url(#clip-22)" >
<path d="M 98.484,495.916941 L 98.484,506.55 127.536,506.55 127.536,495.916941 Z M 100.484,497.916941 L 100.484,506.55 125.536,506.55
125.536,497.916941 Z" />
</g>
<g stroke="none" fill="rgb(255,99,132)" fill-rule="nonzero" fill-opacity="0.8"  clip-path="url(#clip-22)" >
<path d="M 100.484,497.916941 L 100.484,506.55 125.536,506.55 125.536,497.916941 Z" />
</g>
<g stroke="none" fill="rgb(255,99,132)" fill-rule="evenodd" fill-opacity="1"  clip-path="url(#clip-23)" >
<path d="M 179.184,495.837115 L 179.184,506.55 208.236,506.55 208.236,495.837115 Z M 181.184,497.837115 L 181.184,506.55 206.236,506.55
206.236,497.837115 Z" />
</g>
<g stroke="none" fill="rgb(255,99,132)" fill-rule="nonzero" fill-opacity="0.8"  clip-path="url(#clip-23)" >
<path d="M 181.184,497.837115 L 181.184,506.55 206.236,506.55 206.236,497.837115 Z" />
</g>
<g stroke="none" fill="rgb(255,99,132)" fill-rule="evenodd" fill-opacity="1"  clip-path="url(#clip-24)" >
<path d="M 259.884,495.265032 L 259.884,506.55 288.936,506.55 288.936,495.265032 Z M 261.884,497.265032 L 261.884,506.55 286.936,506.55
286.936,497.265032 Z" />
</g>
<g stroke="none" fill="rgb(255,99,132)" fill-rule="nonzero" fill-opacity="0.8"  clip-path="url(#clip-24)" >
<path d="M 261.884,497.265032 L 261.884,506.55 286.936,506.55 286.936,497.265032 Z" />
</g>
<g stroke="none" fill="rgb(255,99,132)" fill-rule="evenodd" fill-opacity="1"  clip-path="url(#clip-25)" >
<path d="M 340.584,494.208348 L 340.584,506.55 369.636,506.55 369.636,494.208348 Z M 342.584,496.208348 L 342.584,506.55 367.636,506.55
367.636,496.208348 Z" />
</g>
<g stroke="none" fill="rgb(255,99,132)" fill-rule="nonzero" fill-opacity="0.8"  clip-path="url(#clip-25)" >
<path d="M 342.584,496.208348 L 342.584,506.55 367.636,506.55 367.636,496.208348 Z" />
</g>
<g stroke="none" fill="rgb(255,99,132)" fill-rule="evenodd" fill-opacity="1"  clip-path="url(#clip-26)" >
<path d="M 421.284,493.730309 L 421.284,506.55 450.336,506.55 450.336,493.730309 Z M 423.284,495.730309 L 423.284,506.55 448.336,506.55
448.336,495.730309 Z" />
</g>
<g stroke="none" fill="rgb(255,99,132)" fill-rule="nonzero" fill-opacity="0.8"  clip-path="url(#clip-26)" >
<path d="M 423.284,495.730309 L 423.284,506.55 448.336,506.55 448.336,495.730309 Z" />
</g>
<g stroke="none" fill="rgb(255,99,132)" fill-rule="evenodd" fill-opacity="1"  clip-path="url(#clip-27)" >
<path d="M 501.984,493.399257 L 501.984,506.55 531.036,506.55 531.036,493.399257 Z M 503.984,495.399257 L 503.984,506.55 529.036,506.55
529.036,495.399257 Z" />
</g>
<g stroke="none" fill="rgb(255,99,132)" fill-rule="nonzero" fill-opacity="0.8"  clip-path="url(#clip-27)" >
<path d="M 503.984,495.399257 L 503.984,506.55 529.036,506.55 529.036,495.399257 Z" />
</g>
<g stroke="none" fill="rgb(255,99,132)" fill-rule="evenodd" fill-opacity="1"  clip-path="url(#clip-28)" >
<path d="M 582.684,492.990134 L 582.684,506.55 611.736,506.55 611.736,492.990134 Z M 584.684,494.990134 L 584.684,506.55 609.736,506.55
609.736,494.990134 Z" />
</g>
<g stroke="none" fill="rgb(255,99,132)" fill-rule="nonzero" fill-opacity="0.8"  clip-path="url(#clip-28)" >
<path d="M 584.684,494.990134 L 584.684,506.55 609.736,506.55 609.736,494.990134 Z" />
</g>
<g stroke="none" fill="rgb(255,99,132)" fill-rule="evenodd" fill-opacity="1"  clip-path="url(#clip-29)" >
<path d="M 663.384,492.520098 L 663.384,506.55 692.436,506.55 692.436,492.520098 Z M 665.384,494.520098 L 665.384,506.55 690.436,506.55
690.436,494.520098 Z" />
</g>
<g stroke="none" fill="rgb(255,99,132)" fill-rule="nonzero" fill-opacity="0.8"  clip-path="url(#clip-29)" >
<path d="M 665.384,494.520098 L 665.384,506.55 690.436,506.55 690.436,494.520098 Z" />
</g>
<g stroke="none" fill="rgb(255,99,132)" fill-rule="evenodd" fill-opacity="1"  clip-path="url(#clip-30)" >
<path d="M 744.084,490.591936 L 744.084,506.55 773.136,506.55 773.136,490.591936 Z M 746.084,492.591936 L 746.084,506.55 771.136,506.55
771.136,492.591936 Z" />
</g>
<g stroke="none" fill="rgb(255,99,132)" fill-rule="nonzero" fill-opacity="0.8"  clip-path="url(#clip-30)" >
<path d="M 746.084,492.591936 L 746.084,506.55 771.136,506.55 771.136,492.591936 Z" />
</g>
<g stroke="none" fill="rgb(255,99,132)" fill-rule="evenodd" fill-opacity="1"  clip-path="url(#clip-31)" >
<path d="M 824.784,490.505819 L 824.784,506.55 853.836,506.55 853.836,490.505819 Z M 826.784,492.505819 L 826.784,506.55 851.836,506.55
851.836,492.505819 Z" />
</g>
<g stroke="none" fill="rgb(255,99,132)" fill-rule="nonzero" fill-opacity="0.8"  clip-path="url(#clip-31)" >
<path d="M 826.784,492.505819 L 826.784,506.55 851.836,506.55 851.836,492.505819 Z" />
</g>
<g stroke="none" fill="rgb(255,99,132)" fill-rule="evenodd" fill-opacity="1"  clip-path="url(#clip-32)" >
<path d="M 905.484,488.278244 L 905.484,506.55 934.536,506.55 934.536,488.278244 Z M 907.484,490.278244 L 907.484,506.55 932.536,506.55
932.536,490.278244 Z" />
</g>
<g stroke="none" fill="rgb(255,99,132)" fill-rule="nonzero" fill-opacity="0.8"  clip-path="url(#clip-32)" >
<path d="M 907.484,490.278244 L 907.484,506.55 932.536,506.55 932.536,490.278244 Z" />
</g>
<g stroke="none" fill="rgb(255,99,132)" fill-rule="evenodd" fill-opacity="1"  clip-path="url(#clip-33)" >
<path d="M 986.184,488.243679 L 986.184,506.55 1015.236,506.55 1015.236,488.243679 Z M 988.184,490.243679 L 988.184,506.55 1013.236,506.55
1013.236,490.243679 Z" />
</g>
<g stroke="none" fill="rgb(255,99,132)" fill-rule="nonzero" fill-opacity="0.8"  clip-path="url(#clip-33)" >
<path d="M 988.184,490.243679 L 988.184,506.55 1013.236,506.55 1013.236,490.243679 Z" />
</g>
<g stroke="none" fill="rgb(255,99,132)" fill-rule="evenodd" fill-opacity="1"  clip-path="url(#clip-34)" >
<path d="M 1066.884,482.720932 L 1066.884,506.55 1095.936,506.55 1095.936,482.720932 Z M 1068.884,484.720932 L 1068.884,506.55 1093.936,506.55
1093.936,484.720932 Z" />
</g>
<g stroke="none" fill="rgb(255,99,132)" fill-rule="nonzero" fill-opacity="0.8"  clip-path="url(#clip-34)" >
<path d="M 1068.884,484.720932 L 1068.884,506.55 1093.936,506.55 1093.936,484.720932 Z" />
</g>
<g stroke="none" fill="rgb(255,99,132)" fill-rule="evenodd" fill-opacity="1"  clip-path="url(#clip-35)" >
<path d="M 1147.584,466.922188 L 1147.584,506.55 1176.636,506.55 1176.636,466.922188 Z M 1149.584,468.922188 L 1149.584,506.55 1174.636,506.55
1174.636,468.922188 Z" />
</g>
<g stroke="none" fill="rgb(255,99,132)" fill-rule="nonzero" fill-opacity="0.8"  clip-path="url(#clip-35)" >
<path d="M 1149.584,468.922188 L 1149.584,506.55 1174.636,506.55 1174.636,468.922188 Z" />
</g>
<g stroke="none" fill="rgb(255,99,132)" fill-rule="evenodd" fill-opacity="1"  clip-path="url(#clip-36)" >
<path d="M 1228.284,466.261747 L 1228.284,506.55 1257.336,506.55 1257.336,466.261747 Z M 1230.284,468.261747 L 1230.284,506.55 1255.336,506.55
1255.336,468.261747 Z" />
</g>
<g stroke="none" fill="rgb(255,99,132)" fill-rule="nonzero" fill-opacity="0.8"  clip-path="url(#clip-36)" >
<path d="M 1230.284,468.261747 L 1230.284,506.55 1255.336,506.55 1255.336,468.261747 Z" />
</g>
<g stroke="none" fill="rgb(255,99,132)" fill-rule="evenodd" fill-opacity="1"  clip-path="url(#clip-37)" >
<path d="M 1308.984,114.129463 L 1308.984,506.55 1338.036,506.55 1338.036,114.129463 Z M 1310.984,116.129463 L 1310.984,506.55 1336.036,506.55
1336.036,116.129463 Z" />
</g>
<g stroke="none" fill="rgb(255,99,132)" fill-rule="nonzero" fill-opacity="0.8"  clip-path="url(#clip-37)" >
<path d="M 1310.984,116.129463 L 1310.984,506.55 1336.036,506.55 1336.036,116.129463 Z" />
</g>
</svg>