<svg width="1200" height="600" xmlns="http://www.w3.org/2000/svg" style="background: white;">
  <text x="600" y="30" text-anchor="middle" font-size="20" font-weight="bold" font-family="Arial, sans-serif">Zsh Plugin Manager Load Time Comparison</text>
  
  <!-- Grid lines -->
  <line x1="80" y1="480" x2="1080" y2="480" stroke="#e0e0e0" stroke-width="1"/>
  <text x="70" y="485" text-anchor="end" font-size="12" font-family="Arial, sans-serif">0</text>
  <line x1="80" y1="394" x2="1080" y2="394" stroke="#e0e0e0" stroke-width="1"/>
  <text x="70" y="399" text-anchor="end" font-size="12" font-family="Arial, sans-serif">92</text>
  <line x1="80" y1="308" x2="1080" y2="308" stroke="#e0e0e0" stroke-width="1"/>
  <text x="70" y="313" text-anchor="end" font-size="12" font-family="Arial, sans-serif">184</text>
  <line x1="80" y1="222" x2="1080" y2="222" stroke="#e0e0e0" stroke-width="1"/>
  <text x="70" y="227" text-anchor="end" font-size="12" font-family="Arial, sans-serif">275</text>
  <line x1="80" y1="136" x2="1080" y2="136" stroke="#e0e0e0" stroke-width="1"/>
  <text x="70" y="141" text-anchor="end" font-size="12" font-family="Arial, sans-serif">367</text>
  <line x1="80" y1="50" x2="1080" y2="50" stroke="#e0e0e0" stroke-width="1"/>
  <text x="70" y="55" text-anchor="end" font-size="12" font-family="Arial, sans-serif">459</text>
  
  <!-- Axes -->
  <line x1="80" y1="50" x2="80" y2="480" stroke="black" stroke-width="2"/>
  <line x1="80" y1="480" x2="1080" y2="480" stroke="black" stroke-width="2"/>
  
  <!-- Y-axis label -->
  <text x="20" y="300" text-anchor="middle" font-size="14" font-family="Arial, sans-serif" transform="rotate(-90 20 300)">Time (ms)</text>
  <rect x="107.5" y="451.44152709340426" width="20" height="28.558472906595743" fill="#4ECDC4" opacity="0.8"/>
  <text x="117.5" y="446.44152709340426" text-anchor="middle" font-size="10" font-family="Arial, sans-serif">30.5</text>
  <line x1="117.5" y1="451.3001512060433" x2="117.5" y2="451.5829029807652" stroke="black" stroke-width="1"/>
  <line x1="114.5" y1="451.3001512060433" x2="120.5" y2="451.3001512060433" stroke="black" stroke-width="1"/>
  <line x1="114.5" y1="451.5829029807652" x2="120.5" y2="451.5829029807652" stroke="black" stroke-width="1"/>
  <rect x="132.5" y="451.5040609201093" width="20" height="28.495939079890743" fill="#98D8C8" opacity="0.8"/>
  <text x="142.5" y="446.5040609201093" text-anchor="middle" font-size="10" font-family="Arial, sans-serif">30.4</text>
  <line x1="142.5" y1="451.29612329478124" x2="142.5" y2="451.7119985454373" stroke="black" stroke-width="1"/>
  <line x1="139.5" y1="451.29612329478124" x2="145.5" y2="451.29612329478124" stroke="black" stroke-width="1"/>
  <line x1="139.5" y1="451.7119985454373" x2="145.5" y2="451.7119985454373" stroke="black" stroke-width="1"/>
  <text x="130" y="500" text-anchor="middle" font-size="12" font-family="Arial, sans-serif" transform="rotate(-45 130 500)">antidote</text>
  <rect x="167.5" y="451.6020115878517" width="20" height="28.397988412148297" fill="#4ECDC4" opacity="0.8"/>
  <text x="177.5" y="446.6020115878517" text-anchor="middle" font-size="10" font-family="Arial, sans-serif">30.3</text>
  <line x1="177.5" y1="451.24178278116426" x2="177.5" y2="451.9622403945391" stroke="black" stroke-width="1"/>
  <line x1="174.5" y1="451.24178278116426" x2="180.5" y2="451.24178278116426" stroke="black" stroke-width="1"/>
  <line x1="174.5" y1="451.9622403945391" x2="180.5" y2="451.9622403945391" stroke="black" stroke-width="1"/>
  <rect x="192.5" y="439.8364721552725" width="20" height="40.16352784472752" fill="#98D8C8" opacity="0.8"/>
  <text x="202.5" y="434.8364721552725" text-anchor="middle" font-size="10" font-family="Arial, sans-serif">42.9</text>
  <line x1="202.5" y1="439.4724970122145" x2="202.5" y2="440.20044729833046" stroke="black" stroke-width="1"/>
  <line x1="199.5" y1="439.4724970122145" x2="205.5" y2="439.4724970122145" stroke="black" stroke-width="1"/>
  <line x1="199.5" y1="440.20044729833046" x2="205.5" y2="440.20044729833046" stroke="black" stroke-width="1"/>
  <text x="190" y="500" text-anchor="middle" font-size="12" font-family="Arial, sans-serif" transform="rotate(-45 190 500)">znap</text>
  <rect x="227.5" y="451.68033939477675" width="20" height="28.319660605223227" fill="#4ECDC4" opacity="0.8"/>
  <text x="237.5" y="446.68033939477675" text-anchor="middle" font-size="10" font-family="Arial, sans-serif">30.2</text>
  <line x1="237.5" y1="451.5176012866199" x2="237.5" y2="451.8430775029336" stroke="black" stroke-width="1"/>
  <line x1="234.5" y1="451.5176012866199" x2="240.5" y2="451.5176012866199" stroke="black" stroke-width="1"/>
  <line x1="234.5" y1="451.8430775029336" x2="240.5" y2="451.8430775029336" stroke="black" stroke-width="1"/>
  <rect x="252.5" y="396.79690019611115" width="20" height="83.20309980388886" fill="#98D8C8" opacity="0.8"/>
  <text x="262.5" y="391.79690019611115" text-anchor="middle" font-size="10" font-family="Arial, sans-serif">88.8</text>
  <line x1="262.5" y1="395.03718952505443" x2="262.5" y2="398.5566108671679" stroke="black" stroke-width="1"/>
  <line x1="259.5" y1="395.03718952505443" x2="265.5" y2="395.03718952505443" stroke="black" stroke-width="1"/>
  <line x1="259.5" y1="398.5566108671679" x2="265.5" y2="398.5566108671679" stroke="black" stroke-width="1"/>
  <text x="250" y="500" text-anchor="middle" font-size="12" font-family="Arial, sans-serif" transform="rotate(-45 250 500)">zim</text>
  <rect x="287.5" y="451.7049934595255" width="20" height="28.295006540474485" fill="#4ECDC4" opacity="0.8"/>
  <text x="297.5" y="446.7049934595255" text-anchor="middle" font-size="10" font-family="Arial, sans-serif">30.2</text>
  <line x1="297.5" y1="450.82042693513444" x2="297.5" y2="452.58955998391656" stroke="black" stroke-width="1"/>
  <line x1="294.5" y1="450.82042693513444" x2="300.5" y2="450.82042693513444" stroke="black" stroke-width="1"/>
  <line x1="294.5" y1="452.58955998391656" x2="300.5" y2="452.58955998391656" stroke="black" stroke-width="1"/>
  <rect x="312.5" y="393.12416273652735" width="20" height="86.87583726347263" fill="#98D8C8" opacity="0.8"/>
  <text x="322.5" y="388.12416273652735" text-anchor="middle" font-size="10" font-family="Arial, sans-serif">92.7</text>
  <line x1="322.5" y1="392.72039497264115" x2="322.5" y2="393.52793050041356" stroke="black" stroke-width="1"/>
  <line x1="319.5" y1="392.72039497264115" x2="325.5" y2="392.72039497264115" stroke="black" stroke-width="1"/>
  <line x1="319.5" y1="393.52793050041356" x2="325.5" y2="393.52793050041356" stroke="black" stroke-width="1"/>
  <text x="310" y="500" text-anchor="middle" font-size="12" font-family="Arial, sans-serif" transform="rotate(-45 310 500)">zgenom</text>
  <rect x="347.5" y="450.10380239488813" width="20" height="29.89619760511184" fill="#4ECDC4" opacity="0.8"/>
  <text x="357.5" y="445.10380239488813" text-anchor="middle" font-size="10" font-family="Arial, sans-serif">31.9</text>
  <line x1="357.5" y1="448.7100551234973" x2="357.5" y2="451.497549666279" stroke="black" stroke-width="1"/>
  <line x1="354.5" y1="448.7100551234973" x2="360.5" y2="448.7100551234973" stroke="black" stroke-width="1"/>
  <line x1="354.5" y1="451.497549666279" x2="360.5" y2="451.497549666279" stroke="black" stroke-width="1"/>
  <rect x="372.5" y="384.8219424813812" width="20" height="95.17805751861881" fill="#98D8C8" opacity="0.8"/>
  <text x="382.5" y="379.8219424813812" text-anchor="middle" font-size="10" font-family="Arial, sans-serif">101.6</text>
  <line x1="382.5" y1="383.6400332895033" x2="382.5" y2="386.0038516732591" stroke="black" stroke-width="1"/>
  <line x1="379.5" y1="383.6400332895033" x2="385.5" y2="383.6400332895033" stroke="black" stroke-width="1"/>
  <line x1="379.5" y1="386.0038516732591" x2="385.5" y2="386.0038516732591" stroke="black" stroke-width="1"/>
  <text x="370" y="500" text-anchor="middle" font-size="12" font-family="Arial, sans-serif" transform="rotate(-45 370 500)">zcomet</text>
  <rect x="407.5" y="449.8864348303878" width="20" height="30.113565169612162" fill="#4ECDC4" opacity="0.8"/>
  <text x="417.5" y="444.8864348303878" text-anchor="middle" font-size="10" font-family="Arial, sans-serif">32.1</text>
  <line x1="417.5" y1="448.9997075684783" x2="417.5" y2="450.77316209229735" stroke="black" stroke-width="1"/>
  <line x1="414.5" y1="448.9997075684783" x2="420.5" y2="448.9997075684783" stroke="black" stroke-width="1"/>
  <line x1="414.5" y1="450.77316209229735" x2="420.5" y2="450.77316209229735" stroke="black" stroke-width="1"/>
  <rect x="432.5" y="383.6027584297649" width="20" height="96.39724157023512" fill="#98D8C8" opacity="0.8"/>
  <text x="442.5" y="378.6027584297649" text-anchor="middle" font-size="10" font-family="Arial, sans-serif">102.9</text>
  <line x1="442.5" y1="381.34080948218224" x2="442.5" y2="385.86470737734754" stroke="black" stroke-width="1"/>
  <line x1="439.5" y1="381.34080948218224" x2="445.5" y2="381.34080948218224" stroke="black" stroke-width="1"/>
  <line x1="439.5" y1="385.86470737734754" x2="445.5" y2="385.86470737734754" stroke="black" stroke-width="1"/>
  <text x="430" y="500" text-anchor="middle" font-size="12" font-family="Arial, sans-serif" transform="rotate(-45 430 500)">antigen</text>
  <rect x="467.5" y="451.94110349395316" width="20" height="28.058896506046835" fill="#4ECDC4" opacity="0.8"/>
  <text x="477.5" y="446.94110349395316" text-anchor="middle" font-size="10" font-family="Arial, sans-serif">29.9</text>
  <line x1="477.5" y1="451.70711019948055" x2="477.5" y2="452.1750967884258" stroke="black" stroke-width="1"/>
  <line x1="474.5" y1="451.70711019948055" x2="480.5" y2="451.70711019948055" stroke="black" stroke-width="1"/>
  <line x1="474.5" y1="452.1750967884258" x2="480.5" y2="452.1750967884258" stroke="black" stroke-width="1"/>
  <rect x="492.5" y="377.64830389943074" width="20" height="102.35169610056924" fill="#98D8C8" opacity="0.8"/>
  <text x="502.5" y="372.64830389943074" text-anchor="middle" font-size="10" font-family="Arial, sans-serif">109.2</text>
  <line x1="502.5" y1="376.7878449886953" x2="502.5" y2="378.50876281016616" stroke="black" stroke-width="1"/>
  <line x1="499.5" y1="376.7878449886953" x2="505.5" y2="376.7878449886953" stroke="black" stroke-width="1"/>
  <line x1="499.5" y1="378.50876281016616" x2="505.5" y2="378.50876281016616" stroke="black" stroke-width="1"/>
  <text x="490" y="500" text-anchor="middle" font-size="12" font-family="Arial, sans-serif" transform="rotate(-45 490 500)">alf</text>
  <rect x="527.5" y="452.03871253592763" width="20" height="27.961287464072345" fill="#4ECDC4" opacity="0.8"/>
  <text x="537.5" y="447.03871253592763" text-anchor="middle" font-size="10" font-family="Arial, sans-serif">29.8</text>
  <line x1="537.5" y1="451.9336458358796" x2="537.5" y2="452.14377923597567" stroke="black" stroke-width="1"/>
  <line x1="534.5" y1="451.9336458358796" x2="540.5" y2="451.9336458358796" stroke="black" stroke-width="1"/>
  <line x1="534.5" y1="452.14377923597567" x2="540.5" y2="452.14377923597567" stroke="black" stroke-width="1"/>
  <rect x="552.5" y="377.422409706532" width="20" height="102.57759029346802" fill="#98D8C8" opacity="0.8"/>
  <text x="562.5" y="372.422409706532" text-anchor="middle" font-size="10" font-family="Arial, sans-serif">109.5</text>
  <line x1="562.5" y1="376.7681319953184" x2="562.5" y2="378.0766874177456" stroke="black" stroke-width="1"/>
  <line x1="559.5" y1="376.7681319953184" x2="565.5" y2="376.7681319953184" stroke="black" stroke-width="1"/>
  <line x1="559.5" y1="378.0766874177456" x2="565.5" y2="378.0766874177456" stroke="black" stroke-width="1"/>
  <text x="550" y="500" text-anchor="middle" font-size="12" font-family="Arial, sans-serif" transform="rotate(-45 550 500)">zr</text>
  <rect x="587.5" y="451.9837009312558" width="20" height="28.016299068744228" fill="#4ECDC4" opacity="0.8"/>
  <text x="597.5" y="446.9837009312558" text-anchor="middle" font-size="10" font-family="Arial, sans-serif">29.9</text>
  <line x1="597.5" y1="451.85794841183895" x2="597.5" y2="452.1094534506726" stroke="black" stroke-width="1"/>
  <line x1="594.5" y1="451.85794841183895" x2="600.5" y2="451.85794841183895" stroke="black" stroke-width="1"/>
  <line x1="594.5" y1="452.1094534506726" x2="600.5" y2="452.1094534506726" stroke="black" stroke-width="1"/>
  <rect x="612.5" y="377.0605226561718" width="20" height="102.93947734382819" fill="#98D8C8" opacity="0.8"/>
  <text x="622.5" y="372.0605226561718" text-anchor="middle" font-size="10" font-family="Arial, sans-serif">109.9</text>
  <line x1="622.5" y1="373.2347725255111" x2="622.5" y2="380.88627278683254" stroke="black" stroke-width="1"/>
  <line x1="619.5" y1="373.2347725255111" x2="625.5" y2="373.2347725255111" stroke="black" stroke-width="1"/>
  <line x1="619.5" y1="380.88627278683254" x2="625.5" y2="380.88627278683254" stroke="black" stroke-width="1"/>
  <text x="610" y="500" text-anchor="middle" font-size="12" font-family="Arial, sans-serif" transform="rotate(-45 610 500)">antigen-hs</text>
  <rect x="647.5" y="450.15679151767637" width="20" height="29.84320848232362" fill="#4ECDC4" opacity="0.8"/>
  <text x="657.5" y="445.15679151767637" text-anchor="middle" font-size="10" font-family="Arial, sans-serif">31.9</text>
  <line x1="657.5" y1="449.8435763966884" x2="657.5" y2="450.47000663866436" stroke="black" stroke-width="1"/>
  <line x1="654.5" y1="449.8435763966884" x2="660.5" y2="449.8435763966884" stroke="black" stroke-width="1"/>
  <line x1="654.5" y1="450.47000663866436" x2="660.5" y2="450.47000663866436" stroke="black" stroke-width="1"/>
  <rect x="672.5" y="374.1254408234261" width="20" height="105.8745591765739" fill="#98D8C8" opacity="0.8"/>
  <text x="682.5" y="369.1254408234261" text-anchor="middle" font-size="10" font-family="Arial, sans-serif">113.0</text>
  <line x1="682.5" y1="373.370198396509" x2="682.5" y2="374.8806832503432" stroke="black" stroke-width="1"/>
  <line x1="679.5" y1="373.370198396509" x2="685.5" y2="373.370198396509" stroke="black" stroke-width="1"/>
  <line x1="679.5" y1="374.8806832503432" x2="685.5" y2="374.8806832503432" stroke="black" stroke-width="1"/>
  <text x="670" y="500" text-anchor="middle" font-size="12" font-family="Arial, sans-serif" transform="rotate(-45 670 500)">sheldon</text>
  <rect x="707.5" y="414.51917393765194" width="20" height="65.48082606234807" fill="#4ECDC4" opacity="0.8"/>
  <text x="717.5" y="409.51917393765194" text-anchor="middle" font-size="10" font-family="Arial, sans-serif">69.9</text>
  <line x1="717.5" y1="413.9837987732423" x2="717.5" y2="415.05454910206157" stroke="black" stroke-width="1"/>
  <line x1="714.5" y1="413.9837987732423" x2="720.5" y2="413.9837987732423" stroke="black" stroke-width="1"/>
  <line x1="714.5" y1="415.05454910206157" x2="720.5" y2="415.05454910206157" stroke="black" stroke-width="1"/>
  <rect x="732.5" y="352.4722055122089" width="20" height="127.5277944877911" fill="#98D8C8" opacity="0.8"/>
  <text x="742.5" y="347.4722055122089" text-anchor="middle" font-size="10" font-family="Arial, sans-serif">136.1</text>
  <line x1="742.5" y1="351.810396618627" x2="742.5" y2="353.1340144057908" stroke="black" stroke-width="1"/>
  <line x1="739.5" y1="351.810396618627" x2="745.5" y2="351.810396618627" stroke="black" stroke-width="1"/>
  <line x1="739.5" y1="353.1340144057908" x2="745.5" y2="353.1340144057908" stroke="black" stroke-width="1"/>
  <text x="730" y="500" text-anchor="middle" font-size="12" font-family="Arial, sans-serif" transform="rotate(-45 730 500)">prezto</text>
  <rect x="767.5" y="396.85775665191284" width="20" height="83.14224334808716" fill="#4ECDC4" opacity="0.8"/>
  <text x="777.5" y="391.85775665191284" text-anchor="middle" font-size="10" font-family="Arial, sans-serif">88.7</text>
  <line x1="777.5" y1="395.75780881181686" x2="777.5" y2="397.9577044920088" stroke="black" stroke-width="1"/>
  <line x1="774.5" y1="395.75780881181686" x2="780.5" y2="395.75780881181686" stroke="black" stroke-width="1"/>
  <line x1="774.5" y1="397.9577044920088" x2="780.5" y2="397.9577044920088" stroke="black" stroke-width="1"/>
  <rect x="792.5" y="331.13917863596447" width="20" height="148.86082136403553" fill="#98D8C8" opacity="0.8"/>
  <text x="802.5" y="326.13917863596447" text-anchor="middle" font-size="10" font-family="Arial, sans-serif">158.9</text>
  <line x1="802.5" y1="326.0855408636081" x2="802.5" y2="336.1928164083208" stroke="black" stroke-width="1"/>
  <line x1="799.5" y1="326.0855408636081" x2="805.5" y2="326.0855408636081" stroke="black" stroke-width="1"/>
  <line x1="799.5" y1="336.1928164083208" x2="805.5" y2="336.1928164083208" stroke="black" stroke-width="1"/>
  <text x="790" y="500" text-anchor="middle" font-size="12" font-family="Arial, sans-serif" transform="rotate(-45 790 500)">oh-my-zsh</text>
  <rect x="827.5" y="449.5148913619364" width="20" height="30.485108638063576" fill="#4ECDC4" opacity="0.8"/>
  <text x="837.5" y="444.5148913619364" text-anchor="middle" font-size="10" font-family="Arial, sans-serif">32.5</text>
  <line x1="837.5" y1="447.5474814102101" x2="837.5" y2="451.48230131366273" stroke="black" stroke-width="1"/>
  <line x1="834.5" y1="447.5474814102101" x2="840.5" y2="447.5474814102101" stroke="black" stroke-width="1"/>
  <line x1="834.5" y1="451.48230131366273" x2="840.5" y2="451.48230131366273" stroke="black" stroke-width="1"/>
  <rect x="852.5" y="327.6594153550311" width="20" height="152.34058464496889" fill="#98D8C8" opacity="0.8"/>
  <text x="862.5" y="322.6594153550311" text-anchor="middle" font-size="10" font-family="Arial, sans-serif">162.6</text>
  <line x1="862.5" y1="324.2833259187753" x2="862.5" y2="331.03550479128694" stroke="black" stroke-width="1"/>
  <line x1="859.5" y1="324.2833259187753" x2="865.5" y2="324.2833259187753" stroke="black" stroke-width="1"/>
  <line x1="859.5" y1="331.03550479128694" x2="865.5" y2="331.03550479128694" stroke="black" stroke-width="1"/>
  <text x="850" y="500" text-anchor="middle" font-size="12" font-family="Arial, sans-serif" transform="rotate(-45 850 500)">antibody</text>
  <rect x="887.5" y="430.0287413183069" width="20" height="49.971258681693065" fill="#4ECDC4" opacity="0.8"/>
  <text x="897.5" y="425.0287413183069" text-anchor="middle" font-size="10" font-family="Arial, sans-serif">53.3</text>
  <line x1="897.5" y1="429.5696936589749" x2="897.5" y2="430.4877889776389" stroke="black" stroke-width="1"/>
  <line x1="894.5" y1="429.5696936589749" x2="900.5" y2="429.5696936589749" stroke="black" stroke-width="1"/>
  <line x1="894.5" y1="430.4877889776389" x2="900.5" y2="430.4877889776389" stroke="black" stroke-width="1"/>
  <rect x="912.5" y="163.7116176384592" width="20" height="316.2883823615408" fill="#98D8C8" opacity="0.8"/>
  <text x="922.5" y="158.7116176384592" text-anchor="middle" font-size="10" font-family="Arial, sans-serif">337.6</text>
  <line x1="922.5" y1="151.8993385842623" x2="922.5" y2="175.52389669265608" stroke="black" stroke-width="1"/>
  <line x1="919.5" y1="151.8993385842623" x2="925.5" y2="151.8993385842623" stroke="black" stroke-width="1"/>
  <line x1="919.5" y1="175.52389669265608" x2="925.5" y2="175.52389669265608" stroke="black" stroke-width="1"/>
  <text x="910" y="500" text-anchor="middle" font-size="12" font-family="Arial, sans-serif" transform="rotate(-45 910 500)">zpm</text>
  <rect x="947.5" y="436.0129308003359" width="20" height="43.987069199664106" fill="#4ECDC4" opacity="0.8"/>
  <text x="957.5" y="431.0129308003359" text-anchor="middle" font-size="10" font-family="Arial, sans-serif">47.0</text>
  <line x1="957.5" y1="435.77096344165665" x2="957.5" y2="436.2548981590151" stroke="black" stroke-width="1"/>
  <line x1="954.5" y1="435.77096344165665" x2="960.5" y2="435.77096344165665" stroke="black" stroke-width="1"/>
  <line x1="954.5" y1="436.2548981590151" x2="960.5" y2="436.2548981590151" stroke="black" stroke-width="1"/>
  <rect x="972.5" y="145.6921174772982" width="20" height="334.3078825227018" fill="#98D8C8" opacity="0.8"/>
  <text x="982.5" y="140.6921174772982" text-anchor="middle" font-size="10" font-family="Arial, sans-serif">356.8</text>
  <line x1="982.5" y1="143.6180100257166" x2="982.5" y2="147.76622492887984" stroke="black" stroke-width="1"/>
  <line x1="979.5" y1="143.6180100257166" x2="985.5" y2="143.6180100257166" stroke="black" stroke-width="1"/>
  <line x1="979.5" y1="147.76622492887984" x2="985.5" y2="147.76622492887984" stroke="black" stroke-width="1"/>
  <text x="970" y="500" text-anchor="middle" font-size="12" font-family="Arial, sans-serif" transform="rotate(-45 970 500)">zinit</text>
  <rect x="1007.5" y="373.24744788131244" width="20" height="106.75255211868757" fill="#4ECDC4" opacity="0.8"/>
  <text x="1017.5" y="368.24744788131244" text-anchor="middle" font-size="10" font-family="Arial, sans-serif">113.9</text>
  <line x1="1017.5" y1="372.57377642108025" x2="1017.5" y2="373.9211193415446" stroke="black" stroke-width="1"/>
  <line x1="1014.5" y1="372.57377642108025" x2="1020.5" y2="372.57377642108025" stroke="black" stroke-width="1"/>
  <line x1="1014.5" y1="373.9211193415446" x2="1020.5" y2="373.9211193415446" stroke="black" stroke-width="1"/>
  <rect x="1032.5" y="56.56942237823188" width="20" height="423.4305776217681" fill="#98D8C8" opacity="0.8"/>
  <text x="1042.5" y="51.56942237823188" text-anchor="middle" font-size="10" font-family="Arial, sans-serif">452.0</text>
  <line x1="1042.5" y1="50.000000000000014" x2="1042.5" y2="63.13884475646374" stroke="black" stroke-width="1"/>
  <line x1="1039.5" y1="50.000000000000014" x2="1045.5" y2="50.000000000000014" stroke="black" stroke-width="1"/>
  <line x1="1039.5" y1="63.13884475646374" x2="1045.5" y2="63.13884475646374" stroke="black" stroke-width="1"/>
  <text x="1030" y="500" text-anchor="middle" font-size="12" font-family="Arial, sans-serif" transform="rotate(-45 1030 500)">zplug</text>
  <!-- Legend -->
  <rect x="1090" y="60" width="15" height="15" fill="#4ECDC4" opacity="0.8"/>
  <text x="1110" y="72" font-size="12" font-family="Arial, sans-serif">0 plugins</text>
  <rect x="1090" y="80" width="15" height="15" fill="#98D8C8" opacity="0.8"/>
  <text x="1110" y="92" font-size="12" font-family="Arial, sans-serif">25 plugins</text>
</svg>