<svg width="1400" height="600" xmlns="http://www.w3.org/2000/svg" style="background: white;">
  <text x="700" y="30" text-anchor="middle" font-size="20" font-weight="bold" font-family="Arial, sans-serif">Zsh Plugin Manager Load Time Comparison</text>
  
  <!-- Grid lines -->
  <line x1="80" y1="480" x2="1280" y2="480" stroke="#e0e0e0" stroke-width="1"/>
  <text x="70" y="485" text-anchor="end" font-size="12" font-family="Arial, sans-serif">0</text>
  <line x1="80" y1="394" x2="1280" y2="394" stroke="#e0e0e0" stroke-width="1"/>
  <text x="70" y="399" text-anchor="end" font-size="12" font-family="Arial, sans-serif">185</text>
  <line x1="80" y1="308" x2="1280" y2="308" stroke="#e0e0e0" stroke-width="1"/>
  <text x="70" y="313" text-anchor="end" font-size="12" font-family="Arial, sans-serif">371</text>
  <line x1="80" y1="222" x2="1280" y2="222" stroke="#e0e0e0" stroke-width="1"/>
  <text x="70" y="227" text-anchor="end" font-size="12" font-family="Arial, sans-serif">556</text>
  <line x1="80" y1="136" x2="1280" y2="136" stroke="#e0e0e0" stroke-width="1"/>
  <text x="70" y="141" text-anchor="end" font-size="12" font-family="Arial, sans-serif">741</text>
  <line x1="80" y1="50" x2="1280" y2="50" stroke="#e0e0e0" stroke-width="1"/>
  <text x="70" y="55" text-anchor="end" font-size="12" font-family="Arial, sans-serif">927</text>
  
  <!-- Axes -->
  <line x1="80" y1="50" x2="80" y2="480" stroke="black" stroke-width="2"/>
  <line x1="80" y1="480" x2="1280" y2="480" stroke="black" stroke-width="2"/>
  
  <!-- Y-axis label -->
  <text x="20" y="300" text-anchor="middle" font-size="14" font-family="Arial, sans-serif" transform="rotate(-90 20 300)">Time (ms)</text>
  <rect x="177.5" y="466.3006305752498" width="20" height="13.699369424750227" fill="#4ECDC4" opacity="0.8"/>
  <text x="187.5" y="461.3006305752498" text-anchor="middle" font-size="10" font-family="Arial, sans-serif">29.5</text>
  <line x1="187.5" y1="466.22695560139255" x2="187.5" y2="466.374305549107" stroke="black" stroke-width="1"/>
  <line x1="184.5" y1="466.22695560139255" x2="190.5" y2="466.22695560139255" stroke="black" stroke-width="1"/>
  <line x1="184.5" y1="466.374305549107" x2="190.5" y2="466.374305549107" stroke="black" stroke-width="1"/>
  <text x="200" y="500" text-anchor="middle" font-size="12" font-family="Arial, sans-serif" transform="rotate(-45 200 500)">vanilla</text>
  <rect x="237.5" y="464.09126411523056" width="20" height="15.908735884769444" fill="#4ECDC4" opacity="0.8"/>
  <text x="247.5" y="459.09126411523056" text-anchor="middle" font-size="10" font-family="Arial, sans-serif">34.3</text>
  <line x1="247.5" y1="463.9132648581945" x2="247.5" y2="464.2692633722666" stroke="black" stroke-width="1"/>
  <line x1="244.5" y1="463.9132648581945" x2="250.5" y2="463.9132648581945" stroke="black" stroke-width="1"/>
  <line x1="244.5" y1="464.2692633722666" x2="250.5" y2="464.2692633722666" stroke="black" stroke-width="1"/>
  <rect x="262.5" y="437.1537068769508" width="20" height="42.8462931230492" fill="#98D8C8" opacity="0.8"/>
  <text x="272.5" y="432.1537068769508" text-anchor="middle" font-size="10" font-family="Arial, sans-serif">92.3</text>
  <line x1="272.5" y1="436.79265360580655" x2="272.5" y2="437.5147601480951" stroke="black" stroke-width="1"/>
  <line x1="269.5" y1="436.79265360580655" x2="275.5" y2="436.79265360580655" stroke="black" stroke-width="1"/>
  <line x1="269.5" y1="437.5147601480951" x2="275.5" y2="437.5147601480951" stroke="black" stroke-width="1"/>
  <text x="260" y="500" text-anchor="middle" font-size="12" font-family="Arial, sans-serif" transform="rotate(-45 260 500)">zim</text>
  <rect x="297.5" y="465.83601157530006" width="20" height="14.163988424699918" fill="#4ECDC4" opacity="0.8"/>
  <text x="307.5" y="460.83601157530006" text-anchor="middle" font-size="10" font-family="Arial, sans-serif">30.5</text>
  <line x1="307.5" y1="465.6710813378113" x2="307.5" y2="466.0009418127888" stroke="black" stroke-width="1"/>
  <line x1="304.5" y1="465.6710813378113" x2="310.5" y2="465.6710813378113" stroke="black" stroke-width="1"/>
  <line x1="304.5" y1="466.0009418127888" x2="310.5" y2="466.0009418127888" stroke="black" stroke-width="1"/>
  <rect x="322.5" y="436.6368314229506" width="20" height="43.36316857704941" fill="#98D8C8" opacity="0.8"/>
  <text x="332.5" y="431.6368314229506" text-anchor="middle" font-size="10" font-family="Arial, sans-serif">93.5</text>
  <line x1="332.5" y1="436.2826744785095" x2="332.5" y2="436.9909883673917" stroke="black" stroke-width="1"/>
  <line x1="329.5" y1="436.2826744785095" x2="335.5" y2="436.2826744785095" stroke="black" stroke-width="1"/>
  <line x1="329.5" y1="436.9909883673917" x2="335.5" y2="436.9909883673917" stroke="black" stroke-width="1"/>
  <text x="320" y="500" text-anchor="middle" font-size="12" font-family="Arial, sans-serif" transform="rotate(-45 320 500)">zgenom</text>
  <rect x="357.5" y="465.0563072887534" width="20" height="14.943692711246616" fill="#4ECDC4" opacity="0.8"/>
  <text x="367.5" y="460.0563072887534" text-anchor="middle" font-size="10" font-family="Arial, sans-serif">32.2</text>
  <line x1="367.5" y1="464.78171743159834" x2="367.5" y2="465.3308971459084" stroke="black" stroke-width="1"/>
  <line x1="364.5" y1="464.78171743159834" x2="370.5" y2="464.78171743159834" stroke="black" stroke-width="1"/>
  <line x1="364.5" y1="465.3308971459084" x2="370.5" y2="465.3308971459084" stroke="black" stroke-width="1"/>
  <rect x="382.5" y="432.6129680250561" width="20" height="47.38703197494393" fill="#98D8C8" opacity="0.8"/>
  <text x="392.5" y="427.6129680250561" text-anchor="middle" font-size="10" font-family="Arial, sans-serif">102.1</text>
  <line x1="392.5" y1="432.2825656027521" x2="392.5" y2="432.9433704473601" stroke="black" stroke-width="1"/>
  <line x1="389.5" y1="432.2825656027521" x2="395.5" y2="432.2825656027521" stroke="black" stroke-width="1"/>
  <line x1="389.5" y1="432.9433704473601" x2="395.5" y2="432.9433704473601" stroke="black" stroke-width="1"/>
  <text x="380" y="500" text-anchor="middle" font-size="12" font-family="Arial, sans-serif" transform="rotate(-45 380 500)">antigen</text>
  <rect x="417.5" y="465.4149725726218" width="20" height="14.585027427378197" fill="#4ECDC4" opacity="0.8"/>
  <text x="427.5" y="460.4149725726218" text-anchor="middle" font-size="10" font-family="Arial, sans-serif">31.4</text>
  <line x1="427.5" y1="465.3364604332973" x2="427.5" y2="465.49348471194634" stroke="black" stroke-width="1"/>
  <line x1="424.5" y1="465.3364604332973" x2="430.5" y2="465.3364604332973" stroke="black" stroke-width="1"/>
  <line x1="424.5" y1="465.49348471194634" x2="430.5" y2="465.49348471194634" stroke="black" stroke-width="1"/>
  <rect x="442.5" y="432.3841874784573" width="20" height="47.61581252154267" fill="#98D8C8" opacity="0.8"/>
  <text x="452.5" y="427.3841874784573" text-anchor="middle" font-size="10" font-family="Arial, sans-serif">102.6</text>
  <line x1="452.5" y1="431.9779311208118" x2="452.5" y2="432.79044383610284" stroke="black" stroke-width="1"/>
  <line x1="449.5" y1="431.9779311208118" x2="455.5" y2="431.9779311208118" stroke="black" stroke-width="1"/>
  <line x1="449.5" y1="432.79044383610284" x2="455.5" y2="432.79044383610284" stroke="black" stroke-width="1"/>
  <text x="440" y="500" text-anchor="middle" font-size="12" font-family="Arial, sans-serif" transform="rotate(-45 440 500)">zcomet</text>
  <rect x="477.5" y="466.1382847437314" width="20" height="13.861715256268631" fill="#4ECDC4" opacity="0.8"/>
  <text x="487.5" y="461.1382847437314" text-anchor="middle" font-size="10" font-family="Arial, sans-serif">29.9</text>
  <line x1="487.5" y1="466.00319095645693" x2="487.5" y2="466.27337853100585" stroke="black" stroke-width="1"/>
  <line x1="484.5" y1="466.00319095645693" x2="490.5" y2="466.00319095645693" stroke="black" stroke-width="1"/>
  <line x1="484.5" y1="466.27337853100585" x2="490.5" y2="466.27337853100585" stroke="black" stroke-width="1"/>
  <rect x="502.5" y="428.94384058911163" width="20" height="51.05615941088838" fill="#98D8C8" opacity="0.8"/>
  <text x="512.5" y="423.94384058911163" text-anchor="middle" font-size="10" font-family="Arial, sans-serif">110.0</text>
  <line x1="512.5" y1="428.48198587209754" x2="512.5" y2="429.4056953061257" stroke="black" stroke-width="1"/>
  <line x1="509.5" y1="428.48198587209754" x2="515.5" y2="428.48198587209754" stroke="black" stroke-width="1"/>
  <line x1="509.5" y1="429.4056953061257" x2="515.5" y2="429.4056953061257" stroke="black" stroke-width="1"/>
  <text x="500" y="500" text-anchor="middle" font-size="12" font-family="Arial, sans-serif" transform="rotate(-45 500 500)">zr</text>
  <rect x="537.5" y="466.06183391050786" width="20" height="13.938166089492137" fill="#4ECDC4" opacity="0.8"/>
  <text x="547.5" y="461.06183391050786" text-anchor="middle" font-size="10" font-family="Arial, sans-serif">30.0</text>
  <line x1="547.5" y1="465.9545622656408" x2="547.5" y2="466.1691055553749" stroke="black" stroke-width="1"/>
  <line x1="544.5" y1="465.9545622656408" x2="550.5" y2="465.9545622656408" stroke="black" stroke-width="1"/>
  <line x1="544.5" y1="466.1691055553749" x2="550.5" y2="466.1691055553749" stroke="black" stroke-width="1"/>
  <rect x="562.5" y="428.66696061787206" width="20" height="51.33303938212793" fill="#98D8C8" opacity="0.8"/>
  <text x="572.5" y="423.66696061787206" text-anchor="middle" font-size="10" font-family="Arial, sans-serif">110.6</text>
  <line x1="572.5" y1="426.92926691483433" x2="572.5" y2="430.4046543209098" stroke="black" stroke-width="1"/>
  <line x1="569.5" y1="426.92926691483433" x2="575.5" y2="426.92926691483433" stroke="black" stroke-width="1"/>
  <line x1="569.5" y1="430.4046543209098" x2="575.5" y2="430.4046543209098" stroke="black" stroke-width="1"/>
  <text x="560" y="500" text-anchor="middle" font-size="12" font-family="Arial, sans-serif" transform="rotate(-45 560 500)">antigen-hs</text>
  <rect x="597.5" y="466.0932891717717" width="20" height="13.906710828228313" fill="#4ECDC4" opacity="0.8"/>
  <text x="607.5" y="461.0932891717717" text-anchor="middle" font-size="10" font-family="Arial, sans-serif">30.0</text>
  <line x1="607.5" y1="465.9792516570361" x2="607.5" y2="466.20732668650726" stroke="black" stroke-width="1"/>
  <line x1="604.5" y1="465.9792516570361" x2="610.5" y2="465.9792516570361" stroke="black" stroke-width="1"/>
  <line x1="604.5" y1="466.20732668650726" x2="610.5" y2="466.20732668650726" stroke="black" stroke-width="1"/>
  <rect x="622.5" y="428.47139617364513" width="20" height="51.52860382635488" fill="#98D8C8" opacity="0.8"/>
  <text x="632.5" y="423.47139617364513" text-anchor="middle" font-size="10" font-family="Arial, sans-serif">111.0</text>
  <line x1="632.5" y1="426.462563956357" x2="632.5" y2="430.4802283909333" stroke="black" stroke-width="1"/>
  <line x1="629.5" y1="426.462563956357" x2="635.5" y2="426.462563956357" stroke="black" stroke-width="1"/>
  <line x1="629.5" y1="430.4802283909333" x2="635.5" y2="430.4802283909333" stroke="black" stroke-width="1"/>
  <text x="620" y="500" text-anchor="middle" font-size="12" font-family="Arial, sans-serif" transform="rotate(-45 620 500)">alf</text>
  <rect x="657.5" y="464.7959020911659" width="20" height="15.204097908834134" fill="#4ECDC4" opacity="0.8"/>
  <text x="667.5" y="459.7959020911659" text-anchor="middle" font-size="10" font-family="Arial, sans-serif">32.8</text>
  <line x1="667.5" y1="464.56327916136144" x2="667.5" y2="465.02852502097033" stroke="black" stroke-width="1"/>
  <line x1="664.5" y1="464.56327916136144" x2="670.5" y2="464.56327916136144" stroke="black" stroke-width="1"/>
  <line x1="664.5" y1="465.02852502097033" x2="670.5" y2="465.02852502097033" stroke="black" stroke-width="1"/>
  <rect x="682.5" y="427.2896050216608" width="20" height="52.71039497833919" fill="#98D8C8" opacity="0.8"/>
  <text x="692.5" y="422.2896050216608" text-anchor="middle" font-size="10" font-family="Arial, sans-serif">113.6</text>
  <line x1="692.5" y1="426.9676886733227" x2="692.5" y2="427.6115213699989" stroke="black" stroke-width="1"/>
  <line x1="689.5" y1="426.9676886733227" x2="695.5" y2="426.9676886733227" stroke="black" stroke-width="1"/>
  <line x1="689.5" y1="427.6115213699989" x2="695.5" y2="427.6115213699989" stroke="black" stroke-width="1"/>
  <text x="680" y="500" text-anchor="middle" font-size="12" font-family="Arial, sans-serif" transform="rotate(-45 680 500)">sheldon</text>
  <rect x="717.5" y="463.82140433537035" width="20" height="16.17859566462963" fill="#4ECDC4" opacity="0.8"/>
  <text x="727.5" y="458.82140433537035" text-anchor="middle" font-size="10" font-family="Arial, sans-serif">34.9</text>
  <line x1="727.5" y1="463.51072766126265" x2="727.5" y2="464.13208100947804" stroke="black" stroke-width="1"/>
  <line x1="724.5" y1="463.51072766126265" x2="730.5" y2="463.51072766126265" stroke="black" stroke-width="1"/>
  <line x1="724.5" y1="464.13208100947804" x2="730.5" y2="464.13208100947804" stroke="black" stroke-width="1"/>
  <rect x="742.5" y="425.02725933478973" width="20" height="54.97274066521028" fill="#98D8C8" opacity="0.8"/>
  <text x="752.5" y="420.02725933478973" text-anchor="middle" font-size="10" font-family="Arial, sans-serif">118.5</text>
  <line x1="752.5" y1="424.6226544829495" x2="752.5" y2="425.43186418663" stroke="black" stroke-width="1"/>
  <line x1="749.5" y1="424.6226544829495" x2="755.5" y2="424.6226544829495" stroke="black" stroke-width="1"/>
  <line x1="749.5" y1="425.43186418663" x2="755.5" y2="425.43186418663" stroke="black" stroke-width="1"/>
  <text x="740" y="500" text-anchor="middle" font-size="12" font-family="Arial, sans-serif" transform="rotate(-45 740 500)">antidote</text>
  <rect x="777.5" y="464.7470224854323" width="20" height="15.252977514567677" fill="#4ECDC4" opacity="0.8"/>
  <text x="787.5" y="459.7470224854323" text-anchor="middle" font-size="10" font-family="Arial, sans-serif">32.9</text>
  <line x1="787.5" y1="462.9558210978594" x2="787.5" y2="466.53822387300517" stroke="black" stroke-width="1"/>
  <line x1="784.5" y1="462.9558210978594" x2="790.5" y2="462.9558210978594" stroke="black" stroke-width="1"/>
  <line x1="784.5" y1="466.53822387300517" x2="790.5" y2="466.53822387300517" stroke="black" stroke-width="1"/>
  <rect x="802.5" y="416.24256905947965" width="20" height="63.75743094052037" fill="#98D8C8" opacity="0.8"/>
  <text x="812.5" y="411.24256905947965" text-anchor="middle" font-size="10" font-family="Arial, sans-serif">137.4</text>
  <line x1="812.5" y1="414.50350697559594" x2="812.5" y2="417.98163114336336" stroke="black" stroke-width="1"/>
  <line x1="809.5" y1="414.50350697559594" x2="815.5" y2="414.50350697559594" stroke="black" stroke-width="1"/>
  <line x1="809.5" y1="417.98163114336336" x2="815.5" y2="417.98163114336336" stroke="black" stroke-width="1"/>
  <text x="800" y="500" text-anchor="middle" font-size="12" font-family="Arial, sans-serif" transform="rotate(-45 800 500)">znap</text>
  <rect x="837.5" y="446.70403119185846" width="20" height="33.29596880814153" fill="#4ECDC4" opacity="0.8"/>
  <text x="847.5" y="441.70403119185846" text-anchor="middle" font-size="10" font-family="Arial, sans-serif">71.8</text>
  <line x1="847.5" y1="446.48244189926316" x2="847.5" y2="446.92562048445376" stroke="black" stroke-width="1"/>
  <line x1="844.5" y1="446.48244189926316" x2="850.5" y2="446.48244189926316" stroke="black" stroke-width="1"/>
  <line x1="844.5" y1="446.92562048445376" x2="850.5" y2="446.92562048445376" stroke="black" stroke-width="1"/>
  <rect x="862.5" y="415.6028280805114" width="20" height="64.3971719194886" fill="#98D8C8" opacity="0.8"/>
  <text x="872.5" y="410.6028280805114" text-anchor="middle" font-size="10" font-family="Arial, sans-serif">138.8</text>
  <line x1="872.5" y1="414.77285114892845" x2="872.5" y2="416.4328050120944" stroke="black" stroke-width="1"/>
  <line x1="869.5" y1="414.77285114892845" x2="875.5" y2="414.77285114892845" stroke="black" stroke-width="1"/>
  <line x1="869.5" y1="416.4328050120944" x2="875.5" y2="416.4328050120944" stroke="black" stroke-width="1"/>
  <text x="860" y="500" text-anchor="middle" font-size="12" font-family="Arial, sans-serif" transform="rotate(-45 860 500)">prezto</text>
  <rect x="897.5" y="439.2659700890108" width="20" height="40.734029910989214" fill="#4ECDC4" opacity="0.8"/>
  <text x="907.5" y="434.2659700890108" text-anchor="middle" font-size="10" font-family="Arial, sans-serif">87.8</text>
  <line x1="907.5" y1="438.81909149072357" x2="907.5" y2="439.71284868729805" stroke="black" stroke-width="1"/>
  <line x1="904.5" y1="438.81909149072357" x2="910.5" y2="438.81909149072357" stroke="black" stroke-width="1"/>
  <line x1="904.5" y1="439.71284868729805" x2="910.5" y2="439.71284868729805" stroke="black" stroke-width="1"/>
  <rect x="922.5" y="407.66884850581124" width="20" height="72.33115149418875" fill="#98D8C8" opacity="0.8"/>
  <text x="932.5" y="402.66884850581124" text-anchor="middle" font-size="10" font-family="Arial, sans-serif">155.9</text>
  <line x1="932.5" y1="407.1681633400968" x2="932.5" y2="408.1695336715257" stroke="black" stroke-width="1"/>
  <line x1="929.5" y1="407.1681633400968" x2="935.5" y2="407.1681633400968" stroke="black" stroke-width="1"/>
  <line x1="929.5" y1="408.1695336715257" x2="935.5" y2="408.1695336715257" stroke="black" stroke-width="1"/>
  <text x="920" y="500" text-anchor="middle" font-size="12" font-family="Arial, sans-serif" transform="rotate(-45 920 500)">oh-my-zsh</text>
  <rect x="957.5" y="465.10148319197947" width="20" height="14.898516808020533" fill="#4ECDC4" opacity="0.8"/>
  <text x="967.5" y="460.10148319197947" text-anchor="middle" font-size="10" font-family="Arial, sans-serif">32.1</text>
  <line x1="967.5" y1="464.82372113453545" x2="967.5" y2="465.3792452494235" stroke="black" stroke-width="1"/>
  <line x1="964.5" y1="464.82372113453545" x2="970.5" y2="464.82372113453545" stroke="black" stroke-width="1"/>
  <line x1="964.5" y1="465.3792452494235" x2="970.5" y2="465.3792452494235" stroke="black" stroke-width="1"/>
  <rect x="982.5" y="404.31813444578256" width="20" height="75.68186555421744" fill="#98D8C8" opacity="0.8"/>
  <text x="992.5" y="399.31813444578256" text-anchor="middle" font-size="10" font-family="Arial, sans-serif">163.1</text>
  <line x1="992.5" y1="403.97571613989805" x2="992.5" y2="404.66055275166707" stroke="black" stroke-width="1"/>
  <line x1="989.5" y1="403.97571613989805" x2="995.5" y2="403.97571613989805" stroke="black" stroke-width="1"/>
  <line x1="989.5" y1="404.66055275166707" x2="995.5" y2="404.66055275166707" stroke="black" stroke-width="1"/>
  <text x="980" y="500" text-anchor="middle" font-size="12" font-family="Arial, sans-serif" transform="rotate(-45 980 500)">antibody</text>
  <rect x="1017.5" y="454.7429213797393" width="20" height="25.25707862026067" fill="#4ECDC4" opacity="0.8"/>
  <text x="1027.5" y="449.7429213797393" text-anchor="middle" font-size="10" font-family="Arial, sans-serif">54.4</text>
  <line x1="1027.5" y1="454.26205247181434" x2="1027.5" y2="455.22379028766426" stroke="black" stroke-width="1"/>
  <line x1="1024.5" y1="454.26205247181434" x2="1030.5" y2="454.26205247181434" stroke="black" stroke-width="1"/>
  <line x1="1024.5" y1="455.22379028766426" x2="1030.5" y2="455.22379028766426" stroke="black" stroke-width="1"/>
  <rect x="1042.5" y="321.7888178173902" width="20" height="158.21118218260978" fill="#98D8C8" opacity="0.8"/>
  <text x="1052.5" y="316.7888178173902" text-anchor="middle" font-size="10" font-family="Arial, sans-serif">341.0</text>
  <line x1="1052.5" y1="318.4635677281647" x2="1052.5" y2="325.11406790661573" stroke="black" stroke-width="1"/>
  <line x1="1049.5" y1="318.4635677281647" x2="1055.5" y2="318.4635677281647" stroke="black" stroke-width="1"/>
  <line x1="1049.5" y1="325.11406790661573" x2="1055.5" y2="325.11406790661573" stroke="black" stroke-width="1"/>
  <text x="1040" y="500" text-anchor="middle" font-size="12" font-family="Arial, sans-serif" transform="rotate(-45 1040 500)">zpm</text>
  <rect x="1077.5" y="457.920587059185" width="20" height="22.079412940814994" fill="#4ECDC4" opacity="0.8"/>
  <text x="1087.5" y="452.920587059185" text-anchor="middle" font-size="10" font-family="Arial, sans-serif">47.6</text>
  <line x1="1087.5" y1="456.69074706446366" x2="1087.5" y2="459.1504270539063" stroke="black" stroke-width="1"/>
  <line x1="1084.5" y1="456.69074706446366" x2="1090.5" y2="456.69074706446366" stroke="black" stroke-width="1"/>
  <line x1="1084.5" y1="459.1504270539063" x2="1090.5" y2="459.1504270539063" stroke="black" stroke-width="1"/>
  <rect x="1102.5" y="314.3593051580706" width="20" height="165.64069484192945" fill="#98D8C8" opacity="0.8"/>
  <text x="1112.5" y="309.3593051580706" text-anchor="middle" font-size="10" font-family="Arial, sans-serif">357.0</text>
  <line x1="1112.5" y1="312.5887445765023" x2="1112.5" y2="316.1298657396389" stroke="black" stroke-width="1"/>
  <line x1="1109.5" y1="312.5887445765023" x2="1115.5" y2="312.5887445765023" stroke="black" stroke-width="1"/>
  <line x1="1109.5" y1="316.1298657396389" x2="1115.5" y2="316.1298657396389" stroke="black" stroke-width="1"/>
  <text x="1100" y="500" text-anchor="middle" font-size="12" font-family="Arial, sans-serif" transform="rotate(-45 1100 500)">zinit</text>
  <rect x="1137.5" y="426.49726479525486" width="20" height="53.502735204745164" fill="#4ECDC4" opacity="0.8"/>
  <text x="1147.5" y="421.49726479525486" text-anchor="middle" font-size="10" font-family="Arial, sans-serif">115.3</text>
  <line x1="1147.5" y1="425.8616647264997" x2="1147.5" y2="427.13286486401" stroke="black" stroke-width="1"/>
  <line x1="1144.5" y1="425.8616647264997" x2="1150.5" y2="425.8616647264997" stroke="black" stroke-width="1"/>
  <line x1="1144.5" y1="427.13286486401" x2="1150.5" y2="427.13286486401" stroke="black" stroke-width="1"/>
  <rect x="1162.5" y="69.08449857410051" width="20" height="410.9155014258995" fill="#98D8C8" opacity="0.8"/>
  <text x="1172.5" y="64.08449857410051" text-anchor="middle" font-size="10" font-family="Arial, sans-serif">885.6</text>
  <line x1="1172.5" y1="49.99999999999999" x2="1172.5" y2="88.16899714820102" stroke="black" stroke-width="1"/>
  <line x1="1169.5" y1="49.99999999999999" x2="1175.5" y2="49.99999999999999" stroke="black" stroke-width="1"/>
  <line x1="1169.5" y1="88.16899714820102" x2="1175.5" y2="88.16899714820102" stroke="black" stroke-width="1"/>
  <text x="1160" y="500" text-anchor="middle" font-size="12" font-family="Arial, sans-serif" transform="rotate(-45 1160 500)">zplug</text>
  <!-- Legend -->
  <rect x="1290" y="60" width="15" height="15" fill="#4ECDC4" opacity="0.8"/>
  <text x="1310" y="72" font-size="12" font-family="Arial, sans-serif">0 plugins</text>
  <rect x="1290" y="80" width="15" height="15" fill="#98D8C8" opacity="0.8"/>
  <text x="1310" y="92" font-size="12" font-family="Arial, sans-serif">25 plugins</text>
</svg>