<svg width="1200" height="600" xmlns="http://www.w3.org/2000/svg" style="background: white;">
  <text x="600" y="30" text-anchor="middle" font-size="20" font-weight="bold" font-family="Arial, sans-serif">Zsh Plugin Manager Load Time Comparison</text>
  
  <!-- Grid lines -->
  <line x1="80" y1="480" x2="1080" y2="480" stroke="#e0e0e0" stroke-width="1"/>
  <text x="70" y="485" text-anchor="end" font-size="12" font-family="Arial, sans-serif">0</text>
  <line x1="80" y1="394" x2="1080" y2="394" stroke="#e0e0e0" stroke-width="1"/>
  <text x="70" y="399" text-anchor="end" font-size="12" font-family="Arial, sans-serif">97</text>
  <line x1="80" y1="308" x2="1080" y2="308" stroke="#e0e0e0" stroke-width="1"/>
  <text x="70" y="313" text-anchor="end" font-size="12" font-family="Arial, sans-serif">194</text>
  <line x1="80" y1="222" x2="1080" y2="222" stroke="#e0e0e0" stroke-width="1"/>
  <text x="70" y="227" text-anchor="end" font-size="12" font-family="Arial, sans-serif">291</text>
  <line x1="80" y1="136" x2="1080" y2="136" stroke="#e0e0e0" stroke-width="1"/>
  <text x="70" y="141" text-anchor="end" font-size="12" font-family="Arial, sans-serif">388</text>
  <line x1="80" y1="50" x2="1080" y2="50" stroke="#e0e0e0" stroke-width="1"/>
  <text x="70" y="55" text-anchor="end" font-size="12" font-family="Arial, sans-serif">485</text>
  
  <!-- Axes -->
  <line x1="80" y1="50" x2="80" y2="480" stroke="black" stroke-width="2"/>
  <line x1="80" y1="480" x2="1080" y2="480" stroke="black" stroke-width="2"/>
  
  <!-- Y-axis label -->
  <text x="20" y="300" text-anchor="middle" font-size="14" font-family="Arial, sans-serif" transform="rotate(-90 20 300)">Time (ms)</text>
  <rect x="107.5" y="452.22557087116303" width="20" height="27.77442912883699" fill="#4ECDC4" opacity="0.8"/>
  <text x="117.5" y="447.22557087116303" text-anchor="middle" font-size="10" font-family="Arial, sans-serif">31.3</text>
  <line x1="117.5" y1="451.8572653159885" x2="117.5" y2="452.59387642633754" stroke="black" stroke-width="1"/>
  <line x1="114.5" y1="451.8572653159885" x2="120.5" y2="451.8572653159885" stroke="black" stroke-width="1"/>
  <line x1="114.5" y1="452.59387642633754" x2="120.5" y2="452.59387642633754" stroke="black" stroke-width="1"/>
  <rect x="132.5" y="452.00841808590195" width="20" height="27.99158191409807" fill="#98D8C8" opacity="0.8"/>
  <text x="142.5" y="447.00841808590195" text-anchor="middle" font-size="10" font-family="Arial, sans-serif">31.6</text>
  <line x1="142.5" y1="451.5823827125716" x2="142.5" y2="452.4344534592323" stroke="black" stroke-width="1"/>
  <line x1="139.5" y1="451.5823827125716" x2="145.5" y2="451.5823827125716" stroke="black" stroke-width="1"/>
  <line x1="139.5" y1="452.4344534592323" x2="145.5" y2="452.4344534592323" stroke="black" stroke-width="1"/>
  <text x="130" y="500" text-anchor="middle" font-size="12" font-family="Arial, sans-serif" transform="rotate(-45 130 500)">antidote</text>
  <rect x="167.5" y="451.756700371862" width="20" height="28.243299628137986" fill="#4ECDC4" opacity="0.8"/>
  <text x="177.5" y="446.756700371862" text-anchor="middle" font-size="10" font-family="Arial, sans-serif">31.9</text>
  <line x1="177.5" y1="450.9006808713956" x2="177.5" y2="452.6127198723284" stroke="black" stroke-width="1"/>
  <line x1="174.5" y1="450.9006808713956" x2="180.5" y2="450.9006808713956" stroke="black" stroke-width="1"/>
  <line x1="174.5" y1="452.6127198723284" x2="180.5" y2="452.6127198723284" stroke="black" stroke-width="1"/>
  <rect x="192.5" y="439.9841811263211" width="20" height="40.01581887367891" fill="#98D8C8" opacity="0.8"/>
  <text x="202.5" y="434.9841811263211" text-anchor="middle" font-size="10" font-family="Arial, sans-serif">45.1</text>
  <line x1="202.5" y1="438.893173323418" x2="202.5" y2="441.0751889292242" stroke="black" stroke-width="1"/>
  <line x1="199.5" y1="438.893173323418" x2="205.5" y2="438.893173323418" stroke="black" stroke-width="1"/>
  <line x1="199.5" y1="441.0751889292242" x2="205.5" y2="441.0751889292242" stroke="black" stroke-width="1"/>
  <text x="190" y="500" text-anchor="middle" font-size="12" font-family="Arial, sans-serif" transform="rotate(-45 190 500)">znap</text>
  <rect x="227.5" y="450.6269508646518" width="20" height="29.3730491353482" fill="#4ECDC4" opacity="0.8"/>
  <text x="237.5" y="445.6269508646518" text-anchor="middle" font-size="10" font-family="Arial, sans-serif">33.1</text>
  <line x1="237.5" y1="450.39287725499344" x2="237.5" y2="450.86102447431017" stroke="black" stroke-width="1"/>
  <line x1="234.5" y1="450.39287725499344" x2="240.5" y2="450.39287725499344" stroke="black" stroke-width="1"/>
  <line x1="234.5" y1="450.86102447431017" x2="240.5" y2="450.86102447431017" stroke="black" stroke-width="1"/>
  <rect x="252.5" y="438.20361673467414" width="20" height="41.796383265325865" fill="#98D8C8" opacity="0.8"/>
  <text x="262.5" y="433.20361673467414" text-anchor="middle" font-size="10" font-family="Arial, sans-serif">47.1</text>
  <line x1="262.5" y1="437.9065098817579" x2="262.5" y2="438.50072358759036" stroke="black" stroke-width="1"/>
  <line x1="259.5" y1="437.9065098817579" x2="265.5" y2="437.9065098817579" stroke="black" stroke-width="1"/>
  <line x1="259.5" y1="438.50072358759036" x2="265.5" y2="438.50072358759036" stroke="black" stroke-width="1"/>
  <text x="250" y="500" text-anchor="middle" font-size="12" font-family="Arial, sans-serif" transform="rotate(-45 250 500)">zgenom</text>
  <rect x="287.5" y="416.2765542551741" width="20" height="63.72344574482591" fill="#4ECDC4" opacity="0.8"/>
  <text x="297.5" y="411.2765542551741" text-anchor="middle" font-size="10" font-family="Arial, sans-serif">71.9</text>
  <line x1="297.5" y1="415.54019850433883" x2="297.5" y2="417.0129100060094" stroke="black" stroke-width="1"/>
  <line x1="294.5" y1="415.54019850433883" x2="300.5" y2="415.54019850433883" stroke="black" stroke-width="1"/>
  <line x1="294.5" y1="417.0129100060094" x2="300.5" y2="417.0129100060094" stroke="black" stroke-width="1"/>
  <rect x="312.5" y="416.85845316066025" width="20" height="63.14154683933977" fill="#98D8C8" opacity="0.8"/>
  <text x="322.5" y="411.85845316066025" text-anchor="middle" font-size="10" font-family="Arial, sans-serif">71.2</text>
  <line x1="322.5" y1="416.4676181690352" x2="322.5" y2="417.2492881522853" stroke="black" stroke-width="1"/>
  <line x1="319.5" y1="416.4676181690352" x2="325.5" y2="416.4676181690352" stroke="black" stroke-width="1"/>
  <line x1="319.5" y1="417.2492881522853" x2="325.5" y2="417.2492881522853" stroke="black" stroke-width="1"/>
  <text x="310" y="500" text-anchor="middle" font-size="12" font-family="Arial, sans-serif" transform="rotate(-45 310 500)">prezto</text>
  <rect x="347.5" y="452.477995386608" width="20" height="27.522004613392056" fill="#4ECDC4" opacity="0.8"/>
  <text x="357.5" y="447.477995386608" text-anchor="middle" font-size="10" font-family="Arial, sans-serif">31.0</text>
  <line x1="357.5" y1="452.2401320294614" x2="357.5" y2="452.71585874375455" stroke="black" stroke-width="1"/>
  <line x1="354.5" y1="452.2401320294614" x2="360.5" y2="452.2401320294614" stroke="black" stroke-width="1"/>
  <line x1="354.5" y1="452.71585874375455" x2="360.5" y2="452.71585874375455" stroke="black" stroke-width="1"/>
  <rect x="372.5" y="399.2842276882054" width="20" height="80.71577231179455" fill="#98D8C8" opacity="0.8"/>
  <text x="382.5" y="394.2842276882054" text-anchor="middle" font-size="10" font-family="Arial, sans-serif">91.0</text>
  <line x1="382.5" y1="398.50457998550917" x2="382.5" y2="400.06387539090167" stroke="black" stroke-width="1"/>
  <line x1="379.5" y1="398.50457998550917" x2="385.5" y2="398.50457998550917" stroke="black" stroke-width="1"/>
  <line x1="379.5" y1="400.06387539090167" x2="385.5" y2="400.06387539090167" stroke="black" stroke-width="1"/>
  <text x="370" y="500" text-anchor="middle" font-size="12" font-family="Arial, sans-serif" transform="rotate(-45 370 500)">zim</text>
  <rect x="407.5" y="398.5882017835713" width="20" height="81.4117982164287" fill="#4ECDC4" opacity="0.8"/>
  <text x="417.5" y="393.5882017835713" text-anchor="middle" font-size="10" font-family="Arial, sans-serif">91.8</text>
  <line x1="417.5" y1="397.5727822098339" x2="417.5" y2="399.6036213573087" stroke="black" stroke-width="1"/>
  <line x1="414.5" y1="397.5727822098339" x2="420.5" y2="397.5727822098339" stroke="black" stroke-width="1"/>
  <line x1="414.5" y1="399.6036213573087" x2="420.5" y2="399.6036213573087" stroke="black" stroke-width="1"/>
  <rect x="432.5" y="398.44802481344857" width="20" height="81.55197518655146" fill="#98D8C8" opacity="0.8"/>
  <text x="442.5" y="393.44802481344857" text-anchor="middle" font-size="10" font-family="Arial, sans-serif">92.0</text>
  <line x1="442.5" y1="398.06580245224706" x2="442.5" y2="398.8302471746501" stroke="black" stroke-width="1"/>
  <line x1="439.5" y1="398.06580245224706" x2="445.5" y2="398.06580245224706" stroke="black" stroke-width="1"/>
  <line x1="439.5" y1="398.8302471746501" x2="445.5" y2="398.8302471746501" stroke="black" stroke-width="1"/>
  <text x="430" y="500" text-anchor="middle" font-size="12" font-family="Arial, sans-serif" transform="rotate(-45 430 500)">oh-my-zsh</text>
  <rect x="467.5" y="445.1954774624828" width="20" height="34.8045225375172" fill="#4ECDC4" opacity="0.8"/>
  <text x="477.5" y="440.1954774624828" text-anchor="middle" font-size="10" font-family="Arial, sans-serif">39.3</text>
  <line x1="477.5" y1="438.69416502398013" x2="477.5" y2="451.6967899009855" stroke="black" stroke-width="1"/>
  <line x1="474.5" y1="438.69416502398013" x2="480.5" y2="438.69416502398013" stroke="black" stroke-width="1"/>
  <line x1="474.5" y1="451.6967899009855" x2="480.5" y2="451.6967899009855" stroke="black" stroke-width="1"/>
  <rect x="492.5" y="382.3241617740428" width="20" height="97.67583822595718" fill="#98D8C8" opacity="0.8"/>
  <text x="502.5" y="377.3241617740428" text-anchor="middle" font-size="10" font-family="Arial, sans-serif">110.2</text>
  <line x1="502.5" y1="369.1785511140177" x2="502.5" y2="395.4697724340679" stroke="black" stroke-width="1"/>
  <line x1="499.5" y1="369.1785511140177" x2="505.5" y2="369.1785511140177" stroke="black" stroke-width="1"/>
  <line x1="499.5" y1="395.4697724340679" x2="505.5" y2="395.4697724340679" stroke="black" stroke-width="1"/>
  <text x="490" y="500" text-anchor="middle" font-size="12" font-family="Arial, sans-serif" transform="rotate(-45 490 500)">antigen</text>
  <rect x="527.5" y="450.34672877187757" width="20" height="29.653271228122442" fill="#4ECDC4" opacity="0.8"/>
  <text x="537.5" y="445.34672877187757" text-anchor="middle" font-size="10" font-family="Arial, sans-serif">33.4</text>
  <line x1="537.5" y1="449.89202662175137" x2="537.5" y2="450.80143092200376" stroke="black" stroke-width="1"/>
  <line x1="534.5" y1="449.89202662175137" x2="540.5" y2="449.89202662175137" stroke="black" stroke-width="1"/>
  <line x1="534.5" y1="450.80143092200376" x2="540.5" y2="450.80143092200376" stroke="black" stroke-width="1"/>
  <rect x="552.5" y="381.03270095753453" width="20" height="98.9672990424655" fill="#98D8C8" opacity="0.8"/>
  <text x="562.5" y="376.03270095753453" text-anchor="middle" font-size="10" font-family="Arial, sans-serif">111.6</text>
  <line x1="562.5" y1="364.450729229839" x2="562.5" y2="397.61467268523006" stroke="black" stroke-width="1"/>
  <line x1="559.5" y1="364.450729229839" x2="565.5" y2="364.450729229839" stroke="black" stroke-width="1"/>
  <line x1="559.5" y1="397.61467268523006" x2="565.5" y2="397.61467268523006" stroke="black" stroke-width="1"/>
  <text x="550" y="500" text-anchor="middle" font-size="12" font-family="Arial, sans-serif" transform="rotate(-45 550 500)">zcomet</text>
  <rect x="587.5" y="452.01309793071647" width="20" height="27.986902069283513" fill="#4ECDC4" opacity="0.8"/>
  <text x="597.5" y="447.01309793071647" text-anchor="middle" font-size="10" font-family="Arial, sans-serif">31.6</text>
  <line x1="597.5" y1="451.58920315534726" x2="597.5" y2="452.4369927060857" stroke="black" stroke-width="1"/>
  <line x1="594.5" y1="451.58920315534726" x2="600.5" y2="451.58920315534726" stroke="black" stroke-width="1"/>
  <line x1="594.5" y1="452.4369927060857" x2="600.5" y2="452.4369927060857" stroke="black" stroke-width="1"/>
  <rect x="612.5" y="379.3812312812036" width="20" height="100.6187687187964" fill="#98D8C8" opacity="0.8"/>
  <text x="622.5" y="374.3812312812036" text-anchor="middle" font-size="10" font-family="Arial, sans-serif">113.5</text>
  <line x1="622.5" y1="378.4489415436168" x2="622.5" y2="380.3135210187904" stroke="black" stroke-width="1"/>
  <line x1="619.5" y1="378.4489415436168" x2="625.5" y2="378.4489415436168" stroke="black" stroke-width="1"/>
  <line x1="619.5" y1="380.3135210187904" x2="625.5" y2="380.3135210187904" stroke="black" stroke-width="1"/>
  <text x="610" y="500" text-anchor="middle" font-size="12" font-family="Arial, sans-serif" transform="rotate(-45 610 500)">antigen-hs</text>
  <rect x="647.5" y="451.45921743310817" width="20" height="28.540782566891863" fill="#4ECDC4" opacity="0.8"/>
  <text x="657.5" y="446.45921743310817" text-anchor="middle" font-size="10" font-family="Arial, sans-serif">32.2</text>
  <line x1="657.5" y1="451.23832895637923" x2="657.5" y2="451.6801059098371" stroke="black" stroke-width="1"/>
  <line x1="654.5" y1="451.23832895637923" x2="660.5" y2="451.23832895637923" stroke="black" stroke-width="1"/>
  <line x1="654.5" y1="451.6801059098371" x2="660.5" y2="451.6801059098371" stroke="black" stroke-width="1"/>
  <rect x="672.5" y="378.9907061561096" width="20" height="101.0092938438904" fill="#98D8C8" opacity="0.8"/>
  <text x="682.5" y="373.9907061561096" text-anchor="middle" font-size="10" font-family="Arial, sans-serif">113.9</text>
  <line x1="682.5" y1="378.4914186498478" x2="682.5" y2="379.4899936623714" stroke="black" stroke-width="1"/>
  <line x1="679.5" y1="378.4914186498478" x2="685.5" y2="378.4914186498478" stroke="black" stroke-width="1"/>
  <line x1="679.5" y1="379.4899936623714" x2="685.5" y2="379.4899936623714" stroke="black" stroke-width="1"/>
  <text x="670" y="500" text-anchor="middle" font-size="12" font-family="Arial, sans-serif" transform="rotate(-45 670 500)">zr</text>
  <rect x="707.5" y="451.2739051692932" width="20" height="28.726094830706828" fill="#4ECDC4" opacity="0.8"/>
  <text x="717.5" y="446.2739051692932" text-anchor="middle" font-size="10" font-family="Arial, sans-serif">32.4</text>
  <line x1="717.5" y1="450.9836951377549" x2="717.5" y2="451.56411520083145" stroke="black" stroke-width="1"/>
  <line x1="714.5" y1="450.9836951377549" x2="720.5" y2="450.9836951377549" stroke="black" stroke-width="1"/>
  <line x1="714.5" y1="451.56411520083145" x2="720.5" y2="451.56411520083145" stroke="black" stroke-width="1"/>
  <rect x="732.5" y="373.651611854528" width="20" height="106.348388145472" fill="#98D8C8" opacity="0.8"/>
  <text x="742.5" y="368.651611854528" text-anchor="middle" font-size="10" font-family="Arial, sans-serif">119.9</text>
  <line x1="742.5" y1="372.8926432189758" x2="742.5" y2="374.41058049008024" stroke="black" stroke-width="1"/>
  <line x1="739.5" y1="372.8926432189758" x2="745.5" y2="372.8926432189758" stroke="black" stroke-width="1"/>
  <line x1="739.5" y1="374.41058049008024" x2="745.5" y2="374.41058049008024" stroke="black" stroke-width="1"/>
  <text x="730" y="500" text-anchor="middle" font-size="12" font-family="Arial, sans-serif" transform="rotate(-45 730 500)">sheldon</text>
  <rect x="767.5" y="452.1407286859833" width="20" height="27.859271314016702" fill="#4ECDC4" opacity="0.8"/>
  <text x="777.5" y="447.1407286859833" text-anchor="middle" font-size="10" font-family="Arial, sans-serif">31.4</text>
  <line x1="777.5" y1="451.98160711901784" x2="777.5" y2="452.2998502529487" stroke="black" stroke-width="1"/>
  <line x1="774.5" y1="451.98160711901784" x2="780.5" y2="451.98160711901784" stroke="black" stroke-width="1"/>
  <line x1="774.5" y1="452.2998502529487" x2="780.5" y2="452.2998502529487" stroke="black" stroke-width="1"/>
  <rect x="792.5" y="373.4098329428016" width="20" height="106.59016705719843" fill="#98D8C8" opacity="0.8"/>
  <text x="802.5" y="368.4098329428016" text-anchor="middle" font-size="10" font-family="Arial, sans-serif">120.2</text>
  <line x1="802.5" y1="356.9975940174334" x2="802.5" y2="389.82207186816976" stroke="black" stroke-width="1"/>
  <line x1="799.5" y1="356.9975940174334" x2="805.5" y2="356.9975940174334" stroke="black" stroke-width="1"/>
  <line x1="799.5" y1="389.82207186816976" x2="805.5" y2="389.82207186816976" stroke="black" stroke-width="1"/>
  <text x="790" y="500" text-anchor="middle" font-size="12" font-family="Arial, sans-serif" transform="rotate(-45 790 500)">alf</text>
  <rect x="827.5" y="450.73642996776715" width="20" height="29.263570032232824" fill="#4ECDC4" opacity="0.8"/>
  <text x="837.5" y="445.73642996776715" text-anchor="middle" font-size="10" font-family="Arial, sans-serif">33.0</text>
  <line x1="837.5" y1="450.56669659624293" x2="837.5" y2="450.90616333929137" stroke="black" stroke-width="1"/>
  <line x1="834.5" y1="450.56669659624293" x2="840.5" y2="450.56669659624293" stroke="black" stroke-width="1"/>
  <line x1="834.5" y1="450.90616333929137" x2="840.5" y2="450.90616333929137" stroke="black" stroke-width="1"/>
  <rect x="852.5" y="332.66704262569954" width="20" height="147.3329573743005" fill="#98D8C8" opacity="0.8"/>
  <text x="862.5" y="327.66704262569954" text-anchor="middle" font-size="10" font-family="Arial, sans-serif">166.2</text>
  <line x1="862.5" y1="331.15720093587106" x2="862.5" y2="334.176884315528" stroke="black" stroke-width="1"/>
  <line x1="859.5" y1="331.15720093587106" x2="865.5" y2="331.15720093587106" stroke="black" stroke-width="1"/>
  <line x1="859.5" y1="334.176884315528" x2="865.5" y2="334.176884315528" stroke="black" stroke-width="1"/>
  <text x="850" y="500" text-anchor="middle" font-size="12" font-family="Arial, sans-serif" transform="rotate(-45 850 500)">antibody</text>
  <rect x="887.5" y="428.44030000044336" width="20" height="51.559699999556635" fill="#4ECDC4" opacity="0.8"/>
  <text x="897.5" y="423.44030000044336" text-anchor="middle" font-size="10" font-family="Arial, sans-serif">58.1</text>
  <line x1="897.5" y1="428.04219570719516" x2="897.5" y2="428.83840429369155" stroke="black" stroke-width="1"/>
  <line x1="894.5" y1="428.04219570719516" x2="900.5" y2="428.04219570719516" stroke="black" stroke-width="1"/>
  <line x1="894.5" y1="428.83840429369155" x2="900.5" y2="428.83840429369155" stroke="black" stroke-width="1"/>
  <rect x="912.5" y="154.5388015662229" width="20" height="325.4611984337771" fill="#98D8C8" opacity="0.8"/>
  <text x="922.5" y="149.5388015662229" text-anchor="middle" font-size="10" font-family="Arial, sans-serif">367.0</text>
  <line x1="922.5" y1="131.80693122079043" x2="922.5" y2="177.27067191165537" stroke="black" stroke-width="1"/>
  <line x1="919.5" y1="131.80693122079043" x2="925.5" y2="131.80693122079043" stroke="black" stroke-width="1"/>
  <line x1="919.5" y1="177.27067191165537" x2="925.5" y2="177.27067191165537" stroke="black" stroke-width="1"/>
  <text x="910" y="500" text-anchor="middle" font-size="12" font-family="Arial, sans-serif" transform="rotate(-45 910 500)">zpm</text>
  <rect x="947.5" y="436.99109471683465" width="20" height="43.00890528316534" fill="#4ECDC4" opacity="0.8"/>
  <text x="957.5" y="431.99109471683465" text-anchor="middle" font-size="10" font-family="Arial, sans-serif">48.5</text>
  <line x1="957.5" y1="436.73532325025917" x2="957.5" y2="437.24686618341013" stroke="black" stroke-width="1"/>
  <line x1="954.5" y1="436.73532325025917" x2="960.5" y2="436.73532325025917" stroke="black" stroke-width="1"/>
  <line x1="954.5" y1="437.24686618341013" x2="960.5" y2="437.24686618341013" stroke="black" stroke-width="1"/>
  <rect x="972.5" y="149.48867466921843" width="20" height="330.5113253307816" fill="#98D8C8" opacity="0.8"/>
  <text x="982.5" y="144.48867466921843" text-anchor="middle" font-size="10" font-family="Arial, sans-serif">372.7</text>
  <line x1="982.5" y1="144.93739484526895" x2="982.5" y2="154.0399544931679" stroke="black" stroke-width="1"/>
  <line x1="979.5" y1="144.93739484526895" x2="985.5" y2="144.93739484526895" stroke="black" stroke-width="1"/>
  <line x1="979.5" y1="154.0399544931679" x2="985.5" y2="154.0399544931679" stroke="black" stroke-width="1"/>
  <text x="970" y="500" text-anchor="middle" font-size="12" font-family="Arial, sans-serif" transform="rotate(-45 970 500)">zinit</text>
  <rect x="1007.5" y="375.84531480427535" width="20" height="104.15468519572464" fill="#4ECDC4" opacity="0.8"/>
  <text x="1017.5" y="370.84531480427535" text-anchor="middle" font-size="10" font-family="Arial, sans-serif">117.5</text>
  <line x1="1017.5" y1="374.84607357785063" x2="1017.5" y2="376.84455603070006" stroke="black" stroke-width="1"/>
  <line x1="1014.5" y1="374.84607357785063" x2="1020.5" y2="374.84607357785063" stroke="black" stroke-width="1"/>
  <line x1="1014.5" y1="376.84455603070006" x2="1020.5" y2="376.84455603070006" stroke="black" stroke-width="1"/>
  <rect x="1032.5" y="72.77259473104556" width="20" height="407.22740526895444" fill="#98D8C8" opacity="0.8"/>
  <text x="1042.5" y="67.77259473104556" text-anchor="middle" font-size="10" font-family="Arial, sans-serif">459.2</text>
  <line x1="1042.5" y1="49.999999999999986" x2="1042.5" y2="95.54518946209113" stroke="black" stroke-width="1"/>
  <line x1="1039.5" y1="49.999999999999986" x2="1045.5" y2="49.999999999999986" stroke="black" stroke-width="1"/>
  <line x1="1039.5" y1="95.54518946209113" x2="1045.5" y2="95.54518946209113" stroke="black" stroke-width="1"/>
  <text x="1030" y="500" text-anchor="middle" font-size="12" font-family="Arial, sans-serif" transform="rotate(-45 1030 500)">zplug</text>
  <!-- Legend -->
  <rect x="1090" y="60" width="15" height="15" fill="#4ECDC4" opacity="0.8"/>
  <text x="1110" y="72" font-size="12" font-family="Arial, sans-serif">0 plugins</text>
  <rect x="1090" y="80" width="15" height="15" fill="#98D8C8" opacity="0.8"/>
  <text x="1110" y="92" font-size="12" font-family="Arial, sans-serif">25 plugins</text>
</svg>