<svg width="1200" height="600" xmlns="http://www.w3.org/2000/svg" style="background: white;">
  <text x="600" y="30" text-anchor="middle" font-size="20" font-weight="bold" font-family="Arial, sans-serif">Zsh Plugin Manager Load Time Comparison</text>
  
  <!-- Grid lines -->
  <line x1="80" y1="480" x2="1080" y2="480" stroke="#e0e0e0" stroke-width="1"/>
  <text x="70" y="485" text-anchor="end" font-size="12" font-family="Arial, sans-serif">0</text>
  <line x1="80" y1="394" x2="1080" y2="394" stroke="#e0e0e0" stroke-width="1"/>
  <text x="70" y="399" text-anchor="end" font-size="12" font-family="Arial, sans-serif">175</text>
  <line x1="80" y1="308" x2="1080" y2="308" stroke="#e0e0e0" stroke-width="1"/>
  <text x="70" y="313" text-anchor="end" font-size="12" font-family="Arial, sans-serif">349</text>
  <line x1="80" y1="222" x2="1080" y2="222" stroke="#e0e0e0" stroke-width="1"/>
  <text x="70" y="227" text-anchor="end" font-size="12" font-family="Arial, sans-serif">524</text>
  <line x1="80" y1="136" x2="1080" y2="136" stroke="#e0e0e0" stroke-width="1"/>
  <text x="70" y="141" text-anchor="end" font-size="12" font-family="Arial, sans-serif">698</text>
  <line x1="80" y1="50" x2="1080" y2="50" stroke="#e0e0e0" stroke-width="1"/>
  <text x="70" y="55" text-anchor="end" font-size="12" font-family="Arial, sans-serif">873</text>
  
  <!-- Axes -->
  <line x1="80" y1="50" x2="80" y2="480" stroke="black" stroke-width="2"/>
  <line x1="80" y1="480" x2="1080" y2="480" stroke="black" stroke-width="2"/>
  
  <!-- Y-axis label -->
  <text x="20" y="300" text-anchor="middle" font-size="14" font-family="Arial, sans-serif" transform="rotate(-90 20 300)">Time (ms)</text>
  <rect x="77.5" y="465.31587322840835" width="20" height="14.684126771591664" fill="#4ECDC4" opacity="0.8"/>
  <text x="87.5" y="460.31587322840835" text-anchor="middle" font-size="10" font-family="Arial, sans-serif">29.8</text>
  <line x1="87.5" y1="465.2125397973102" x2="87.5" y2="465.4192066595065" stroke="black" stroke-width="1"/>
  <line x1="84.5" y1="465.2125397973102" x2="90.5" y2="465.2125397973102" stroke="black" stroke-width="1"/>
  <line x1="84.5" y1="465.4192066595065" x2="90.5" y2="465.4192066595065" stroke="black" stroke-width="1"/>
  <rect x="102.5" y="458.91661804079314" width="20" height="21.08338195920686" fill="#98D8C8" opacity="0.8"/>
  <text x="112.5" y="453.91661804079314" text-anchor="middle" font-size="10" font-family="Arial, sans-serif">42.8</text>
  <line x1="112.5" y1="458.6837388504745" x2="112.5" y2="459.14949723111175" stroke="black" stroke-width="1"/>
  <line x1="109.5" y1="458.6837388504745" x2="115.5" y2="458.6837388504745" stroke="black" stroke-width="1"/>
  <line x1="109.5" y1="459.14949723111175" x2="115.5" y2="459.14949723111175" stroke="black" stroke-width="1"/>
  <text x="100" y="500" text-anchor="middle" font-size="12" font-family="Arial, sans-serif" transform="rotate(-45 100 500)">znap</text>
  <rect x="137.5" y="464.58728916967476" width="20" height="15.412710830325238" fill="#4ECDC4" opacity="0.8"/>
  <text x="147.5" y="459.58728916967476" text-anchor="middle" font-size="10" font-family="Arial, sans-serif">31.3</text>
  <line x1="147.5" y1="464.25508515881626" x2="147.5" y2="464.91949318053327" stroke="black" stroke-width="1"/>
  <line x1="144.5" y1="464.25508515881626" x2="150.5" y2="464.25508515881626" stroke="black" stroke-width="1"/>
  <line x1="144.5" y1="464.91949318053327" x2="150.5" y2="464.91949318053327" stroke="black" stroke-width="1"/>
  <rect x="162.5" y="458.1023425958215" width="20" height="21.89765740417851" fill="#98D8C8" opacity="0.8"/>
  <text x="172.5" y="453.1023425958215" text-anchor="middle" font-size="10" font-family="Arial, sans-serif">44.4</text>
  <line x1="172.5" y1="457.76150880661686" x2="172.5" y2="458.4431763850261" stroke="black" stroke-width="1"/>
  <line x1="169.5" y1="457.76150880661686" x2="175.5" y2="457.76150880661686" stroke="black" stroke-width="1"/>
  <line x1="169.5" y1="458.4431763850261" x2="175.5" y2="458.4431763850261" stroke="black" stroke-width="1"/>
  <text x="160" y="500" text-anchor="middle" font-size="12" font-family="Arial, sans-serif" transform="rotate(-45 160 500)">zgenom</text>
  <rect x="197.5" y="462.7009883205086" width="20" height="17.299011679491382" fill="#4ECDC4" opacity="0.8"/>
  <text x="207.5" y="457.7009883205086" text-anchor="middle" font-size="10" font-family="Arial, sans-serif">35.1</text>
  <line x1="207.5" y1="462.54942779799313" x2="207.5" y2="462.85254884302407" stroke="black" stroke-width="1"/>
  <line x1="204.5" y1="462.54942779799313" x2="210.5" y2="462.54942779799313" stroke="black" stroke-width="1"/>
  <line x1="204.5" y1="462.85254884302407" x2="210.5" y2="462.85254884302407" stroke="black" stroke-width="1"/>
  <rect x="222.5" y="434.27490553876646" width="20" height="45.725094461233525" fill="#98D8C8" opacity="0.8"/>
  <text x="232.5" y="429.27490553876646" text-anchor="middle" font-size="10" font-family="Arial, sans-serif">92.8</text>
  <line x1="232.5" y1="433.89796226158836" x2="232.5" y2="434.65184881594456" stroke="black" stroke-width="1"/>
  <line x1="229.5" y1="433.89796226158836" x2="235.5" y2="433.89796226158836" stroke="black" stroke-width="1"/>
  <line x1="229.5" y1="434.65184881594456" x2="235.5" y2="434.65184881594456" stroke="black" stroke-width="1"/>
  <text x="220" y="500" text-anchor="middle" font-size="12" font-family="Arial, sans-serif" transform="rotate(-45 220 500)">zim</text>
  <rect x="257.5" y="464.331249349618" width="20" height="15.668750650381964" fill="#4ECDC4" opacity="0.8"/>
  <text x="267.5" y="459.331249349618" text-anchor="middle" font-size="10" font-family="Arial, sans-serif">31.8</text>
  <line x1="267.5" y1="463.5700199037894" x2="267.5" y2="465.09247879544665" stroke="black" stroke-width="1"/>
  <line x1="264.5" y1="463.5700199037894" x2="270.5" y2="463.5700199037894" stroke="black" stroke-width="1"/>
  <line x1="264.5" y1="465.09247879544665" x2="270.5" y2="465.09247879544665" stroke="black" stroke-width="1"/>
  <rect x="282.5" y="429.9640761086133" width="20" height="50.0359238913867" fill="#98D8C8" opacity="0.8"/>
  <text x="292.5" y="424.9640761086133" text-anchor="middle" font-size="10" font-family="Arial, sans-serif">101.5</text>
  <line x1="292.5" y1="429.65112303051177" x2="292.5" y2="430.27702918671486" stroke="black" stroke-width="1"/>
  <line x1="289.5" y1="429.65112303051177" x2="295.5" y2="429.65112303051177" stroke="black" stroke-width="1"/>
  <line x1="289.5" y1="430.27702918671486" x2="295.5" y2="430.27702918671486" stroke="black" stroke-width="1"/>
  <text x="280" y="500" text-anchor="middle" font-size="12" font-family="Arial, sans-serif" transform="rotate(-45 280 500)">zcomet</text>
  <rect x="317.5" y="464.1285376766868" width="20" height="15.871462323313231" fill="#4ECDC4" opacity="0.8"/>
  <text x="327.5" y="459.1285376766868" text-anchor="middle" font-size="10" font-family="Arial, sans-serif">32.2</text>
  <line x1="327.5" y1="463.7586220445792" x2="327.5" y2="464.49845330879435" stroke="black" stroke-width="1"/>
  <line x1="324.5" y1="463.7586220445792" x2="330.5" y2="463.7586220445792" stroke="black" stroke-width="1"/>
  <line x1="324.5" y1="464.49845330879435" x2="330.5" y2="464.49845330879435" stroke="black" stroke-width="1"/>
  <rect x="342.5" y="429.7458940560653" width="20" height="50.25410594393467" fill="#98D8C8" opacity="0.8"/>
  <text x="352.5" y="424.7458940560653" text-anchor="middle" font-size="10" font-family="Arial, sans-serif">102.0</text>
  <line x1="352.5" y1="429.39564985288695" x2="352.5" y2="430.0961382592437" stroke="black" stroke-width="1"/>
  <line x1="349.5" y1="429.39564985288695" x2="355.5" y2="429.39564985288695" stroke="black" stroke-width="1"/>
  <line x1="349.5" y1="430.0961382592437" x2="355.5" y2="430.0961382592437" stroke="black" stroke-width="1"/>
  <text x="340" y="500" text-anchor="middle" font-size="12" font-family="Arial, sans-serif" transform="rotate(-45 340 500)">antigen</text>
  <rect x="377.5" y="465.46132222103677" width="20" height="14.538677778963214" fill="#4ECDC4" opacity="0.8"/>
  <text x="387.5" y="460.46132222103677" text-anchor="middle" font-size="10" font-family="Arial, sans-serif">29.5</text>
  <line x1="387.5" y1="465.32580786562653" x2="387.5" y2="465.596836576447" stroke="black" stroke-width="1"/>
  <line x1="384.5" y1="465.32580786562653" x2="390.5" y2="465.32580786562653" stroke="black" stroke-width="1"/>
  <line x1="384.5" y1="465.596836576447" x2="390.5" y2="465.596836576447" stroke="black" stroke-width="1"/>
  <rect x="402.5" y="426.5615556979715" width="20" height="53.43844430202846" fill="#98D8C8" opacity="0.8"/>
  <text x="412.5" y="421.5615556979715" text-anchor="middle" font-size="10" font-family="Arial, sans-serif">108.5</text>
  <line x1="412.5" y1="426.33012477084696" x2="412.5" y2="426.7929866250961" stroke="black" stroke-width="1"/>
  <line x1="409.5" y1="426.33012477084696" x2="415.5" y2="426.33012477084696" stroke="black" stroke-width="1"/>
  <line x1="409.5" y1="426.7929866250961" x2="415.5" y2="426.7929866250961" stroke="black" stroke-width="1"/>
  <text x="400" y="500" text-anchor="middle" font-size="12" font-family="Arial, sans-serif" transform="rotate(-45 400 500)">zr</text>
  <rect x="437.5" y="464.993182809228" width="20" height="15.00681719077201" fill="#4ECDC4" opacity="0.8"/>
  <text x="447.5" y="459.993182809228" text-anchor="middle" font-size="10" font-family="Arial, sans-serif">30.5</text>
  <line x1="447.5" y1="463.99132331180806" x2="447.5" y2="465.995042306648" stroke="black" stroke-width="1"/>
  <line x1="444.5" y1="463.99132331180806" x2="450.5" y2="463.99132331180806" stroke="black" stroke-width="1"/>
  <line x1="444.5" y1="465.995042306648" x2="450.5" y2="465.995042306648" stroke="black" stroke-width="1"/>
  <rect x="462.5" y="426.22072779928965" width="20" height="53.779272200710366" fill="#98D8C8" opacity="0.8"/>
  <text x="472.5" y="421.22072779928965" text-anchor="middle" font-size="10" font-family="Arial, sans-serif">109.1</text>
  <line x1="472.5" y1="425.86494566339695" x2="472.5" y2="426.57650993518234" stroke="black" stroke-width="1"/>
  <line x1="469.5" y1="425.86494566339695" x2="475.5" y2="425.86494566339695" stroke="black" stroke-width="1"/>
  <line x1="469.5" y1="426.57650993518234" x2="475.5" y2="426.57650993518234" stroke="black" stroke-width="1"/>
  <text x="460" y="500" text-anchor="middle" font-size="12" font-family="Arial, sans-serif" transform="rotate(-45 460 500)">alf</text>
  <rect x="497.5" y="465.3242777024031" width="20" height="14.675722297596904" fill="#4ECDC4" opacity="0.8"/>
  <text x="507.5" y="460.3242777024031" text-anchor="middle" font-size="10" font-family="Arial, sans-serif">29.8</text>
  <line x1="507.5" y1="464.51068079634257" x2="507.5" y2="466.1378746084636" stroke="black" stroke-width="1"/>
  <line x1="504.5" y1="464.51068079634257" x2="510.5" y2="464.51068079634257" stroke="black" stroke-width="1"/>
  <line x1="504.5" y1="466.1378746084636" x2="510.5" y2="466.1378746084636" stroke="black" stroke-width="1"/>
  <rect x="522.5" y="426.070935334231" width="20" height="53.929064665768955" fill="#98D8C8" opacity="0.8"/>
  <text x="532.5" y="421.070935334231" text-anchor="middle" font-size="10" font-family="Arial, sans-serif">109.5</text>
  <line x1="532.5" y1="425.2570057080822" x2="532.5" y2="426.88486496037984" stroke="black" stroke-width="1"/>
  <line x1="529.5" y1="425.2570057080822" x2="535.5" y2="425.2570057080822" stroke="black" stroke-width="1"/>
  <line x1="529.5" y1="426.88486496037984" x2="535.5" y2="426.88486496037984" stroke="black" stroke-width="1"/>
  <text x="520" y="500" text-anchor="middle" font-size="12" font-family="Arial, sans-serif" transform="rotate(-45 520 500)">antigen-hs</text>
  <rect x="557.5" y="464.0106694009058" width="20" height="15.9893305990942" fill="#4ECDC4" opacity="0.8"/>
  <text x="567.5" y="459.0106694009058" text-anchor="middle" font-size="10" font-family="Arial, sans-serif">32.5</text>
  <line x1="567.5" y1="463.7350346992512" x2="567.5" y2="464.2863041025604" stroke="black" stroke-width="1"/>
  <line x1="564.5" y1="463.7350346992512" x2="570.5" y2="463.7350346992512" stroke="black" stroke-width="1"/>
  <line x1="564.5" y1="464.2863041025604" x2="570.5" y2="464.2863041025604" stroke="black" stroke-width="1"/>
  <rect x="582.5" y="424.53334021572516" width="20" height="55.466659784274825" fill="#98D8C8" opacity="0.8"/>
  <text x="592.5" y="419.53334021572516" text-anchor="middle" font-size="10" font-family="Arial, sans-serif">112.6</text>
  <line x1="592.5" y1="424.22123772077146" x2="592.5" y2="424.84544271067887" stroke="black" stroke-width="1"/>
  <line x1="589.5" y1="424.22123772077146" x2="595.5" y2="424.22123772077146" stroke="black" stroke-width="1"/>
  <line x1="589.5" y1="424.84544271067887" x2="595.5" y2="424.84544271067887" stroke="black" stroke-width="1"/>
  <text x="580" y="500" text-anchor="middle" font-size="12" font-family="Arial, sans-serif" transform="rotate(-45 580 500)">sheldon</text>
  <rect x="617.5" y="462.6107197217323" width="20" height="17.389280278267698" fill="#4ECDC4" opacity="0.8"/>
  <text x="627.5" y="457.6107197217323" text-anchor="middle" font-size="10" font-family="Arial, sans-serif">35.3</text>
  <line x1="627.5" y1="461.5065135165854" x2="627.5" y2="463.71492592687923" stroke="black" stroke-width="1"/>
  <line x1="624.5" y1="461.5065135165854" x2="630.5" y2="461.5065135165854" stroke="black" stroke-width="1"/>
  <line x1="624.5" y1="463.71492592687923" x2="630.5" y2="463.71492592687923" stroke="black" stroke-width="1"/>
  <rect x="642.5" y="421.8747235821224" width="20" height="58.12527641787761" fill="#98D8C8" opacity="0.8"/>
  <text x="652.5" y="416.8747235821224" text-anchor="middle" font-size="10" font-family="Arial, sans-serif">118.0</text>
  <line x1="652.5" y1="421.63984610842067" x2="652.5" y2="422.1096010558241" stroke="black" stroke-width="1"/>
  <line x1="649.5" y1="421.63984610842067" x2="655.5" y2="421.63984610842067" stroke="black" stroke-width="1"/>
  <line x1="649.5" y1="422.1096010558241" x2="655.5" y2="422.1096010558241" stroke="black" stroke-width="1"/>
  <text x="640" y="500" text-anchor="middle" font-size="12" font-family="Arial, sans-serif" transform="rotate(-45 640 500)">antidote</text>
  <rect x="677.5" y="444.99350873145465" width="20" height="35.00649126854532" fill="#4ECDC4" opacity="0.8"/>
  <text x="687.5" y="439.99350873145465" text-anchor="middle" font-size="10" font-family="Arial, sans-serif">71.0</text>
  <line x1="687.5" y1="444.68721499126144" x2="687.5" y2="445.29980247164787" stroke="black" stroke-width="1"/>
  <line x1="684.5" y1="444.68721499126144" x2="690.5" y2="444.68721499126144" stroke="black" stroke-width="1"/>
  <line x1="684.5" y1="445.29980247164787" x2="690.5" y2="445.29980247164787" stroke="black" stroke-width="1"/>
  <rect x="702.5" y="411.92577267582453" width="20" height="68.07422732417548" fill="#98D8C8" opacity="0.8"/>
  <text x="712.5" y="406.92577267582453" text-anchor="middle" font-size="10" font-family="Arial, sans-serif">138.2</text>
  <line x1="712.5" y1="410.6373193742813" x2="712.5" y2="413.2142259773678" stroke="black" stroke-width="1"/>
  <line x1="709.5" y1="410.6373193742813" x2="715.5" y2="410.6373193742813" stroke="black" stroke-width="1"/>
  <line x1="709.5" y1="413.2142259773678" x2="715.5" y2="413.2142259773678" stroke="black" stroke-width="1"/>
  <text x="700" y="500" text-anchor="middle" font-size="12" font-family="Arial, sans-serif" transform="rotate(-45 700 500)">prezto</text>
  <rect x="737.5" y="435.4343197116482" width="20" height="44.5656802883518" fill="#4ECDC4" opacity="0.8"/>
  <text x="747.5" y="430.4343197116482" text-anchor="middle" font-size="10" font-family="Arial, sans-serif">90.4</text>
  <line x1="747.5" y1="433.9028523873223" x2="747.5" y2="436.9657870359741" stroke="black" stroke-width="1"/>
  <line x1="744.5" y1="433.9028523873223" x2="750.5" y2="433.9028523873223" stroke="black" stroke-width="1"/>
  <line x1="744.5" y1="436.9657870359741" x2="750.5" y2="436.9657870359741" stroke="black" stroke-width="1"/>
  <rect x="762.5" y="401.70207468965253" width="20" height="78.29792531034747" fill="#98D8C8" opacity="0.8"/>
  <text x="772.5" y="396.70207468965253" text-anchor="middle" font-size="10" font-family="Arial, sans-serif">158.9</text>
  <line x1="772.5" y1="401.05285008361363" x2="772.5" y2="402.35129929569143" stroke="black" stroke-width="1"/>
  <line x1="769.5" y1="401.05285008361363" x2="775.5" y2="401.05285008361363" stroke="black" stroke-width="1"/>
  <line x1="769.5" y1="402.35129929569143" x2="775.5" y2="402.35129929569143" stroke="black" stroke-width="1"/>
  <text x="760" y="500" text-anchor="middle" font-size="12" font-family="Arial, sans-serif" transform="rotate(-45 760 500)">oh-my-zsh</text>
  <rect x="797.5" y="464.14188986972147" width="20" height="15.858110130278506" fill="#4ECDC4" opacity="0.8"/>
  <text x="807.5" y="459.14188986972147" text-anchor="middle" font-size="10" font-family="Arial, sans-serif">32.2</text>
  <line x1="807.5" y1="462.96379942976426" x2="807.5" y2="465.31998030967867" stroke="black" stroke-width="1"/>
  <line x1="804.5" y1="462.96379942976426" x2="810.5" y2="462.96379942976426" stroke="black" stroke-width="1"/>
  <line x1="804.5" y1="465.31998030967867" x2="810.5" y2="465.31998030967867" stroke="black" stroke-width="1"/>
  <rect x="822.5" y="398.03077729833586" width="20" height="81.96922270166414" fill="#98D8C8" opacity="0.8"/>
  <text x="832.5" y="393.03077729833586" text-anchor="middle" font-size="10" font-family="Arial, sans-serif">166.4</text>
  <line x1="832.5" y1="397.0863778470462" x2="832.5" y2="398.9751767496255" stroke="black" stroke-width="1"/>
  <line x1="829.5" y1="397.0863778470462" x2="835.5" y2="397.0863778470462" stroke="black" stroke-width="1"/>
  <line x1="829.5" y1="398.9751767496255" x2="835.5" y2="398.9751767496255" stroke="black" stroke-width="1"/>
  <text x="820" y="500" text-anchor="middle" font-size="12" font-family="Arial, sans-serif" transform="rotate(-45 820 500)">antibody</text>
  <rect x="857.5" y="453.3113660665649" width="20" height="26.688633933435092" fill="#4ECDC4" opacity="0.8"/>
  <text x="867.5" y="448.3113660665649" text-anchor="middle" font-size="10" font-family="Arial, sans-serif">54.2</text>
  <line x1="867.5" y1="453.1366909723726" x2="867.5" y2="453.4860411607572" stroke="black" stroke-width="1"/>
  <line x1="864.5" y1="453.1366909723726" x2="870.5" y2="453.1366909723726" stroke="black" stroke-width="1"/>
  <line x1="864.5" y1="453.4860411607572" x2="870.5" y2="453.4860411607572" stroke="black" stroke-width="1"/>
  <rect x="882.5" y="316.70951205042496" width="20" height="163.29048794957504" fill="#98D8C8" opacity="0.8"/>
  <text x="892.5" y="311.70951205042496" text-anchor="middle" font-size="10" font-family="Arial, sans-serif">331.4</text>
  <line x1="892.5" y1="315.31038295267734" x2="892.5" y2="318.1086411481726" stroke="black" stroke-width="1"/>
  <line x1="889.5" y1="315.31038295267734" x2="895.5" y2="315.31038295267734" stroke="black" stroke-width="1"/>
  <line x1="889.5" y1="318.1086411481726" x2="895.5" y2="318.1086411481726" stroke="black" stroke-width="1"/>
  <text x="880" y="500" text-anchor="middle" font-size="12" font-family="Arial, sans-serif" transform="rotate(-45 880 500)">zpm</text>
  <rect x="917.5" y="456.98300604151154" width="20" height="23.016993958488474" fill="#4ECDC4" opacity="0.8"/>
  <text x="927.5" y="451.98300604151154" text-anchor="middle" font-size="10" font-family="Arial, sans-serif">46.7</text>
  <line x1="927.5" y1="456.8311066887551" x2="927.5" y2="457.134905394268" stroke="black" stroke-width="1"/>
  <line x1="924.5" y1="456.8311066887551" x2="930.5" y2="456.8311066887551" stroke="black" stroke-width="1"/>
  <line x1="924.5" y1="457.134905394268" x2="930.5" y2="457.134905394268" stroke="black" stroke-width="1"/>
  <rect x="942.5" y="304.94684551197093" width="20" height="175.05315448802907" fill="#98D8C8" opacity="0.8"/>
  <text x="952.5" y="299.94684551197093" text-anchor="middle" font-size="10" font-family="Arial, sans-serif">355.3</text>
  <line x1="952.5" y1="303.556418337897" x2="952.5" y2="306.33727268604486" stroke="black" stroke-width="1"/>
  <line x1="949.5" y1="303.556418337897" x2="955.5" y2="303.556418337897" stroke="black" stroke-width="1"/>
  <line x1="949.5" y1="306.33727268604486" x2="955.5" y2="306.33727268604486" stroke="black" stroke-width="1"/>
  <text x="940" y="500" text-anchor="middle" font-size="12" font-family="Arial, sans-serif" transform="rotate(-45 940 500)">zinit</text>
  <rect x="977.5" y="423.28554397970595" width="20" height="56.71445602029407" fill="#4ECDC4" opacity="0.8"/>
  <text x="987.5" y="418.28554397970595" text-anchor="middle" font-size="10" font-family="Arial, sans-serif">115.1</text>
  <line x1="987.5" y1="422.68427908022625" x2="987.5" y2="423.88680887918565" stroke="black" stroke-width="1"/>
  <line x1="984.5" y1="422.68427908022625" x2="990.5" y2="422.68427908022625" stroke="black" stroke-width="1"/>
  <line x1="984.5" y1="423.88680887918565" x2="990.5" y2="423.88680887918565" stroke="black" stroke-width="1"/>
  <rect x="1002.5" y="54.34417701102598" width="20" height="425.655822988974" fill="#98D8C8" opacity="0.8"/>
  <text x="1012.5" y="49.34417701102598" text-anchor="middle" font-size="10" font-family="Arial, sans-serif">863.9</text>
  <line x1="1012.5" y1="49.99999999999997" x2="1012.5" y2="58.68835402205198" stroke="black" stroke-width="1"/>
  <line x1="1009.5" y1="49.99999999999997" x2="1015.5" y2="49.99999999999997" stroke="black" stroke-width="1"/>
  <line x1="1009.5" y1="58.68835402205198" x2="1015.5" y2="58.68835402205198" stroke="black" stroke-width="1"/>
  <text x="1000" y="500" text-anchor="middle" font-size="12" font-family="Arial, sans-serif" transform="rotate(-45 1000 500)">zplug</text>
  <rect x="1037.5" y="465.22417677409493" width="20" height="14.77582322590507" fill="#4ECDC4" opacity="0.8"/>
  <text x="1047.5" y="460.22417677409493" text-anchor="middle" font-size="10" font-family="Arial, sans-serif">30.0</text>
  <line x1="1047.5" y1="465.056893483862" x2="1047.5" y2="465.3914600643279" stroke="black" stroke-width="1"/>
  <line x1="1044.5" y1="465.056893483862" x2="1050.5" y2="465.056893483862" stroke="black" stroke-width="1"/>
  <line x1="1044.5" y1="465.3914600643279" x2="1050.5" y2="465.3914600643279" stroke="black" stroke-width="1"/>
  <text x="1060" y="500" text-anchor="middle" font-size="12" font-family="Arial, sans-serif" transform="rotate(-45 1060 500)">vanilla</text>
  <!-- Legend -->
  <rect x="1090" y="60" width="15" height="15" fill="#4ECDC4" opacity="0.8"/>
  <text x="1110" y="72" font-size="12" font-family="Arial, sans-serif">0 plugins</text>
  <rect x="1090" y="80" width="15" height="15" fill="#98D8C8" opacity="0.8"/>
  <text x="1110" y="92" font-size="12" font-family="Arial, sans-serif">25 plugins</text>
</svg>