<svg width="1400" height="600" xmlns="http://www.w3.org/2000/svg" style="background: white;">
  <text x="700" y="30" text-anchor="middle" font-size="20" font-weight="bold" font-family="Arial, sans-serif">Zsh Plugin Manager Load Time Comparison</text>
  
  <!-- Grid lines -->
  <line x1="80" y1="480" x2="1280" y2="480" stroke="#e0e0e0" stroke-width="1"/>
  <text x="70" y="485" text-anchor="end" font-size="12" font-family="Arial, sans-serif">0</text>
  <line x1="80" y1="394" x2="1280" y2="394" stroke="#e0e0e0" stroke-width="1"/>
  <text x="70" y="399" text-anchor="end" font-size="12" font-family="Arial, sans-serif">911</text>
  <line x1="80" y1="308" x2="1280" y2="308" stroke="#e0e0e0" stroke-width="1"/>
  <text x="70" y="313" text-anchor="end" font-size="12" font-family="Arial, sans-serif">1822</text>
  <line x1="80" y1="222" x2="1280" y2="222" stroke="#e0e0e0" stroke-width="1"/>
  <text x="70" y="227" text-anchor="end" font-size="12" font-family="Arial, sans-serif">2734</text>
  <line x1="80" y1="136" x2="1280" y2="136" stroke="#e0e0e0" stroke-width="1"/>
  <text x="70" y="141" text-anchor="end" font-size="12" font-family="Arial, sans-serif">3645</text>
  <line x1="80" y1="50" x2="1280" y2="50" stroke="#e0e0e0" stroke-width="1"/>
  <text x="70" y="55" text-anchor="end" font-size="12" font-family="Arial, sans-serif">4556</text>
  
  <!-- Axes -->
  <line x1="80" y1="50" x2="80" y2="480" stroke="black" stroke-width="2"/>
  <line x1="80" y1="480" x2="1280" y2="480" stroke="black" stroke-width="2"/>
  
  <!-- Y-axis label -->
  <text x="20" y="300" text-anchor="middle" font-size="14" font-family="Arial, sans-serif" transform="rotate(-90 20 300)">Time (ms)</text>
  <rect x="177.5" y="477.16428045478176" width="20" height="2.8357195452182213" fill="#4ECDC4" opacity="0.8"/>
  <text x="187.5" y="472.16428045478176" text-anchor="middle" font-size="10" font-family="Arial, sans-serif">30.0</text>
  <line x1="187.5" y1="477.14390682655693" x2="187.5" y2="477.1846540830066" stroke="black" stroke-width="1"/>
  <line x1="184.5" y1="477.14390682655693" x2="190.5" y2="477.14390682655693" stroke="black" stroke-width="1"/>
  <line x1="184.5" y1="477.1846540830066" x2="190.5" y2="477.1846540830066" stroke="black" stroke-width="1"/>
  <text x="200" y="500" text-anchor="middle" font-size="12" font-family="Arial, sans-serif" transform="rotate(-45 200 500)">vanilla</text>
  <rect x="237.5" y="476.7043661492018" width="20" height="3.2956338507981693" fill="#4ECDC4" opacity="0.8"/>
  <text x="247.5" y="471.7043661492018" text-anchor="middle" font-size="10" font-family="Arial, sans-serif">34.9</text>
  <line x1="247.5" y1="476.6702237731733" x2="247.5" y2="476.7385085252303" stroke="black" stroke-width="1"/>
  <line x1="244.5" y1="476.6702237731733" x2="250.5" y2="476.6702237731733" stroke="black" stroke-width="1"/>
  <line x1="244.5" y1="476.7385085252303" x2="250.5" y2="476.7385085252303" stroke="black" stroke-width="1"/>
  <rect x="262.5" y="471.06512235024707" width="20" height="8.934877649752913" fill="#98D8C8" opacity="0.8"/>
  <text x="272.5" y="466.06512235024707" text-anchor="middle" font-size="10" font-family="Arial, sans-serif">94.7</text>
  <line x1="272.5" y1="470.5222861073863" x2="272.5" y2="471.6079585931078" stroke="black" stroke-width="1"/>
  <line x1="269.5" y1="470.5222861073863" x2="275.5" y2="470.5222861073863" stroke="black" stroke-width="1"/>
  <line x1="269.5" y1="471.6079585931078" x2="275.5" y2="471.6079585931078" stroke="black" stroke-width="1"/>
  <text x="260" y="500" text-anchor="middle" font-size="12" font-family="Arial, sans-serif" transform="rotate(-45 260 500)">zim</text>
  <rect x="297.5" y="476.5013888217589" width="20" height="3.4986111782411204" fill="#4ECDC4" opacity="0.8"/>
  <text x="307.5" y="471.5013888217589" text-anchor="middle" font-size="10" font-family="Arial, sans-serif">37.1</text>
  <line x1="307.5" y1="475.66865949649963" x2="307.5" y2="477.33411814701816" stroke="black" stroke-width="1"/>
  <line x1="304.5" y1="475.66865949649963" x2="310.5" y2="475.66865949649963" stroke="black" stroke-width="1"/>
  <line x1="304.5" y1="477.33411814701816" x2="310.5" y2="477.33411814701816" stroke="black" stroke-width="1"/>
  <rect x="322.5" y="470.3305936134244" width="20" height="9.669406386575565" fill="#98D8C8" opacity="0.8"/>
  <text x="332.5" y="465.3305936134244" text-anchor="middle" font-size="10" font-family="Arial, sans-serif">102.5</text>
  <line x1="332.5" y1="468.5702957687225" x2="332.5" y2="472.09089145812635" stroke="black" stroke-width="1"/>
  <line x1="329.5" y1="468.5702957687225" x2="335.5" y2="468.5702957687225" stroke="black" stroke-width="1"/>
  <line x1="329.5" y1="472.09089145812635" x2="335.5" y2="472.09089145812635" stroke="black" stroke-width="1"/>
  <text x="320" y="500" text-anchor="middle" font-size="12" font-family="Arial, sans-serif" transform="rotate(-45 320 500)">zgenom</text>
  <rect x="357.5" y="477.0124673513156" width="20" height="2.9875326486844234" fill="#4ECDC4" opacity="0.8"/>
  <text x="367.5" y="472.0124673513156" text-anchor="middle" font-size="10" font-family="Arial, sans-serif">31.7</text>
  <line x1="367.5" y1="476.99237144110606" x2="367.5" y2="477.0325632615251" stroke="black" stroke-width="1"/>
  <line x1="364.5" y1="476.99237144110606" x2="370.5" y2="476.99237144110606" stroke="black" stroke-width="1"/>
  <line x1="364.5" y1="477.0325632615251" x2="370.5" y2="477.0325632615251" stroke="black" stroke-width="1"/>
  <rect x="382.5" y="470.18547201934354" width="20" height="9.81452798065645" fill="#98D8C8" opacity="0.8"/>
  <text x="392.5" y="465.18547201934354" text-anchor="middle" font-size="10" font-family="Arial, sans-serif">104.0</text>
  <line x1="392.5" y1="469.56090741453335" x2="392.5" y2="470.8100366241537" stroke="black" stroke-width="1"/>
  <line x1="389.5" y1="469.56090741453335" x2="395.5" y2="469.56090741453335" stroke="black" stroke-width="1"/>
  <line x1="389.5" y1="470.8100366241537" x2="395.5" y2="470.8100366241537" stroke="black" stroke-width="1"/>
  <text x="380" y="500" text-anchor="middle" font-size="12" font-family="Arial, sans-serif" transform="rotate(-45 380 500)">zcomet</text>
  <rect x="417.5" y="476.96731258015575" width="20" height="3.032687419844241" fill="#4ECDC4" opacity="0.8"/>
  <text x="427.5" y="471.96731258015575" text-anchor="middle" font-size="10" font-family="Arial, sans-serif">32.1</text>
  <line x1="427.5" y1="476.9481228386229" x2="427.5" y2="476.9865023216886" stroke="black" stroke-width="1"/>
  <line x1="424.5" y1="476.9481228386229" x2="430.5" y2="476.9481228386229" stroke="black" stroke-width="1"/>
  <line x1="424.5" y1="476.9865023216886" x2="430.5" y2="476.9865023216886" stroke="black" stroke-width="1"/>
  <rect x="442.5" y="469.99154005340034" width="20" height="10.008459946599672" fill="#98D8C8" opacity="0.8"/>
  <text x="452.5" y="464.99154005340034" text-anchor="middle" font-size="10" font-family="Arial, sans-serif">106.0</text>
  <line x1="452.5" y1="469.0571655609159" x2="452.5" y2="470.9259145458848" stroke="black" stroke-width="1"/>
  <line x1="449.5" y1="469.0571655609159" x2="455.5" y2="469.0571655609159" stroke="black" stroke-width="1"/>
  <line x1="449.5" y1="470.9259145458848" x2="455.5" y2="470.9259145458848" stroke="black" stroke-width="1"/>
  <text x="440" y="500" text-anchor="middle" font-size="12" font-family="Arial, sans-serif" transform="rotate(-45 440 500)">antigen</text>
  <rect x="477.5" y="476.48470708266046" width="20" height="3.5152929173395626" fill="#4ECDC4" opacity="0.8"/>
  <text x="487.5" y="471.48470708266046" text-anchor="middle" font-size="10" font-family="Arial, sans-serif">37.2</text>
  <line x1="487.5" y1="475.629120784421" x2="487.5" y2="477.34029338089994" stroke="black" stroke-width="1"/>
  <line x1="484.5" y1="475.629120784421" x2="490.5" y2="475.629120784421" stroke="black" stroke-width="1"/>
  <line x1="484.5" y1="477.34029338089994" x2="490.5" y2="477.34029338089994" stroke="black" stroke-width="1"/>
  <rect x="502.5" y="469.660304923927" width="20" height="10.339695076072996" fill="#98D8C8" opacity="0.8"/>
  <text x="512.5" y="464.660304923927" text-anchor="middle" font-size="10" font-family="Arial, sans-serif">109.6</text>
  <line x1="512.5" y1="469.597125774982" x2="512.5" y2="469.72348407287205" stroke="black" stroke-width="1"/>
  <line x1="509.5" y1="469.597125774982" x2="515.5" y2="469.597125774982" stroke="black" stroke-width="1"/>
  <line x1="509.5" y1="469.72348407287205" x2="515.5" y2="469.72348407287205" stroke="black" stroke-width="1"/>
  <text x="500" y="500" text-anchor="middle" font-size="12" font-family="Arial, sans-serif" transform="rotate(-45 500 500)">alf</text>
  <rect x="537.5" y="477.1653900142911" width="20" height="2.834609985708891" fill="#4ECDC4" opacity="0.8"/>
  <text x="547.5" y="472.1653900142911" text-anchor="middle" font-size="10" font-family="Arial, sans-serif">30.0</text>
  <line x1="547.5" y1="477.1319887257915" x2="547.5" y2="477.19879130279077" stroke="black" stroke-width="1"/>
  <line x1="544.5" y1="477.1319887257915" x2="550.5" y2="477.1319887257915" stroke="black" stroke-width="1"/>
  <line x1="544.5" y1="477.19879130279077" x2="550.5" y2="477.19879130279077" stroke="black" stroke-width="1"/>
  <rect x="562.5" y="469.50335332329684" width="20" height="10.496646676703167" fill="#98D8C8" opacity="0.8"/>
  <text x="572.5" y="464.50335332329684" text-anchor="middle" font-size="10" font-family="Arial, sans-serif">111.2</text>
  <line x1="572.5" y1="468.8599415243341" x2="572.5" y2="470.1467651222596" stroke="black" stroke-width="1"/>
  <line x1="569.5" y1="468.8599415243341" x2="575.5" y2="468.8599415243341" stroke="black" stroke-width="1"/>
  <line x1="569.5" y1="470.1467651222596" x2="575.5" y2="470.1467651222596" stroke="black" stroke-width="1"/>
  <text x="560" y="500" text-anchor="middle" font-size="12" font-family="Arial, sans-serif" transform="rotate(-45 560 500)">zr</text>
  <rect x="597.5" y="476.9602297558781" width="20" height="3.0397702441218653" fill="#4ECDC4" opacity="0.8"/>
  <text x="607.5" y="471.9602297558781" text-anchor="middle" font-size="10" font-family="Arial, sans-serif">32.2</text>
  <line x1="607.5" y1="476.9172604909811" x2="607.5" y2="477.0031990207751" stroke="black" stroke-width="1"/>
  <line x1="604.5" y1="476.9172604909811" x2="610.5" y2="476.9172604909811" stroke="black" stroke-width="1"/>
  <line x1="604.5" y1="477.0031990207751" x2="610.5" y2="477.0031990207751" stroke="black" stroke-width="1"/>
  <rect x="622.5" y="469.35442954445466" width="20" height="10.645570455545363" fill="#98D8C8" opacity="0.8"/>
  <text x="632.5" y="464.35442954445466" text-anchor="middle" font-size="10" font-family="Arial, sans-serif">112.8</text>
  <line x1="632.5" y1="469.29579434301314" x2="632.5" y2="469.4130647458962" stroke="black" stroke-width="1"/>
  <line x1="629.5" y1="469.29579434301314" x2="635.5" y2="469.29579434301314" stroke="black" stroke-width="1"/>
  <line x1="629.5" y1="469.4130647458962" x2="635.5" y2="469.4130647458962" stroke="black" stroke-width="1"/>
  <text x="620" y="500" text-anchor="middle" font-size="12" font-family="Arial, sans-serif" transform="rotate(-45 620 500)">sheldon</text>
  <rect x="657.5" y="477.1777428684927" width="20" height="2.8222571315072646" fill="#4ECDC4" opacity="0.8"/>
  <text x="667.5" y="472.1777428684927" text-anchor="middle" font-size="10" font-family="Arial, sans-serif">29.9</text>
  <line x1="667.5" y1="477.1528021981831" x2="667.5" y2="477.2026835388023" stroke="black" stroke-width="1"/>
  <line x1="664.5" y1="477.1528021981831" x2="670.5" y2="477.1528021981831" stroke="black" stroke-width="1"/>
  <line x1="664.5" y1="477.2026835388023" x2="670.5" y2="477.2026835388023" stroke="black" stroke-width="1"/>
  <rect x="682.5" y="468.9879767862788" width="20" height="11.012023213721172" fill="#98D8C8" opacity="0.8"/>
  <text x="692.5" y="463.9879767862788" text-anchor="middle" font-size="10" font-family="Arial, sans-serif">116.7</text>
  <line x1="692.5" y1="467.29093416209247" x2="692.5" y2="470.68501941046515" stroke="black" stroke-width="1"/>
  <line x1="689.5" y1="467.29093416209247" x2="695.5" y2="467.29093416209247" stroke="black" stroke-width="1"/>
  <line x1="689.5" y1="470.68501941046515" x2="695.5" y2="470.68501941046515" stroke="black" stroke-width="1"/>
  <text x="680" y="500" text-anchor="middle" font-size="12" font-family="Arial, sans-serif" transform="rotate(-45 680 500)">antigen-hs</text>
  <rect x="717.5" y="476.1347675009285" width="20" height="3.865232499071501" fill="#4ECDC4" opacity="0.8"/>
  <text x="727.5" y="471.1347675009285" text-anchor="middle" font-size="10" font-family="Arial, sans-serif">41.0</text>
  <line x1="727.5" y1="475.2273776798554" x2="727.5" y2="477.0421573220016" stroke="black" stroke-width="1"/>
  <line x1="724.5" y1="475.2273776798554" x2="730.5" y2="475.2273776798554" stroke="black" stroke-width="1"/>
  <line x1="724.5" y1="477.0421573220016" x2="730.5" y2="477.0421573220016" stroke="black" stroke-width="1"/>
  <rect x="742.5" y="468.850041767377" width="20" height="11.149958232623039" fill="#98D8C8" opacity="0.8"/>
  <text x="752.5" y="463.850041767377" text-anchor="middle" font-size="10" font-family="Arial, sans-serif">118.1</text>
  <line x1="752.5" y1="468.7967426312808" x2="752.5" y2="468.9033409034732" stroke="black" stroke-width="1"/>
  <line x1="749.5" y1="468.7967426312808" x2="755.5" y2="468.7967426312808" stroke="black" stroke-width="1"/>
  <line x1="749.5" y1="468.9033409034732" x2="755.5" y2="468.9033409034732" stroke="black" stroke-width="1"/>
  <text x="740" y="500" text-anchor="middle" font-size="12" font-family="Arial, sans-serif" transform="rotate(-45 740 500)">antidote</text>
  <rect x="777.5" y="473.09399307054525" width="20" height="6.906006929454772" fill="#4ECDC4" opacity="0.8"/>
  <text x="787.5" y="468.09399307054525" text-anchor="middle" font-size="10" font-family="Arial, sans-serif">73.2</text>
  <line x1="787.5" y1="472.6467539243262" x2="787.5" y2="473.5412322167643" stroke="black" stroke-width="1"/>
  <line x1="784.5" y1="472.6467539243262" x2="790.5" y2="472.6467539243262" stroke="black" stroke-width="1"/>
  <line x1="784.5" y1="473.5412322167643" x2="790.5" y2="473.5412322167643" stroke="black" stroke-width="1"/>
  <rect x="802.5" y="466.9684566221029" width="20" height="13.031543377897101" fill="#98D8C8" opacity="0.8"/>
  <text x="812.5" y="461.9684566221029" text-anchor="middle" font-size="10" font-family="Arial, sans-serif">138.1</text>
  <line x1="812.5" y1="466.7229324551798" x2="812.5" y2="467.21398078902604" stroke="black" stroke-width="1"/>
  <line x1="809.5" y1="466.7229324551798" x2="815.5" y2="466.7229324551798" stroke="black" stroke-width="1"/>
  <line x1="809.5" y1="467.21398078902604" x2="815.5" y2="467.21398078902604" stroke="black" stroke-width="1"/>
  <text x="800" y="500" text-anchor="middle" font-size="12" font-family="Arial, sans-serif" transform="rotate(-45 800 500)">prezto</text>
  <rect x="837.5" y="476.76864698452744" width="20" height="3.231353015472582" fill="#4ECDC4" opacity="0.8"/>
  <text x="847.5" y="471.76864698452744" text-anchor="middle" font-size="10" font-family="Arial, sans-serif">34.2</text>
  <line x1="847.5" y1="476.2507934207737" x2="847.5" y2="477.2865005482812" stroke="black" stroke-width="1"/>
  <line x1="844.5" y1="476.2507934207737" x2="850.5" y2="476.2507934207737" stroke="black" stroke-width="1"/>
  <line x1="844.5" y1="477.2865005482812" x2="850.5" y2="477.2865005482812" stroke="black" stroke-width="1"/>
  <rect x="862.5" y="466.9623813373137" width="20" height="13.037618662686304" fill="#98D8C8" opacity="0.8"/>
  <text x="872.5" y="461.9623813373137" text-anchor="middle" font-size="10" font-family="Arial, sans-serif">138.1</text>
  <line x1="872.5" y1="466.86540878748474" x2="872.5" y2="467.0593538871426" stroke="black" stroke-width="1"/>
  <line x1="869.5" y1="466.86540878748474" x2="875.5" y2="466.86540878748474" stroke="black" stroke-width="1"/>
  <line x1="869.5" y1="467.0593538871426" x2="875.5" y2="467.0593538871426" stroke="black" stroke-width="1"/>
  <text x="860" y="500" text-anchor="middle" font-size="12" font-family="Arial, sans-serif" transform="rotate(-45 860 500)">znap</text>
  <rect x="897.5" y="471.63368374526914" width="20" height="8.36631625473087" fill="#4ECDC4" opacity="0.8"/>
  <text x="907.5" y="466.63368374526914" text-anchor="middle" font-size="10" font-family="Arial, sans-serif">88.6</text>
  <line x1="907.5" y1="471.5658600205148" x2="907.5" y2="471.7015074700235" stroke="black" stroke-width="1"/>
  <line x1="904.5" y1="471.5658600205148" x2="910.5" y2="471.5658600205148" stroke="black" stroke-width="1"/>
  <line x1="904.5" y1="471.7015074700235" x2="910.5" y2="471.7015074700235" stroke="black" stroke-width="1"/>
  <rect x="922.5" y="465.1185310419259" width="20" height="14.881468958074121" fill="#98D8C8" opacity="0.8"/>
  <text x="932.5" y="460.1185310419259" text-anchor="middle" font-size="10" font-family="Arial, sans-serif">157.7</text>
  <line x1="932.5" y1="464.99973962379136" x2="932.5" y2="465.23732246006045" stroke="black" stroke-width="1"/>
  <line x1="929.5" y1="464.99973962379136" x2="935.5" y2="464.99973962379136" stroke="black" stroke-width="1"/>
  <line x1="929.5" y1="465.23732246006045" x2="935.5" y2="465.23732246006045" stroke="black" stroke-width="1"/>
  <text x="920" y="500" text-anchor="middle" font-size="12" font-family="Arial, sans-serif" transform="rotate(-45 920 500)">oh-my-zsh</text>
  <rect x="957.5" y="476.45985087259487" width="20" height="3.5401491274051393" fill="#4ECDC4" opacity="0.8"/>
  <text x="967.5" y="471.45985087259487" text-anchor="middle" font-size="10" font-family="Arial, sans-serif">37.5</text>
  <line x1="967.5" y1="475.66781575781476" x2="967.5" y2="477.251885987375" stroke="black" stroke-width="1"/>
  <line x1="964.5" y1="475.66781575781476" x2="970.5" y2="475.66781575781476" stroke="black" stroke-width="1"/>
  <line x1="964.5" y1="477.251885987375" x2="970.5" y2="477.251885987375" stroke="black" stroke-width="1"/>
  <rect x="982.5" y="464.6267081509651" width="20" height="15.373291849034896" fill="#98D8C8" opacity="0.8"/>
  <text x="992.5" y="459.6267081509651" text-anchor="middle" font-size="10" font-family="Arial, sans-serif">162.9</text>
  <line x1="992.5" y1="464.5185896772973" x2="992.5" y2="464.7348266246329" stroke="black" stroke-width="1"/>
  <line x1="989.5" y1="464.5185896772973" x2="995.5" y2="464.5185896772973" stroke="black" stroke-width="1"/>
  <line x1="989.5" y1="464.7348266246329" x2="995.5" y2="464.7348266246329" stroke="black" stroke-width="1"/>
  <text x="980" y="500" text-anchor="middle" font-size="12" font-family="Arial, sans-serif" transform="rotate(-45 980 500)">antibody</text>
  <rect x="1017.5" y="474.1450157374936" width="20" height="5.854984262506378" fill="#4ECDC4" opacity="0.8"/>
  <text x="1027.5" y="469.1450157374936" text-anchor="middle" font-size="10" font-family="Arial, sans-serif">62.0</text>
  <line x1="1027.5" y1="472.7857624796833" x2="1027.5" y2="475.50426899530396" stroke="black" stroke-width="1"/>
  <line x1="1024.5" y1="472.7857624796833" x2="1030.5" y2="472.7857624796833" stroke="black" stroke-width="1"/>
  <line x1="1024.5" y1="475.50426899530396" x2="1030.5" y2="475.50426899530396" stroke="black" stroke-width="1"/>
  <rect x="1042.5" y="448.34520911867133" width="20" height="31.65479088132867" fill="#98D8C8" opacity="0.8"/>
  <text x="1052.5" y="443.34520911867133" text-anchor="middle" font-size="10" font-family="Arial, sans-serif">335.4</text>
  <line x1="1052.5" y1="448.21260800376086" x2="1052.5" y2="448.4778102335818" stroke="black" stroke-width="1"/>
  <line x1="1049.5" y1="448.21260800376086" x2="1055.5" y2="448.21260800376086" stroke="black" stroke-width="1"/>
  <line x1="1049.5" y1="448.4778102335818" x2="1055.5" y2="448.4778102335818" stroke="black" stroke-width="1"/>
  <text x="1040" y="500" text-anchor="middle" font-size="12" font-family="Arial, sans-serif" transform="rotate(-45 1040 500)">zpm</text>
  <rect x="1077.5" y="475.4646441350552" width="20" height="4.535355864944791" fill="#4ECDC4" opacity="0.8"/>
  <text x="1087.5" y="470.4646441350552" text-anchor="middle" font-size="10" font-family="Arial, sans-serif">48.1</text>
  <line x1="1087.5" y1="475.38821272574063" x2="1087.5" y2="475.5410755443698" stroke="black" stroke-width="1"/>
  <line x1="1084.5" y1="475.38821272574063" x2="1090.5" y2="475.38821272574063" stroke="black" stroke-width="1"/>
  <line x1="1084.5" y1="475.5410755443698" x2="1090.5" y2="475.5410755443698" stroke="black" stroke-width="1"/>
  <rect x="1102.5" y="446.0942375879848" width="20" height="33.90576241201519" fill="#98D8C8" opacity="0.8"/>
  <text x="1112.5" y="441.0942375879848" text-anchor="middle" font-size="10" font-family="Arial, sans-serif">359.3</text>
  <line x1="1112.5" y1="445.7633775142586" x2="1112.5" y2="446.42509766171105" stroke="black" stroke-width="1"/>
  <line x1="1109.5" y1="445.7633775142586" x2="1115.5" y2="445.7633775142586" stroke="black" stroke-width="1"/>
  <line x1="1109.5" y1="446.42509766171105" x2="1115.5" y2="446.42509766171105" stroke="black" stroke-width="1"/>
  <text x="1100" y="500" text-anchor="middle" font-size="12" font-family="Arial, sans-serif" transform="rotate(-45 1100 500)">zinit</text>
  <rect x="1137.5" y="468.1795476240651" width="20" height="11.820452375934888" fill="#4ECDC4" opacity="0.8"/>
  <text x="1147.5" y="463.1795476240651" text-anchor="middle" font-size="10" font-family="Arial, sans-serif">125.2</text>
  <line x1="1147.5" y1="467.98049558416227" x2="1147.5" y2="468.3785996639679" stroke="black" stroke-width="1"/>
  <line x1="1144.5" y1="467.98049558416227" x2="1150.5" y2="467.98049558416227" stroke="black" stroke-width="1"/>
  <line x1="1144.5" y1="468.3785996639679" x2="1150.5" y2="468.3785996639679" stroke="black" stroke-width="1"/>
  <rect x="1162.5" y="147.4111776216709" width="20" height="332.5888223783291" fill="#98D8C8" opacity="0.8"/>
  <text x="1172.5" y="142.4111776216709" text-anchor="middle" font-size="10" font-family="Arial, sans-serif">3524.0</text>
  <line x1="1172.5" y1="49.99999999999994" x2="1172.5" y2="244.82235524334186" stroke="black" stroke-width="1"/>
  <line x1="1169.5" y1="49.99999999999994" x2="1175.5" y2="49.99999999999994" stroke="black" stroke-width="1"/>
  <line x1="1169.5" y1="244.82235524334186" x2="1175.5" y2="244.82235524334186" stroke="black" stroke-width="1"/>
  <text x="1160" y="500" text-anchor="middle" font-size="12" font-family="Arial, sans-serif" transform="rotate(-45 1160 500)">zplug</text>
  <!-- Legend -->
  <rect x="1290" y="60" width="15" height="15" fill="#4ECDC4" opacity="0.8"/>
  <text x="1310" y="72" font-size="12" font-family="Arial, sans-serif">0 plugins</text>
  <rect x="1290" y="80" width="15" height="15" fill="#98D8C8" opacity="0.8"/>
  <text x="1310" y="92" font-size="12" font-family="Arial, sans-serif">25 plugins</text>
</svg>