<svg width="1200" height="800" xmlns="http://www.w3.org/2000/svg" style="background: white;">
  <text x="600" y="30" text-anchor="middle" font-size="20" font-weight="bold" font-family="Arial, sans-serif">Load Time Scalability (0 to 25 plugins)</text>
  
  <!-- Grid -->
  <line x1="80" y1="720" x2="1000" y2="720" stroke="#e0e0e0" stroke-width="1"/>
  <text x="70" y="725" text-anchor="end" font-size="12" font-family="Arial, sans-serif">0</text>
  <line x1="80" y1="610" x2="1000" y2="610" stroke="#e0e0e0" stroke-width="1"/>
  <text x="70" y="615" text-anchor="end" font-size="12" font-family="Arial, sans-serif">124</text>
  <line x1="80" y1="500" x2="1000" y2="500" stroke="#e0e0e0" stroke-width="1"/>
  <text x="70" y="505" text-anchor="end" font-size="12" font-family="Arial, sans-serif">248</text>
  <line x1="80" y1="390" x2="1000" y2="390" stroke="#e0e0e0" stroke-width="1"/>
  <text x="70" y="395" text-anchor="end" font-size="12" font-family="Arial, sans-serif">372</text>
  <line x1="80" y1="280" x2="1000" y2="280" stroke="#e0e0e0" stroke-width="1"/>
  <text x="70" y="285" text-anchor="end" font-size="12" font-family="Arial, sans-serif">496</text>
  <line x1="80" y1="170" x2="1000" y2="170" stroke="#e0e0e0" stroke-width="1"/>
  <text x="70" y="175" text-anchor="end" font-size="12" font-family="Arial, sans-serif">620</text>
  <line x1="80" y1="60" x2="1000" y2="60" stroke="#e0e0e0" stroke-width="1"/>
  <text x="70" y="65" text-anchor="end" font-size="12" font-family="Arial, sans-serif">744</text>
  <text x="80" y="740" text-anchor="middle" font-size="12" font-family="Arial, sans-serif">0</text>
  <text x="264" y="740" text-anchor="middle" font-size="12" font-family="Arial, sans-serif">5</text>
  <text x="448" y="740" text-anchor="middle" font-size="12" font-family="Arial, sans-serif">10</text>
  <text x="632" y="740" text-anchor="middle" font-size="12" font-family="Arial, sans-serif">15</text>
  <text x="816" y="740" text-anchor="middle" font-size="12" font-family="Arial, sans-serif">20</text>
  <text x="1000" y="740" text-anchor="middle" font-size="12" font-family="Arial, sans-serif">25</text>
  
  <!-- Axes -->
  <line x1="80" y1="60" x2="80" y2="720" stroke="black" stroke-width="2"/>
  <line x1="80" y1="720" x2="1000" y2="720" stroke="black" stroke-width="2"/>
  
  <!-- Labels -->
  <text x="20" y="400" text-anchor="middle" font-size="14" font-family="Arial, sans-serif" transform="rotate(-90 20 400)">Load Time (ms)</text>
  <text x="600" y="780" text-anchor="middle" font-size="14" font-family="Arial, sans-serif">Number of Plugins</text>
  <polyline points="80,689.07 1000,688.81" fill="none" stroke="#4ECDC4" stroke-width="2" opacity="0.8"/>
  <circle cx="80" cy="689.0678661092409" r="4" fill="#4ECDC4" opacity="0.8"/>
  <circle cx="1000" cy="688.8108880781409" r="4" fill="#4ECDC4" opacity="0.8"/>
  <polyline points="80,689.53 1000,686.75" fill="none" stroke="#98D8C8" stroke-width="2" opacity="0.8"/>
  <circle cx="80" cy="689.5261534306801" r="4" fill="#98D8C8" opacity="0.8"/>
  <circle cx="1000" cy="686.7539902475553" r="4" fill="#98D8C8" opacity="0.8"/>
  <polyline points="80,690.14 1000,630.18" fill="none" stroke="#6DD5ED" stroke-width="2" opacity="0.8"/>
  <circle cx="80" cy="690.1360767933884" r="4" fill="#6DD5ED" opacity="0.8"/>
  <circle cx="1000" cy="630.1839789832974" r="4" fill="#6DD5ED" opacity="0.8"/>
  <polyline points="80,689.68 1000,611.98" fill="none" stroke="#45B7D1" stroke-width="2" opacity="0.8"/>
  <circle cx="80" cy="689.6823002662751" r="4" fill="#45B7D1" opacity="0.8"/>
  <circle cx="1000" cy="611.9781135277992" r="4" fill="#45B7D1" opacity="0.8"/>
  <polyline points="80,690.50 1000,603.51" fill="none" stroke="#96CEB4" stroke-width="2" opacity="0.8"/>
  <circle cx="80" cy="690.5043055009492" r="4" fill="#96CEB4" opacity="0.8"/>
  <circle cx="1000" cy="603.5093248323493" r="4" fill="#96CEB4" opacity="0.8"/>
  <polyline points="80,686.61 1000,593.69" fill="none" stroke="#FFEAA7" stroke-width="2" opacity="0.8"/>
  <circle cx="80" cy="686.6107311740132" r="4" fill="#FFEAA7" opacity="0.8"/>
  <circle cx="1000" cy="593.6946170126306" r="4" fill="#FFEAA7" opacity="0.8"/>
  <polyline points="80,691.12 1000,592.27" fill="none" stroke="#DDA0DD" stroke-width="2" opacity="0.8"/>
  <circle cx="80" cy="691.1212990990284" r="4" fill="#DDA0DD" opacity="0.8"/>
  <circle cx="1000" cy="592.2720762401891" r="4" fill="#DDA0DD" opacity="0.8"/>
  <polyline points="80,689.27 1000,583.19" fill="none" stroke="#F8B195" stroke-width="2" opacity="0.8"/>
  <circle cx="80" cy="689.2695429396745" r="4" fill="#F8B195" opacity="0.8"/>
  <circle cx="1000" cy="583.1891224594452" r="4" fill="#F8B195" opacity="0.8"/>
  <polyline points="80,683.87 1000,577.60" fill="none" stroke="#F67280" stroke-width="2" opacity="0.8"/>
  <circle cx="80" cy="683.8677905371177" r="4" fill="#F67280" opacity="0.8"/>
  <circle cx="1000" cy="577.6023698293938" r="4" fill="#F67280" opacity="0.8"/>
  <polyline points="80,690.99 1000,568.05" fill="none" stroke="#C06C84" stroke-width="2" opacity="0.8"/>
  <circle cx="80" cy="690.9858618115678" r="4" fill="#C06C84" opacity="0.8"/>
  <circle cx="1000" cy="568.0541022713203" r="4" fill="#C06C84" opacity="0.8"/>
  <polyline points="80,616.61 1000,544.31" fill="none" stroke="#6C5CE7" stroke-width="2" opacity="0.8"/>
  <circle cx="80" cy="616.6115456742835" r="4" fill="#6C5CE7" opacity="0.8"/>
  <circle cx="1000" cy="544.3065019003717" r="4" fill="#6C5CE7" opacity="0.8"/>
  <polyline points="80,548.37 1000,510.68" fill="none" stroke="#A29BFE" stroke-width="2" opacity="0.8"/>
  <circle cx="80" cy="548.3719017934654" r="4" fill="#A29BFE" opacity="0.8"/>
  <circle cx="1000" cy="510.68238494997615" r="4" fill="#A29BFE" opacity="0.8"/>
  <polyline points="80,686.03 1000,472.73" fill="none" stroke="#74B9FF" stroke-width="2" opacity="0.8"/>
  <circle cx="80" cy="686.027868949666" r="4" fill="#74B9FF" opacity="0.8"/>
  <circle cx="1000" cy="472.7279973693847" r="4" fill="#74B9FF" opacity="0.8"/>
  <polyline points="80,675.29 1000,289.57" fill="none" stroke="#7BED9F" stroke-width="2" opacity="0.8"/>
  <circle cx="80" cy="675.2893290536178" r="4" fill="#7BED9F" opacity="0.8"/>
  <circle cx="1000" cy="289.56814987033033" r="4" fill="#7BED9F" opacity="0.8"/>
  <polyline points="80,661.89 1000,252.92" fill="none" stroke="#FFA502" stroke-width="2" opacity="0.8"/>
  <circle cx="80" cy="661.8864539310059" r="4" fill="#FFA502" opacity="0.8"/>
  <circle cx="1000" cy="252.91698952867193" r="4" fill="#FFA502" opacity="0.8"/>
  <polyline points="80,597.38 1000,120.00" fill="none" stroke="#FF6B81" stroke-width="2" opacity="0.8"/>
  <circle cx="80" cy="597.3785270244574" r="4" fill="#FF6B81" opacity="0.8"/>
  <circle cx="1000" cy="120" r="4" fill="#FF6B81" opacity="0.8"/>
  <rect x="1020" y="60" width="15" height="15" fill="#4ECDC4" opacity="0.8"/>
  <text x="1040" y="72" font-size="12" font-family="Arial, sans-serif">antigen</text>
  <rect x="1020" y="80" width="15" height="15" fill="#98D8C8" opacity="0.8"/>
  <text x="1040" y="92" font-size="12" font-family="Arial, sans-serif">antidote</text>
  <rect x="1020" y="100" width="15" height="15" fill="#6DD5ED" opacity="0.8"/>
  <text x="1040" y="112" font-size="12" font-family="Arial, sans-serif">znap</text>
  <rect x="1020" y="120" width="15" height="15" fill="#45B7D1" opacity="0.8"/>
  <text x="1040" y="132" font-size="12" font-family="Arial, sans-serif">zim</text>
  <rect x="1020" y="140" width="15" height="15" fill="#96CEB4" opacity="0.8"/>
  <text x="1040" y="152" font-size="12" font-family="Arial, sans-serif">zgenom</text>
  <rect x="1020" y="160" width="15" height="15" fill="#FFEAA7" opacity="0.8"/>
  <text x="1040" y="172" font-size="12" font-family="Arial, sans-serif">zcomet</text>
  <rect x="1020" y="180" width="15" height="15" fill="#DDA0DD" opacity="0.8"/>
  <text x="1040" y="192" font-size="12" font-family="Arial, sans-serif">antigen-hs</text>
  <rect x="1020" y="200" width="15" height="15" fill="#F8B195" opacity="0.8"/>
  <text x="1040" y="212" font-size="12" font-family="Arial, sans-serif">sheldon</text>
  <rect x="1020" y="220" width="15" height="15" fill="#F67280" opacity="0.8"/>
  <text x="1040" y="232" font-size="12" font-family="Arial, sans-serif">alf</text>
  <rect x="1020" y="240" width="15" height="15" fill="#C06C84" opacity="0.8"/>
  <text x="1040" y="252" font-size="12" font-family="Arial, sans-serif">zr</text>
  <rect x="1020" y="260" width="15" height="15" fill="#6C5CE7" opacity="0.8"/>
  <text x="1040" y="272" font-size="12" font-family="Arial, sans-serif">prezto</text>
  <rect x="1020" y="280" width="15" height="15" fill="#A29BFE" opacity="0.8"/>
  <text x="1040" y="292" font-size="12" font-family="Arial, sans-serif">oh-my-zsh</text>
  <rect x="1020" y="300" width="15" height="15" fill="#74B9FF" opacity="0.8"/>
  <text x="1040" y="312" font-size="12" font-family="Arial, sans-serif">antibody</text>
  <rect x="1020" y="320" width="15" height="15" fill="#7BED9F" opacity="0.8"/>
  <text x="1040" y="332" font-size="12" font-family="Arial, sans-serif">zinit</text>
  <rect x="1020" y="340" width="15" height="15" fill="#FFA502" opacity="0.8"/>
  <text x="1040" y="352" font-size="12" font-family="Arial, sans-serif">zpm</text>
  <rect x="1020" y="360" width="15" height="15" fill="#FF6B81" opacity="0.8"/>
  <text x="1040" y="372" font-size="12" font-family="Arial, sans-serif">zplug</text>
</svg>